<svg width="20" height="17" viewBox="0 0 20 17" fill="none" xmlns="http://www.w3.org/2000/svg">
<path d="M6.6854e-07 8.50101C6.96688e-07 8.17904 0.126424 7.87026 0.351457 7.64259C0.57649 7.41493 0.881699 7.28703 1.19994 7.28703L15.8992 7.28703L10.7475 2.076C10.5221 1.84794 10.3954 1.53862 10.3954 1.21609C10.3954 0.893564 10.5221 0.584247 10.7475 0.356186C10.9729 0.128124 11.2787 -4.3913e-07 11.5975 -4.11259e-07C11.9162 -3.83389e-07 12.222 0.128124 12.4474 0.356186L19.6471 7.6401C19.7589 7.75288 19.8477 7.88689 19.9083 8.03446C19.9688 8.18202 20 8.34022 20 8.5C20 8.65978 19.9688 8.81798 19.9083 8.96555C19.8477 9.11311 19.7589 9.24712 19.6471 9.35991L12.4474 16.6438C12.3358 16.7567 12.2033 16.8463 12.0574 16.9074C11.9116 16.9685 11.7553 17 11.5975 17C11.4396 17 11.2833 16.9685 11.1375 16.9074C10.9916 16.8463 10.8591 16.7567 10.7475 16.6438C10.6359 16.5309 10.5473 16.3968 10.4869 16.2493C10.4265 16.1017 10.3954 15.9436 10.3954 15.7839C10.3954 15.6242 10.4265 15.4661 10.4869 15.3185C10.5473 15.171 10.6359 15.0369 10.7475 14.924L15.8992 9.715L1.19994 9.715C0.881699 9.715 0.576489 9.58709 0.351456 9.35943C0.126423 9.13176 6.40393e-07 8.82298 6.6854e-07 8.50101Z" fill="#4F3D21"/>
</svg>
