<svg width="26" height="26" viewBox="0 0 26 26" fill="none" xmlns="http://www.w3.org/2000/svg">
<path d="M25 22.3684V13.5092C25 12.7953 24.8528 12.0889 24.5675 11.4329C24.2821 10.7769 23.8645 10.1851 23.34 9.69342L14.8373 1.72369C14.3417 1.25906 13.6843 1 13.0007 1C12.3171 1 11.6596 1.25906 11.164 1.72369L2.66 9.69342C2.13554 10.1851 1.71791 10.7769 1.43254 11.4329C1.14716 12.0889 0.999999 12.7953 1 13.5092V22.3684C1 23.0664 1.28095 23.7357 1.78105 24.2292C2.28115 24.7227 2.95942 25 3.66667 25H22.3333C23.0406 25 23.7189 24.7227 24.219 24.2292C24.719 23.7357 25 23.0664 25 22.3684Z" stroke="#4F3D21" stroke-width="2" stroke-linecap="round" stroke-linejoin="round"/>
</svg>
