<svg width="35" height="36" viewBox="0 0 35 36" fill="none" xmlns="http://www.w3.org/2000/svg">
<path d="M30 32C30 33.0609 29.5786 34.0783 28.8284 34.8284C28.0783 35.5786 27.0609 36 26 36H4C2.93913 36 1.92172 35.5786 1.17157 34.8284C0.421427 34.0783 0 33.0609 0 32V4C0 2.93913 0.421427 1.92172 1.17157 1.17157C1.92172 0.421427 2.93913 0 4 0L26 0C27.0609 0 28.0783 0.421427 28.8284 1.17157C29.5786 1.92172 30 2.93913 30 4V32Z" fill="#CCD6DD"/>
<path d="M26 24C26 24.2652 25.8946 24.5196 25.7071 24.7071C25.5196 24.8946 25.2652 25 25 25H5C4.73478 25 4.48043 24.8946 4.29289 24.7071C4.10536 24.5196 4 24.2652 4 24C4 23.7348 4.10536 23.4804 4.29289 23.2929C4.48043 23.1054 4.73478 23 5 23H25C25.2652 23 25.5196 23.1054 25.7071 23.2929C25.8946 23.4804 26 23.7348 26 24ZM10 28C10 28.2652 9.89464 28.5196 9.70711 28.7071C9.51957 28.8946 9.26522 29 9 29H5C4.73478 29 4.48043 28.8946 4.29289 28.7071C4.10536 28.5196 4 28.2652 4 28C4 27.7348 4.10536 27.4804 4.29289 27.2929C4.48043 27.1054 4.73478 27 5 27H9C9.26522 27 9.51957 27.1054 9.70711 27.2929C9.89464 27.4804 10 27.7348 10 28ZM26 8C26 8.26522 25.8946 8.51957 25.7071 8.70711C25.5196 8.89464 25.2652 9 25 9H5C4.73478 9 4.48043 8.89464 4.29289 8.70711C4.10536 8.51957 4 8.26522 4 8C4 7.73478 4.10536 7.48043 4.29289 7.29289C4.48043 7.10536 4.73478 7 5 7H25C25.2652 7 25.5196 7.10536 25.7071 7.29289C25.8946 7.48043 26 7.73478 26 8ZM26 12C26 12.2652 25.8946 12.5196 25.7071 12.7071C25.5196 12.8946 25.2652 13 25 13H5C4.73478 13 4.48043 12.8946 4.29289 12.7071C4.10536 12.5196 4 12.2652 4 12C4 11.7348 4.10536 11.4804 4.29289 11.2929C4.48043 11.1054 4.73478 11 5 11H25C25.2652 11 25.5196 11.1054 25.7071 11.2929C25.8946 11.4804 26 11.7348 26 12ZM26 16C26 16.2652 25.8946 16.5196 25.7071 16.7071C25.5196 16.8946 25.2652 17 25 17H5C4.73478 17 4.48043 16.8946 4.29289 16.7071C4.10536 16.5196 4 16.2652 4 16C4 15.7348 4.10536 15.4804 4.29289 15.2929C4.48043 15.1054 4.73478 15 5 15H25C25.2652 15 25.5196 15.1054 25.7071 15.2929C25.8946 15.4804 26 15.7348 26 16ZM26 20C26 20.2652 25.8946 20.5196 25.7071 20.7071C25.5196 20.8946 25.2652 21 25 21H5C4.73478 21 4.48043 20.8946 4.29289 20.7071C4.10536 20.5196 4 20.2652 4 20C4 19.7348 4.10536 19.4804 4.29289 19.2929C4.48043 19.1054 4.73478 19 5 19H25C25.2652 19 25.5196 19.1054 25.7071 19.2929C25.8946 19.4804 26 19.7348 26 20Z" fill="#99AAB5"/>
<path d="M29.9998 6.27208C29.1728 5.73708 28.1628 5.69308 27.4788 6.24908L26.6868 6.89508L25.2028 8.10608L25.1028 8.18608L22.7268 10.1241L10.8488 19.8101C10.4118 20.1671 10.0558 21.0291 9.67581 21.8841C9.29781 22.7341 8.70681 24.7361 8.23281 26.2751C8.08481 26.5251 7.16781 28.1211 7.68181 28.7281C8.20181 29.3431 10.0078 28.7381 10.2498 28.6521C11.8758 28.4781 13.9808 28.2791 14.8978 28.0721C15.8218 27.8611 16.7518 27.6771 17.1888 27.3201C17.1968 27.3141 17.1988 27.3021 17.2058 27.2971L29.0638 17.6311L29.8558 16.9851L29.9998 16.8671V6.27208Z" fill="#66757F"/>
<path d="M17.1448 22.5262C17.1448 22.5262 15.8708 20.6452 15.0278 19.9732C14.3558 19.1302 12.4788 17.8572 12.4788 17.8572C12.0308 17.4112 11.2878 17.3772 10.8498 17.8142C10.4128 18.2522 10.0568 19.1802 9.67676 20.1052C9.20476 21.2512 8.40076 24.2592 7.90876 25.8572C7.82576 26.1292 8.42576 25.4072 8.41176 25.6472C8.40176 25.8342 8.43876 26.0412 8.48576 26.2282L8.33976 26.3872L8.54776 26.4542C8.57276 26.5362 8.59776 26.6082 8.61576 26.6642L8.77476 26.5182C8.96176 26.5652 9.16876 26.6022 9.35476 26.5922C9.59476 26.5782 8.87176 27.1792 9.14476 27.0952C10.7428 26.6022 13.7518 25.7992 14.8968 25.3272C15.8208 24.9462 16.7508 24.5912 17.1878 24.1532C17.6268 23.7182 17.5938 22.9752 17.1448 22.5262Z" fill="#D99E82"/>
<path d="M24.3118 4.35102C24.1035 4.55889 23.9383 4.80579 23.8255 5.07759C23.7128 5.3494 23.6548 5.64076 23.6548 5.93502C23.6548 6.22927 23.7128 6.52064 23.8255 6.79244C23.9383 7.06424 24.1035 7.31114 24.3118 7.51902L27.4788 10.687C27.8991 11.1067 28.4688 11.3424 29.0628 11.3424C29.6567 11.3424 30.2264 11.1067 30.6468 10.687L33.8158 7.51902C34.2354 7.09867 34.4711 6.52898 34.4711 5.93502C34.4711 5.34105 34.2354 4.77136 33.8158 4.35102L30.6468 1.18302C30.4388 0.97499 30.1918 0.809972 29.92 0.697387C29.6483 0.584802 29.357 0.526855 29.0628 0.526855C28.7686 0.526855 28.4773 0.584802 28.2055 0.697387C27.9337 0.809972 27.6868 0.97499 27.4788 1.18302L24.3118 4.35102Z" fill="#EA596E"/>
<path d="M10.8491 17.815L14.0191 20.985L17.1841 24.151L29.0651 12.272L22.7281 5.93604L10.8491 17.815Z" fill="#FFCC4D"/>
<path d="M10.2978 26.742C10.2978 26.742 8.23782 27.875 7.68182 27.318C7.12482 26.76 8.26282 24.707 8.26282 24.707C8.26282 24.707 10.2138 24.743 10.2978 26.742Z" fill="#292F33"/>
<path d="M22.728 5.9351L26.688 1.9751L33.024 8.3121L29.064 12.2721L22.728 5.9351Z" fill="#CCD6DD"/>
<path d="M25.103 3.55811L25.895 2.76611L32.231 9.10111L31.439 9.89311L25.103 3.55811ZM23.52 5.14211L24.311 4.35111L30.647 10.6861L29.855 11.4781L23.52 5.14211Z" fill="#99AAB5"/>
</svg>
