<svg width="38" height="38" viewBox="0 0 38 38" fill="none" xmlns="http://www.w3.org/2000/svg">
<path d="M35.7811 2.34947L35.6546 2.22181C35.3279 1.89406 34.9398 1.634 34.5124 1.45656C34.085 1.27911 33.6269 1.18777 33.1641 1.18777C32.7014 1.18777 32.2432 1.27911 31.8158 1.45656C31.3884 1.634 31.0003 1.89406 30.6736 2.22181L24.7041 8.21038C18.7618 4.51547 10.8596 5.24934 5.7005 10.4245C-0.317752 16.4629 -0.316564 26.2491 5.7005 32.284C11.7182 38.3212 21.4735 38.3224 27.4929 32.284C32.6116 27.1504 33.3722 19.3052 29.7854 13.3606L35.7811 7.34528C36.4416 6.68177 36.8124 5.78363 36.8124 4.84738C36.8124 3.91112 36.4416 3.01299 35.7811 2.34947ZM23.8324 25.3608C21.4004 30.7681 15.7177 33.4703 11.1404 31.3957C6.55965 29.32 4.81937 23.2524 7.24959 17.8452C9.681 12.4355 15.3626 9.73453 19.9416 11.8091C24.52 13.8837 26.2621 19.9524 23.8324 25.3608ZM33.0183 7.20872C32.4319 7.20746 31.8699 6.97344 31.4558 6.55806C31.0418 6.14268 30.8096 5.57993 30.8102 4.99344C30.8102 3.77091 31.7994 2.77935 33.0183 2.77935C34.2373 2.77935 35.2265 3.77091 35.2265 4.99344C35.2271 5.57993 34.9949 6.14268 34.5809 6.55806C34.1668 6.97344 33.6048 7.20746 33.0183 7.20872Z" fill="#C8C8C8"/>
</svg>
