<svg width="38" height="38" viewBox="0 0 38 38" fill="none" xmlns="http://www.w3.org/2000/svg">
<path d="M35.8032 2.37501L35.625 2.19689C34.2594 0.831262 32.0032 0.831262 30.6375 2.19689L24.7 8.19376C18.7625 4.51251 10.8657 5.22501 5.70005 10.3906C-0.296826 16.4469 -0.296826 26.2438 5.70005 32.2406C11.6969 38.2969 21.4938 38.2969 27.4907 32.2406C32.5969 27.1344 33.3688 19.2375 29.8063 13.3L35.8032 7.30314C37.1688 5.93751 37.1688 3.74064 35.8032 2.37501ZM33.0125 7.18439C31.7657 7.18439 30.8157 6.17501 30.8157 4.98751C30.8157 3.74064 31.825 2.79064 33.0125 2.79064C34.2 2.79064 35.2094 3.80001 35.2094 4.98751C35.2094 6.23439 34.2594 7.18439 33.0125 7.18439Z" fill="#4F3D21"/>
<path d="M7.24384 17.8719C4.80946 23.275 6.53134 29.3312 11.1626 31.4094C15.7345 33.4875 21.4345 30.7562 23.8688 25.3531C26.3032 19.95 24.5813 13.8937 19.9501 11.8156C15.3782 9.73749 9.67821 12.4094 7.24384 17.8719Z" fill="white"/>
<path d="M13.6562 26.125C16.2796 26.125 18.4062 23.9984 18.4062 21.375C18.4062 18.7516 16.2796 16.625 13.6562 16.625C11.0329 16.625 8.90625 18.7516 8.90625 21.375C8.90625 23.9984 11.0329 26.125 13.6562 26.125Z" fill="#F8B551"/>
</svg>
