<svg width="33" height="36" viewBox="0 0 33 36" fill="none" xmlns="http://www.w3.org/2000/svg">
<g filter="url(#filter0_d_1113_764)">
<path d="M25.5 31C24.25 31 23.1875 30.5625 22.3125 29.6875C21.4375 28.8125 21 27.75 21 26.5C21 26.325 21.0125 26.1435 21.0375 25.9555C21.0625 25.7675 21.1 25.599 21.15 25.45L10.575 19.3C10.15 19.675 9.675 19.969 9.15 20.182C8.625 20.395 8.075 20.501 7.5 20.5C6.25 20.5 5.1875 20.0625 4.3125 19.1875C3.4375 18.3125 3 17.25 3 16C3 14.75 3.4375 13.6875 4.3125 12.8125C5.1875 11.9375 6.25 11.5 7.5 11.5C8.075 11.5 8.625 11.6065 9.15 11.8195C9.675 12.0325 10.15 12.326 10.575 12.7L21.15 6.55C21.1 6.4 21.0625 6.2315 21.0375 6.0445C21.0125 5.8575 21 5.676 21 5.5C21 4.25 21.4375 3.1875 22.3125 2.3125C23.1875 1.4375 24.25 1 25.5 1C26.75 1 27.8125 1.4375 28.6875 2.3125C29.5625 3.1875 30 4.25 30 5.5C30 6.75 29.5625 7.8125 28.6875 8.6875C27.8125 9.5625 26.75 10 25.5 10C24.925 10 24.375 9.894 23.85 9.682C23.325 9.47 22.85 9.176 22.425 8.8L11.85 14.95C11.9 15.1 11.9375 15.269 11.9625 15.457C11.9875 15.645 12 15.826 12 16C12 16.175 11.9875 16.3565 11.9625 16.5445C11.9375 16.7325 11.9 16.901 11.85 17.05L22.425 23.2C22.85 22.825 23.325 22.5315 23.85 22.3195C24.375 22.1075 24.925 22.001 25.5 22C26.75 22 27.8125 22.4375 28.6875 23.3125C29.5625 24.1875 30 25.25 30 26.5C30 27.75 29.5625 28.8125 28.6875 29.6875C27.8125 30.5625 26.75 31 25.5 31Z" fill="#4F3D21"/>
<path d="M25.4998 21.9H25.5C26.7762 21.9 27.8642 22.3478 28.7582 23.2418C29.6522 24.1358 30.1 25.2238 30.1 26.5C30.1 27.7762 29.6522 28.8642 28.7582 29.7582C27.8642 30.6522 26.7762 31.1 25.5 31.1C24.2238 31.1 23.1358 30.6522 22.2418 29.7582C21.3478 28.8642 20.9 27.7762 20.9 26.5C20.9 26.3202 20.9128 26.1343 20.9384 25.9423C20.9599 25.7808 20.9905 25.632 21.0306 25.4962L10.5866 19.4224C10.1672 19.7823 9.7007 20.0665 9.18759 20.2747C8.65042 20.4926 8.08757 20.601 7.49983 20.6M25.4998 21.9L7.5 20.5M25.4998 21.9C24.9123 21.901 24.3496 22.0099 23.8126 22.2268C23.2994 22.434 22.8329 22.7177 22.4134 23.0776L11.9694 17.0038C12.0095 16.868 12.0401 16.7192 12.0616 16.5577C12.0872 16.3657 12.1 16.1798 12.1 16C12.1 15.8212 12.0872 15.6358 12.0616 15.4438C12.0401 15.2821 12.0094 15.1328 11.9693 14.9963L22.4133 8.92249C22.8328 9.28332 23.2993 9.56748 23.8126 9.77473C24.3496 9.99161 24.9124 10.1 25.5 10.1C26.7762 10.1 27.8642 9.65218 28.7582 8.75821C29.6522 7.86424 30.1 6.77622 30.1 5.5C30.1 4.22378 29.6522 3.13576 28.7582 2.24179C27.8642 1.34782 26.7762 0.9 25.5 0.9C24.2238 0.9 23.1358 1.34782 22.2418 2.24179C21.3478 3.13576 20.9 4.22378 20.9 5.5C20.9 5.68074 20.9128 5.86667 20.9384 6.05775C20.9599 6.21863 20.9906 6.36738 21.0307 6.5037M25.4998 21.9L21.0307 6.5037M7.49983 20.6L7.5 20.5M7.49983 20.6C7.49988 20.6 7.49994 20.6 7.5 20.6V20.5M7.49983 20.6C6.22368 20.6 5.13572 20.1521 4.24179 19.2582C3.34782 18.3642 2.9 17.2762 2.9 16C2.9 14.7238 3.34782 13.6358 4.24179 12.7418C5.13576 11.8478 6.22378 11.4 7.5 11.4C8.08769 11.4 8.65047 11.5089 9.18759 11.7268C9.70066 11.935 10.1671 12.2187 10.5865 12.5776M7.5 20.5C6.25 20.5 5.1875 20.0625 4.3125 19.1875C3.4375 18.3125 3 17.25 3 16C3 14.75 3.4375 13.6875 4.3125 12.8125C5.1875 11.9375 6.25 11.5 7.5 11.5C8.075 11.5 8.625 11.6065 9.15 11.8195C9.675 12.0325 10.15 12.326 10.575 12.7M10.5865 12.5776L10.5247 12.6136L10.575 12.7M10.5865 12.5776L21.0307 6.5037M10.5865 12.5776C10.6048 12.5932 10.623 12.609 10.6411 12.6249L10.575 12.7M10.575 12.7L21.0307 6.5037" stroke="#4F3D21" stroke-width="0.2"/>
</g>
<defs>
<filter id="filter0_d_1113_764" x="0.800049" y="0.799988" width="31.3999" height="34.4" filterUnits="userSpaceOnUse" color-interpolation-filters="sRGB">
<feFlood flood-opacity="0" result="BackgroundImageFix"/>
<feColorMatrix in="SourceAlpha" type="matrix" values="0 0 0 0 0 0 0 0 0 0 0 0 0 0 0 0 0 0 127 0" result="hardAlpha"/>
<feOffset dy="2"/>
<feGaussianBlur stdDeviation="1"/>
<feComposite in2="hardAlpha" operator="out"/>
<feColorMatrix type="matrix" values="0 0 0 0 0 0 0 0 0 0 0 0 0 0 0 0 0 0 0.25 0"/>
<feBlend mode="normal" in2="BackgroundImageFix" result="effect1_dropShadow_1113_764"/>
<feBlend mode="normal" in="SourceGraphic" in2="effect1_dropShadow_1113_764" result="shape"/>
</filter>
</defs>
</svg>
