<svg width="29" height="32" viewBox="0 0 29 32" fill="none" xmlns="http://www.w3.org/2000/svg">
<path d="M23.4998 21.9H23.5C24.7762 21.9 25.8642 22.3478 26.7582 23.2418C27.6522 24.1358 28.1 25.2238 28.1 26.5C28.1 27.7762 27.6522 28.8642 26.7582 29.7582C25.8642 30.6522 24.7762 31.1 23.5 31.1C22.2238 31.1 21.1358 30.6522 20.2418 29.7582C19.3478 28.8642 18.9 27.7762 18.9 26.5C18.9 26.3202 18.9128 26.1343 18.9384 25.9423C18.9599 25.7808 18.9905 25.632 19.0306 25.4962L8.58662 19.4224C8.16716 19.7823 7.7007 20.0665 7.18759 20.2747C6.65042 20.4926 6.08757 20.601 5.49983 20.6M23.4998 21.9L5.5 20.5M23.4998 21.9C22.9123 21.901 22.3496 22.0099 21.8126 22.2268C21.2994 22.434 20.8329 22.7177 20.4134 23.0776L9.9694 17.0038C10.0095 16.868 10.0401 16.7192 10.0616 16.5577C10.0872 16.3657 10.1 16.1798 10.1 16C10.1 15.8212 10.0872 15.6358 10.0616 15.4438C10.0401 15.2821 10.0094 15.1328 9.96929 14.9963L20.4133 8.92249C20.8328 9.28332 21.2993 9.56748 21.8126 9.77473C22.3496 9.99161 22.9124 10.1 23.5 10.1C24.7762 10.1 25.8642 9.65218 26.7582 8.75821C27.6522 7.86424 28.1 6.77622 28.1 5.5C28.1 4.22378 27.6522 3.13576 26.7582 2.24179C25.8642 1.34782 24.7762 0.9 23.5 0.9C22.2238 0.9 21.1358 1.34782 20.2418 2.24179C19.3478 3.13576 18.9 4.22378 18.9 5.5C18.9 5.68073 18.9128 5.86667 18.9384 6.05775C18.9599 6.21863 18.9906 6.36738 19.0307 6.5037M23.4998 21.9L19.0307 6.5037M5.49983 20.6L5.5 20.5M5.49983 20.6C5.49988 20.6 5.49994 20.6 5.5 20.6V20.5M5.49983 20.6C4.22368 20.6 3.13572 20.1521 2.24179 19.2582C1.34782 18.3642 0.9 17.2762 0.9 16C0.9 14.7238 1.34782 13.6358 2.24179 12.7418C3.13576 11.8478 4.22378 11.4 5.5 11.4C6.08769 11.4 6.65047 11.5089 7.18759 11.7268C7.70066 11.935 8.16709 12.2187 8.58654 12.5776M5.5 20.5C4.25 20.5 3.1875 20.0625 2.3125 19.1875C1.4375 18.3125 1 17.25 1 16C1 14.75 1.4375 13.6875 2.3125 12.8125C3.1875 11.9375 4.25 11.5 5.5 11.5C6.075 11.5 6.625 11.6065 7.15 11.8195C7.675 12.0325 8.15 12.326 8.575 12.7M8.58654 12.5776L8.52473 12.6136L8.575 12.7M8.58654 12.5776L19.0307 6.5037M8.58654 12.5776C8.6048 12.5932 8.62298 12.609 8.64106 12.6249L8.575 12.7M8.575 12.7L19.0307 6.5037" fill="#4F3D21" stroke="#4F3D21" stroke-width="0.2"/>
</svg>
