<svg width="15" height="4" viewBox="0 0 15 4" fill="none" xmlns="http://www.w3.org/2000/svg">
<path d="M8.92857 1.695C8.92857 1.95724 8.84479 2.21358 8.68781 2.43161C8.53084 2.64965 8.30773 2.81959 8.04669 2.91994C7.78565 3.02029 7.49842 3.04655 7.2213 2.99539C6.94418 2.94423 6.68964 2.81796 6.48985 2.63253C6.29006 2.44711 6.154 2.21086 6.09888 1.95367C6.04376 1.69647 6.07205 1.42989 6.18017 1.18762C6.2883 0.945348 6.4714 0.738277 6.70633 0.592589C6.94126 0.446901 7.21746 0.369141 7.5 0.369141C7.87888 0.369141 8.24224 0.50883 8.51015 0.757477C8.77806 1.00612 8.92857 1.34336 8.92857 1.695ZM1.42857 0.369141C1.14603 0.369141 0.869828 0.446901 0.634901 0.592589C0.399973 0.738277 0.216869 0.945348 0.108744 1.18762C0.000618973 1.42989 -0.0276715 1.69647 0.0274502 1.95367C0.082572 2.21086 0.21863 2.44711 0.41842 2.63253C0.618209 2.81796 0.872756 2.94423 1.14987 2.99539C1.42699 3.04655 1.71423 3.02029 1.97526 2.91994C2.2363 2.81959 2.45941 2.64965 2.61639 2.43161C2.77336 2.21358 2.85714 1.95724 2.85714 1.695C2.85714 1.34336 2.70663 1.00612 2.43872 0.757477C2.17082 0.50883 1.80745 0.369141 1.42857 0.369141ZM13.5714 0.369141C13.2889 0.369141 13.0127 0.446901 12.7778 0.592589C12.5428 0.738277 12.3597 0.945348 12.2516 1.18762C12.1435 1.42989 12.1152 1.69647 12.1703 1.95367C12.2254 2.21086 12.3615 2.44711 12.5613 2.63253C12.7611 2.81796 13.0156 2.94423 13.2927 2.99539C13.5698 3.04655 13.8571 3.02029 14.1181 2.91994C14.3792 2.81959 14.6023 2.64965 14.7592 2.43161C14.9162 2.21358 15 1.95724 15 1.695C15 1.34336 14.8495 1.00612 14.5816 0.757477C14.3137 0.50883 13.9503 0.369141 13.5714 0.369141Z" fill="#6F6F6F"/>
</svg>
