<svg width="21" height="18" viewBox="0 0 21 18" fill="none" xmlns="http://www.w3.org/2000/svg">
<path d="M2.34725 1L18.3472 17M14.8472 13.756C13.4942 14.485 11.9653 15 10.3472 15C6.81725 15 3.71325 12.548 1.93425 10.779C1.46425 10.312 1.22925 10.079 1.08025 9.62C0.97325 9.293 0.97325 8.707 1.08025 8.38C1.23025 7.921 1.46525 7.687 1.93525 7.22C2.83225 6.328 4.06525 5.264 5.51925 4.427M17.8472 11.634C18.1802 11.341 18.4853 11.052 18.7593 10.78L18.7623 10.777C19.2303 10.311 19.4653 10.077 19.6143 9.621C19.7213 9.294 19.7213 8.707 19.6143 8.38C19.4643 7.922 19.2303 7.688 18.7603 7.221C16.9803 5.452 13.8772 3 10.3472 3C10.0092 3 9.67625 3.022 9.34725 3.064M11.6702 10.5C11.2829 10.842 10.7782 11.0209 10.262 10.999C9.74568 10.9772 9.25789 10.7564 8.9008 10.3829C8.54372 10.0094 8.34505 9.51219 8.34644 8.99546C8.34783 8.47872 8.54916 7.98258 8.90825 7.611" stroke="black" stroke-width="2" stroke-linecap="round" stroke-linejoin="round"/>
</svg>
