<svg width="38" height="30" viewBox="0 0 38 30" fill="none" xmlns="http://www.w3.org/2000/svg">
<path fill-rule="evenodd" clip-rule="evenodd" d="M0 2.36842C0 1.06038 1.06332 0 2.375 0H35.625C36.9367 0 38 1.06038 38 2.36842C38 3.67646 36.9367 4.73684 35.625 4.73684H2.375C1.06332 4.73684 0 3.67646 0 2.36842ZM0 15C0 13.692 1.06332 12.6316 2.375 12.6316H35.625C36.9367 12.6316 38 13.692 38 15C38 16.308 36.9367 17.3684 35.625 17.3684H2.375C1.06332 17.3684 0 16.308 0 15ZM0 27.6316C0 26.3235 1.06332 25.2632 2.375 25.2632H35.625C36.9367 25.2632 38 26.3235 38 27.6316C38 28.9396 36.9367 30 35.625 30H2.375C1.06332 30 0 28.9396 0 27.6316Z" fill="black"/>
</svg>
