<svg width="41" height="38" viewBox="0 0 41 38" fill="none" xmlns="http://www.w3.org/2000/svg">
<path fill-rule="evenodd" clip-rule="evenodd" d="M40.1994 17.0807C41.2669 18.1407 41.2669 19.8593 40.1994 20.9193L23.7994 37.205C22.732 38.265 21.0013 38.265 19.9339 37.205C18.8665 36.145 18.8665 34.4264 19.9339 33.3664L31.6678 21.7143L2.73333 21.7143C1.22376 21.7143 -1.13446e-06 20.4991 -1.06893e-06 19C-1.00341e-06 17.5009 1.22376 16.2857 2.73333 16.2857L31.6678 16.2857L19.9339 4.63357C18.8665 3.57358 18.8665 1.85499 19.9339 0.794995C21.0013 -0.265 22.732 -0.264999 23.7994 0.794995L40.1994 17.0807Z" fill="black"/>
</svg>
