<svg width="28" height="28" viewBox="0 0 28 28" fill="none" xmlns="http://www.w3.org/2000/svg">
<path d="M26 26L18 18M2 11.3333C2 12.559 2.24141 13.7727 2.71046 14.905C3.1795 16.0374 3.86699 17.0663 4.73367 17.933C5.60035 18.7997 6.62925 19.4872 7.76162 19.9562C8.89399 20.4253 10.1077 20.6667 11.3333 20.6667C12.559 20.6667 13.7727 20.4253 14.905 19.9562C16.0374 19.4872 17.0663 18.7997 17.933 17.933C18.7997 17.0663 19.4872 16.0374 19.9562 14.905C20.4253 13.7727 20.6667 12.559 20.6667 11.3333C20.6667 10.1077 20.4253 8.89399 19.9562 7.76162C19.4872 6.62925 18.7997 5.60035 17.933 4.73367C17.0663 3.86699 16.0374 3.1795 14.905 2.71046C13.7727 2.24141 12.559 2 11.3333 2C10.1077 2 8.89399 2.24141 7.76162 2.71046C6.62925 3.1795 5.60035 3.86699 4.73367 4.73367C3.86699 5.60035 3.1795 6.62925 2.71046 7.76162C2.24141 8.89399 2 10.1077 2 11.3333Z" stroke="#4F3D21" stroke-width="3" stroke-linecap="round" stroke-linejoin="round"/>
</svg>
