<?xml version="1.0" encoding="utf-8"?>
<!-- Generator: Adobe Illustrator 27.6.1, SVG Export Plug-In . SVG Version: 6.00 Build 0)  -->
<svg version="1.1" id="Layer_1" xmlns="http://www.w3.org/2000/svg" xmlns:xlink="http://www.w3.org/1999/xlink" x="0px" y="0px"
	 viewBox="0 0 28 28" style="enable-background:new 0 0 28 28;" xml:space="preserve">
<style type="text/css">
	.st0{fill:none;stroke:#000000;stroke-width:3;stroke-linecap:round;stroke-linejoin:round;}
</style>
<path class="st0" d="M26,26l-8-8 M2,11.3c0,1.2,0.2,2.4,0.7,3.6c0.5,1.1,1.2,2.2,2,3c0.9,0.9,1.9,1.6,3,2c1.1,0.5,2.3,0.7,3.6,0.7
	c1.2,0,2.4-0.2,3.6-0.7c1.1-0.5,2.2-1.2,3-2c0.9-0.9,1.6-1.9,2-3c0.5-1.1,0.7-2.3,0.7-3.6c0-1.2-0.2-2.4-0.7-3.6
	c-0.5-1.1-1.2-2.2-2-3c-0.9-0.9-1.9-1.6-3-2C13.8,2.2,12.6,2,11.3,2c-1.2,0-2.4,0.2-3.6,0.7c-1.1,0.5-2.2,1.2-3,2s-1.6,1.9-2,3
	C2.2,8.9,2,10.1,2,11.3z"/>
</svg>
