<?xml version="1.0" encoding="UTF-8"?><svg id="Layer_2" xmlns="http://www.w3.org/2000/svg" viewBox="0 0 315.6 91.59"><defs><style>.cls-1{fill:#f8b551;}.cls-2{fill:#fbd26a;}.cls-3{fill:#fff6df;}.cls-4{fill:#4f3d21;}</style></defs><g id="Graphic_Elements"><path class="cls-4" d="m183.53,29.07c-.27-.22-.77-.35-1.37-.35h-6.28v-10.31c0-.67-.12-1.09-.4-1.37-.27-.2-.77-.32-1.37-.32h-9.56c-.67,0-1.09.12-1.37.32-.27.27-.4.7-.4,1.37v35.07c0,.67.12,1.14.4,1.37.27.25.69.32,1.37.32h9.56c.6,0,1.09-.07,1.37-.32.27-.22.4-.7.4-1.37v-13.44h6.28c.6,0,1.09-.07,1.37-.35.27-.2.4-.7.4-1.37v-7.92c0-.67-.12-1.07-.4-1.34Zm.2,42.27c-.15-.27-.35-.47-.47-.62-.27-.12-.5-.27-.7-.27-.27-.05-.4-.05-.55-.05-3-.27-8.94.42-15.35-1.64-2.38-.79-4.35-1.91-5.99-3.2-1.64-1.24-2.93-2.66-3.75-4.3-.89-1.59-1.29-3.2-1.29-4.92,0-.47-.15-.89-.27-1.24-.27-.25-.7-.47-1.37-.47h-9.34c-.7,0-1.17.22-1.32.47-.27.35-.32.77-.32,1.24,0,1.71-.5,3.33-1.32,4.92-.87,1.64-2.11,3.05-3.75,4.3-1.61,1.29-3.58,2.48-5.91,3.2-4.45,1.34-8.2,1.37-11.2,1.64-.12,0-.35,0-.55.05-.27,0-.47.15-.62.27-.25.15-.4.35-.52.62-.15.27-.22.62-.22,1.17v7c0,.5.07.89.27,1.17.15.27.35.47.62.62.2.07.47.12.75.2h.62c3.13-.12,7.3,0,11.87-1.17,2.61-.65,4.97-1.61,7.15-2.58,2.04-1.09,3.9-2.19,5.46-3.4,1.49-1.29,2.66-2.53,3.6-3.75.89,1.22,2.11,2.46,3.68,3.75,1.51,1.22,3.35,2.31,5.54,3.4,2.04.97,4.4,1.94,7.15,2.58,5.96,1.42,12.89,1.04,16.02,1.17h.7c.2-.07.47-.12.75-.2.2-.15.42-.35.62-.62.12-.27.2-.67.2-1.17v-7c0-.55-.07-.89-.2-1.17Zm-28.24-54.29c-.27-.2-.75-.32-1.37-.32h-33.4c-.7,0-1.09.12-1.37.32-.27.27-.42.7-.42,1.37v23.94c0,2.86.62,4.97,1.86,6.21,1.22,1.29,3.05,1.91,5.51,1.91h22.23c2.46,0,4.3-.62,5.51-1.91,1.24-1.24,1.86-3.35,1.86-6.21v-23.94c0-.67-.15-1.09-.42-1.37Zm-12.07,20.54c0,.87-.12,1.42-.4,1.69-.27.35-.82.5-1.56.5h-8.07c-.79,0-1.29-.15-1.56-.5-.27-.27-.4-.82-.4-1.69v-10.51h11.99v10.51Z"/><path class="cls-4" d="m245.22,17.05c-.25-.2-.74-.32-1.34-.32h-9.56c-.67,0-1.09.12-1.37.32-.27.27-.4.7-.4,1.37v61.71c0,.7.12,1.09.4,1.37.27.2.7.35,1.37.35h9.56c.6,0,1.09-.15,1.34-.35.27-.27.42-.67.42-1.37V18.41c0-.67-.15-1.09-.42-1.37Zm-44.58,19.92c.4-2.46,1.02-4.42,1.76-5.79.7-1.29,1.49-2.19,2.38-2.61.82-.4,1.56-.6,2.33-.6.67,0,1.49.2,2.38.6.82.42,1.56,1.32,2.31,2.61.7,1.37,1.29,3.33,1.84,5.79.35,2.11.6,4.77.67,8h12.72c-.05-3.95-.4-7.52-.97-10.78-.74-3.7-1.91-6.9-3.4-9.49-1.64-2.58-3.7-4.57-6.21-5.94-2.61-1.37-5.66-2.04-9.34-2.04s-6.83.67-9.36,2.04c-2.58,1.37-4.62,3.35-6.13,5.94-1.64,2.58-2.73,5.79-3.4,9.49-.65,3.25-.99,6.83-1.04,10.78h12.71c.05-3.23.3-5.89.75-8Zm13.01,20.04c-.55,2.53-1.14,4.45-1.84,5.74-.75,1.37-1.49,2.26-2.31,2.66-.89.42-1.71.62-2.38.62-.77,0-1.52-.2-2.33-.62-.89-.4-1.69-1.29-2.38-2.66-.75-1.29-1.37-3.2-1.76-5.74-.4-1.79-.62-4.07-.72-6.85h-12.71c.1,3.53.45,6.75,1.02,9.59.67,3.82,1.76,6.95,3.4,9.56,1.51,2.58,3.55,4.57,6.13,5.94,2.53,1.34,5.66,2.04,9.36,2.04s6.73-.7,9.34-2.04c2.51-1.37,4.57-3.35,6.21-5.94,1.49-2.61,2.66-5.74,3.4-9.56.52-2.83.84-6.06.94-9.59h-12.72c-.1,2.78-.32,5.07-.65,6.85Z"/><path class="cls-4" d="m311.18,39.28c-.22-.2-.62-.32-1.24-.47-3-.27-5.66-.87-7.9-1.84-2.34-.89-4.3-2.04-5.81-3.4-1.56-1.29-2.73-2.81-3.48-4.57-.82-1.64-1.14-3.48-1.14-5.39v-5.54c0-.67-.15-1.07-.42-1.34-.27-.22-.75-.35-1.37-.35h-9.54c-.7,0-1.09.12-1.37.35-.27.27-.42.67-.42,1.34v5.54c0,1.91-.4,3.75-1.14,5.39-.82,1.76-1.99,3.28-3.48,4.57-1.59,1.37-3.48,2.51-5.74,3.4-2.31.97-4.97,1.56-7.97,1.84-.69.15-1.09.27-1.24.47-.2.27-.27.82-.27,1.64v8c0,.55.07.87.27,1.14.15.27.35.47.62.62.2.12.47.2.75.2h.62c2.86-.27,5.51-.74,8.12-1.49,2.46-.7,4.77-1.52,6.88-2.53,2.04-.94,3.9-2.04,5.46-3.28,1.49-1.14,2.73-2.38,3.68-3.6.89,1.22,2.11,2.46,3.68,3.6,1.52,1.24,3.35,2.33,5.46,3.28,2.04,1.02,4.3,1.84,6.88,2.53,2.53.74,5.26,1.22,8.12,1.49h.67c.22,0,.5-.07.77-.2.2-.15.4-.35.6-.62.15-.27.22-.6.22-1.14v-8c0-.82-.15-1.37-.27-1.64Zm4.02,16.17c-.27-.2-.77-.35-1.37-.35h-57.57c-.67,0-1.09.15-1.37.35-.27.27-.4.7-.4,1.37v7.97c0,.7.12,1.17.4,1.37.27.27.7.35,1.37.35h9.96v13.24c0,.67.15,1.09.42,1.37.27.2.67.32,1.37.32h9.54c.62,0,1.09-.12,1.37-.32.27-.27.4-.7.4-1.37v-13.24h11.47v13.24c0,.67.12,1.09.4,1.37.27.2.69.32,1.37.32h9.54c.62,0,1.09-.12,1.37-.32.27-.27.42-.7.42-1.37v-13.24h9.96c.6,0,1.09-.07,1.37-.35.27-.2.4-.67.4-1.37v-7.97c0-.67-.12-1.09-.4-1.37Z"/><path class="cls-3" d="m87.28,39.8c2.03-.17,5.21-.15,7.71.5,2.21.58,3.87,2.47,4.04,4.75.28,3.83.35,7.7.37,11.52.03,4.82,0,9.67-.44,14.45-.41,4.37-1.93,9.53-6.82,10.55-1.27.26-1.05,1.49-1.05,2.46,0,1.3-.08,2.61-.28,3.9-.11.75-.64,2.04-1.63,1.67-.33-.12-.59-.39-.83-.64-1.16-1.21-2.32-2.43-3.48-3.64-.88-.93-1.72-1.76-3.08-1.81-3.56-.14-7.19.3-10.75.51-7.98.46-23.4,4.14-22.48-8.25"/><path class="cls-4" d="m89.53,91.59c-.34,0-.68-.06-1.01-.19-.77-.29-1.27-.81-1.56-1.13l-3.47-3.64c-.85-.89-1.22-1.19-1.74-1.21-2.45-.09-4.99.1-7.46.29-1.05.08-2.09.16-3.13.22-1.14.07-2.43.2-3.81.34-6.25.64-14.02,1.43-18.13-2.57-1.96-1.9-2.82-4.62-2.56-8.08l3.84.29c-.17,2.3.29,3.95,1.41,5.04,2.83,2.75,9.9,2.03,15.06,1.5,1.44-.15,2.8-.28,3.99-.35,1.01-.06,2.03-.14,3.06-.21,2.57-.19,5.25-.39,7.88-.3,2.18.07,3.46,1.42,4.4,2.4l2.75,2.88c.11-.92.16-1.87.15-2.81v-.31c-.04-.86-.12-3.49,2.58-4.05,3.02-.63,4.8-3.6,5.29-8.84.41-4.44.47-8.91.43-14.26-.03-4.26-.11-7.83-.37-11.4-.11-1.43-1.15-2.65-2.61-3.03-2.21-.58-5.18-.6-7.06-.45l-.31-3.84c2.28-.18,5.68-.14,8.35.56,3.05.8,5.25,3.4,5.48,6.47.27,3.67.35,7.31.38,11.65.04,5.46-.03,10.04-.45,14.64-.79,8.46-4.62,11.3-7.87,12.15,0,.09,0,.19,0,.27v.41c.02,1.42-.08,2.83-.29,4.2-.07.5-.42,2.18-1.79,2.98-.43.26-.91.39-1.4.39Z"/><path class="cls-3" d="m86.34,58.54c-.41,3.63-.54,8.17-2.17,11.5-1.7,3.56-7.87,3.36-11.23,3.8-8.68,1.15-17.4,1.8-26.15,1.97-4.31.07-8.65-.07-12.96-.14-2.24-.03-3.6.37-5.26,1.7-2.38,1.89-6.26,5.38-8.28,7.21-.48.44-1.24.06-1.19-.59.11-1.45-.13-5.44-.27-7.59-.05-.79-.71-1.38-1.5-1.37-2.06.05-5.89.07-8.1-.31-4.14-.71-4.51-5.43-5.22-8.85-1.7-8.31-2.1-16.79-2.1-25.23.03-4.1.14-8.21.27-12.31.14-3.83.14-7.7,1.63-11.29.54-1.29,1.15-2.58,2.27-3.49,2.03-1.63,8-2.34,8.44-2.37,16.55-2.1,33.44-3.8,50.13-3.66,6.17.03,14.92.2,18.59,6.14,1.42,2.34,2,5.09,2.44,7.73.61,3.8,1.02,7.63,1.29,11.46.58,8.58.37,17.19-.64,25.71Z"/><path class="cls-4" d="m19.82,86.69c-.39,0-.79-.09-1.16-.27-.98-.48-1.55-1.49-1.47-2.58.07-.92-.02-3.47-.24-6.87-2.57.05-5.91.02-8.03-.35-4.98-.86-5.92-5.86-6.55-9.18l-.23-1.18C.24,56.95,0,47.68,0,40.63c.03-4.14.14-8.26.27-12.38l.03-.96c.12-3.63.24-7.39,1.74-11.01.6-1.43,1.37-3.05,2.83-4.25,2.69-2.16,9.45-2.8,9.51-2.8,14.86-1.89,32.58-3.81,50.29-3.67,5.95.03,15.91.09,20.21,7.05,1.65,2.71,2.26,5.77,2.7,8.43.59,3.66,1.01,7.47,1.31,11.65.59,8.75.37,17.52-.65,26.06-.07.65-.14,1.32-.2,2.01-.31,3.32-.66,7.07-2.15,10.11-1.86,3.91-7.03,4.35-10.8,4.67-.69.06-1.34.11-1.9.19-8.61,1.14-17.48,1.81-26.36,1.98-3.29.05-6.6-.02-9.81-.08l-3.21-.06c-1.91-.04-2.75.26-4.03,1.28-2.3,1.83-6.12,5.25-8.19,7.13-.5.45-1.13.69-1.77.69Zm1.21-2.56h0s0,0,0,0Zm-3.65-11.02c1.78,0,3.26,1.37,3.38,3.16.11,1.59.22,3.47.27,5.05,2.07-1.85,4.61-4.08,6.35-5.46,1.99-1.58,3.69-2.15,6.49-2.11l3.23.06c3.18.06,6.47.12,9.67.08,8.73-.17,17.46-.82,25.93-1.95.62-.08,1.32-.14,2.08-.21,2.85-.24,6.74-.57,7.66-2.51,1.19-2.42,1.51-5.81,1.79-8.8.07-.72.13-1.42.21-2.09h0c1-8.32,1.21-16.85.64-25.36-.29-4.06-.7-7.75-1.27-11.29-.38-2.29-.9-4.92-2.19-7.04-3.17-5.14-11.46-5.18-16.95-5.21-17.57-.16-35.05,1.76-49.87,3.65-1.61.14-6.19.93-7.48,1.97-.77.63-1.25,1.65-1.7,2.74-1.23,2.96-1.33,6.21-1.45,9.65l-.03.96c-.14,4.08-.24,8.17-.27,12.26,0,6.85.23,15.87,2.06,24.83l.24,1.24c.65,3.44,1.24,5.72,3.42,6.1,1.49.26,4.31.36,7.73.29h.08Z"/><path class="cls-1" d="m59.53,51.71c-.68.14-1.17.9-1.17,1.53,0,1.39-.2,4.41-.23,5.8,0,.26-.01.53-.13.76-.34.65-1.29.52-1.89.55-2.1.09-4.2.13-6.3.2-6.68.23-13.36.36-20.02.61-1.02.04-1.89-.72-1.98-1.74-.11-1.19-.23-4-.35-5.19-.05-.76-.63-1.64-1.56-1.56-5.6.66-11.47-4.48-10.21-10.37,1.06-5.05,6.85-8.14,11.68-6.63.98.3,1.94-.52,1.97-1.5.05-3.49.03-7.29,1.53-10.54,1.67-3.63,5.54-5.68,9.39-6.31,3.74-.63,8.24.25,10.97,2.98,2.92,2.84,3.41,7.48,2.51,11.22-.27,1.31,1.09,2.43,2.32,1.77,5.11-2.92,11.6.27,12.75,6.03,1.17,6.2-3.39,11.41-9.28,12.39Z"/><path class="cls-4" d="m29.71,63.08c-1.98,0-3.64-1.51-3.83-3.49-.05-.56-.11-1.46-.16-2.4-.06-.94-.11-1.92-.17-2.57-3.28.21-6.81-1.23-9.2-3.85-2.29-2.51-3.22-5.75-2.55-8.89.6-2.83,2.47-5.35,5.14-6.92,2.63-1.54,5.69-2,8.48-1.3v-.08c.05-3.44.1-7.33,1.7-10.78,1.75-3.81,5.8-6.58,10.83-7.4,4.76-.8,9.71.58,12.64,3.51,3.46,3.36,3.93,8.45,3.17,12.34,2.73-1.33,5.91-1.36,8.79-.05,3.17,1.44,5.47,4.33,6.14,7.72.61,3.23-.08,6.48-1.94,9.14-1.95,2.79-5.02,4.76-8.48,5.45-.01.82-.07,2-.13,3.12-.05.94-.09,1.83-.1,2.43,0,.37-.02.98-.35,1.61-.82,1.58-2.66,1.56-3.27,1.58-1.52.06-2.81.09-4.09.13l-2.47.07c-2.88.1-5.77.18-8.65.26-3.8.1-7.59.21-11.37.35-.05,0-.1,0-.14,0Zm-3.72-12.34c.79,0,1.52.27,2.11.77.73.62,1.21,1.59,1.27,2.58.07.6.14,1.76.2,2.88.05.88.1,1.74.15,2.27,3.79-.15,7.59-.26,11.4-.36,2.88-.08,5.75-.16,8.62-.26l2.5-.07c1.26-.04,2.52-.07,3.78-.12h.19c.02-.61.06-1.28.09-1.96.06-1.2.12-2.46.12-3.22,0-1.41,1.02-3.08,2.72-3.42h.06c2.62-.45,4.95-1.88,6.39-3.94,1.28-1.84,1.74-3.98,1.31-6.21-.43-2.16-1.91-4.02-3.95-4.95-1.96-.89-4.12-.81-5.95.23-1.26.68-2.7.57-3.8-.26-1.12-.84-1.64-2.21-1.36-3.58.68-2.85.57-6.98-1.97-9.45-2.38-2.39-6.39-2.95-9.31-2.46-3.77.62-6.75,2.56-7.96,5.21-1.26,2.72-1.3,6.03-1.35,9.23v.54c-.04,1.12-.59,2.17-1.49,2.81-.87.63-1.96.81-2.97.5-1.87-.58-4.08-.29-5.92.79-1.73,1.02-2.95,2.62-3.32,4.4-.55,2.61.78,4.57,1.63,5.5,1.69,1.86,4.16,2.84,6.47,2.57.11,0,.21-.01.32-.01Zm34.29,2.5h0s0,0,0,0Z"/><line class="cls-2" x1="34.44" y1="52.97" x2="51.31" y2="52.38"/><path class="cls-4" d="m34.44,54.9c-1.03,0-1.89-.82-1.93-1.86-.04-1.06.79-1.95,1.86-1.99l16.87-.59c1.02-.03,1.96.79,1.99,1.86.04,1.06-.79,1.95-1.86,1.99l-16.87.59s-.05,0-.07,0Z"/><path class="cls-3" d="m111.7,10.71c-5.24,0-9.43,4.24-9.43,9.43,0-5.19-4.24-9.43-9.43-9.43,5.19,0,9.43-4.19,9.43-9.43,0,5.24,4.19,9.43,9.43,9.43Z"/><path class="cls-4" d="m102.27,21.43c-.71,0-1.28-.57-1.28-1.28,0-4.49-3.66-8.15-8.15-8.15-.71,0-1.28-.57-1.28-1.28s.57-1.28,1.28-1.28c4.49,0,8.15-3.65,8.15-8.15,0-.71.57-1.28,1.28-1.28s1.28.57,1.28,1.28c0,4.57,3.58,8.15,8.14,8.15.71,0,1.28.57,1.28,1.28s-.57,1.28-1.28,1.28c-4.49,0-8.14,3.66-8.14,8.15,0,.71-.57,1.28-1.28,1.28Zm-4.35-10.71c1.84,1,3.35,2.51,4.35,4.35,1-1.84,2.51-3.35,4.35-4.35-1.84-.99-3.35-2.51-4.35-4.35-1,1.84-2.51,3.35-4.35,4.35Z"/></g></svg>