<?xml version="1.0" encoding="utf-8"?>
<!-- Generator: Adobe Illustrator 27.6.1, SVG Export Plug-In . SVG Version: 6.00 Build 0)  -->
<svg version="1.1" id="Layer_2_00000069357966858404321570000017820589370542195344_"
	 xmlns="http://www.w3.org/2000/svg" xmlns:xlink="http://www.w3.org/1999/xlink" x="0px" y="0px" viewBox="0 0 315.6 91.6"
	 style="enable-background:new 0 0 315.6 91.6;" xml:space="preserve">
<style type="text/css">
	.st0{fill:#FFF1C0;}
	.st1{fill:#FFF6DF;}
	.st2{fill:#4F3D21;}
	.st3{fill:#F8B551;}
</style>
<path class="st0" d="M183.5,29.1c-0.3-0.2-0.8-0.4-1.4-0.4h-6.3V18.4c0-0.7-0.1-1.1-0.4-1.4c-0.3-0.2-0.8-0.3-1.4-0.3h-9.6
	c-0.7,0-1.1,0.1-1.4,0.3c-0.3,0.3-0.4,0.7-0.4,1.4v35.1c0,0.7,0.1,1.1,0.4,1.4c0.3,0.2,0.7,0.3,1.4,0.3h9.6c0.6,0,1.1-0.1,1.4-0.3
	c0.3-0.2,0.4-0.7,0.4-1.4V40h6.3c0.6,0,1.1-0.1,1.4-0.3c0.3-0.2,0.4-0.7,0.4-1.4v-7.9C183.9,29.7,183.8,29.3,183.5,29.1L183.5,29.1z
	 M183.7,71.3c-0.1-0.3-0.4-0.5-0.5-0.6c-0.3-0.1-0.5-0.3-0.7-0.3c-0.3-0.1-0.4-0.1-0.6-0.1c-3-0.3-8.9,0.4-15.4-1.6
	c-2.4-0.8-4.4-1.9-6-3.2c-1.6-1.2-2.9-2.7-3.8-4.3c-0.9-1.6-1.3-3.2-1.3-4.9c0-0.5-0.1-0.9-0.3-1.2c-0.3-0.2-0.7-0.5-1.4-0.5h-9.3
	c-0.7,0-1.2,0.2-1.3,0.5c-0.3,0.3-0.3,0.8-0.3,1.2c0,1.7-0.5,3.3-1.3,4.9c-0.9,1.6-2.1,3.1-3.8,4.3c-1.6,1.3-3.6,2.5-5.9,3.2
	c-4.4,1.3-8.2,1.4-11.2,1.6c-0.1,0-0.3,0-0.6,0.1c-0.3,0-0.5,0.2-0.6,0.3c-0.2,0.2-0.4,0.3-0.5,0.6c-0.2,0.3-0.2,0.6-0.2,1.2v7
	c0,0.5,0.1,0.9,0.3,1.2c0.2,0.3,0.3,0.5,0.6,0.6c0.2,0.1,0.5,0.1,0.8,0.2h0.6c3.1-0.1,7.3,0,11.9-1.2c2.6-0.7,5-1.6,7.1-2.6
	c2-1.1,3.9-2.2,5.5-3.4c1.5-1.3,2.7-2.5,3.6-3.8c0.9,1.2,2.1,2.5,3.7,3.8c1.5,1.2,3.4,2.3,5.5,3.4c2,1,4.4,1.9,7.1,2.6
	c6,1.4,12.9,1,16,1.2h0.7c0.2-0.1,0.5-0.1,0.8-0.2c0.2-0.2,0.4-0.3,0.6-0.6c0.1-0.3,0.2-0.7,0.2-1.2v-7
	C183.9,72,183.8,71.6,183.7,71.3L183.7,71.3z M155.5,17c-0.3-0.2-0.8-0.3-1.4-0.3h-33.4c-0.7,0-1.1,0.1-1.4,0.3
	c-0.3,0.3-0.4,0.7-0.4,1.4v23.9c0,2.9,0.6,5,1.9,6.2c1.2,1.3,3.1,1.9,5.5,1.9h22.2c2.5,0,4.3-0.6,5.5-1.9c1.2-1.2,1.9-3.3,1.9-6.2
	V18.4C155.9,17.7,155.8,17.3,155.5,17L155.5,17z M143.4,37.6c0,0.9-0.1,1.4-0.4,1.7c-0.3,0.3-0.8,0.5-1.6,0.5h-8.1
	c-0.8,0-1.3-0.2-1.6-0.5c-0.3-0.3-0.4-0.8-0.4-1.7V27.1h12L143.4,37.6L143.4,37.6z"/>
<path class="st0" d="M245.2,17c-0.2-0.2-0.7-0.3-1.3-0.3h-9.6c-0.7,0-1.1,0.1-1.4,0.3c-0.3,0.3-0.4,0.7-0.4,1.4v61.7
	c0,0.7,0.1,1.1,0.4,1.4c0.3,0.2,0.7,0.3,1.4,0.3h9.6c0.6,0,1.1-0.2,1.3-0.3c0.3-0.3,0.4-0.7,0.4-1.4V18.4
	C245.6,17.7,245.5,17.3,245.2,17L245.2,17z M200.6,37c0.4-2.5,1-4.4,1.8-5.8c0.7-1.3,1.5-2.2,2.4-2.6c0.8-0.4,1.6-0.6,2.3-0.6
	c0.7,0,1.5,0.2,2.4,0.6c0.8,0.4,1.6,1.3,2.3,2.6c0.7,1.4,1.3,3.3,1.8,5.8c0.4,2.1,0.6,4.8,0.7,8H227c-0.1-4-0.4-7.5-1-10.8
	c-0.7-3.7-1.9-6.9-3.4-9.5c-1.6-2.6-3.7-4.6-6.2-5.9c-2.6-1.4-5.7-2-9.3-2s-6.8,0.7-9.4,2c-2.6,1.4-4.6,3.4-6.1,5.9
	c-1.6,2.6-2.7,5.8-3.4,9.5c-0.6,3.2-1,6.8-1,10.8h12.7C199.9,41.7,200.2,39.1,200.6,37L200.6,37z M213.6,57
	c-0.6,2.5-1.1,4.5-1.8,5.7c-0.8,1.4-1.5,2.3-2.3,2.7c-0.9,0.4-1.7,0.6-2.4,0.6c-0.8,0-1.5-0.2-2.3-0.6c-0.9-0.4-1.7-1.3-2.4-2.7
	c-0.8-1.3-1.4-3.2-1.8-5.7c-0.4-1.8-0.6-4.1-0.7-6.8h-12.7c0.1,3.5,0.4,6.8,1,9.6c0.7,3.8,1.8,7,3.4,9.6c1.5,2.6,3.6,4.6,6.1,5.9
	c2.5,1.3,5.7,2,9.4,2s6.7-0.7,9.3-2c2.5-1.4,4.6-3.3,6.2-5.9c1.5-2.6,2.7-5.7,3.4-9.6c0.5-2.8,0.8-6.1,0.9-9.6h-12.7
	C214.2,52.9,214,55.2,213.6,57z"/>
<path class="st0" d="M311.2,39.3c-0.2-0.2-0.6-0.3-1.2-0.5c-3-0.3-5.7-0.9-7.9-1.8c-2.3-0.9-4.3-2-5.8-3.4c-1.6-1.3-2.7-2.8-3.5-4.6
	c-0.8-1.6-1.1-3.5-1.1-5.4v-5.5c0-0.7-0.1-1.1-0.4-1.3c-0.3-0.2-0.8-0.4-1.4-0.4h-9.5c-0.7,0-1.1,0.1-1.4,0.4
	c-0.3,0.3-0.4,0.7-0.4,1.3v5.5c0,1.9-0.4,3.8-1.1,5.4c-0.8,1.8-2,3.3-3.5,4.6c-1.6,1.4-3.5,2.5-5.7,3.4c-2.3,1-5,1.6-8,1.8
	c-0.7,0.2-1.1,0.3-1.2,0.5c-0.2,0.3-0.3,0.8-0.3,1.6v8c0,0.5,0.1,0.9,0.3,1.1c0.1,0.3,0.4,0.5,0.6,0.6c0.2,0.1,0.5,0.2,0.8,0.2h0.6
	c2.9-0.3,5.5-0.7,8.1-1.5c2.5-0.7,4.8-1.5,6.9-2.5c2-0.9,3.9-2,5.5-3.3c1.5-1.1,2.7-2.4,3.7-3.6c0.9,1.2,2.1,2.5,3.7,3.6
	c1.5,1.2,3.4,2.3,5.5,3.3c2,1,4.3,1.8,6.9,2.5c2.5,0.7,5.3,1.2,8.1,1.5h0.7c0.2,0,0.5-0.1,0.8-0.2c0.2-0.2,0.4-0.3,0.6-0.6
	c0.1-0.3,0.2-0.6,0.2-1.1v-8C311.4,40.1,311.3,39.5,311.2,39.3L311.2,39.3z M315.2,55.4c-0.3-0.2-0.8-0.3-1.4-0.3h-57.6
	c-0.7,0-1.1,0.2-1.4,0.3c-0.3,0.3-0.4,0.7-0.4,1.4v8c0,0.7,0.1,1.2,0.4,1.4c0.3,0.3,0.7,0.3,1.4,0.3h10v13.2c0,0.7,0.1,1.1,0.4,1.4
	c0.3,0.2,0.7,0.3,1.4,0.3h9.5c0.6,0,1.1-0.1,1.4-0.3c0.3-0.3,0.4-0.7,0.4-1.4V66.5h11.5v13.2c0,0.7,0.1,1.1,0.4,1.4
	c0.3,0.2,0.7,0.3,1.4,0.3h9.5c0.6,0,1.1-0.1,1.4-0.3c0.3-0.3,0.4-0.7,0.4-1.4V66.5h10c0.6,0,1.1-0.1,1.4-0.3
	c0.3-0.2,0.4-0.7,0.4-1.4v-8C315.6,56.1,315.5,55.7,315.2,55.4L315.2,55.4z"/>
<path class="st1" d="M97.1,70.9c-0.5,5.2-2.3,8.2-5.3,8.8c-2.7,0.6-2.6,3.2-2.6,4v0.3c0,0.9,0,1.9-0.2,2.8L86.3,84
	c-0.9-1-2.2-2.3-4.4-2.4c-2.6-0.1-5.3,0.1-7.9,0.3C73,82,72,82,71,82.1c-1.2,0.1-2.6,0.2-4,0.3c-5.2,0.5-12.2,1.2-15.1-1.5
	c-0.8-0.8-1.3-1.9-1.4-3.3c7.6-0.3,15.3-0.9,22.7-1.9c0.6-0.1,1.2-0.1,1.9-0.2c3.8-0.3,8.9-0.8,10.8-4.7c1.5-3,1.8-6.8,2.1-10.1
	c0.1-0.7,0.1-1.4,0.2-2c0.7-5.6,1-11.3,1-17.1c1.7,0,3.7,0.1,5.3,0.5c1.5,0.4,2.5,1.6,2.6,3c0.3,3.6,0.3,7.1,0.4,11.4
	C97.5,61.9,97.5,66.4,97.1,70.9z"/>
<path class="st1" d="M66.9,39.7c-0.4-2.2-1.9-4-4-5c-2-0.9-4.1-0.8-6,0.2c-1.3,0.7-2.7,0.6-3.8-0.3c-1.1-0.8-1.6-2.2-1.4-3.6
	c0.7-2.9,0.6-7-2-9.5c-2.4-2.4-6.4-3-9.3-2.5c-3.8,0.6-6.8,2.6-8,5.2c-1.3,2.7-1.3,6-1.3,9.2v0.5c0,1.1-0.6,2.2-1.5,2.8
	c-0.9,0.6-2,0.8-3,0.5c-1.9-0.6-4.1-0.3-5.9,0.8c-1.7,1-3,2.6-3.3,4.4c-0.5,2.6,0.8,4.6,1.6,5.5c1.7,1.9,4.2,2.8,6.5,2.6
	c0.1,0,0.2,0,0.3,0l0,0c0.8,0,1.5,0.3,2.1,0.8c0.7,0.6,1.2,1.6,1.3,2.6c0.1,0.6,0.1,1.8,0.2,2.9c0,0.9,0.1,1.7,0.1,2.3
	c3.8-0.2,7.6-0.3,11.4-0.4c2.9-0.1,5.8-0.2,8.6-0.3l2.5-0.1c1.3,0,2.5-0.1,3.8-0.1h0.2c0-0.6,0.1-1.3,0.1-2c0.1-1.2,0.1-2.5,0.1-3.2
	c0-1.4,1-3.1,2.7-3.4h0.1c2.6-0.5,5-1.9,6.4-3.9C66.9,44.1,67.3,41.9,66.9,39.7z M51.4,54.3l-16.9,0.6c0,0,0,0-0.1,0h0
	c-1,0-1.9-0.8-1.9-1.9c0-1.1,0.8-2,1.9-2l16.9-0.6c1,0,2,0.8,2,1.9C53.3,53.4,52.4,54.3,51.4,54.3z"/>
<path class="st1" d="M85.4,41.6c0-2.9-0.1-5.7-0.3-8.6c-0.3-4.1-0.7-7.8-1.3-11.3c-0.4-2.3-0.9-4.9-2.2-7c-3.2-5.1-11.5-5.2-17-5.2
	c-17.6-0.2-35,1.8-49.9,3.6c-1.6,0.1-6.2,0.9-7.5,2c-0.8,0.6-1.2,1.6-1.7,2.7c-1.2,3-1.3,6.2-1.5,9.6l0,1C4,32.5,3.9,36.6,3.9,40.7
	c0,6.8,0.2,15.9,2.1,24.8l0.2,1.2c0.7,3.4,1.2,5.7,3.4,6.1c1.5,0.3,4.3,0.4,7.7,0.3h0.1l0,0c1.8,0,3.3,1.4,3.4,3.2
	c0.1,1.6,0.2,3.5,0.3,5c2.1-1.8,4.6-4.1,6.3-5.5c2-1.6,3.7-2.2,6.5-2.1l3.2,0.1c3.2,0.1,6.5,0.1,9.7,0.1c1.3,0,2.6-0.1,3.9-0.1
	c7.4-0.3,14.8-0.9,22-1.8c0.6-0.1,1.3-0.1,2.1-0.2c2.8-0.2,6.7-0.6,7.7-2.5c1.2-2.4,1.5-5.8,1.8-8.8c0.1-0.7,0.1-1.4,0.2-2.1
	c0.6-5.3,1-10.7,1-16.1C85.4,42,85.4,41.8,85.4,41.6z M68.8,48.1c-2,2.8-5,4.8-8.5,5.4c0,0.8-0.1,2-0.1,3.1c0,0.9-0.1,1.8-0.1,2.4
	c0,0.4,0,1-0.3,1.6c-0.8,1.6-2.7,1.6-3.3,1.6c-1.5,0.1-2.8,0.1-4.1,0.1l-2.5,0.1c-2.9,0.1-5.8,0.2-8.6,0.3
	c-3.8,0.1-7.6,0.2-11.4,0.4h-0.1l0,0c-2,0-3.6-1.5-3.8-3.5c0-0.6-0.1-1.5-0.2-2.4c-0.1-0.9-0.1-1.9-0.2-2.6
	c-3.3,0.2-6.8-1.2-9.2-3.9c-2.3-2.5-3.2-5.8-2.5-8.9c0.6-2.8,2.5-5.3,5.1-6.9c2.6-1.5,5.7-2,8.5-1.3v-0.1c0-3.4,0.1-7.3,1.7-10.8
	c1.8-3.8,5.8-6.6,10.8-7.4c4.8-0.8,9.7,0.6,12.6,3.5c3.5,3.4,3.9,8.5,3.2,12.3c2.7-1.3,5.9-1.4,8.8,0c3.2,1.4,5.5,4.3,6.1,7.7
	C71.3,42.1,70.6,45.4,68.8,48.1z"/>
<path class="st2" d="M101.4,56.6c0-4.3-0.1-8-0.4-11.7c-0.2-3.1-2.4-5.7-5.5-6.5c-2-0.5-4.3-0.7-6.4-0.6c0-1.7-0.1-3.4-0.2-5.1
	c-0.3-4.2-0.7-8-1.3-11.6c-0.4-2.7-1-5.7-2.7-8.4c-4.3-7-14.3-7-20.2-7C47,5.4,29.2,7.3,14.4,9.2c-0.1,0-6.8,0.6-9.5,2.8
	c-1.5,1.2-2.2,2.8-2.8,4.2c-1.5,3.6-1.6,7.4-1.7,11l0,1C0.1,32.4,0,36.5,0,40.6c0,7.1,0.2,16.3,2.1,25.6l0.2,1.2
	c0.6,3.3,1.6,8.3,6.5,9.2C11,77,14.4,77,17,77c0.2,3.4,0.3,6,0.2,6.9c-0.1,1.1,0.5,2.1,1.5,2.6c0.4,0.2,0.8,0.3,1.2,0.3v0
	c0.6,0,1.3-0.2,1.8-0.7c2.1-1.9,5.9-5.3,8.2-7.1c1.3-1,2.1-1.3,4-1.3l3.2,0.1c3.1,0.1,6.4,0.1,9.6,0.1c0.2,2.5,1,4.5,2.6,6
	c4.1,4,11.9,3.2,18.1,2.6c1.4-0.1,2.7-0.3,3.8-0.3c1-0.1,2.1-0.1,3.1-0.2c2.5-0.2,5-0.4,7.5-0.3c0.5,0,0.9,0.3,1.7,1.2l3.5,3.6
	c0.3,0.3,0.8,0.8,1.6,1.1c0.3,0.1,0.7,0.2,1,0.2l0,0c0.5,0,1-0.1,1.4-0.4c1.4-0.8,1.7-2.5,1.8-3c0.2-1.4,0.3-2.8,0.3-4.2v-0.7
	c3.2-0.9,7.1-3.7,7.9-12.2C101.3,66.6,101.4,62,101.4,56.6z M46.8,73.9c-3.2,0-6.5,0-9.7-0.1l-3.2-0.1c-2.8,0-4.5,0.5-6.5,2.1
	c-1.7,1.4-4.3,3.6-6.3,5.5c-0.1-1.6-0.2-3.5-0.3-5c-0.1-1.8-1.6-3.2-3.4-3.2l0,0h-0.1c-3.4,0.1-6.2,0-7.7-0.3
	c-2.2-0.4-2.8-2.7-3.4-6.1l-0.2-1.2c-1.8-9-2.1-18-2.1-24.8c0-4.1,0.1-8.2,0.3-12.3l0-1c0.1-3.4,0.2-6.7,1.5-9.6
	c0.5-1.1,0.9-2.1,1.7-2.7c1.3-1,5.9-1.8,7.5-2c14.8-1.9,32.3-3.8,49.9-3.6c5.5,0,13.8,0.1,17,5.2c1.3,2.1,1.8,4.8,2.2,7
	c0.6,3.5,1,7.2,1.3,11.3c0.2,2.9,0.3,5.7,0.3,8.6c0,0.2,0,0.5,0,0.7c0,5.4-0.3,10.8-1,16.1c-0.1,0.7-0.1,1.4-0.2,2.1
	c-0.3,3-0.6,6.4-1.8,8.8c-0.9,1.9-4.8,2.3-7.7,2.5c-0.8,0.1-1.5,0.1-2.1,0.2c-7.2,1-14.6,1.6-22,1.8C49.4,73.8,48.1,73.9,46.8,73.9z
	 M97.1,70.9c-0.5,5.2-2.3,8.2-5.3,8.8c-2.7,0.6-2.6,3.2-2.6,4v0.3c0,0.9,0,1.9-0.2,2.8L86.3,84c-0.9-1-2.2-2.3-4.4-2.4
	c-2.6-0.1-5.3,0.1-7.9,0.3C73,82,72,82,71,82.1c-1.2,0.1-2.6,0.2-4,0.3c-5.2,0.5-12.2,1.2-15.1-1.5c-0.8-0.8-1.3-1.9-1.4-3.3
	c7.6-0.3,15.3-0.9,22.7-1.9c0.6-0.1,1.2-0.1,1.9-0.2c3.8-0.3,8.9-0.8,10.8-4.7c1.5-3,1.8-6.8,2.1-10.1c0.1-0.7,0.1-1.4,0.2-2
	c0.7-5.6,1-11.3,1-17.1c1.7,0,3.7,0.1,5.3,0.5c1.5,0.4,2.5,1.6,2.6,3c0.3,3.6,0.3,7.1,0.4,11.4C97.5,61.9,97.5,66.4,97.1,70.9z"/>
<path class="st3" d="M66.9,39.7c-0.4-2.2-1.9-4-4-5c-2-0.9-4.1-0.8-6,0.2c-1.3,0.7-2.7,0.6-3.8-0.3c-1.1-0.8-1.6-2.2-1.4-3.6
	c0.7-2.9,0.6-7-2-9.5c-2.4-2.4-6.4-3-9.3-2.5c-3.8,0.6-6.8,2.6-8,5.2c-1.3,2.7-1.3,6-1.3,9.2v0.5c0,1.1-0.6,2.2-1.5,2.8
	c-0.9,0.6-2,0.8-3,0.5c-1.9-0.6-4.1-0.3-5.9,0.8c-1.7,1-3,2.6-3.3,4.4c-0.5,2.6,0.8,4.6,1.6,5.5c1.7,1.9,4.2,2.8,6.5,2.6
	c0.1,0,0.2,0,0.3,0l0,0c0.8,0,1.5,0.3,2.1,0.8c0.7,0.6,1.2,1.6,1.3,2.6c0.1,0.6,0.1,1.8,0.2,2.9c0,0.9,0.1,1.7,0.1,2.3
	c3.8-0.2,7.6-0.3,11.4-0.4c2.9-0.1,5.8-0.2,8.6-0.3l2.5-0.1c1.3,0,2.5-0.1,3.8-0.1h0.2c0-0.6,0.1-1.3,0.1-2c0.1-1.2,0.1-2.5,0.1-3.2
	c0-1.4,1-3.1,2.7-3.4h0.1c2.6-0.5,5-1.9,6.4-3.9C66.9,44.1,67.3,41.9,66.9,39.7z M51.4,54.3l-16.9,0.6c0,0,0,0-0.1,0h0
	c-1,0-1.9-0.8-1.9-1.9c0-1.1,0.8-2,1.9-2l16.9-0.6c1,0,2,0.8,2,1.9C53.3,53.4,52.4,54.3,51.4,54.3z"/>
<path class="st2" d="M70.7,38.9c-0.7-3.4-3-6.3-6.1-7.7c-2.9-1.3-6.1-1.3-8.8,0c0.8-3.9,0.3-9-3.2-12.3c-2.9-2.9-7.9-4.3-12.6-3.5
	c-5,0.8-9.1,3.6-10.8,7.4c-1.6,3.4-1.7,7.3-1.7,10.8v0.1c-2.8-0.7-5.8-0.2-8.5,1.3c-2.7,1.6-4.5,4.1-5.1,6.9
	c-0.7,3.1,0.3,6.4,2.5,8.9c2.4,2.6,5.9,4.1,9.2,3.9c0.1,0.6,0.1,1.6,0.2,2.6c0.1,0.9,0.1,1.8,0.2,2.4c0.2,2,1.8,3.5,3.8,3.5l0,0h0.1
	c3.8-0.1,7.6-0.2,11.4-0.4c2.9-0.1,5.8-0.2,8.6-0.3l2.5-0.1c1.3,0,2.6-0.1,4.1-0.1c0.6,0,2.5,0,3.3-1.6C60,60,60,59.4,60,59.1
	c0-0.6,0.1-1.5,0.1-2.4c0.1-1.1,0.1-2.3,0.1-3.1c3.5-0.7,6.5-2.7,8.5-5.4C70.6,45.4,71.3,42.1,70.7,38.9z M65.6,45.9
	c-1.4,2.1-3.8,3.5-6.4,3.9h-0.1c-1.7,0.3-2.7,2-2.7,3.4c0,0.8-0.1,2-0.1,3.2c0,0.7-0.1,1.3-0.1,2H56c-1.3,0-2.5,0.1-3.8,0.1
	l-2.5,0.1c-2.9,0.1-5.7,0.2-8.6,0.3c-3.8,0.1-7.6,0.2-11.4,0.4c0-0.5-0.1-1.4-0.1-2.3c-0.1-1.1-0.1-2.3-0.2-2.9
	c-0.1-1-0.5-2-1.3-2.6c-0.6-0.5-1.3-0.8-2.1-0.8l0,0c-0.1,0-0.2,0-0.3,0c-2.3,0.3-4.8-0.7-6.5-2.6c-0.8-0.9-2.2-2.9-1.6-5.5
	c0.4-1.8,1.6-3.4,3.3-4.4c1.8-1.1,4-1.4,5.9-0.8c1,0.3,2.1,0.1,3-0.5c0.9-0.6,1.5-1.7,1.5-2.8v-0.5c0-3.2,0.1-6.5,1.3-9.2
	c1.2-2.7,4.2-4.6,8-5.2c2.9-0.5,6.9,0.1,9.3,2.5c2.5,2.5,2.7,6.6,2,9.5c-0.3,1.4,0.2,2.7,1.4,3.6c1.1,0.8,2.5,0.9,3.8,0.3
	c1.8-1,4-1.1,6-0.2c2,0.9,3.5,2.8,4,5C67.3,41.9,66.9,44.1,65.6,45.9z"/>
<path class="st2" d="M53.2,52.3c0,1.1-0.8,2-1.9,2l-16.9,0.6c0,0,0,0-0.1,0h0c-1,0-1.9-0.8-1.9-1.9c0-1.1,0.8-2,1.9-2l16.9-0.6
	C52.3,50.4,53.2,51.2,53.2,52.3z"/>
<path class="st1" d="M111.7,10.7c-5.2,0-9.4,4.2-9.4,9.4c0-5.2-4.2-9.4-9.4-9.4c5.2,0,9.4-4.2,9.4-9.4
	C102.3,6.5,106.5,10.7,111.7,10.7z"/>
<path class="st2" d="M102.3,21.4c-0.7,0-1.3-0.6-1.3-1.3c0-4.5-3.7-8.1-8.2-8.1c-0.7,0-1.3-0.6-1.3-1.3s0.6-1.3,1.3-1.3
	c4.5,0,8.2-3.7,8.2-8.1c0-0.7,0.6-1.3,1.3-1.3s1.3,0.6,1.3,1.3c0,4.6,3.6,8.1,8.1,8.1c0.7,0,1.3,0.6,1.3,1.3s-0.6,1.3-1.3,1.3
	c-4.5,0-8.1,3.7-8.1,8.1C103.5,20.9,103,21.4,102.3,21.4z M97.9,10.7c1.8,1,3.3,2.5,4.3,4.3c1-1.8,2.5-3.4,4.3-4.4
	c-1.8-1-3.3-2.5-4.3-4.3C101.3,8.2,99.8,9.7,97.9,10.7z"/>
</svg>
