<?xml version="1.0" encoding="utf-8"?>
<!-- Generator: Adobe Illustrator 27.5.0, SVG Export Plug-In . SVG Version: 6.00 Build 0)  -->
<svg version="1.1" id="Layer_2_00000016059392277998506010000016759443564771771009_"
	 xmlns="http://www.w3.org/2000/svg" xmlns:xlink="http://www.w3.org/1999/xlink" x="0px" y="0px" viewBox="0 0 162.9 162.9"
	 style="enable-background:new 0 0 162.9 162.9;" xml:space="preserve">
<style type="text/css">
	.st0{fill:#4F3D21;}
	.st1{fill:#FFDE59;}
	.st2{fill:#FFFFFF;stroke:#FFDE59;stroke-miterlimit:10;}
	.st3{fill:#F8B551;}
</style>
<path class="st0" d="M160.9,79.5v3.9v0.2c-0.8,5.2-3.7,9.1-6.7,12.5c-0.9,1.1-2,2.4-3,3.7c-0.1,0.1-0.2,0.4-0.2,0.5
	c0.3,2.3,0.7,4.6,1.1,6.8l0.2,1.3c1.6,9.3-2.9,17.2-11.6,20.7c-2.9,1.2-5.5,2.1-8,3c-0.3,0.1-0.4,0.2-0.6,0.6
	c-0.6,1.6-1.2,3.2-1.8,4.8c-0.4,1.1-0.8,2.2-1.2,3.2c-2.7,7.1-9.3,11.8-16.6,11.8c-0.7,0-1.5,0-2.2-0.1l-0.8-0.1
	c-2.8-0.4-5.6-0.7-8.4-1.3c-0.2,0-0.4-0.1-0.5-0.1c-0.4,0-0.7,0.1-1.4,0.6c-0.8,0.6-1.5,1.2-2.2,1.9c-3.8,3.2-7.8,6.6-13.4,7.4h-0.1
	h-3.9l0,0h-0.1c-5.6-0.8-9.5-4.1-13.3-7.4c-0.8-0.6-1.5-1.3-2.3-1.9c-0.6-0.5-1-0.6-1.3-0.6c-0.2,0-0.4,0-0.6,0.1
	c-3,0.6-6.2,1-9.1,1.4c-0.7,0.1-1.5,0.1-2.2,0.1c-7.4,0-14.1-4.7-16.7-11.8c-1-2.6-2-5.5-3.2-8.2c0-0.1-0.2-0.2-0.3-0.3
	c-1.4-0.6-2.9-1.2-4.4-1.7c-1.3-0.5-2.6-1-3.9-1.5c-8.6-3.5-13-11.4-11.5-20.6l0.2-1.1c0.4-2.3,0.8-4.7,1.1-7.1
	c0-0.1-0.1-0.4-0.2-0.6c-0.8-1-1.6-2-2.4-3c-1.2-1.5-2.5-3-3.6-4.6c-5-7.1-4.8-15.4,0.6-22.2c1.9-2.4,3.6-4.5,5.4-6.6
	c0.3-0.4,0.3-0.5,0.3-1c-0.6-3.4-1.1-6.5-1.4-9.5c-1-8.3,3.8-16.1,11.9-19.1c2.6-0.9,5.3-2,7.9-3.1c0.1-0.1,0.3-0.3,0.4-0.4
	c0.6-1.5,1.2-3,1.8-4.5c0.5-1.2,0.9-2.4,1.4-3.6c3-7.4,9.3-11.8,17-11.8c1.2,0,2.4,0.1,3.7,0.3c2.6,0.5,5.4,0.9,8.1,1.3
	c0,0,0.3-0.1,0.4-0.2c1.4-1.1,2.8-2.2,4.1-3.3c0.8-0.7,1.6-1.3,2.5-2C73.3,3.5,77.3,2,81.5,2c4.1,0,8.1,1.5,11.7,4.4
	c2.1,1.7,4.3,3.4,6.5,5.3c0.3,0.2,0.4,0.2,0.5,0.2s0.2,0,0.3,0c3.6-0.6,6.7-1.1,9.6-1.5c0.7-0.1,1.5-0.1,2.2-0.1
	c7.3,0,14.1,4.8,16.7,11.8l0.2,0.5c0.9,2.5,1.9,5.1,3,7.6c0.1,0.1,0.3,0.4,0.5,0.5c1.5,0.7,3.2,1.3,4.7,1.9c1.1,0.4,2.2,0.8,3.3,1.2
	c8.6,3.5,13.1,11.3,11.6,20.5c-0.1,0.8-0.2,1.5-0.4,2.3c-0.3,1.9-0.7,3.9-0.9,5.8c0,0.1,0.1,0.5,0.3,0.8c0.8,1.2,1.8,2.3,2.8,3.5
	c3.1,3.5,6,7.5,6.8,12.6L160.9,79.5z"/>
<path class="st1" d="M147.2,86.2c-1.9,2.4-3.8,4.9-5.9,7.2c-2,2.3-2.6,4.8-2,7.8c0.6,3.1,1,6.2,1.5,9.3c0.6,3.7-1,6.5-4.5,7.8
	c-3.1,1.2-6.2,2.5-9.3,3.6c-2.5,0.9-4.2,2.6-5.1,5.1c-1.1,3.2-2.4,6.4-3.6,9.5c-1.1,2.9-3.6,4.6-6.9,4.5c-3-0.5-6.5-0.9-9.9-1.6
	c-3.1-0.6-5.8-0.2-8.2,2c-2.2,2-4.6,3.8-7,5.7c-3.3,2.7-6.4,2.7-9.7,0c-2.4-1.9-4.8-3.8-7.2-5.8c-2.2-1.9-4.7-2.6-7.6-2
	c-3.1,0.6-6.2,1-9.3,1.5c-3.8,0.6-6.5-1-7.9-4.6c-1.2-3.1-2.4-6.1-3.5-9.2c-0.9-2.5-2.5-4.2-5.1-5.1c-3-1.1-6-2.2-8.9-3.4
	c-4-1.5-5.5-4.1-4.9-8.3c0.4-3,0.9-5.9,1.4-8.9c0.6-3,0.1-5.7-2-8s-3.9-4.8-5.9-7.2c-2.5-3.1-2.5-6.3,0-9.4c2.1-2.6,4.2-5.2,6.3-7.8
	c1.5-1.8,2.2-3.8,1.8-6.2c-0.6-3.4-1.1-6.9-1.6-10.3c-0.5-3.6,1-6.4,4.4-7.7c3.1-1.2,6.2-2.5,9.3-3.6c2.6-0.9,4.3-2.6,5.2-5.2
	c1-3,2.2-5.9,3.3-8.8c1.5-4,4.1-5.5,8.3-4.9c3,0.4,5.9,0.8,8.9,1.4c3,0.6,5.7,0.1,8.1-2c2.3-2,4.7-3.9,7.1-5.8
	c3.3-2.6,6.4-2.7,9.6,0c2.6,2.1,5.1,4.1,7.7,6.2c1.8,1.5,3.9,2.2,6.2,1.8c3.4-0.6,6.9-1.1,10.3-1.6c3.7-0.5,6.4,1,7.8,4.5
	c1.2,3.1,2.4,6.2,3.6,9.4c0.9,2.5,2.5,4.1,5,5c3,1.1,6.1,2.3,9.1,3.4c3.9,1.5,5.4,4.1,4.8,8.2c-0.4,3-0.9,6-1.4,9
	c-0.5,3-0.1,5.6,2,7.9c2.1,2.3,3.9,4.8,5.9,7.2C149.8,79.9,149.8,83,147.2,86.2z"/>
<g>
	<path class="st2" d="M55.2,82.4c-0.4-0.7-0.4-1.2,0-1.9c4.8-7.9-0.4-17.6-9.6-17.9c-2.1-0.1-4.3,0-6.4,0c-3.8,0-5.5,1.6-5.5,5.4
		c0,4.5,0,9,0,13.5v3.7c0,3.4,0,6.8,0,10.2c0,3.3,1.8,4.9,5,5c2.3,0,4.6,0.1,6.9,0C54.8,100,60.1,90.2,55.2,82.4z M47.6,90.2
		c-1.2,1.8-3.1,1.1-4.9,1.2V86c1.8,0.1,3.6-0.5,4.9,1.3C48.3,88.2,48.2,89.2,47.6,90.2z M47.6,75.7c-1.2,1.8-3.1,1.1-4.9,1.2v-5.4
		c1.8,0.2,3.6-0.6,4.9,1.2C48.3,73.7,48.3,74.8,47.6,75.7z"/>
	<path class="st2" d="M80.9,94.7c0.8,2.6-1.1,5.5-3.8,5.6c-4.3,0.1-8.7,0.1-13,0c-2.3-0.1-3.9-2-3.9-4.5c0-4.1,0-8.3,0-12.4
		c0-5.2,0-10.5,0-15.7c0-3.4,1.7-5.1,5.1-5.1c3.6,0,7.2,0,10.8,0c3.1,0,5.1,1.8,5.1,4.5c0,2.6-2.1,4.5-5.1,4.5c-2.2,0-4.5,0-6.8,0
		V77c1.6,0,3.1,0,4.7,0c2.9,0,4.9,2,4.9,4.6C78.8,84.1,76.8,86,74,86c-1.5,0-3.1,0-4.7,0v5.4c2.4,0,4.8,0,7.1,0S80.3,92.6,80.9,94.7
		z"/>
	<path class="st2" d="M104.2,93.2c-1.8,4.2-5.1,6.5-9.7,7c-1,0.1-2.1,0-3.1,0v0.1c-0.9,0-1.8,0-2.7,0c-2.6-0.1-4.5-1.9-4.5-4.4
		c0-2.3,1.8-4.3,4.3-4.5c1.5-0.1,3,0,4.5,0c2,0,3.1-0.9,3.2-2.6s-0.9-2.6-2.9-2.8C87,85.3,82.9,81.6,82,75.7
		c-0.9-6.4,4-12.5,10.5-13c1.9-0.2,3.9-0.1,5.8-0.1c2.6,0,4.4,1.8,4.5,4.3s-1.7,4.5-4.3,4.7c-1.7,0.1-3.5-0.1-5.2,0.2
		c-0.8,0.1-1.9,0.9-2.2,1.7c-0.3,0.8-0.1,2.1,0.5,2.7c0.5,0.6,1.6,0.9,2.5,1c3.4,0.3,6.3,1.7,8.5,4.4C105.4,85,106,89.1,104.2,93.2
		L104.2,93.2z"/>
	<path class="st2" d="M129.2,66.9c0.1,2.5-1.8,4.5-4.5,4.6c-0.8,0.1-1.7,0-2.7,0c0,6.9,0,13.6,0,20.3c0,1.6,0,3.2-0.1,4.8
		c-0.2,2-1.9,3.6-3.9,3.7c-2.1,0.2-4.1-1-4.7-2.9c-0.3-0.8-0.3-1.8-0.3-2.7c0-7.1,0-14.2,0-21.2v-1.9c-1,0-1.8,0-2.7,0
		c-2.7-0.1-4.6-2.1-4.5-4.6s2-4.4,4.7-4.4c4.7,0,9.4,0,14.1,0C127.3,62.6,129.1,64.4,129.2,66.9L129.2,66.9z"/>
</g>
<path class="st3" d="M162.9,79.1c-0.9-5.7-4-9.9-7.3-13.7c-0.9-1-1.8-2.1-2.5-3.1c0.2-1.7,0.5-3.5,0.8-5.3c0.1-0.8,0.3-1.5,0.4-2.3
	c1.6-10.2-3.3-18.9-12.9-22.7c-1.1-0.4-2.2-0.8-3.3-1.3c-1.5-0.6-2.9-1.1-4.3-1.7c-1-2.3-1.8-4.6-2.7-7.1l-0.2-0.5
	c-2.9-7.8-10.4-13.1-18.6-13.1c-0.8,0-1.6,0.1-2.4,0.2c-2.8,0.4-5.9,0.8-9.3,1.4c-2.1-1.8-4.2-3.4-6.2-5C90.5,1.7,86,0,81.5,0
	c-4.6,0-9.1,1.7-13.1,4.9c-0.8,0.7-1.7,1.4-2.5,2c-1.2,1-2.4,2-3.6,2.9c-2.4-0.3-4.9-0.8-7.4-1.2c-1.4-0.2-2.7-0.4-4-0.4
	c-8.5,0-15.6,4.9-18.9,13.1c-0.5,1.2-1,2.5-1.4,3.6c-0.5,1.4-1,2.7-1.6,4c-2.4,1-5,2-7.4,2.8C12.7,35,7.3,43.7,8.4,52.9
	c0.4,2.9,0.8,6,1.4,9.2c-1.7,2-3.4,4.1-5.2,6.4c-6,7.6-6.2,16.8-0.7,24.6C5.2,95,6.5,96.5,7.7,98c0.8,0.9,1.5,1.8,2.1,2.6
	c-0.3,2.1-0.6,4.2-1,6.4l-0.2,1.1c-1.7,10.2,3.1,18.9,12.7,22.8c1.3,0.5,2.6,1,3.9,1.5s2.6,1,3.8,1.5c1,2.6,2,5.2,2.9,7.6
	c2.9,7.8,10.4,13.1,18.6,13.1c0.8,0,1.6-0.1,2.4-0.2c3-0.4,6.1-0.8,9.2-1.4c0,0,0,0,0.1,0c0,0,0.1,0.1,0.2,0.2
	c0.7,0.6,1.5,1.2,2.2,1.8c3.8,3.2,8.2,6.9,14.4,7.8h0.3h4.2h0.3c6.2-0.9,10.5-4.6,14.4-7.8c0.8-0.6,1.5-1.2,2.2-1.8
	c0.1-0.1,0.2-0.1,0.2-0.2h0.1c2.9,0.6,5.8,0.9,8.5,1.3l0.8,0.1c0.8,0.1,1.6,0.2,2.4,0.2c8.1,0,15.5-5.3,18.5-13.1
	c0.4-1.1,0.8-2.2,1.2-3.2c0.6-1.4,1.1-2.9,1.7-4.5c2.4-0.9,4.9-1.8,7.6-2.9c9.7-3.8,14.6-12.6,12.8-22.9l-0.2-1.2
	c-0.4-2.1-0.7-4.2-1-6.2c0.9-1.2,1.8-2.3,2.6-3.2c3.2-3.7,6.3-7.9,7.2-13.5v-0.3v-4.2L162.9,79.1z M159,83.3
	c-0.7,4.6-3.3,8.1-6.2,11.5c-1.1,1.2-2.2,2.5-3.1,3.9c-0.4,0.5-0.6,1.3-0.5,1.9c0.4,2.7,0.8,5.5,1.3,8.2c1.4,8.3-2.5,15.4-10.4,18.5
	c-2.6,1-5.2,2.1-7.9,3c-1,0.3-1.5,0.9-1.8,1.8c-1,2.7-2,5.4-3.1,8c-2.2,5.9-8,10.5-14.7,10.5c-0.6,0-1.3,0-1.9-0.1
	c-3-0.4-6.1-0.8-9.1-1.4c-0.3-0.1-0.6-0.1-0.9-0.1c-1,0-1.8,0.4-2.6,1.1c-4.5,3.6-8.5,7.9-14.7,8.8h-3.6c-6.1-0.9-10.2-5.2-14.6-8.8
	c-0.9-0.7-1.6-1-2.6-1c-0.3,0-0.6,0-0.9,0.1c-3,0.6-6,1-9,1.4c-0.7,0.1-1.3,0.1-1.9,0.1c-6.6,0-12.5-4.3-14.9-10.5
	c-1-2.8-2.1-5.6-3.2-8.3c-0.2-0.6-0.8-1.1-1.4-1.4c-2.7-1.1-5.5-2.1-8.3-3.2c-7.8-3.1-11.6-10.2-10.2-18.4c0.5-2.7,0.9-5.5,1.3-8.2
	c0.1-0.6-0.2-1.5-0.6-2c-2-2.6-4.1-5-6-7.6c-4.8-6.5-4.5-13.8,0.3-20c1.8-2.2,3.5-4.4,5.3-6.6c0.7-0.8,0.9-1.6,0.7-2.6
	c-0.5-3.1-1-6.3-1.4-9.4c-1-7.5,3.5-14.4,10.6-17c2.7-1,5.4-2,8-3.1c0.6-0.2,1.2-0.9,1.5-1.5c1.1-2.7,2.1-5.5,3.2-8.2
	c2.7-6.8,8.3-10.6,15.2-10.6c1.1,0,2.2,0.1,3.3,0.3c2.7,0.5,5.5,1,8.2,1.3c0.1,0,0.1,0,0.2,0c0.6,0,1.2-0.2,1.7-0.6
	c2.2-1.7,4.4-3.6,6.6-5.3c3.3-2.7,7-4,10.6-4l0,0c3.6,0,7.2,1.3,10.5,3.9c2.2,1.7,4.3,3.5,6.5,5.2c0.6,0.5,1.1,0.7,1.8,0.7
	c0.2,0,0.4,0,0.6-0.1c3.2-0.5,6.4-1,9.6-1.4c0.6-0.1,1.3-0.1,2-0.1c6.6,0,12.5,4.3,14.8,10.5c1,2.7,2,5.5,3.2,8.2
	c0.3,0.6,0.9,1.3,1.6,1.6c2.6,1.1,5.4,2.1,8,3.1c7.8,3.1,11.7,10.1,10.4,18.3c-0.4,2.7-1,5.5-1.3,8.2c-0.1,0.7,0.2,1.6,0.6,2.2
	c0.9,1.3,1.9,2.5,2.9,3.7c3,3.4,5.6,7,6.3,11.6L159,83.3L159,83.3z"/>
</svg>
