<?xml version="1.0" encoding="UTF-8"?><svg xmlns="http://www.w3.org/2000/svg" xmlns:xlink="http://www.w3.org/1999/xlink" viewBox="0 0 393.03 388.87"><defs><style>.cls-1{fill:none;}.cls-2{mix-blend-mode:screen;}.cls-2,.cls-3,.cls-4,.cls-5{fill:#ac3f35;}.cls-2,.cls-6,.cls-7,.cls-8,.cls-9,.cls-10,.cls-11,.cls-12{opacity:.4;}.cls-13{clip-path:url(#clippath);}.cls-14{fill:#f7f3d0;}.cls-15,.cls-16,.cls-17,.cls-12{fill:#f6724a;}.cls-18{fill:#fffded;}.cls-19,.cls-20{fill:#e8e3bf;}.cls-21{fill:#f43a31;}.cls-22,.cls-11{fill:#f2b441;}.cls-23{fill:#97b92c;}.cls-24,.cls-25{fill:#9da201;}.cls-26{fill:#b8c73f;}.cls-27{fill:#babf17;}.cls-28{fill:#d93829;}.cls-29,.cls-30,.cls-31{fill:#c47d41;}.cls-32{fill:#d3cfaf;}.cls-33,.cls-34,.cls-35{fill:#d69b3c;}.cls-36{fill:#494949;}.cls-4,.cls-30,.cls-34{opacity:.15;}.cls-4,.cls-30,.cls-34,.cls-25,.cls-37,.cls-5,.cls-16,.cls-38,.cls-6,.cls-7,.cls-8,.cls-35,.cls-17,.cls-31,.cls-39,.cls-40,.cls-10,.cls-41{mix-blend-mode:multiply;}.cls-25,.cls-37,.cls-5,.cls-16,.cls-42{opacity:.2;}.cls-37,.cls-7{fill:#c92828;}.cls-43{clip-path:url(#clippath-1);}.cls-44{clip-path:url(#clippath-3);}.cls-45{clip-path:url(#clippath-2);}.cls-38,.cls-39{fill:#e5e1c1;}.cls-38,.cls-41,.cls-46{opacity:.3;}.cls-6{fill:#333;}.cls-8,.cls-40,.cls-47,.cls-48{fill:#f9d270;}.cls-35,.cls-17,.cls-31{opacity:.45;}.cls-39,.cls-49{opacity:.6;}.cls-40,.cls-20{opacity:.55;}.cls-42,.cls-46{fill:#fff;}.cls-50{fill:#515151;filter:url(#drop-shadow-1);}.cls-51{isolation:isolate;}.cls-47{opacity:.5;}.cls-48{opacity:.7;}</style><filter id="drop-shadow-1" filterUnits="userSpaceOnUse"><feOffset dx="-6.24" dy="2.08"/><feGaussianBlur result="blur" stdDeviation="0"/><feFlood flood-color="#58c9bb" flood-opacity=".35"/><feComposite in2="blur" operator="in"/><feComposite in="SourceGraphic"/></filter><clipPath id="clippath"><path class="cls-1" d="m244.67,169.87c13.13.22,25.64-.72,38-5.15s17.02-11.49,25.06-21.88c3.02.78,5.36,3.33,6.56,6.21-6.46,11.43-17.5,19.89-29.75,24.62-12.25,4.73-25.65,5.94-38.75,5.07,0,0,1.09-1.2.65-4.4-.35-2.57-1.77-4.47-1.77-4.47Z"/></clipPath><clipPath id="clippath-1"><path class="cls-1" d="m285.89,291.63c17.2-3.51,33.89-9.5,49.4-17.74,3.4,2.44,4.25,4.54,4.76,8.69,0,0-34.01,19.69-53.94,20.75,0,0,2.66-1.88,2.21-6.29-.28-2.7-2.42-5.41-2.42-5.41Z"/></clipPath><clipPath id="clippath-2"><path class="cls-1" d="m121.98,182.25c8.16,11.56,14.9,23.25,18.45,36.94,3.55,13.69.09,22.12-4.27,35.57,2.53,2.22,6.21,2.75,9.51,2.08,6.26-12.68,7.09-27.64,3.87-41.41-3.22-13.77-10.27-26.43-18.98-37.56,0,0-.4,1.7-3.52,3.25-2.51,1.25-5.05,1.13-5.05,1.13Z"/></clipPath><clipPath id="clippath-3"><path class="cls-1" d="m139.81,46.65c19.95,1.01,40.04-.86,59.46-5.53,3.06,3.65,3.4,6.21,2.77,10.93,0,0-43.05,12.05-65.31,7.56,0,0,3.46-1.32,4.21-6.31.46-3.05-1.13-6.65-1.13-6.65Z"/></clipPath></defs><g class="cls-51"><g id="Layer_2"><g id="OBJECTS"><path class="cls-50" d="m199.65,9.88c23.84,0,47.07,4.52,69.05,13.44,22.76,9.23,43.18,22.79,60.7,40.31,14.68,14.68,26.66,31.52,35.59,50.04,8.63,17.9,14.26,37.03,16.74,56.84,2.45,19.62,1.74,39.39-2.1,58.77-3.91,19.68-10.95,38.43-20.94,55.74-.76,1.31-1.3,2.69-1.65,4.11l-.33-.23-5.61,8.17c-6.39,9.31-13.69,18.09-21.68,26.08-8,8-16.77,15.29-26.08,21.68l-8.17,5.61.23.33c-1.43.36-2.82.91-4.11,1.66-27.74,16.01-59.43,24.47-91.65,24.47-23.84,0-47.07-4.52-69.05-13.44-22.76-9.23-43.18-22.79-60.7-40.31-14.68-14.68-26.66-31.52-35.59-50.04-8.63-17.9-14.26-37.03-16.74-56.84-2.45-19.62-1.74-39.39,2.1-58.77,3.91-19.68,10.95-38.43,20.94-55.75.76-1.31,1.3-2.69,1.65-4.11l.33.23,5.61-8.17c6.39-9.31,13.69-18.09,21.68-26.08s16.77-15.29,26.08-21.68l8.17-5.61-.23-.33c1.44-.36,2.82-.91,4.11-1.66,27.74-16.01,59.43-24.46,91.65-24.46m0-9.88c-33.4,0-66.79,8.59-96.59,25.79-.94.54-1.97.8-3,.8-1.63,0-3.24-.65-4.45-1.88-.01-.01-.02-.02-.03-.03-4.97-4.97-11.59-7.55-19.01-7.55-11,0-23.79,5.65-35.67,17.53-19.89,19.89-22.32,42.33-9.98,54.68.01.01.02.02.03.03,1.99,1.98,2.48,5.02,1.07,7.45C-10.64,170.77-.36,266.91,62.88,330.15c37.76,37.76,87.25,56.64,136.74,56.64,33.4,0,66.79-8.59,96.59-25.79.94-.54,1.97-.8,3-.8,1.63,0,3.24.65,4.45,1.88.01.01.02.02.03.03,4.97,4.97,11.59,7.55,19.01,7.55,11,0,23.79-5.65,35.67-17.53,19.88-19.88,22.32-42.33,9.98-54.68-.01-.01-.02-.02-.03-.03-1.99-1.98-2.48-5.02-1.07-7.45,42.67-73.95,32.39-170.08-30.85-233.32C298.63,18.88,249.14,0,199.65,0h0ZM40.04,84.12c-.75-.52-1.47-1.1-2.13-1.77-8.9-8.9-4.7-26.02,9.98-40.7,9.51-9.51,20.05-14.62,28.71-14.62,4.71,0,8.86,1.51,12,4.64.66.66,1.25,1.38,1.77,2.13-9.67,6.64-18.88,14.25-27.48,22.84-8.6,8.6-16.2,17.8-22.84,27.48h0Zm282.63,275.65c-4.71,0-8.86-1.51-12-4.64-.66-.66-1.25-1.38-1.77-2.13,9.67-6.64,18.88-14.25,27.48-22.84s16.2-17.8,22.84-27.48c.75.52,1.47,1.1,2.13,1.77,8.9,8.9,4.7,26.02-9.98,40.7-9.51,9.51-20.05,14.62-28.71,14.62h0Z"/><path class="cls-6" d="m310.67,355.12c1.29,1.29,2.75,2.31,4.35,3.05-2.97,2.09-5.98,4.08-9.02,5.98-.8-.63-1.57-1.31-2.31-2.04l-.03-.03c-1.99-1.99-5.02-2.48-7.46-1.07-73.94,42.66-170.08,32.39-233.32-30.86S-10.63,170.77,32.03,96.83c1.4-2.43.92-5.46-1.07-7.46l-.03-.03c-.74-.74-1.42-1.51-2.05-2.32,1.9-3.05,3.9-6.06,5.99-9.03.74,1.61,1.76,3.07,3.05,4.36.66.66,1.38,1.24,2.13,1.76,6.64-9.67,14.24-18.88,22.84-27.47s17.8-16.2,27.47-22.84c-.51-.75-1.1-1.46-1.76-2.13-1.29-1.29-2.75-2.31-4.36-3.05,2.97-2.09,5.98-4.08,9.03-5.99.81.63,1.58,1.32,2.32,2.05l.03.03c1.99,1.99,5.02,2.48,7.46,1.07,73.94-42.66,170.08-32.39,233.32,30.85s73.52,159.38,30.86,233.32c-1.4,2.43-.92,5.46,1.07,7.46l.03.03c.74.74,1.42,1.51,2.04,2.31-1.9,3.04-3.89,6.05-5.98,9.02-.74-1.6-1.76-3.06-3.05-4.35-.66-.66-1.38-1.24-2.13-1.76-6.63,9.68-14.24,18.88-22.83,27.48s-17.8,16.2-27.48,22.83c.52.76,1.1,1.47,1.76,2.13Z"/><circle class="cls-19" cx="199.63" cy="193.39" r="185.96"/><path class="cls-48" d="m237.07,127.91c21.17-21.17,65.6-40.04,95.35-51.04-2.52-2.86-5.13-5.67-7.86-8.4-68.99-68.99-180.85-68.99-249.84,0C7.15,136.03,5.76,244.7,70.52,313.96c22.42-7.9,52.71-21.72,74.82-43.83,56.97-56.97,30.2-80.69,91.72-142.22Z"/><path class="cls-8" d="m71.38,313.65c-.29.11-.57.21-.86.31C5.76,244.7,7.15,136.04,74.71,68.47c68.99-68.99,180.84-68.99,249.83,0,1.46,1.46,2.88,2.94,4.28,4.45-69.27-64.53-177.76-63.05-245.24,4.43s-68.72,166.92-12.2,236.3Z"/><path class="cls-8" d="m267.57,45.03c-6.67,4.97-11.15,12.24-16.18,18.87-5.03,6.62-11.27,13.02-19.37,14.92-13.87,3.24-26.74-7.6-40.47-11.43-11.2-3.14-23.68-1.38-33.57,4.72-7.57,4.67-13.48,11.61-20.61,16.93-7.13,5.32-16.55,9.05-24.88,5.95-3.98-1.48-7.3-4.38-9.86-7.76-8.38-11-8.66-26.54-3.2-39.35,56.73-39.17,131.26-41.39,190.01-6.67-8.03-.23-14.31-1.81-21.86,3.83Z"/><path class="cls-8" d="m145.34,270.13c-18.17,18.17-41.85,30.73-62.15,39.03-9.28-6.35-15.49-17.43-14.67-28.72.83-11.35,7.56-21.26,11.84-31.81,3.34-8.22,5.23-17.03,5.56-25.91.17-4.43-.05-8.94,1.12-13.22,3.01-10.92,14.61-17.65,25.89-18.69,10.69-1,21.89,1.97,32-1.68,12.72-4.59,19.55-17.91,28.08-28.4,8.86-10.9,21.1-19.56,34.83-22.96,6.36-1.58,14.5-3.03,21.92-2.28-52.11,56-29.85,80.07-84.41,134.63Z"/><path class="cls-8" d="m39.68,221.75c-3.84,3.1-8.46,5.47-13.27,6.45-7.86-39.32-2.27-80.77,16.79-117,8.99.78,17.97,3.34,24.12,8.05,3.4,2.61,6.3,6.07,7.39,10.22,1.83,6.95-1.75,14.25-6.41,19.73-4.67,5.47-10.51,9.94-14.6,15.86-1.17,1.7-2.21,3.56-2.5,5.6-.45,3.02.77,6,1.63,8.93,4.4,14.98-1.03,32.35-13.16,42.16Z"/><path class="cls-15" d="m332.42,76.88c-29.75,11-74.19,29.87-95.35,51.04-61.52,61.52-34.76,85.25-91.72,142.22-22.11,22.11-52.4,35.94-74.82,43.83,1.37,1.47,2.76,2.92,4.19,4.35,68.99,68.99,180.85,68.99,249.84,0,66.26-66.26,68.87-172.05,7.86-241.44Z"/><g class="cls-49"><path class="cls-17" d="m359.3,269.11c-3.41-.3-6.9-1.68-9.79-3.56-5.45-3.56-9.92-8.61-15.81-11.37-6.71-3.15-14.42-2.93-21.8-3.68-7.37-.75-15.35-3.01-19.41-9.2-3.8-5.8-3.1-13.45-1.15-20.1,1.94-6.66,4.97-13.1,5.42-20.02.54-8.22-2.86-16.61-8.97-22.13-4.69-4.24-10.78-6.8-15.07-11.43-5.87-6.32-7.19-17.02-1.6-23.59,4.18-4.9,10.92-6.58,16.45-9.89,7.35-4.39,12.67-12.02,14.28-20.43.69-3.66.72-7.47,1.83-11.02,2.2-7.08,8.47-12.29,15.34-15.06,6.07-2.43,12.63-3.24,19.16-3.83,42.36,53.41,49.4,125.65,21.11,185.32Z"/><path class="cls-17" d="m318.03,324.52c-51.24,46.35-123.11,57.32-184.12,32.9-1.04-3.87-1.32-7.9-.58-11.85,2.25-12.05,13.05-20.44,23.53-26.79,10.49-6.36,22.05-12.44,27.97-23.17,4.23-7.68,4.96-16.77,8.06-24.96,6.89-18.24,26.18-20.24,40.52-8.8,6.87,5.47,11.73,13.02,16.65,20.3,4.92,7.28,10.2,14.62,17.59,19.4,12.48,8.07,28.98,7.57,41.66,15.33,3.32,2.04,6.26,4.64,8.72,7.64Z"/><path class="cls-17" d="m271.44,192.12c1.95,8.92-2.1,18.84-9.72,23.86-4.07,2.68-9.15,4.18-12,8.13-2.14,2.97-2.61,6.78-3.64,10.3-1.33,4.52-3.77,8.83-7.5,11.71-3.73,2.88-8.83,4.17-13.31,2.71-4.37-1.43-7.64-5.26-9.36-9.52-1.72-4.26-2.07-8.94-2.12-13.54-.07-6.92.74-14.41,5.38-19.55,2.46-2.72,5.79-4.53,8.21-7.28,7.11-8.1,5.44-28.24,19.03-30.22,10.78-1.57,23.04,14.36,25.02,23.41Z"/><path class="cls-17" d="m330.12,312.5c-8.9-2.88-16.05-11.1-24.98-14.86-6.51-2.73-13.85-3.01-20.27-5.93-3.13-1.41-6.11-3.61-7.43-6.77-2.41-5.81,1.91-12.67,7.67-15.2,5.76-2.52,12.37-1.84,18.59-.88,13.24,2.03,37.62,3.8,47.93,14.64-6.05,10.2-13.23,19.92-21.52,28.98Z"/></g><path class="cls-17" d="m267.44,283.6c-.91.91-2.38.91-3.29,0s-.91-2.38,0-3.29,2.38-.91,3.29,0,.91,2.38,0,3.29Z"/><path class="cls-17" d="m359.68,239.41c-.91.91-2.38.91-3.29,0s-.91-2.38,0-3.29,2.38-.91,3.29,0,.91,2.38,0,3.29Z"/><path class="cls-17" d="m124.39,340.36c-.91.91-2.38.91-3.29,0s-.91-2.38,0-3.29,2.38-.91,3.29,0,.91,2.38,0,3.29Z"/><circle class="cls-17" cx="301.72" cy="317.77" r="2.32"/><path class="cls-17" d="m338.04,104.4c-.91.91-2.38.91-3.29,0s-.91-2.38,0-3.29,2.38-.91,3.29,0,.91,2.38,0,3.29Z"/><path class="cls-17" d="m251.76,158.35c-.91.91-2.38.91-3.29,0s-.91-2.38,0-3.29,2.38-.91,3.29,0,.91,2.38,0,3.29Z"/><path class="cls-17" d="m196.39,258.92c-.91.91-2.38.91-3.29,0s-.91-2.38,0-3.29,2.38-.91,3.29,0,.91,2.38,0,3.29Z"/><circle class="cls-17" cx="276.47" cy="237.59" r="1.75"/><path class="cls-17" d="m363.85,170.54c-.68.68-1.79.68-2.47,0s-.68-1.79,0-2.47,1.79-.68,2.47,0,.68,1.79,0,2.47Z"/><circle class="cls-17" cx="327.39" cy="142.65" r="1.75"/><circle class="cls-17" cx="294.78" cy="179.55" r="1.75"/><circle class="cls-17" cx="159.26" cy="288.57" r="1.75"/><circle class="cls-17" cx="222.76" cy="282.46" r="1.75"/><path class="cls-17" d="m248.34,352.87c-.68.68-1.79.68-2.47,0s-.68-1.79,0-2.47,1.79-.68,2.47,0,.68,1.79,0,2.47Z"/><path class="cls-17" d="m253.12,320.65c-.68.68-1.79.68-2.47,0s-.68-1.79,0-2.47,1.79-.68,2.47,0,.68,1.79,0,2.47Z"/><circle class="cls-17" cx="101.77" cy="312.49" r="1.75"/><path class="cls-17" d="m223.11,194.48c-.68.68-1.79.68-2.47,0s-.68-1.79,0-2.47,1.79-.68,2.47,0,.68,1.79,0,2.47Z"/><path class="cls-16" d="m156.61,282.19c-21.69,21.69-51.05,35.6-73.67,43.84-2.81-2.47-5.55-5.04-8.23-7.72-1.43-1.43-2.82-2.88-4.19-4.35,22.42-7.9,52.71-21.72,74.82-43.83,56.96-56.96,30.2-80.69,91.73-142.21,21.16-21.16,65.6-40.04,95.35-51.04,2.91,3.31,5.69,6.72,8.31,10.19-30.02,11.51-70.19,29.49-90.14,49.44-63.02,63.02-35.61,87.33-93.97,145.69Z"/><path class="cls-40" d="m229.89,123.71c-.91.91-2.38.91-3.29,0s-.91-2.38,0-3.29,2.38-.91,3.29,0,.91,2.38,0,3.29Z"/><path class="cls-40" d="m48.41,261.93c-.91.91-2.38.91-3.29,0s-.91-2.38,0-3.29,2.38-.91,3.29,0,.91,2.38,0,3.29Z"/><path class="cls-40" d="m284.58,52.75c-.91.91-2.38.91-3.29,0s-.91-2.38,0-3.29,2.38-.91,3.29,0,.91,2.38,0,3.29Z"/><path class="cls-40" d="m184.61,178.74c-.91.91-2.38.91-3.29,0s-.91-2.38,0-3.29,2.38-.91,3.29,0,.91,2.38,0,3.29Z"/><path class="cls-40" d="m115.21,279c-.91.91-2.38.91-3.29,0s-.91-2.38,0-3.29,2.38-.91,3.29,0,.91,2.38,0,3.29Z"/><path class="cls-40" d="m196.66,78.01c-.91.91-2.38.91-3.29,0s-.91-2.38,0-3.29,2.38-.91,3.29,0,.91,2.38,0,3.29Z"/><path class="cls-40" d="m235.03,36.36c-.91.91-2.38.91-3.29,0s-.91-2.38,0-3.29,2.38-.91,3.29,0,.91,2.38,0,3.29Z"/><path class="cls-40" d="m41.46,216.82c-.91.91-2.38.91-3.29,0s-.91-2.38,0-3.29,2.38-.91,3.29,0,.91,2.38,0,3.29Z"/><path class="cls-40" d="m120.31,57.57c-.91.91-2.38.91-3.29,0s-.91-2.38,0-3.29,2.38-.91,3.29,0,.91,2.38,0,3.29Z"/><path class="cls-40" d="m75.2,185.01c-.91.91-2.38.91-3.29,0s-.91-2.38,0-3.29,2.38-.91,3.29,0,.91,2.38,0,3.29Z"/><circle class="cls-40" cx="286.87" cy="82.84" r="1.75"/><circle class="cls-40" cx="129.26" cy="222.14" r="1.75"/><circle class="cls-40" cx="162.94" cy="222.2" r="1.75"/><path class="cls-40" d="m110.67,195c-.68.68-1.79.68-2.47,0s-.68-1.79,0-2.47,1.79-.68,2.47,0,.68,1.79,0,2.47Z"/><circle class="cls-40" cx="50.69" cy="149.9" r="1.75"/><path class="cls-40" d="m173.12,36.15c-.68.68-1.79.68-2.47,0s-.68-1.79,0-2.47,1.79-.68,2.47,0,.68,1.79,0,2.47Z"/><circle class="cls-40" cx="96.42" cy="69.34" r="1.75"/><path class="cls-40" d="m147.79,105.28c-.68.68-1.79.68-2.47,0s-.68-1.79,0-2.47,1.79-.68,2.47,0,.68,1.79,0,2.47Z"/><path class="cls-40" d="m35,190.12c-.68.68-1.79.68-2.47,0s-.68-1.79,0-2.47,1.79-.68,2.47,0,.68,1.79,0,2.47Z"/><path class="cls-24" d="m245.79,178.74s-3.43-2.97-1.12-8.87c0,0,3.65.65,3.92,3.86.27,3.21-2.8,5.01-2.8,5.01Z"/><path class="cls-27" d="m244.67,169.87c13.13.22,25.64-.72,38-5.15s17.02-11.49,25.06-21.88c3.02.78,5.36,3.33,6.56,6.21-6.46,11.43-17.5,19.89-29.75,24.62-12.25,4.73-25.65,5.94-38.75,5.07,0,0,1.09-1.2.65-4.4-.35-2.57-1.77-4.47-1.77-4.47Z"/><path class="cls-18" d="m307.73,142.85c-4.42,5.71-7.82,10.41-12.04,14.23.14.13.26.26.36.41.51.78.53,1.85.03,2.64.78-.03,1.61.23,2.09.85.47.61.47,1.61-.13,2.11.74-.52,1.88-.33,2.41.4.23.3.33.68.32,1.05,5.45-4.26,10.13-9.46,13.53-15.48-1.2-2.88-3.54-5.43-6.56-6.21Z"/><g class="cls-13"><g class="cls-41"><path class="cls-24" d="m251.87,176.89c-2.01,0-4.07-.06-6.18-.19l.03-.57c38.15,2.29,60.84-16.94,66.79-30.42l.52.23c-5.68,12.87-26.46,30.94-61.17,30.94Z"/><path class="cls-24" d="m251.73,172.93c-2.19,0-4.44-.07-6.76-.2l.03-.57c37.22,2.19,57.9-13.81,64.84-29.51l.52.23c-6.58,14.89-25.35,30.05-58.63,30.05Z"/></g></g><path class="cls-39" d="m310.26,144c-.65,4.16-2.47,8.1-4.93,11.53-2.77,3.85-6.32,7.07-10.12,9.9-7.36,5.49-15.8,9.85-24.71,12.13,4.79-.86,9.5-2.12,14.04-3.88,12.25-4.73,23.3-13.19,29.75-24.62-.84-2.02-2.24-3.87-4.04-5.06Z"/><path class="cls-46" d="m262.92,172.79c-.26-.02-.52-.05-.75-.17-.23-.12-.42-.34-.43-.6,0-.46.52-.72.96-.85,1.91-.55,3.89-.8,5.86-.99.65-.06,1.8-.1,1.87.8.06.79-.83,1.18-1.44,1.37-1.94.6-4.07.64-6.07.45Z"/><path class="cls-46" d="m254.48,173.3c-.21-.05-.44-.11-.55-.3-.11-.18-.07-.43.05-.6s.31-.29.5-.38c.88-.41,1.88-.44,2.85-.45.4,0,.86.01,1.11.33,1.34,1.72-3.44,1.51-3.97,1.4Z"/><path class="cls-32" d="m285.89,291.63s-3.18,3.13-2.44,7.91c.74,4.78,2.65,3.79,2.65,3.79,0,0,5.3-2.31,4.14-5.87-1.16-3.56-4.36-5.84-4.36-5.84Z"/><path class="cls-27" d="m285.89,291.63c17.2-3.51,33.89-9.5,49.4-17.74,3.4,2.44,4.25,4.54,4.76,8.69,0,0-34.01,19.69-53.94,20.75,0,0,2.66-1.88,2.21-6.29-.28-2.7-2.42-5.41-2.42-5.41Z"/><path class="cls-18" d="m286.1,303.34s2.66-1.88,2.2-6.3c-.28-2.7-2.42-5.41-2.42-5.41,5.25-1.07,10.45-2.37,15.59-3.9-.51.61-.65,1.41-.39,2.25.36,1.13,1.42,2.22,2.6,2.17-1.6.65-1.73,3.73,1,4.55-.56.71-.74,1.66-.57,2.55-6.39,2.21-12.7,3.81-18.01,4.09Z"/><g class="cls-43"><g class="cls-41"><path class="cls-24" d="m286.02,296.12v-.54c10.31-.21,24.18-5.81,34-10.47,10.65-5.05,18.96-10.12,19.04-10.17l.28.46c-.33.2-33.4,20.31-53.32,20.72Z"/><path class="cls-24" d="m285.83,300.27c-.3,0-.6,0-.9-.01v-.54c23.62.53,55.24-20.6,55.56-20.82l.3.44c-.31.21-31.26,20.92-54.95,20.92Z"/></g></g><path class="cls-38" d="m286.1,303.34s2.66-1.88,2.2-6.3c0-.06-.01-.11-.02-.17,8.2,1.56,16.9.37,24.94-2.15,6.87-2.15,13.39-5.23,19.88-8.35-10.99,5.78-32.65,16.2-47,16.96Z"/><path class="cls-46" d="m334.08,275.96c-.43.08-.86.29-1.07.67-.08.16-.12.33-.13.51-.02.45.17.89.46,1.23s.69.58,1.12.73c.91.32,3.16.1,2.82-1.35-.31-1.31-2.01-2.02-3.2-1.79Z"/><path class="cls-28" d="m337.85,130.12c3.05,1.03,6.06,2.27,9.26,2.68-.82-7.24-6.25-13.33-12.71-16.7-6.45-3.38-13.84-4.45-21.09-5.12-4.35-.4-8.88-.66-12.97.91-2.02.77-3.96,2.08-4.87,4.05-.75,1.63-.69,3.54-.26,5.28,2.2,9.04,10.77,5.28,17.38,5.11,8.56-.23,17.15,1.05,25.26,3.79Z"/><path class="cls-42" d="m301.08,126.04c.42.1.89.14,1.27-.07.51-.27.73-.93.61-1.5-.12-.57-.51-1.04-.96-1.4-.83-.65-1.9-.97-2.95-.89-.34.03-.7.1-.96.32-1.63,1.32,2.01,3.31,2.99,3.53Z"/><path class="cls-24" d="m295.17,116.56c-.69.26-1.03,1.18-.67,1.82-.37.19-.61.59-.61,1.01s.24.82.6,1.01c-.23.45-.29,1-.09,1.46.21.46.71.8,1.21.73.39-.52.55-1.18.61-1.83s-.01-1.3-.11-1.95c-.12-.78-.36-1.73-.94-2.26Z"/><path class="cls-7" d="m300.34,111.88c4.08-1.56,8.61-1.31,12.97-.9,7.25.67,14.64,1.74,21.09,5.12,6.45,3.37,11.89,9.46,12.71,16.7-2.44-.31-4.79-1.11-7.11-1.94-1.34-2.34-2.92-4.55-4.71-6.56-2.14-2.4-4.61-4.55-7.5-5.94-2.49-1.21-5.2-1.83-7.93-2.3-7.94-1.39-16.08-1.62-24.08-.69.99-1.67,2.74-2.8,4.56-3.5Z"/><path class="cls-28" d="m274.49,224.73c-8.28,9.54-25.97,28.76-32.9,35.47-.9.87-2.36.03-2.08-1.19.74-3.28,1.82-6.5,2.97-9.67,5.18-14.28,12.08-27.87,20.55-40.47,2.59-3.85,5.37-7.66,9.03-10.52,3.65-2.86,9.13-6.77,12.92-4.1,12.37,8.73-6.65,26.06-10.48,30.48Z"/><path class="cls-42" d="m285.34,201.27c-.53.48-.88,1.11-1.21,1.74-.69,1.32-1.35,2.69-1.63,4.15-.1.53-.11,1.19.33,1.51.5.36,1.2.02,1.68-.36.99-.77,1.85-1.73,2.4-2.85.63-1.3,1.15-6.64-1.57-4.18Z"/><path class="cls-24" d="m288.54,198.53c.41-.73.02-1.77-.76-2.06.17-.43.09-.96-.21-1.32s-.81-.53-1.26-.43c-.13-.56-.48-1.08-1-1.32-.52-.24-1.2-.16-1.58.26.05.74.39,1.42.82,2.02.43.6.97,1.11,1.52,1.6.67.59,1.57,1.22,2.47,1.26Z"/><path class="cls-7" d="m239.54,259.71c-.06-.2-.08-.44-.03-.69.74-3.29,1.82-6.5,2.96-9.67,5.18-14.28,12.08-27.87,20.55-40.47,2.6-3.85,5.37-7.66,9.03-10.53,3.03-2.37,7.33-5.47,10.86-4.92-2.18,1.88-4.94,3.54-6.79,5.28-3.59,3.39-6.92,7.07-9.98,10.95-3.48,4.41-6.64,9.09-9.51,13.92-6.82,11.46-12.09,23.76-17.1,36.13Z"/><path class="cls-28" d="m234.58,284.87c4.48,11.82,39.02,34.66,49.04,40.14,1.19.65,2.51-.64,1.88-1.84-2.67-5.07-10.4-14.77-14.08-19.43-6.23-7.89-12.61-15.66-19.14-23.3-2.06-2.41-4.25-4.89-7.18-6.1-6.88-2.84-12.91,4.26-10.53,10.54Z"/><path class="cls-42" d="m236.45,286.01c.27.28.59.55.98.64.67.17,1.38-.24,1.77-.81s.5-1.28.57-1.97c.08-.88.07-1.8-.22-2.64-.29-.84-.9-1.6-1.74-1.9-1.47-.53-2.75,1.03-2.86,2.34-.13,1.57.41,3.21,1.51,4.34Z"/><path class="cls-24" d="m239.45,274.17c-.57-.38-1.45-.13-1.73.49-.34-.17-.78-.13-1.09.09-.31.22-.48.63-.43,1.01-.46.07-.91.33-1.15.74-.23.41-.21.97.11,1.31.6,0,1.19-.23,1.71-.54s.97-.72,1.4-1.15c.52-.51,1.1-1.21,1.18-1.94Z"/><path class="cls-7" d="m252.29,280.43c6.53,7.65,12.91,15.41,19.14,23.31,3.68,4.66,11.41,14.35,14.08,19.43.63,1.2-.69,2.49-1.88,1.84-2.62-1.44-6.92-4.06-11.93-7.37-.28-2.34-.66-4.65-1.41-6.88-.97-2.9-2.54-5.56-4.17-8.14-2.77-4.38-5.8-8.6-9.01-12.67-4.85-6.16-10.29-12.09-17.05-16,1.54-.42,3.27-.35,5.05.39,2.93,1.21,5.12,3.69,7.18,6.1Z"/><path class="cls-28" d="m275.86,267.01c-3.51.98-6.99,2.19-10.62,2.45,1.37-8.12,7.89-14.66,15.39-18.08,7.5-3.41,15.91-4.17,24.14-4.47,4.94-.18,10.07-.19,14.59,1.83,2.24,1,4.35,2.6,5.24,4.88.74,1.89.56,4.04-.03,5.99-3.05,10.08-12.49,5.3-19.95,4.69-9.65-.79-19.44.12-28.77,2.72Z"/><path class="cls-42" d="m317.64,264.68c-.48.08-1.01.1-1.43-.15-.56-.34-.76-1.1-.6-1.73.17-.63.64-1.14,1.17-1.52.97-.68,2.2-.98,3.38-.83.39.05.78.16,1.07.42,1.76,1.59-2.47,3.61-3.59,3.81Z"/><path class="cls-24" d="m324.9,254.33c.76.33,1.09,1.39.65,2.1.4.24.65.71.63,1.18-.02.47-.32.91-.74,1.11.23.52.27,1.15,0,1.66-.26.51-.85.85-1.41.75-.41-.61-.55-1.37-.57-2.1-.03-.74.1-1.47.24-2.19.18-.88.51-1.93,1.2-2.49Z"/><path class="cls-7" d="m319.36,248.73c-4.51-2.01-9.64-2.01-14.59-1.82-8.23.3-16.64,1.05-24.14,4.48-7.5,3.41-14.01,9.95-15.39,18.08,2.78-.2,5.47-.96,8.15-1.75,1.66-2.56,3.58-4.96,5.73-7.12,2.57-2.57,5.49-4.85,8.84-6.24,2.88-1.21,5.99-1.74,9.1-2.11,9.05-1.08,18.26-.84,27.24.72-1.01-1.95-2.92-3.33-4.94-4.23Z"/><path class="cls-28" d="m171.12,351.82c-1.66,2.15-3.19,4.42-5.24,6.2-2.8-5.45-1.84-12.26,1.11-17.64,2.95-5.38,7.63-9.58,12.4-13.43,2.86-2.31,5.92-4.6,9.51-5.41,1.78-.4,3.75-.39,5.3.57,1.29.8,2.13,2.16,2.65,3.58,2.68,7.37-5.08,8.73-9.8,11.69-6.1,3.83-11.53,8.74-15.94,14.44Z"/><path class="cls-42" d="m194.98,331.8c-.25.27-.56.51-.92.55-.48.05-.94-.31-1.13-.76s-.13-.97.02-1.43c.28-.84.88-1.57,1.65-2,.25-.14.54-.25.82-.23,1.76.16.13,3.25-.45,3.87Z"/><path class="cls-24" d="m194.7,322.39c.6-.14,1.27.34,1.32.96.35-.04.71.13.9.42.19.29.21.68.05.99.37.21.67.57.74.99.07.42-.13.89-.51,1.08-.52-.18-.94-.57-1.28-1-.34-.43-.6-.92-.83-1.42-.28-.6-.56-1.38-.4-2.02Z"/><path class="cls-7" d="m188.9,321.53c-3.59.81-6.65,3.1-9.51,5.42-4.77,3.85-9.45,8.05-12.39,13.43-2.95,5.38-3.92,12.18-1.11,17.64,1.57-1.36,2.83-3.01,4.08-4.67-.15-2.27-.08-4.55.24-6.8.38-2.68,1.11-5.34,2.49-7.66,1.18-2.01,2.8-3.71,4.48-5.31,4.91-4.68,10.51-8.64,16.56-11.72-1.47-.71-3.22-.68-4.83-.32Z"/><path class="cls-28" d="m137.69,308.14c-8.3,4.53-25.17,14.39-31.18,18.39-.78.52-.4,1.72.53,1.71,2.52-.02,5.04-.29,7.54-.62,11.26-1.5,22.3-4.38,32.86-8.56,3.23-1.28,6.46-2.7,9.14-4.92,2.68-2.21,6.41-5.59,5.06-8.79-4.4-10.44-20.11.7-23.95,2.8Z"/><path class="cls-42" d="m156.56,303.95c-.43.31-.95.46-1.46.6-1.08.3-2.18.55-3.3.53-.41,0-.89-.11-1.05-.48-.18-.42.18-.88.53-1.17.72-.6,1.56-1.08,2.47-1.3,1.05-.25,5.04.22,2.81,1.82Z"/><path class="cls-24" d="m159.08,302.05c.59-.18,1.3.27,1.39.88.34-.06.72.09.93.36s.26.67.11.99c.39.18.71.53.81.94.1.42-.07.9-.44,1.11-.53-.15-.97-.51-1.35-.92s-.66-.88-.92-1.37c-.32-.59-.64-1.35-.52-2Z"/><path class="cls-7" d="m106.53,328.1c.14.08.31.13.5.13,2.52-.02,5.04-.29,7.54-.62,11.27-1.5,22.3-4.38,32.87-8.56,3.23-1.28,6.46-2.7,9.14-4.92,2.22-1.84,5.17-4.48,5.33-7.15-1.72,1.29-3.37,3.04-4.94,4.12-3.05,2.08-6.27,3.93-9.6,5.54-3.78,1.84-7.7,3.4-11.7,4.73-9.46,3.15-19.3,5.04-29.14,6.73Z"/><path class="cls-28" d="m318.71,166.55c-3.23,6.24-9.54,19.34-11.58,24.3-.26.64.47,1.22,1.04.83,1.55-1.06,2.99-2.27,4.39-3.52,6.32-5.61,11.93-11.97,16.71-18.94,1.46-2.13,2.86-4.35,3.59-6.83.73-2.48,1.63-6.11-.53-7.53-7.05-4.61-12.11,8.79-13.61,11.68Z"/><path class="cls-42" d="m328.61,156.12c-.14.37-.39.68-.65.98-.54.63-1.11,1.25-1.81,1.7-.26.16-.59.3-.85.14-.29-.19-.25-.61-.16-.94.19-.67.51-1.31.98-1.83.54-.59,3.2-1.96,2.49-.05Z"/><path class="cls-24" d="m329.37,153.9c.29-.36.91-.38,1.22-.03.19-.18.48-.24.72-.16.25.08.44.31.48.56.31-.05.66.03.89.25.23.22.33.58.19.87-.39.13-.82.09-1.21,0-.4-.1-.77-.27-1.14-.46-.44-.23-.96-.56-1.16-1.02Z"/><path class="cls-7" d="m307.8,191.81c.12,0,.24-.05.36-.13,1.55-1.06,2.99-2.27,4.39-3.52,6.32-5.61,11.93-11.97,16.71-18.94,1.46-2.13,2.86-4.35,3.59-6.83.6-2.06,1.33-4.91.31-6.63-.53,1.51-.81,3.28-1.33,4.59-1.02,2.55-2.24,5.03-3.61,7.41-1.57,2.71-3.33,5.3-5.25,7.78-4.52,5.88-9.8,11.13-15.17,16.26Z"/><path class="cls-28" d="m223.19,212.43c2.87,13.55-15.45,55.08-21.45,66.07-.71,1.31-2.7.9-2.83-.59-.54-6.26.85-19.78,1.48-26.26,1.07-10.97,2.35-21.91,3.85-32.83.47-3.44,1.02-7.02,3.01-9.88,4.66-6.69,14.43-3.72,15.95,3.48Z"/><path class="cls-42" d="m222.14,214.59c-.08.42-.22.86-.52,1.17-.52.55-1.42.6-2.11.3-.7-.3-1.23-.88-1.69-1.48-.6-.77-1.13-1.61-1.36-2.56-.23-.95-.12-2.01.47-2.78,1.04-1.36,3.15-.68,4.03.46,1.05,1.37,1.52,3.2,1.18,4.9Z"/><path class="cls-24" d="m212.36,205.45c.3-.68,1.26-.98,1.89-.58.22-.36.64-.59,1.06-.56.42.02.82.29.99.67.47-.21,1.04-.24,1.49,0,.46.24.77.77.67,1.27-.55.36-1.23.49-1.9.51s-1.32-.09-1.97-.23c-.79-.16-1.73-.46-2.24-1.09Z"/><path class="cls-7" d="m204.23,218.82c-1.49,10.92-2.78,21.86-3.84,32.83-.64,6.47-2.03,20-1.48,26.26.13,1.48,2.11,1.89,2.82.59,1.57-2.88,3.98-7.85,6.64-13.86-1.12-2.32-2.14-4.68-2.78-7.18-.82-3.25-.95-6.63-.98-9.98-.04-5.68.25-11.37.8-17.02.83-8.56,2.33-17.24,6.25-24.85-1.67.53-3.22,1.61-4.43,3.35-1.99,2.85-2.53,6.44-3.01,9.88Z"/><path class="cls-26" d="m281.31,148.97c-.67-3.29-2.03-6.5-4.29-8.98-1.38-1.51-3.06-2.71-4.87-3.66-5.01-2.64-11.04-3.28-16.5-1.76,1.15,6.23,5,11.66,10.52,14.79,1.73.98,3.64,1.74,5.62,1.9,3.32.27,6.47-.94,9.52-2.28Z"/><path class="cls-27" d="m281.31,148.97c-.67-3.29-2.03-6.5-4.29-8.98-1.38-1.51-3.06-2.71-4.87-3.66-5.01-2.64-11.04-3.28-16.5-1.76,1.15,6.23,5,11.66,10.52,14.79,1.73.98,3.64,1.74,5.62,1.9,3.32.27,6.47-.94,9.52-2.28Z"/><g class="cls-41"><path class="cls-23" d="m280.88,148.99c-.05,0-.11-.01-.16-.04-8.13-4-16.15-8.45-23.86-13.23-.17-.11-.22-.33-.12-.5.1-.17.33-.22.5-.12,7.69,4.76,15.69,9.2,23.8,13.19.18.09.25.31.16.48-.06.13-.19.2-.32.2Z"/><path class="cls-23" d="m275.16,146.09c-.15,0-.3-.1-.34-.25-.92-2.92-2.35-5.61-4.24-8.02-.12-.16-.1-.38.06-.51.16-.12.38-.1.51.06,1.94,2.48,3.41,5.25,4.36,8.25.06.19-.04.39-.24.45-.04.01-.07.02-.11.02Z"/><path class="cls-23" d="m267.53,141.88c-.18,0-.34-.13-.36-.32-.29-2.28-1.76-4.26-3.06-6-.12-.16-.09-.39.07-.51.16-.12.39-.09.51.07,1.29,1.73,2.89,3.87,3.2,6.34.02.2-.12.38-.31.4-.02,0-.03,0-.04,0Z"/><path class="cls-23" d="m266.09,147.42c-.18,0-.33-.13-.36-.31-.03-.2.11-.38.3-.41,2.25-.34,4.4-1.23,6.23-2.58.16-.12.39-.08.51.08.12.16.08.39-.08.51-1.92,1.42-4.19,2.36-6.55,2.72-.02,0-.04,0-.05,0Z"/><path class="cls-23" d="m259.23,142.08c-.18,0-.33-.13-.36-.32-.03-.2.11-.38.31-.41,1.71-.22,3.31-.73,5.37-1.69.18-.08.4,0,.48.18.08.18,0,.4-.17.48-2.13.99-3.8,1.52-5.59,1.75-.02,0-.03,0-.05,0Z"/></g><path class="cls-26" d="m249.92,333.04c.98,2.1,2.42,4.04,4.34,5.34,1.17.79,2.5,1.33,3.87,1.67,3.8.96,7.95.42,11.38-1.49-1.78-4.01-5.25-7.03-9.46-8.24-1.33-.38-2.72-.58-4.09-.37-2.28.35-4.2,1.68-6.03,3.08Z"/><path class="cls-27" d="m249.92,333.04c.98,2.1,2.42,4.04,4.34,5.34,1.17.79,2.5,1.33,3.87,1.67,3.8.96,7.95.42,11.38-1.49-1.78-4.01-5.25-7.03-9.46-8.24-1.33-.38-2.72-.58-4.09-.37-2.28.35-4.2,1.68-6.03,3.08Z"/><g class="cls-41"><path class="cls-23" d="m268.42,338.48s-.05,0-.08-.01c-5.93-1.95-12.03-3.64-18.13-5.01-.13-.03-.22-.16-.19-.3.03-.13.16-.22.3-.19,6.12,1.38,12.23,3.07,18.18,5.03.13.04.2.18.16.32-.03.11-.13.17-.24.17Z"/><path class="cls-23" d="m258.78,339.25c-.05,0-.11-.02-.16-.05-1.71-1.35-3.14-2.98-4.26-4.84-.07-.12-.03-.27.08-.34.12-.07.27-.03.34.08,1.09,1.81,2.49,3.39,4.15,4.7.11.09.13.24.04.35-.05.06-.12.09-.2.09Z"/><path class="cls-23" d="m263.49,339.71c-.06,0-.11-.02-.16-.06-1.14-.95-2.57-2.13-3.18-3.75-.05-.13.02-.27.15-.32.13-.05.27.02.32.15.56,1.49,1.87,2.58,3.03,3.54.11.09.12.25.03.35-.05.06-.12.09-.19.09Z"/><path class="cls-23" d="m256.59,334.93c-.06,0-.11-.02-.16-.06-.11-.09-.12-.25-.03-.35,1.06-1.27,2.43-2.26,3.97-2.89.12-.05.27,0,.33.14.05.13,0,.27-.14.33-1.46.59-2.76,1.54-3.77,2.75-.05.06-.12.09-.19.09Z"/><path class="cls-23" d="m262.53,336.63c-.07,0-.15-.03-.2-.09-.09-.11-.07-.27.04-.35,1.27-1.01,2.31-1.64,3.47-2.08.13-.05.27.01.32.14.05.13-.01.27-.14.32-1.11.42-2.11,1.02-3.34,2-.05.04-.1.05-.16.05Z"/></g><path class="cls-24" d="m179.1,266.9c-3.51,4.38-5.45,10-5.39,15.61.06,5.62,2.13,11.19,5.73,15.49,1.75-.98,3.19-2.85,4.12-4.62,2.31-4.36,3.1-9.49,2.22-14.34-.88-4.85-3-8.88-6.69-12.14Z"/><g class="cls-10"><path class="cls-23" d="m179.41,297.96h-.02c-.2,0-.35-.18-.34-.38.43-9.01.42-18.16-.03-27.18-.01-.2.14-.37.34-.38.2,0,.37.14.38.34.45,9.04.46,18.21.03,27.25,0,.19-.17.34-.36.34Z"/><path class="cls-23" d="m179.64,291.56c-.1,0-.19-.04-.26-.11-2.16-2.28-3.88-4.91-5.1-7.8-.08-.18,0-.4.19-.47.18-.08.4,0,.47.19,1.19,2.81,2.86,5.36,4.96,7.58.14.14.13.37-.01.51-.07.07-.16.1-.25.1Z"/><path class="cls-23" d="m179.65,282.85c-.07,0-.15-.02-.21-.07-2.01-1.47-3.11-3.9-4-5.86-.08-.18,0-.4.18-.48.18-.08.4,0,.48.18.9,1.98,1.91,4.22,3.77,5.57.16.12.2.34.08.5-.07.1-.18.15-.29.15Z"/><path class="cls-23" d="m179.78,288.58c-.14,0-.27-.08-.33-.21-.08-.18,0-.4.18-.48,2.52-1.16,4.24-2.4,5.41-3.93.12-.16.35-.19.51-.07.16.12.19.35.07.51-1.63,2.13-4.03,3.38-5.69,4.14-.05.02-.1.03-.15.03Z"/><path class="cls-23" d="m179.77,279.82c-.11,0-.22-.05-.29-.15-.12-.16-.08-.39.08-.5,1.67-1.22,2.72-2.42,3.77-3.84.12-.16.34-.2.51-.08.16.12.2.34.08.5-1.09,1.48-2.17,2.73-3.92,4-.06.05-.14.07-.21.07Z"/></g><path class="cls-24" d="m253.43,203.02c-1.97-3.48-5.16-6.24-8.89-7.68-3.72-1.44-7.95-1.55-11.74-.31.19,1.41,1.04,2.86,1.96,3.94,2.27,2.67,5.45,4.55,8.88,5.25,3.43.7,6.65.37,9.78-1.21Z"/><g class="cls-10"><path class="cls-23" d="m251.06,202.54s-.06,0-.08-.01c-6.08-2.09-12.14-4.51-18-7.18-.13-.06-.19-.21-.13-.34.06-.13.21-.19.34-.13,5.84,2.67,11.88,5.08,17.95,7.16.13.05.21.19.16.33-.04.11-.14.17-.24.17Z"/><path class="cls-23" d="m237.25,197.21c-.1,0-.2-.06-.24-.16-.05-.13.01-.28.14-.33,2.08-.83,4.26-1.27,6.5-1.31.14.02.26.11.26.25,0,.14-.11.26-.25.26-2.17.04-4.3.47-6.32,1.27-.03.01-.06.02-.09.02Z"/><path class="cls-23" d="m242.99,199.52c-.08,0-.17-.04-.22-.12-.08-.12-.04-.28.08-.35,1.5-.94,3.4-1.02,4.92-1.09.14,0,.26.1.27.25,0,.14-.1.26-.25.27-1.54.07-3.29.15-4.67,1.01-.04.03-.09.04-.14.04Z"/><path class="cls-23" d="m240.38,202.82c-.09,0-.17-.04-.22-.13-.97-1.64-1.17-3.55-1.23-4.85,0-.14.1-.26.24-.27.14,0,.26.1.27.24.1,1.97.47,3.44,1.16,4.61.07.12.03.28-.09.35-.04.02-.09.04-.13.04Z"/><path class="cls-23" d="m246.54,203.98c-.09,0-.17-.04-.22-.12-.69-1.11-1.23-2.16-1.6-3.65-.04-.14.05-.28.19-.31.14-.04.28.05.31.19.32,1.25.74,2.2,1.54,3.5.07.12.04.28-.08.35-.04.03-.09.04-.14.04Z"/></g><path class="cls-18" d="m230.77,348.13c8.68-6.37,12.81-18.45,10.12-29.61-2.27-9.44-9.41-16.44-18.29-20.23-7.81-3.33-20.1-1.56-27.3,1.17-6.83,2.59-13.06,7.26-16.09,14.01-1.58,3.52-2.24,7.48-2.33,11.46-.21,10.22,4.07,21.52,12.93,26.95,7.3,4.48,16.19,4.22,24.19,2.72,5.98-1.12,11.92-2.91,16.76-6.47Zm-21.88-46.25c-.02-.29,0-.6.17-.84.17-.24.5-.38.76-.24.24.12.33.41.39.68.12.52.14,1.35-.59,1.35-.22,0-.42-.14-.54-.32-.12-.18-.17-.41-.19-.63Zm-14.09,6.14c-.17-.12-.28-.3-.37-.48-.12-.24-.2-.52-.14-.78.06-.26.31-.5.58-.47.25.02.43.25.57.46.28.41.58,1.13-.06,1.38-.19.07-.41.02-.58-.1Zm25.4,38.01c-.11.28-.41.5-.7.43-.27-.06-.44-.33-.56-.58-.24-.49-.47-1.32.27-1.5.22-.05.46.04.62.19.17.16.27.37.34.58.09.28.14.6.03.88Zm8.58-12.17c1.58,1.73,2.18,4.41,1.16,6.52-1.02,2.11-3.78,3.31-5.9,2.31-.85-.4-1.53-1.08-2.14-1.78-.56-.65-1.09-1.35-1.39-2.16-.31-.84-.34-1.75-.3-2.65.05-.91.18-1.83.57-2.66,1.67-3.52,5.9-1.87,7.99.42Zm5.23-5.52c.37.06.75.2.99.48.25.28.31.75.06,1.03-.23.26-.62.29-.97.28-.68-.02-1.73-.25-1.5-1.17.07-.27.31-.48.58-.58s.56-.08.84-.03Zm-3.8-19.53c.39.03.77.32.8.71.02.36-.25.67-.51.91-.52.49-1.46,1.09-1.96.24-.15-.25-.13-.58,0-.85s.35-.47.59-.64c.32-.23.69-.41,1.08-.38Zm-25.77-.83c.9.09,1.55.89,2.05,1.64.99,1.48,2.09,4.05-.21,4.96-.69.27-1.49.08-2.09-.35-.6-.43-1.02-1.07-1.35-1.73-.43-.88-.72-1.88-.49-2.83.23-.95,1.11-1.79,2.08-1.69Zm-21.81,15.22c-.25-.09-.5-.23-.64-.46-.14-.23-.13-.57.08-.73.19-.16.48-.12.72-.07.48.1,1.19.4.91,1.01-.08.19-.28.3-.48.34-.2.03-.41-.01-.6-.08Zm7.58-2.79c-.93-.8-1.74-1.81-2.03-3-.29-1.19.03-2.59,1.02-3.33,2.83-2.13,8.02.45,8.23,3.91.25,4.17-4.69,4.61-7.21,2.42Zm22.93-9.18c-.61-2.81,1.26-5.93,4.03-6.71,1.13-.32,2.4-.27,3.4.35.73.46,1.27,1.19,1.62,1.98,1.18,2.62.09,6.81-2.56,8.29-2.71,1.51-5.91-1.25-6.49-3.9Zm-27.81,24.36c-1.34-.29-2.55-1.32-2.83-2.66-.22-1.07.16-2.22.88-3.04,1.92-2.19,6.92-2.62,7.86.79.86,3.15-3.24,5.48-5.91,4.91Zm26.92-10.34c.9,1.65-1.54,2.12-2.6,2.07-.35-.02-.71-.04-1.04-.17-.33-.13-.62-.38-.71-.72-.12-.47.18-.95.56-1.27.85-.72,3.11-1.15,3.79.09Zm16.08-1.38c-1.34-.29-2.55-1.32-2.83-2.66-.22-1.07.16-2.22.88-3.04,1.92-2.19,6.92-2.62,7.86.79.86,3.15-3.24,5.48-5.91,4.91Zm-41.45,18.55c-.24.03-.51-.11-.57-.34-.06-.22.08-.44.21-.62.26-.36.77-.84,1.18-.37.12.14.15.34.1.52-.05.18-.16.33-.29.46-.17.18-.38.33-.62.36Zm6.08,2.61c-.58-2.66,1.19-5.62,3.81-6.36,1.07-.3,2.28-.25,3.22.33.7.43,1.2,1.12,1.54,1.87,1.11,2.48.08,6.45-2.43,7.85-2.57,1.43-5.6-1.18-6.15-3.69Zm16.39.62c-.27-.33-.46-.73-.62-1.13-.82-2.07-.74-4.6.62-6.36.36-.46.83-.88,1.41-1,.6-.12,1.22.11,1.7.48.48.37.83.88,1.16,1.4,1.49,2.36,2.43,6.79-1.36,7.59-1.05.22-2.23-.15-2.91-.98Zm-4.54,5.21c-.22-.24-.21-.6-.16-.92.08-.63.4-1.58,1.23-1.28.25.09.42.33.48.59.06.26.02.53-.05.78-.09.34-.25.67-.54.87-.29.2-.72.22-.96-.04Z"/><path class="cls-20" d="m189.81,351.87c7.3,4.48,16.19,4.22,24.19,2.72,5.98-1.12,11.92-2.91,16.76-6.47,4.91-3.61,8.37-9.05,9.95-15.11-3.08,2.88-6.7,5.19-10.6,6.86-.06.17-.11.34-.19.5-1.02,2.11-3.78,3.31-5.9,2.31-.33-.15-.63-.36-.91-.58-2.63.57-5.31.88-8,.88-.08,0-.15,0-.23,0,.08,1.68-.57,3.21-2.65,3.65-1.05.22-2.23-.15-2.91-.98-.27-.33-.46-.73-.62-1.13-.27-.68-.43-1.41-.49-2.15-2.33-.41-4.62-1.02-6.86-1.81.05.1.11.2.16.31,1.11,2.48.08,6.45-2.43,7.85-2.57,1.43-5.6-1.18-6.15-3.69-.58-2.66,1.19-5.62,3.81-6.36,0,0,.02,0,.02,0-2.47-1.19-4.84-2.61-7.06-4.22-1.26.96-3.02,1.44-4.4,1.15-1.34-.29-2.55-1.32-2.83-2.66-.22-1.07.16-2.22.88-3.04.14-.16.31-.31.48-.46-2.53-2.55-4.76-5.37-6.69-8.39-.16,1.28-.26,2.57-.29,3.87-.21,10.22,4.07,21.52,12.93,26.95Zm15.93-.98c-.29.2-.72.22-.96-.04-.22-.24-.21-.6-.16-.92.08-.63.4-1.58,1.23-1.28.25.09.42.33.48.59.06.26.02.53-.05.78-.09.34-.25.67-.54.87Zm13.45-6.52c.22-.05.46.04.62.19.17.16.27.37.34.58.09.28.14.6.03.88-.11.28-.41.5-.7.43-.27-.06-.44-.33-.56-.58-.24-.49-.47-1.32.27-1.5Zm-31.52-3.29c.12.14.15.34.1.52-.05.18-.16.33-.29.46-.17.18-.38.33-.62.36-.24.03-.51-.11-.57-.34-.06-.22.08-.44.21-.62.26-.36.77-.84,1.18-.37Z"/><path class="cls-18" d="m309.51,201.07c-.76,8.86,2.36,18.14,8.85,24.21,17.47,16.35,43.64,2.89,47.91-18.35,2.26-11.26-1.73-23.56-10.16-31.35-3.57-3.29-7.95-5.84-12.75-6.58-8.17-1.27-16.39,2.87-22.31,8.65-6.36,6.21-10.78,14.57-11.54,23.43Zm47.14,14.35c.12-.18.35-.26.56-.26.21,0,.42.09.61.2.25.14.48.33.58.6.1.27.02.61-.23.75-.23.13-.52.04-.76-.06-.48-.19-1.16-.63-.76-1.23Zm4.05-14.77c.19-.07.39-.06.59-.03.26.04.53.13.7.33.18.2.23.52.06.72-.16.19-.44.21-.68.21-.48,0-1.22-.16-1.07-.81.05-.19.21-.34.4-.41Zm-20.26,27.97c-.24.3-.69.44-1.01.25-.3-.18-.4-.57-.45-.92-.1-.69-.06-1.77.89-1.71.29.02.54.22.68.47.14.25.18.54.19.83,0,.38-.06.78-.3,1.08Zm8.51-5.55c-.77.34-1.66.36-2.49.21-2.75-.51-5.51-3.7-5.23-6.65.29-3.01,4.28-4.06,6.72-3.05,2.59,1.07,4.06,4.3,3.16,6.95-.37,1.08-1.12,2.08-2.17,2.54Zm6.44-14.67c-.57.67-1.57.75-2.45.74-1.74-.03-4.41-.57-3.86-2.91.16-.7.76-1.24,1.44-1.49.68-.24,1.42-.23,2.13-.12.94.14,1.91.46,2.54,1.17.63.71.82,1.88.2,2.61Zm-.13-25.93c.21-.15.46-.28.73-.26.26.02.52.21.54.47.02.24-.16.45-.34.62-.35.33-.98.74-1.32.17-.1-.17-.09-.39,0-.57.09-.18.24-.32.4-.44Zm-1.96,7.63c1.16-.3,2.42-.39,3.53.04,1.12.43,2.06,1.46,2.11,2.66.14,3.45-4.81,6.19-7.7,4.44-3.49-2.11-1.1-6.32,2.06-7.13Zm-18.25,30.27c.69,2.75-1.73,7.01-4.99,5.87-3.01-1.06-2.61-5.63-.66-7.47.97-.92,2.47-1.31,3.7-.79.98.41,1.69,1.36,1.95,2.39Zm1.93-18.5c.21-.27.42-.55.71-.74.28-.19.65-.29.97-.17.45.16.66.68.71,1.15.1,1.08-.8,3.13-2.17,2.99-1.82-.19-.85-2.41-.22-3.23Zm6.84-24.11c.97-.92,2.47-1.31,3.7-.79.98.41,1.69,1.36,1.95,2.39.69,2.75-1.73,7.01-4.99,5.87-3.01-1.06-2.61-5.63-.66-7.47Zm-20.86,41.61c.18.21.22.52.14.78-.07.27-.25.5-.44.69-.25.26-.57.49-.93.53-.36.04-.77-.17-.86-.52-.08-.33.12-.66.32-.93.4-.54,1.16-1.25,1.77-.56Zm-1.83-5.78c-2.26.31-4.75-.69-5.87-2.68-1.13-1.99-.56-4.86,1.41-6.01.79-.46,1.71-.63,2.62-.73.83-.09,1.69-.13,2.5.08.84.22,1.6.7,2.29,1.23.71.54,1.37,1.16,1.82,1.93,1.9,3.29-1.77,5.78-4.76,6.18Zm16.95-38.64c.21.08.31.3.38.51.14.41.24,1.08-.35,1.15-.18.02-.36-.07-.47-.21-.12-.14-.17-.31-.21-.49-.05-.23-.05-.49.06-.7.11-.21.37-.35.6-.27Zm-6.06,3.7c2.45,1.01,3.84,4.07,2.99,6.59-.35,1.03-1.06,1.97-2.05,2.4-.73.32-1.57.34-2.35.2-2.61-.48-5.22-3.51-4.95-6.3.27-2.85,4.05-3.84,6.37-2.89Zm-9.58,12.81c.42-.03.84.03,1.25.13,2.12.49,4.1,1.95,4.76,4.02.17.55.25,1.16.02,1.68-.23.54-.76.92-1.33,1.1s-1.17.18-1.76.16c-2.73-.11-6.8-1.81-5.33-5.29.41-.97,1.35-1.71,2.4-1.79Zm-4.45,8.62c-.08.21-.28.35-.5.39-.22.05-.44.01-.65-.05-.28-.08-.56-.22-.72-.46-.16-.24-.17-.61.05-.8.2-.18.51-.16.78-.12.53.08,1.32.36,1.05,1.05Zm2.79-15.15c.31-.05.6.17.83.38.46.42,1.05,1.19.35,1.69-.21.15-.5.15-.74.06-.24-.09-.43-.27-.6-.47-.22-.26-.4-.57-.4-.91,0-.34.23-.7.56-.75Z"/><path class="cls-20" d="m310.93,213.32c.3-2.46.88-4.89,1.73-7.2,1.61-4.37,4.09-8.35,7.13-11.89.04-.31.12-.63.26-.97.39-.94,1.3-1.65,2.3-1.78,1.58-1.57,3.27-3.04,5.04-4.39.23-.17.46-.34.69-.51-1.51-1.25-2.6-3.19-2.42-5.04.27-2.85,4.05-3.84,6.37-2.89,1.53.63,2.65,2.06,3.07,3.66,2-.95,4.09-1.73,6.25-2.23.41-.1.83-.17,1.25-.24.26-.82.68-1.56,1.23-2.08.97-.92,2.47-1.31,3.7-.79.98.41,1.69,1.36,1.95,2.39,0,.02,0,.04,0,.05,2.37.13,4.73.51,7.02,1.12,1.8.49,3.6,1.18,5.3,2.06-1.57-2.59-3.48-4.96-5.71-7.02-3.57-3.29-7.95-5.84-12.75-6.58-8.17-1.27-16.39,2.87-22.31,8.65-6.36,6.21-10.78,14.57-11.54,23.43-.35,4.12.14,8.32,1.41,12.25Zm27.16-38.37c.21.08.31.3.38.51.14.41.24,1.08-.35,1.15-.18.02-.36-.07-.47-.21-.12-.14-.17-.31-.21-.49-.05-.23-.05-.49.06-.7s.37-.35.6-.27Zm-16.12,12.05c-.21.15-.5.15-.74.06-.24-.09-.43-.27-.6-.47-.22-.26-.4-.57-.4-.91,0-.34.23-.7.56-.75.31-.05.6.17.83.38.46.42,1.05,1.19.35,1.69Z"/><path class="cls-12" d="m235.05,276.5c.19-.35.54-.58.93-.69.18.08.35.16.51.25.39.21.75.44,1.1.69,1.01.74,1.85,1.69,2.43,2.84,1.48,2.94,1,6.57,2.39,9.56,1.88,4.07,6.65,5.93,9.48,9.42,1.55,1.92,2.43,4.32,2.57,6.77-9.44-7.32-17.81-15.05-19.86-20.47-.93-2.44-.58-5.01.6-7.06h-.03c-.32-.35-.34-.91-.11-1.31Z"/><path class="cls-12" d="m320.31,265.19c-4.29,1.99-10.47-.47-15.68-.89-9.64-.79-19.44.12-28.77,2.72-3.51.98-6.99,2.18-10.62,2.45.95-5.61,4.36-10.47,8.85-14.06,1.72.25,3.39.82,4.89,1.68,2.24,1.28,4.11,3.15,6.38,4.37,5.73,3.09,12.71,1.57,19.16.71,6.36-.83,10.56.25,15.79,3.03Z"/><path class="cls-12" d="m340.04,282.59s-5.88,3.41-14.2,7.47c-.96-.91-1.84-1.94-2.93-2.68-2.86-1.94-6.61-1.61-10.04-1.92-.9-.08-1.83-.26-2.72-.54,8.65-3.03,17.06-6.72,25.14-11.02,3.4,2.44,4.25,4.55,4.75,8.7Z"/><path class="cls-12" d="m201.74,278.5c-.71,1.31-2.7.89-2.84-.59-.54-6.26.85-19.78,1.48-26.26,1.07-10.97,2.35-21.91,3.85-32.82.09-.67.19-1.35.3-2.02,3.23,2.52,9.14,2.62,11.93,6.06,2.29,2.81,1.95,7.27,3.79,10.2-5.01,17.15-14.51,38.1-18.51,45.44Z"/><path class="cls-12" d="m241.59,260.2c-.9.87-2.35.04-2.08-1.19.74-3.28,1.81-6.49,2.96-9.67,1.61-4.43,3.39-8.8,5.32-13.1,1.07-.74,2.19-1.4,3.41-1.87,2.92-1.11,6.19-.97,9.17-1.92,8.48-2.71,11.86-12.88,18.82-18.42,1.57-1.24,4.37-3,7.36-4.19-3.61,6.46-10.01,12.52-12.06,14.88-8.27,9.55-25.96,28.77-32.89,35.47Z"/><path class="cls-12" d="m286.5,169.67c1.09.41,2.07,1.08,2.99,1.86-1.62.78-3.27,1.51-4.95,2.15-12.25,4.74-25.65,5.94-38.75,5.06,0,0-3.44-2.97-1.12-8.86,0,0,0,0,.02,0,5.8.08,11.46-.04,17.03-.6,4.31,1.78,9.16,2.28,13.74,1.38,3.68-.73,7.52-2.32,11.04-1Z"/><path class="cls-12" d="m310.89,189.22l.02.36c-.88.74-1.79,1.46-2.74,2.11-.57.39-1.31-.19-1.04-.83,1.05-2.55,3.22-7.24,5.52-12.06.06.74.03,1.5-.09,2.21-.47,2.76-1.77,5.41-1.67,8.2Z"/><path class="cls-12" d="m352.8,224.88c-.63-1.17-1.53-2.04-2.6-2.74-.35.4-.76.72-1.24.93-.78.34-1.66.36-2.49.21-2.24-.42-4.48-2.6-5.08-5.01-1.27-.64-2.44-1.42-3.35-2.49-2.6-3.03-2.62-7.73-5.42-10.58-1.44-1.47-3.44-2.23-5.39-2.9-3.54-1.19-7.21-2.15-10.39-4.12-2.29-1.43-4.33-3.54-5.32-6-1.06,2.86-1.75,5.84-2.02,8.89-.76,8.86,2.35,18.14,8.85,24.21,10.78,10.1,24.87,8.83,35.08,1.39-.12-.63-.34-1.23-.65-1.8Zm-35.28-24.4c-.22.05-.45,0-.66-.05-.28-.08-.56-.22-.72-.47-.17-.24-.18-.6.04-.81.21-.18.51-.16.78-.11.52.07,1.32.35,1.05,1.04-.08.21-.29.35-.49.4Zm3.63,13.12c-2.27.3-4.74-.7-5.88-2.68-1.12-1.99-.56-4.87,1.41-6.01.79-.47,1.71-.64,2.62-.74.83-.09,1.69-.13,2.5.08.84.22,1.6.69,2.28,1.22.71.54,1.37,1.16,1.82,1.93,1.91,3.3-1.76,5.78-4.76,6.19Zm.6,7.79c-.37.04-.78-.17-.86-.52-.08-.33.12-.66.31-.93.4-.53,1.17-1.25,1.78-.55.18.21.22.52.14.78-.08.28-.25.5-.44.69-.25.27-.57.5-.93.54Zm8.33,4.85c-3.01-1.05-2.61-5.64-.66-7.47.98-.92,2.47-1.32,3.71-.79.98.42,1.68,1.36,1.95,2.39.69,2.75-1.74,7.01-4.99,5.87Zm9.37,2.64c-.3-.18-.4-.57-.45-.92-.11-.69-.07-1.77.89-1.71.29.02.54.23.68.48.14.24.18.54.19.83,0,.37-.06.78-.3,1.07s-.69.45-1.01.25Z"/><path class="cls-12" d="m278.27,141.57c1.52,2.18,2.49,4.77,3.03,7.4-3.05,1.34-6.19,2.56-9.52,2.29-1.99-.17-3.89-.92-5.62-1.9-1.37-.78-2.64-1.7-3.79-2.74,1.25-1.59,3.13-2.87,5.06-3.46,3.51-1.06,7.29-.83,10.85-1.58Z"/><path class="cls-12" d="m347.11,132.8c-3.2-.4-6.21-1.64-9.26-2.67-8.1-2.74-16.7-4.02-25.26-3.79-4.45.12-9.8,1.87-13.48.23,2-1.21,4.15-2.03,6.56-2.19,4.59-.3,9.35,1.97,13.65.37,2.79-1.04,4.76-3.5,7.15-5.25,2.6-1.91,5.62-2.93,8.6-3.03,6.15,3.44,11.24,9.36,12.04,16.34Z"/><path class="cls-12" d="m156.57,314.13c-2.67,2.22-5.9,3.64-9.14,4.92-.88.35-1.77.69-2.66,1.02.35-.49.53-1.03.39-1.65-.13-.57-.51-1.03-.94-1.42-4.28-3.84-11.55-1.1-16.72-3.13,3.86-2.22,7.47-4.26,10.18-5.73,3.28-1.8,15.23-10.2,21.38-6.07,0,0,0-.01,0-.02.59-.18,1.3.27,1.39.88.35-.06.72.08.93.37.21.28.26.67.11.99.38.18.71.52.81.95.1.4-.06.87-.42,1.09.35,2.89-2.91,5.82-5.32,7.81Z"/><path class="cls-12" d="m165.95,357.94h0s-.06.02-.08.04c-.08-.16-.16-.32-.23-.48-.08-.16-.16-.33-.22-.49-.11-.25-.21-.5-.3-.76-.1-.28-.2-.58-.28-.88h0c-.08-.31-.16-.62-.23-.91-.06-.3-.12-.62-.17-.92-.05-.29-.09-.57-.11-.86-.01-.04-.02-.08-.01-.13-.04-.29-.06-.58-.07-.88,0-.26-.02-.53-.02-.78,0-.38,0-.76.03-1.15.01-.3.04-.59.07-.89.03-.31.07-.64.11-.95.1-.62.22-1.25.37-1.87.07-.3.15-.6.24-.91,0-.01,0-.03.01-.03.08-.3.18-.6.28-.9.11-.3.21-.61.33-.91.88,1.36,2.14,2.65,3.9,3.87,1.14.78,2.47,1.49,3.14,2.69h0c-.55.64-1.08,1.3-1.59,1.97-1.63,2.12-3.15,4.36-5.16,6.12Z"/><path class="cls-12" d="m209.62,302.83c-.23,0-.42-.14-.55-.33-.11-.18-.16-.4-.18-.62-.02-.29,0-.6.17-.83.16-.25.49-.38.76-.25.25.12.34.41.4.68.12.52.14,1.34-.59,1.35Z"/><path class="cls-12" d="m222.6,298.28c-6.46-2.76-15.99-2.02-23.17-.13,1.52,5.56,9.34,7.66,14.47,8.92h0c.74-1.21,1.89-2.16,3.25-2.55,1.13-.33,2.4-.27,3.4.35.74.45,1.27,1.19,1.63,1.98,1.13,2.53.16,6.52-2.3,8.12-.04,1.61,0,3.19.97,4.41,1.06,1.34,2.84,1.7,4.6,1.47-.08-.96.28-1.95.93-2.68,1.59-1.8,5.28-2.42,7.04-.65.44-.16.9-.26,1.37-.34,1.95-.3,3.91.21,5.87.47-2.48-9-9.45-15.69-18.06-19.36Zm5.93,12.4c-.16-.25-.13-.59,0-.85.13-.27.35-.47.59-.64.33-.23.7-.4,1.08-.37.39.02.77.32.81.71.02.36-.25.66-.52.91-.52.49-1.46,1.09-1.96.25Z"/><path class="cls-29" d="m146.77,336.95c1.03-1.05,2.1-1.79,3.6-2.3,1.5-.5,3.69-.63,5.02.23-1.99,2.42-5.68,3.13-8.63,2.07Z"/><path class="cls-30" d="m146.77,336.95c1.03-1.05,2.1-1.79,3.6-2.3,1.5-.5,3.69-.63,5.02.23-1.99,2.42-5.68,3.13-8.63,2.07Z"/><path class="cls-30" d="m148.6,336.51c.63-.45,1.28-.77,2.04-1.03.94-.32,2.17-.46,3.17-.27-1.39,1.07-3.32,1.55-5.22,1.3Z"/><path class="cls-29" d="m147.26,336.86c-1.03,1.05-2.1,1.79-3.6,2.3s-3.69.63-5.02-.23c1.99-2.42,5.68-3.13,8.63-2.07Z"/><path class="cls-30" d="m147.26,336.86c-1.03,1.05-2.1,1.79-3.6,2.3s-3.69.63-5.02-.23c1.99-2.42,5.68-3.13,8.63-2.07Z"/><path class="cls-30" d="m145.42,337.31c-.63.45-1.28.77-2.04,1.03-.94.32-2.17.46-3.17.27,1.39-1.07,3.32-1.55,5.22-1.3Z"/><path class="cls-29" d="m147.06,337.15c-1.05-1.03-1.79-2.1-2.3-3.6-.5-1.5-.63-3.69.23-5.02,2.42,1.99,3.13,5.68,2.07,8.63Z"/><path class="cls-30" d="m147.06,337.15c-1.05-1.03-1.79-2.1-2.3-3.6-.5-1.5-.63-3.69.23-5.02,2.42,1.99,3.13,5.68,2.07,8.63Z"/><path class="cls-30" d="m146.61,335.32c-.45-.63-.77-1.28-1.03-2.04-.32-.94-.46-2.17-.27-3.17,1.07,1.39,1.55,3.32,1.3,5.22Z"/><path class="cls-29" d="m146.97,336.66c1.05,1.03,1.79,2.1,2.3,3.6s.63,3.69-.23,5.02c-2.42-1.99-3.13-5.68-2.07-8.63Z"/><path class="cls-30" d="m146.97,336.66c1.05,1.03,1.79,2.1,2.3,3.6s.63,3.69-.23,5.02c-2.42-1.99-3.13-5.68-2.07-8.63Z"/><path class="cls-30" d="m147.41,338.5c.45.63.77,1.28,1.03,2.04.32.94.46,2.17.27,3.17-1.07-1.39-1.55-3.32-1.3-5.22Z"/><path class="cls-29" d="m146.81,336.77c1.47-.01,2.76.22,4.17.93s3.06,2.16,3.39,3.71c-3.12.31-6.23-1.8-7.56-4.64Z"/><path class="cls-30" d="m148.42,337.75c.76.13,1.45.36,2.17.72.89.44,1.86,1.21,2.44,2.05-1.74-.23-3.45-1.26-4.61-2.77Z"/><path class="cls-29" d="m147.22,337.05c-1.47.01-2.76-.22-4.17-.93-1.42-.71-3.06-2.16-3.39-3.71,3.12-.31,6.23,1.8,7.56,4.64Z"/><path class="cls-30" d="m145.61,336.06c-.76-.13-1.45-.36-2.17-.72-.89-.44-1.86-1.21-2.44-2.05,1.74.23,3.45,1.26,4.61,2.77Z"/><path class="cls-29" d="m146.87,337.11c0-1.47.22-2.76.93-4.17s2.16-3.06,3.71-3.39c.31,3.12-1.8,6.23-4.64,7.56Z"/><path class="cls-30" d="m147.86,335.5c.13-.76.36-1.45.72-2.17.44-.89,1.21-1.86,2.05-2.44-.23,1.74-1.26,3.45-2.77,4.61Z"/><path class="cls-29" d="m147.15,336.7c.01,1.47-.22,2.76-.93,4.17-.71,1.42-2.16,3.06-3.71,3.39-.31-3.12,1.8-6.23,4.64-7.56Z"/><path class="cls-30" d="m146.17,338.31c-.13.76-.36,1.45-.72,2.17-.44.89-1.21,1.86-2.05,2.44.23-1.74,1.26-3.45,2.77-4.61Z"/><path class="cls-29" d="m147.93,336.7c-.09-.28-.42-.6-.86-.61-.46-.02-.71.3-.81.47-.28.49.11,1.24.69,1.28.63.05,1.18-.53.98-1.14Z"/><path class="cls-31" d="m147.93,336.7c-.09-.28-.42-.6-.86-.61-.46-.02-.71.3-.81.47-.28.49.11,1.24.69,1.28.63.05,1.18-.53.98-1.14Z"/><path class="cls-29" d="m345.14,254.57c1.47,0,2.75.23,4.17.94,1.41.71,3.05,2.18,3.38,3.73-3.12.3-6.22-1.83-7.55-4.67Z"/><path class="cls-30" d="m345.14,254.57c1.47,0,2.75.23,4.17.94,1.41.71,3.05,2.18,3.38,3.73-3.12.3-6.22-1.83-7.55-4.67Z"/><path class="cls-30" d="m346.75,255.56c.76.13,1.45.36,2.17.73.89.45,1.85,1.22,2.43,2.06-1.74-.24-3.44-1.27-4.6-2.78Z"/><path class="cls-29" d="m345.55,254.85c-1.47,0-2.75-.23-4.17-.94-1.41-.71-3.05-2.18-3.38-3.73,3.12-.3,6.22,1.83,7.55,4.67Z"/><path class="cls-30" d="m345.55,254.85c-1.47,0-2.75-.23-4.17-.94-1.41-.71-3.05-2.18-3.38-3.73,3.12-.3,6.22,1.83,7.55,4.67Z"/><path class="cls-30" d="m343.94,253.86c-.76-.13-1.45-.36-2.17-.73-.89-.45-1.85-1.22-2.43-2.06,1.74.24,3.44,1.27,4.6,2.78Z"/><path class="cls-29" d="m345.21,254.92c0-1.47.23-2.75.94-4.17.71-1.41,2.18-3.05,3.73-3.38.3,3.12-1.83,6.22-4.67,7.55Z"/><path class="cls-30" d="m345.21,254.92c0-1.47.23-2.75.94-4.17.71-1.41,2.18-3.05,3.73-3.38.3,3.12-1.83,6.22-4.67,7.55Z"/><path class="cls-30" d="m346.2,253.31c.13-.76.36-1.45.73-2.17.45-.89,1.22-1.85,2.06-2.43-.24,1.74-1.27,3.44-2.78,4.6Z"/><path class="cls-29" d="m345.49,254.5c0,1.47-.23,2.75-.94,4.17-.71,1.41-2.18,3.05-3.73,3.38-.3-3.12,1.83-6.22,4.67-7.55Z"/><path class="cls-30" d="m345.49,254.5c0,1.47-.23,2.75-.94,4.17-.71,1.41-2.18,3.05-3.73,3.38-.3-3.12,1.83-6.22,4.67-7.55Z"/><path class="cls-30" d="m344.5,256.11c-.13.76-.36,1.45-.73,2.17-.45.89-1.22,1.85-2.06,2.43.24-1.74,1.27-3.44,2.78-4.6Z"/><path class="cls-29" d="m345.3,254.46c1.04,1.04,1.79,2.11,2.28,3.61.5,1.5.62,3.7-.25,5.02-2.42-2-3.11-5.69-2.04-8.63Z"/><path class="cls-30" d="m345.74,256.3c.44.63.77,1.28,1.02,2.05.31.94.45,2.17.26,3.17-1.06-1.4-1.54-3.33-1.28-5.22Z"/><path class="cls-29" d="m345.39,254.96c-1.04-1.04-1.79-2.11-2.28-3.61-.5-1.5-.62-3.7.25-5.02,2.42,2,3.11,5.69,2.04,8.63Z"/><path class="cls-30" d="m344.96,253.12c-.44-.63-.77-1.28-1.02-2.05-.31-.94-.45-2.17-.26-3.17,1.06,1.4,1.54,3.33,1.28,5.22Z"/><path class="cls-29" d="m345.1,254.76c1.04-1.04,2.11-1.79,3.61-2.28,1.5-.5,3.7-.62,5.02.25-2,2.42-5.69,3.11-8.63,2.04Z"/><path class="cls-30" d="m346.94,254.32c.63-.44,1.28-.77,2.05-1.02.94-.31,2.17-.45,3.17-.26-1.4,1.06-3.33,1.54-5.22,1.28Z"/><path class="cls-29" d="m345.59,254.66c-1.04,1.04-2.11,1.79-3.61,2.28-1.5.5-3.7.62-5.02-.25,2-2.42,5.69-3.11,8.63-2.04Z"/><path class="cls-30" d="m343.76,255.1c-.63.44-1.28.77-2.05,1.02-.94.31-2.17.45-3.17.26,1.4-1.06,3.33-1.54,5.22-1.28Z"/><path class="cls-29" d="m346.14,255.22c.13-.26.13-.72-.17-1.04-.32-.34-.72-.29-.9-.24-.54.14-.8.95-.42,1.39.41.48,1.21.46,1.5-.11Z"/><path class="cls-31" d="m346.14,255.22c.13-.26.13-.72-.17-1.04-.32-.34-.72-.29-.9-.24-.54.14-.8.95-.42,1.39.41.48,1.21.46,1.5-.11Z"/><path class="cls-29" d="m223.24,271.26c.79.94,1.32,1.88,1.62,3.16.3,1.28.24,3.1-.58,4.13-1.85-1.83-2.14-4.94-1.04-7.29Z"/><path class="cls-30" d="m223.24,271.26c.79.94,1.32,1.88,1.62,3.16.3,1.28.24,3.1-.58,4.13-1.85-1.83-2.14-4.94-1.04-7.29Z"/><path class="cls-30" d="m223.46,272.82c.32.55.54,1.12.69,1.77.19.8.21,1.83-.02,2.64-.78-1.24-1.02-2.87-.67-4.41Z"/><path class="cls-29" d="m223.28,271.68c-.79-.94-1.32-1.88-1.62-3.16s-.24-3.1.58-4.13c1.85,1.83,2.14,4.94,1.04,7.29Z"/><path class="cls-30" d="m223.28,271.68c-.79-.94-1.32-1.88-1.62-3.16s-.24-3.1.58-4.13c1.85,1.83,2.14,4.94,1.04,7.29Z"/><path class="cls-30" d="m223.05,270.12c-.32-.55-.54-1.12-.69-1.77-.19-.8-.21-1.83.02-2.64.78,1.24,1.02,2.87.67,4.41Z"/><path class="cls-29" d="m223.05,271.49c.94-.79,1.88-1.32,3.16-1.62s3.1-.24,4.13.58c-1.83,1.85-4.94,2.14-7.29,1.04Z"/><path class="cls-30" d="m223.05,271.49c.94-.79,1.88-1.32,3.16-1.62s3.1-.24,4.13.58c-1.83,1.85-4.94,2.14-7.29,1.04Z"/><path class="cls-30" d="m224.6,271.27c.55-.32,1.12-.54,1.77-.69.8-.19,1.83-.21,2.64.02-1.24.78-2.87,1.02-4.41.67Z"/><path class="cls-29" d="m223.46,271.45c-.94.79-1.88,1.32-3.16,1.62-1.28.3-3.1.24-4.13-.58,1.83-1.85,4.94-2.14,7.29-1.04Z"/><path class="cls-30" d="m223.46,271.45c-.94.79-1.88,1.32-3.16,1.62-1.28.3-3.1.24-4.13-.58,1.83-1.85,4.94-2.14,7.29-1.04Z"/><path class="cls-30" d="m221.91,271.68c-.55.32-1.12.54-1.77.69-.8.19-1.83.21-2.64-.02,1.24-.78,2.87-1.02,4.41-.67Z"/><path class="cls-29" d="m223.39,271.31c-.11,1.22-.4,2.26-1.09,3.38-.69,1.12-2.03,2.36-3.33,2.51-.01-2.6,1.97-5.01,4.42-5.89Z"/><path class="cls-30" d="m222.45,272.57c-.16.62-.41,1.17-.76,1.74-.44.7-1.14,1.44-1.88,1.85.32-1.42,1.31-2.75,2.65-3.59Z"/><path class="cls-29" d="m223.12,271.63c.11-1.22.4-2.26,1.09-3.38s2.03-2.36,3.33-2.51c.01,2.6-1.97,5.01-4.42,5.89Z"/><path class="cls-30" d="m224.06,270.37c.16-.62.41-1.17.76-1.74.44-.7,1.14-1.44,1.88-1.85-.32,1.42-1.31,2.75-2.64,3.59Z"/><path class="cls-29" d="m223.1,271.34c1.22.11,2.26.4,3.38,1.09,1.12.69,2.36,2.03,2.51,3.33-2.6.01-5.01-1.97-5.89-4.42Z"/><path class="cls-30" d="m224.35,272.28c.62.16,1.17.41,1.74.76.7.44,1.44,1.14,1.85,1.88-1.42-.33-2.75-1.31-3.59-2.65Z"/><path class="cls-29" d="m223.42,271.6c-1.22-.11-2.26-.4-3.38-1.09s-2.36-2.03-2.51-3.33c2.6-.01,5.01,1.97,5.89,4.42Z"/><path class="cls-30" d="m222.16,270.66c-.62-.16-1.17-.41-1.74-.76-.7-.44-1.44-1.14-1.85-1.88,1.42.32,2.75,1.31,3.59,2.64Z"/><path class="cls-29" d="m223.35,272.25c.24-.05.53-.3.57-.66.05-.38-.2-.61-.33-.7-.38-.27-1.03,0-1.11.47-.09.51.35,1.02.87.9Z"/><path class="cls-31" d="m223.35,272.25c.24-.05.53-.3.57-.66.05-.38-.2-.61-.33-.7-.38-.27-1.03,0-1.11.47-.09.51.35,1.02.87.9Z"/><path class="cls-29" d="m354.73,153.1c1-.71,1.99-1.17,3.3-1.36,1.31-.19,3.13.02,4.1.92-1.99,1.7-5.13,1.74-7.39.44Z"/><path class="cls-30" d="m354.73,153.1c1-.71,1.99-1.17,3.3-1.36,1.31-.19,3.13.02,4.1.92-1.99,1.7-5.13,1.74-7.39.44Z"/><path class="cls-30" d="m356.3,153c.58-.28,1.17-.45,1.83-.55.82-.12,1.85-.06,2.65.24-1.3.68-2.96.79-4.48.31Z"/><path class="cls-29" d="m355.15,153.09c-1,.71-1.99,1.17-3.3,1.36-1.31.19-3.13-.02-4.1-.92,1.99-1.7,5.13-1.74,7.39-.44Z"/><path class="cls-30" d="m355.15,153.09c-1,.71-1.99,1.17-3.3,1.36-1.31.19-3.13-.02-4.1-.92,1.99-1.7,5.13-1.74,7.39-.44Z"/><path class="cls-30" d="m353.57,153.19c-.58.28-1.17.45-1.83.55-.82.12-1.85.06-2.65-.24,1.3-.68,2.96-.79,4.48-.31Z"/><path class="cls-29" d="m354.94,153.3c-.71-1-1.17-1.99-1.36-3.3-.19-1.31.02-3.13.92-4.1,1.7,1.99,1.74,5.13.44,7.39Z"/><path class="cls-30" d="m354.94,153.3c-.71-1-1.17-1.99-1.36-3.3-.19-1.31.02-3.13.92-4.1,1.7,1.99,1.74,5.13.44,7.39Z"/><path class="cls-30" d="m354.84,151.73c-.28-.58-.45-1.17-.55-1.83-.12-.82-.06-1.85.24-2.65.68,1.3.79,2.96.31,4.48Z"/><path class="cls-29" d="m354.93,152.89c.71,1,1.17,1.99,1.36,3.3.19,1.31-.02,3.13-.92,4.1-1.7-1.99-1.74-5.13-.44-7.39Z"/><path class="cls-30" d="m354.93,152.89c.71,1,1.17,1.99,1.36,3.3.19,1.31-.02,3.13-.92,4.1-1.7-1.99-1.74-5.13-.44-7.39Z"/><path class="cls-30" d="m355.03,154.46c.28.58.45,1.17.55,1.83.12.82.06,1.85-.24,2.65-.68-1.3-.79-2.96-.31-4.48Z"/><path class="cls-29" d="m354.79,152.95c1.21.21,2.23.58,3.3,1.37,1.06.79,2.2,2.23,2.24,3.55-2.61-.2-4.86-2.39-5.54-4.92Z"/><path class="cls-30" d="m355.97,153.99c.6.21,1.14.51,1.68.91.67.49,1.35,1.26,1.7,2.04-1.4-.44-2.65-1.54-3.38-2.95Z"/><path class="cls-29" d="m355.09,153.24c-1.21-.21-2.23-.58-3.3-1.37-1.06-.79-2.2-2.23-2.24-3.55,2.61.2,4.86,2.39,5.54,4.92Z"/><path class="cls-30" d="m353.9,152.2c-.6-.21-1.14-.51-1.68-.91-.67-.49-1.35-1.26-1.7-2.04,1.4.44,2.65,1.54,3.39,2.95Z"/><path class="cls-29" d="m354.79,153.24c.21-1.21.58-2.23,1.37-3.3.79-1.06,2.23-2.2,3.55-2.24-.2,2.61-2.39,4.86-4.92,5.54Z"/><path class="cls-30" d="m355.84,152.06c.21-.6.51-1.14.91-1.68.49-.67,1.26-1.35,2.04-1.7-.44,1.4-1.54,2.65-2.95,3.38Z"/><path class="cls-29" d="m355.08,152.94c-.21,1.21-.58,2.23-1.37,3.3-.79,1.06-2.23,2.2-3.55,2.24.2-2.61,2.39-4.86,4.92-5.54Z"/><path class="cls-30" d="m354.04,154.13c-.21.6-.51,1.14-.91,1.68-.49.67-1.26,1.35-2.04,1.7.44-1.4,1.54-2.65,2.95-3.38Z"/><path class="cls-29" d="m355.73,153.06c-.04-.24-.26-.55-.62-.63-.38-.08-.63.15-.73.27-.3.36-.09,1.03.38,1.16.51.13,1.05-.27.97-.8Z"/><path class="cls-31" d="m355.73,153.06c-.04-.24-.26-.55-.62-.63-.38-.08-.63.15-.73.27-.3.36-.09,1.03.38,1.16.51.13,1.05-.27.97-.8Z"/><path class="cls-24" d="m130.55,177.87s-4.73-1.26-8.57,4.38c0,0,2.79,2.85,5.81,1.14,3.02-1.71,2.76-5.52,2.76-5.52Z"/><path class="cls-27" d="m121.98,182.25c8.16,11.56,14.9,23.25,18.45,36.94,3.55,13.69.09,22.12-4.27,35.57,2.53,2.22,6.21,2.75,9.51,2.08,6.26-12.68,7.09-27.64,3.87-41.41-3.22-13.77-10.27-26.43-18.98-37.56,0,0-.4,1.7-3.52,3.25-2.51,1.25-5.05,1.13-5.05,1.13Z"/><path class="cls-18" d="m136.15,254.77c2.4-7.4,4.53-13.28,5.36-19.34.2.05.39.07.58.07,1-.01,1.97-.65,2.37-1.57.45.71,1.18,1.29,2.02,1.34.83.05,1.72-.56,1.79-1.39-.01.97.84,1.87,1.82,1.91.41.02.8-.12,1.13-.35-.49,7.44-2.28,14.75-5.57,21.42-3.29.67-6.98.14-9.51-2.08Z"/><g class="cls-45"><g class="cls-41"><path class="cls-24" d="m142.13,257.6l-.52-.32c8.39-13.47,11.73-45.32-13.42-77.89l.48-.37c25.34,32.81,21.93,64.97,13.46,78.58Z"/><path class="cls-24" d="m137.78,257.09l-.52-.32c9.77-15.69,11.47-43.79-13.04-75.6l.48-.37c24.7,32.06,22.95,60.43,13.08,76.29Z"/></g></g><path class="cls-39" d="m138.71,256.32c3.31-3.1,5.72-7.11,7.27-11.38,1.75-4.8,2.46-9.91,2.68-15.01.42-9.88-.81-20.04-4.18-29.34,2.14,4.78,3.87,9.74,5.06,14.85,3.21,13.77,2.38,28.73-3.88,41.41-2.3.47-4.8.35-6.95-.53Z"/><path class="cls-46" d="m135.64,196.73c-.18-.22-.36-.43-.61-.57-.24-.13-.56-.17-.8-.02-.42.27-.33.9-.17,1.37.67,2.03,1.65,3.94,2.67,5.82.34.62,1,1.66,1.84,1.18.74-.42.54-1.45.34-2.11-.64-2.09-1.9-4.01-3.28-5.68Z"/><path class="cls-46" d="m130.98,188.91c-.17-.16-.37-.32-.6-.31-.23.01-.42.2-.5.41-.08.21-.06.45-.03.68.17,1.03.75,1.94,1.33,2.82.24.36.54.76.97.79,2.35.15-.74-3.98-1.17-4.38Z"/><path class="cls-32" d="m139.81,46.65s-4.39,2.55-4.93,8.03c-.54,5.48,1.85,4.93,1.85,4.93,0,0,6.49-1.04,6.23-5.29-.27-4.25-3.14-7.67-3.14-7.67Z"/><path class="cls-27" d="m139.81,46.65c19.95,1.01,40.04-.86,59.46-5.53,3.06,3.65,3.4,6.21,2.77,10.93,0,0-43.05,12.05-65.31,7.56,0,0,3.46-1.32,4.21-6.31.46-3.05-1.13-6.65-1.13-6.65Z"/><path class="cls-18" d="m136.73,59.61s3.46-1.32,4.21-6.31c.46-3.05-1.13-6.65-1.13-6.65,6.09.31,12.19.35,18.28.12-.73.53-1.12,1.37-1.07,2.36.07,1.35.93,2.85,2.24,3.13-1.94.26-2.97,3.62-.19,5.29-.82.62-1.29,1.62-1.35,2.64-7.67.62-15.07.59-21-.6Z"/><g class="cls-44"><g class="cls-41"><path class="cls-24" d="m151.29,52.87c-4.58,0-8.87-.36-12.6-1.24l.14-.59c21.91,5.16,63.89-7.56,64.31-7.69l.18.58c-.35.11-29.52,8.95-52.02,8.95Z"/><path class="cls-24" d="m153.57,57.97c-6.06,0-11.97-.59-17.26-2.09l.17-.59c25.88,7.3,66.69-7.04,67.1-7.18l.21.57c-.33.12-26.43,9.28-50.2,9.28Z"/></g></g><path class="cls-38" d="m136.73,59.61s3.46-1.32,4.21-6.31c0-.07.02-.13.02-.2,8.59,4.04,18.52,5.2,28.08,4.71,8.18-.42,16.23-1.96,24.27-3.56-13.75,3.25-40.56,8.59-56.59,5.36Z"/><path class="cls-46" d="m197.36,43.04c-.49-.03-1.03.07-1.37.44-.13.15-.23.33-.28.52-.15.49-.07,1.03.16,1.49.23.46.6.83,1.02,1.12.91.61,3.45,1,3.49-.68.03-1.53-1.65-2.79-3.02-2.88Z"/><path class="cls-33" d="m167.12,194.08c-1.47-.04-2.75-.31-4.14-1.06-1.39-.75-2.99-2.26-3.27-3.82,3.13-.21,6.17,2,7.41,4.87Z"/><path class="cls-34" d="m167.12,194.08c-1.47-.04-2.75-.31-4.14-1.06-1.39-.75-2.99-2.26-3.27-3.82,3.13-.21,6.17,2,7.41,4.87Z"/><path class="cls-34" d="m165.54,193.05c-.75-.15-1.44-.41-2.15-.79-.88-.47-1.82-1.27-2.37-2.13,1.73.28,3.4,1.36,4.52,2.91Z"/><path class="cls-33" d="m166.71,193.79c1.47.04,2.75.31,4.14,1.06,1.39.75,2.99,2.26,3.27,3.82-3.13.21-6.17-2-7.41-4.87Z"/><path class="cls-34" d="m166.71,193.79c1.47.04,2.75.31,4.14,1.06,1.39.75,2.99,2.26,3.27,3.82-3.13.21-6.17-2-7.41-4.87Z"/><path class="cls-34" d="m168.29,194.83c.75.15,1.44.41,2.15.79.88.47,1.82,1.27,2.37,2.13-1.73-.28-3.4-1.36-4.52-2.91Z"/><path class="cls-33" d="m167.06,193.74c-.04,1.47-.31,2.75-1.06,4.14-.75,1.39-2.26,2.99-3.82,3.27-.21-3.13,2-6.17,4.87-7.41Z"/><path class="cls-34" d="m167.06,193.74c-.04,1.47-.31,2.75-1.06,4.14-.75,1.39-2.26,2.99-3.82,3.27-.21-3.13,2-6.17,4.87-7.41Z"/><path class="cls-34" d="m166.03,195.32c-.15.75-.41,1.44-.79,2.15-.47.88-1.27,1.82-2.13,2.37.28-1.73,1.36-3.4,2.91-4.52Z"/><path class="cls-33" d="m166.77,194.14c.04-1.47.31-2.75,1.06-4.14.75-1.39,2.26-2.99,3.82-3.27.21,3.13-2,6.17-4.87,7.41Z"/><path class="cls-34" d="m166.77,194.14c.04-1.47.31-2.75,1.06-4.14.75-1.39,2.26-2.99,3.82-3.27.21,3.13-2,6.17-4.87,7.41Z"/><path class="cls-34" d="m167.8,192.56c.15-.75.41-1.44.79-2.15.47-.88,1.27-1.82,2.13-2.37-.28,1.73-1.36,3.4-2.91,4.52Z"/><path class="cls-33" d="m166.95,194.18c-1.02-1.07-1.73-2.16-2.18-3.68-.46-1.52-.52-3.71.39-5.01,2.36,2.06,2.95,5.77,1.79,8.69Z"/><path class="cls-34" d="m166.57,192.33c-.43-.64-.73-1.31-.96-2.08-.29-.95-.39-2.18-.17-3.18,1.02,1.43,1.44,3.37,1.14,5.25Z"/><path class="cls-33" d="m166.88,193.69c1.02,1.07,1.73,2.16,2.18,3.68.46,1.52.52,3.71-.39,5.01-2.36-2.06-2.95-5.77-1.8-8.69Z"/><path class="cls-34" d="m167.26,195.54c.43.64.73,1.31.96,2.08.29.95.39,2.18.17,3.18-1.02-1.43-1.44-3.37-1.14-5.25Z"/><path class="cls-33" d="m167.16,193.9c-1.07,1.02-2.16,1.73-3.68,2.18-1.52.46-3.71.52-5.01-.39,2.06-2.36,5.77-2.95,8.69-1.8Z"/><path class="cls-34" d="m165.31,194.29c-.64.43-1.31.73-2.08.96-.95.29-2.18.39-3.18.17,1.43-1.02,3.37-1.44,5.25-1.14Z"/><path class="cls-33" d="m166.67,193.98c1.07-1.02,2.16-1.73,3.68-2.18s3.71-.52,5.01.39c-2.06,2.36-5.77,2.95-8.69,1.79Z"/><path class="cls-34" d="m168.52,193.59c.64-.43,1.31-.73,2.08-.96.95-.29,2.18-.39,3.18-.17-1.43,1.02-3.37,1.44-5.25,1.14Z"/><path class="cls-33" d="m166.13,193.41c-.14.26-.15.71.14,1.05.31.35.71.31.9.27.54-.13.83-.92.46-1.38-.39-.49-1.2-.5-1.5.07Z"/><path class="cls-35" d="m166.13,193.41c-.14.26-.15.71.14,1.05.31.35.71.31.9.27.54-.13.83-.92.46-1.38-.39-.49-1.2-.5-1.5.07Z"/><path class="cls-33" d="m299.04,68.87c.61-.91,1.29-1.59,2.32-2.17s2.61-.96,3.7-.51c-1.12,2.04-3.73,3.05-6.02,2.68Z"/><path class="cls-34" d="m299.04,68.87c.61-.91,1.29-1.59,2.32-2.17s2.61-.96,3.7-.51c-1.12,2.04-3.73,3.05-6.02,2.68Z"/><path class="cls-34" d="m300.32,68.29c.4-.41.83-.74,1.35-1.03.65-.36,1.52-.63,2.28-.63-.87.97-2.22,1.58-3.63,1.66Z"/><path class="cls-33" d="m299.39,68.73c-.61.91-1.29,1.59-2.32,2.17-1.03.57-2.61.96-3.7.51,1.12-2.04,3.73-3.05,6.02-2.68Z"/><path class="cls-34" d="m299.39,68.73c-.61.91-1.29,1.59-2.32,2.17-1.03.57-2.61.96-3.7.51,1.12-2.04,3.73-3.05,6.02-2.68Z"/><path class="cls-34" d="m298.11,69.31c-.4.41-.83.74-1.35,1.03-.65.36-1.52.63-2.28.63.87-.97,2.22-1.58,3.63-1.66Z"/><path class="cls-33" d="m299.28,68.97c-.91-.61-1.59-1.29-2.17-2.32-.57-1.03-.96-2.61-.51-3.7,2.04,1.12,3.05,3.73,2.68,6.02Z"/><path class="cls-34" d="m299.28,68.97c-.91-.61-1.59-1.29-2.17-2.32-.57-1.03-.96-2.61-.51-3.7,2.04,1.12,3.05,3.73,2.68,6.02Z"/><path class="cls-34" d="m298.71,67.69c-.41-.4-.74-.83-1.03-1.35-.36-.65-.63-1.52-.63-2.28.97.87,1.58,2.22,1.66,3.63Z"/><path class="cls-33" d="m299.15,68.63c.91.61,1.59,1.29,2.17,2.32.57,1.03.96,2.61.51,3.7-2.04-1.12-3.05-3.73-2.68-6.02Z"/><path class="cls-34" d="m299.15,68.63c.91.61,1.59,1.29,2.17,2.32.57,1.03.96,2.61.51,3.7-2.04-1.12-3.05-3.73-2.68-6.02Z"/><path class="cls-34" d="m299.72,69.91c.41.4.74.83,1.03,1.35.36.65.63,1.52.63,2.28-.97-.87-1.58-2.22-1.66-3.63Z"/><path class="cls-33" d="m299.04,68.73c1.07-.21,2.04-.21,3.17.11,1.13.32,2.53,1.17,2.98,2.25-2.24.65-4.79-.47-6.15-2.37Z"/><path class="cls-34" d="m300.36,69.23c.57,0,1.11.07,1.68.23.71.2,1.52.63,2.06,1.17-1.3.07-2.69-.45-3.74-1.4Z"/><path class="cls-33" d="m299.38,68.88c-1.07.21-2.04.21-3.17-.11-1.13-.32-2.53-1.17-2.98-2.25,2.24-.65,4.79.47,6.15,2.37Z"/><path class="cls-34" d="m298.07,68.37c-.57,0-1.11-.07-1.68-.23-.71-.2-1.52-.63-2.06-1.17,1.3-.07,2.69.45,3.74,1.4Z"/><path class="cls-33" d="m299.14,68.97c-.21-1.07-.21-2.04.11-3.17.32-1.13,1.17-2.53,2.25-2.98.65,2.24-.47,4.79-2.37,6.15Z"/><path class="cls-34" d="m299.64,67.66c0-.57.07-1.11.23-1.68.2-.71.63-1.52,1.17-2.06.07,1.3-.45,2.69-1.4,3.74Z"/><path class="cls-33" d="m299.29,68.63c.21,1.07.21,2.04-.11,3.17-.32,1.13-1.17,2.53-2.25,2.98-.65-2.24.47-4.79,2.37-6.15Z"/><path class="cls-34" d="m298.79,69.94c0,.57-.07,1.11-.23,1.68-.2.71-.63,1.52-1.17,2.06-.07-1.3.45-2.69,1.4-3.74Z"/><path class="cls-33" d="m299.86,68.53c-.1-.19-.39-.38-.71-.33-.34.05-.48.32-.53.45-.14.39.25.89.68.84.47-.05.79-.55.56-.97Z"/><path class="cls-35" d="m299.86,68.53c-.1-.19-.39-.38-.71-.33-.34.05-.48.32-.53.45-.14.39.25.89.68.84.47-.05.79-.55.56-.97Z"/><path class="cls-29" d="m44.63,170.29c1-.71,1.99-1.17,3.3-1.36,1.31-.19,3.13.02,4.1.92-1.99,1.7-5.13,1.74-7.39.44Z"/><path class="cls-30" d="m44.63,170.29c1-.71,1.99-1.17,3.3-1.36,1.31-.19,3.13.02,4.1.92-1.99,1.7-5.13,1.74-7.39.44Z"/><path class="cls-30" d="m46.21,170.2c.58-.28,1.17-.45,1.83-.55.82-.12,1.85-.06,2.65.24-1.3.68-2.96.79-4.48.31Z"/><path class="cls-29" d="m45.05,170.29c-1,.71-1.99,1.17-3.3,1.36-1.31.19-3.13-.02-4.1-.92,1.99-1.7,5.13-1.74,7.39-.44Z"/><path class="cls-30" d="m45.05,170.29c-1,.71-1.99,1.17-3.3,1.36-1.31.19-3.13-.02-4.1-.92,1.99-1.7,5.13-1.74,7.39-.44Z"/><path class="cls-30" d="m43.48,170.39c-.58.28-1.17.45-1.83.55-.82.12-1.85.06-2.65-.24,1.3-.68,2.96-.79,4.48-.31Z"/><path class="cls-29" d="m44.85,170.5c-.71-1-1.17-1.99-1.36-3.3-.19-1.31.02-3.13.92-4.1,1.7,1.99,1.74,5.13.44,7.39Z"/><path class="cls-30" d="m44.85,170.5c-.71-1-1.17-1.99-1.36-3.3-.19-1.31.02-3.13.92-4.1,1.7,1.99,1.74,5.13.44,7.39Z"/><path class="cls-30" d="m44.75,168.93c-.28-.58-.45-1.17-.55-1.83-.12-.82-.06-1.85.24-2.65.68,1.3.79,2.96.31,4.48Z"/><path class="cls-29" d="m44.84,170.08c.71,1,1.17,1.99,1.36,3.3.19,1.31-.02,3.13-.92,4.1-1.7-1.99-1.74-5.13-.44-7.39Z"/><path class="cls-30" d="m44.84,170.08c.71,1,1.17,1.99,1.36,3.3.19,1.31-.02,3.13-.92,4.1-1.7-1.99-1.74-5.13-.44-7.39Z"/><path class="cls-30" d="m44.94,171.66c.28.58.45,1.17.55,1.83.12.82.06,1.85-.24,2.65-.68-1.3-.79-2.96-.31-4.48Z"/><path class="cls-29" d="m44.69,170.15c1.21.21,2.23.58,3.3,1.37,1.06.79,2.2,2.23,2.24,3.55-2.61-.2-4.86-2.39-5.54-4.92Z"/><path class="cls-30" d="m45.88,171.19c.6.21,1.14.51,1.68.91.67.49,1.35,1.26,1.7,2.04-1.4-.44-2.65-1.54-3.38-2.95Z"/><path class="cls-29" d="m44.99,170.44c-1.21-.21-2.23-.58-3.3-1.37-1.06-.79-2.2-2.23-2.24-3.55,2.61.2,4.86,2.39,5.54,4.92Z"/><path class="cls-30" d="m43.81,169.39c-.6-.21-1.14-.51-1.68-.91-.67-.49-1.35-1.26-1.7-2.04,1.4.44,2.65,1.54,3.38,2.95Z"/><path class="cls-29" d="m44.7,170.44c.21-1.21.58-2.23,1.37-3.3.79-1.06,2.23-2.2,3.55-2.24-.2,2.61-2.39,4.86-4.92,5.54Z"/><path class="cls-30" d="m45.74,169.26c.21-.6.51-1.14.91-1.68.49-.67,1.26-1.35,2.04-1.7-.44,1.4-1.54,2.65-2.95,3.38Z"/><path class="cls-29" d="m44.99,170.14c-.21,1.21-.58,2.23-1.37,3.3s-2.23,2.2-3.55,2.24c.2-2.61,2.39-4.86,4.92-5.54Z"/><path class="cls-30" d="m43.94,171.33c-.21.6-.51,1.14-.91,1.68-.49.67-1.26,1.35-2.04,1.7.44-1.4,1.54-2.65,2.95-3.39Z"/><path class="cls-29" d="m45.63,170.26c-.04-.24-.26-.55-.62-.63-.38-.08-.63.15-.73.27-.3.36-.09,1.03.38,1.16.51.13,1.05-.27.97-.8Z"/><path class="cls-31" d="m45.63,170.26c-.04-.24-.26-.55-.62-.63-.38-.08-.63.15-.73.27-.3.36-.09,1.03.38,1.16.51.13,1.05-.27.97-.8Z"/><path class="cls-24" d="m208.15,78.37c.01,2.19,2.6,3.25,4.24,3.65,1.63.4,5.07,1.28,4.82,3.09-.93,4.64-9.76,3.97-12.43,6.3-2.07,1.81-2.87,6.21,3.4,7.34,1.1.2,2.25.91,2.44,2.01.18.98-.47,1.89-1.02,2.71-1.44,2.14-2.51,4.66-2.36,7.25.15,2.58,1.73,4.64,4.24,5.93,2.77,1.42,5.11,1.37,7.29-.02,2.19-1.38,3.61-3.72,4.51-6.14.35-.93.71-1.99,1.61-2.41,1.01-.48,2.26.03,3.06.81,4.58,4.44,7.69,1.22,7.95-1.52.34-3.53-5.35-10.31-2.13-13.77,1.32-1.25,4.04,1.02,5.32,2.12,1.28,1.09,3.65,2.58,5.43,1.32,1.86-1.31,1.29-3.86.14-5.82-1.15-1.96-3.07-3.42-4.05-5.48-.49-1.05-.64-2.46.23-3.22,1.31-1.15,3.43.24,5.08-.32,1.28-.43,1.92-1.96,1.75-3.31-.17-1.34-.95-2.52-1.74-3.61-2.32-3.2-6.19-5.33-6.44-13.24-6.57,4.41-10.56,2.51-14.51,2.49-1.35,0-2.76.05-3.95.69-1.19.64-2.07,2.06-1.67,3.35.52,1.67,2.88,2.58,2.71,4.31-.11,1.15-1.35,1.85-2.48,2.06-2.24.41-4.54-.3-6.81-.09-2.27.21-4.66,1.23-4.65,3.51Z"/><g class="cls-10"><path class="cls-23" d="m217.67,104.61s-.08,0-.12-.03c-.13-.07-.17-.22-.11-.35,4.07-7.75,9.42-18.15,14.13-27.33,5.72-11.13,10.65-20.74,11.93-22.91.07-.12.23-.16.35-.09.12.07.16.23.09.35-1.27,2.15-6.2,11.76-11.91,22.88-4.72,9.18-10.06,19.59-14.14,27.34-.05.09-.14.14-.23.14Z"/><path class="cls-23" d="m226.8,68.48c-1.31,0-2.63-.03-3.93-.1-.14,0-.25-.13-.24-.27s.13-.24.27-.24c4.55.23,9.14.06,13.66-.51.14-.02.27.08.29.22.02.14-.08.27-.22.29-3.25.41-6.54.61-9.82.61Z"/><path class="cls-23" d="m227.21,79.39c-5.43,0-12.78-.35-15.04-.58-.14-.01-.24-.14-.23-.28.01-.14.12-.25.28-.23,2.82.28,13.55.76,18.57.5h.01c.14,0,.25.11.26.24,0,.14-.1.26-.24.27-1.01.05-2.25.07-3.61.07Z"/><path class="cls-23" d="m206.07,94.87c-.14,0-.26-.11-.26-.25,0-.14.11-.26.25-.26,5.92-.05,11.52-.46,17.14-1.25.15-.02.27.08.29.22.02.14-.08.27-.22.29-5.64.8-11.27,1.21-17.21,1.26h0Z"/><path class="cls-23" d="m244.26,79.35c-.08,0-.15-.03-.2-.1-2.85-3.58-5.41-7.44-7.6-11.47-.07-.12-.02-.28.1-.35.12-.07.28-.02.35.1,2.18,4,4.72,7.83,7.55,11.39.09.11.07.27-.04.36-.05.04-.1.06-.16.06Z"/><path class="cls-23" d="m242.02,94.12c-.07,0-.14-.03-.19-.09-1.87-2.13-8.55-10.6-11.28-14.86-.08-.12-.04-.28.08-.36.12-.08.28-.04.35.08,2.72,4.24,9.37,12.67,11.24,14.8.09.11.08.27-.02.36-.05.04-.11.06-.17.06Z"/><path class="cls-23" d="m232.55,108.45c-.08,0-.16-.04-.21-.11-3.42-4.85-6.37-9.67-9.02-14.72-.07-.13-.02-.28.11-.35.13-.07.28-.02.35.11,2.63,5.03,5.57,9.83,8.98,14.66.08.12.05.28-.06.36-.04.03-.1.05-.15.05Z"/></g><path class="cls-25" d="m238.61,76.39c.95-1.85,2.57-3.59,4.39-4.55,1.03,1.22,2.09,2.26,2.95,3.44.79,1.1,1.57,2.28,1.75,3.61.17,1.34-.47,2.88-1.75,3.31-1.65.55-3.78-.83-5.08.32-.87.76-.71,2.17-.22,3.22.97,2.06,2.89,3.51,4.04,5.47,1.15,1.97,1.71,4.51-.14,5.83-1.79,1.27-4.16-.23-5.44-1.32s-4-3.37-5.32-2.12c-3.22,3.46,2.47,10.25,2.13,13.78-.26,2.74-3.37,5.95-7.95,1.51-.81-.78-2.06-1.29-3.06-.81-.9.43-1.26,1.48-1.61,2.41-.9,2.43-2.33,4.76-4.51,6.14-2.18,1.39-4.53,1.44-7.29.02-.43-.22-.83-.46-1.2-.73.11-.04.21-.08.3-.12,6.83-2.97,12.16-9.21,14.02-16.43.52-2.01.81-4.14,1.91-5.9,1.64-2.62,4.75-3.9,6.84-6.19,2.74-2.99,3.39-7.29,5.23-10.9Z"/><path class="cls-42" d="m206.7,92.19c-.49.1-1,.33-1.23.78-.09.18-.14.38-.15.58-.02.52.19,1.03.53,1.42.34.39.8.67,1.29.84,1.05.37,3.65.11,3.26-1.56-.36-1.51-2.33-2.33-3.7-2.06Z"/><path class="cls-24" d="m57.99,252.17c.98,2.52,4.42,2.59,6.48,2.33,2.06-.26,6.4-.75,6.9,1.43.97,5.75-9.48,8.86-11.53,12.71-1.59,2.99-.58,8.41,7.14,6.95,1.35-.26,2.99.06,3.7,1.24.63,1.05.29,2.38.01,3.57-.72,3.1-.84,6.47.47,9.37,1.31,2.9,4.03,4.59,7.49,4.97,3.81.42,6.48-.67,8.39-3.22,1.91-2.55,2.52-5.86,2.49-9.05-.01-1.22-.06-2.6.79-3.48.95-1,2.61-.95,3.88-.41,7.22,3.1,9.38-1.98,8.48-5.24-1.16-4.21-10.69-9.51-8.5-14.91.97-2.02,5.1-.6,7.05.1,1.95.7,5.33,1.37,6.83-.87,1.56-2.33-.21-5.01-2.4-6.76-2.19-1.75-5.04-2.58-7.06-4.52-1.03-.99-1.82-2.54-1.16-3.8,1-1.9,4.05-1.24,5.71-2.6,1.29-1.05,1.34-3.1.56-4.57-.78-1.47-2.2-2.48-3.59-3.39-4.07-2.66-9.47-3.41-13.23-12.41-5.62,7.96-11.05,7.52-15.6,9.24-1.56.59-3.16,1.27-4.24,2.53s-1.47,3.28-.44,4.58c1.33,1.69,4.44,1.7,5.01,3.77.38,1.37-.74,2.72-1.95,3.46-2.39,1.46-5.36,1.65-7.87,2.88-2.52,1.23-4.82,3.47-3.81,6.08Z"/><g class="cls-10"><path class="cls-23" d="m80.37,278.2s-.03,0-.04,0c-.17-.02-.3-.18-.28-.35,1.28-10.7,2.86-25.01,4.25-37.64,1.69-15.33,3.15-28.57,3.66-31.62.03-.17.19-.29.36-.26.17.03.29.19.26.37-.51,3.04-1.97,16.27-3.66,31.59-1.39,12.63-2.97,26.94-4.25,37.64-.02.16-.16.28-.31.28Z"/><path class="cls-23" d="m70.44,234.23c-.13,0-.26-.08-.3-.22-.05-.17.04-.34.2-.4,5.33-1.74,10.54-3.95,15.5-6.59.15-.08.35-.02.43.13.08.15.02.35-.13.43-4.99,2.65-10.23,4.88-15.6,6.63-.03.01-.07.02-.1.02Z"/><path class="cls-23" d="m62.73,250.93c-.14,0-.27-.09-.31-.23-.05-.17.05-.34.22-.39,3.36-.92,15.92-5.08,21.59-7.59.16-.07.35,0,.42.16s0,.35-.16.42c-5.69,2.51-18.3,6.69-21.68,7.62-.03,0-.06.01-.08.01Z"/><path class="cls-23" d="m62.74,272.09c-.13,0-.25-.08-.29-.2-.06-.16.02-.35.18-.41,6.78-2.65,13.06-5.59,19.18-8.98.15-.08.35-.03.43.12.08.15.03.35-.12.43-6.15,3.4-12.44,6.35-19.25,9.01-.04.01-.08.02-.12.02Z"/><path class="cls-23" d="m99.87,237.46c-.05,0-.11-.01-.16-.04-4.86-2.87-9.5-6.19-13.79-9.86-.13-.11-.15-.31-.04-.45.11-.13.31-.15.45-.03,4.26,3.65,8.87,6.94,13.7,9.79.15.09.2.28.11.43-.06.1-.16.16-.27.16Z"/><path class="cls-23" d="m103.77,255.43s-.1-.01-.15-.04c-3.09-1.63-14.5-8.45-19.51-12.14-.14-.1-.17-.3-.07-.44.1-.14.3-.17.44-.07,4.99,3.68,16.35,10.46,19.43,12.09.15.08.21.27.13.43-.06.11-.17.17-.28.17Z"/><path class="cls-23" d="m99.17,276.09c-.06,0-.12-.02-.18-.05-6.07-4.08-11.58-8.32-16.84-12.97-.13-.12-.14-.32-.03-.45.12-.13.32-.14.45-.03,5.24,4.63,10.73,8.86,16.78,12.92.15.1.18.29.09.44-.06.09-.16.14-.26.14Z"/></g><path class="cls-25" d="m87.05,291.54c-1.91,2.55-4.57,3.64-8.39,3.22-.76-.08-1.48-.23-2.16-.44.3-.53.62-1.05.92-1.54,3.63-6.1,4.85-13.59,3.32-20.52-.59-2.68-1.57-5.46-.81-8.1.78-2.74,3.25-4.62,4.79-7,4.36-6.68,1.05-16.12,4.81-23.15,1.15-2.16,2.81-3.83,4.74-5.24,2.04,1.28,4.08,2.09,5.86,3.25,1.39.91,2.81,1.93,3.59,3.39.78,1.47.72,3.52-.57,4.57-1.66,1.36-4.7.7-5.71,2.6-.66,1.26.13,2.82,1.16,3.8,2.02,1.94,4.88,2.77,7.06,4.52,2.19,1.75,3.95,4.43,2.4,6.77-1.51,2.24-4.88,1.57-6.84.87-1.95-.69-6.08-2.12-7.04-.1-2.19,5.4,7.33,10.7,8.49,14.91.9,3.26-1.26,8.33-8.48,5.24-1.27-.54-2.92-.59-3.87.41-.84.88-.8,2.26-.79,3.48.04,3.19-.59,6.5-2.49,9.05Z"/><path class="cls-42" d="m62.83,269.04c-.49.1-1,.33-1.23.78-.09.18-.14.38-.15.58-.02.52.19,1.03.53,1.42.34.39.8.67,1.29.84,1.05.37,3.65.11,3.26-1.56-.35-1.51-2.33-2.33-3.7-2.06Z"/><path class="cls-24" d="m149.07,170.48c1.97-.35,2.52-2.83,2.64-4.36.11-1.53.39-4.75,2.04-4.8,4.31.13,5.05,8.17,7.55,10.22,1.94,1.59,6.02,1.64,6.09-4.17.01-1.02.48-2.16,1.44-2.5.85-.31,1.77.13,2.59.51,2.15.97,4.57,1.55,6.87,1.02,2.3-.53,3.91-2.26,4.69-4.71.86-2.71.45-4.8-1.12-6.56-1.57-1.76-3.89-2.68-6.21-3.13-.89-.17-1.89-.34-2.41-1.08-.59-.84-.31-2.04.27-2.88,3.3-4.79-.07-7.1-2.57-6.92-3.23.23-8.46,6.38-12.06,4-1.33-1,.31-3.79,1.1-5.1.79-1.32,1.77-3.67.36-5.09-1.46-1.47-3.66-.58-5.25.76-1.59,1.33-2.61,3.28-4.31,4.47-.87.6-2.11.95-2.93.29-1.23-1.01-.31-3.12-1.05-4.52-.58-1.09-2.06-1.43-3.24-1.07-1.18.36-2.12,1.23-2.98,2.11-2.53,2.57-3.86,6.38-10.93,7.8,4.96,5.24,3.85,9.11,4.44,12.67.2,1.22.46,2.48,1.22,3.45.76.97,2.16,1.55,3.26.99,1.42-.72,1.88-2.98,3.47-3.09,1.05-.07,1.87.93,2.23,1.92.71,1.95.42,4.13.95,6.13.53,2.01,1.81,4.01,3.86,3.65Z"/><g class="cls-10"><path class="cls-23" d="m170.99,158.21s-.05,0-.07-.01c-7.58-2.49-17.74-5.71-26.7-8.56-10.88-3.46-20.28-6.44-22.42-7.26-.12-.05-.18-.18-.14-.3.05-.12.18-.18.3-.14,2.13.81,11.52,3.8,22.39,7.25,8.97,2.85,19.13,6.08,26.71,8.56.12.04.19.17.15.3-.03.1-.12.16-.22.16Z"/><path class="cls-23" d="m137.62,159.02c-.12,0-.22-.09-.23-.21-.48-4.12-1.34-8.23-2.53-12.21-.04-.12.03-.25.16-.29.12-.04.25.03.29.16,1.2,4,2.06,8.14,2.54,12.29.02.13-.08.25-.21.26,0,0-.02,0-.03,0Z"/><path class="cls-23" d="m148.62,167.05c-.12,0-.22-.09-.23-.22-.18-2.57-1.37-12.29-2.37-16.77-.03-.13.05-.25.18-.28.13-.02.25.05.28.18,1,4.5,2.2,14.26,2.38,16.84,0,.13-.09.24-.22.25,0,0-.01,0-.02,0Z"/><path class="cls-23" d="m163.98,170.12c-.11,0-.21-.08-.23-.19-.94-5.31-2.16-10.29-3.72-15.23-.04-.12.03-.25.15-.29.12-.04.26.03.29.15,1.57,4.96,2.8,9.96,3.74,15.29.02.13-.06.25-.19.27-.01,0-.03,0-.04,0Z"/><path class="cls-23" d="m135.12,146.68c-.07,0-.14-.03-.18-.09-.08-.1-.06-.25.04-.33,3.27-2.56,6.33-5.43,9.1-8.52.09-.1.23-.1.33-.02.1.09.1.23.02.33-2.79,3.11-5.87,6-9.16,8.57-.04.03-.09.05-.14.05Z"/><path class="cls-23" d="m146.24,150.28c-.06,0-.13-.03-.17-.08-.09-.1-.08-.24.02-.33,3.4-3.09,9.97-10.35,11.6-12.35.08-.1.23-.12.33-.03.1.08.12.23.03.33-1.63,2.01-8.24,9.29-11.65,12.4-.04.04-.1.06-.16.06Z"/><path class="cls-23" d="m160.35,154.57c-.07,0-.14-.03-.19-.09-.08-.1-.06-.25.04-.33,4.13-3.13,7.99-6.5,11.82-10.3.09-.09.24-.09.33,0,.09.09.09.24,0,.33-3.84,3.81-7.72,7.19-11.87,10.34-.04.03-.09.05-.14.05Z"/></g><path class="cls-25" d="m151.7,166.11c-.11,1.53-.66,4.02-2.63,4.37-2.05.35-3.33-1.65-3.86-3.65s-.24-4.19-.95-6.14c-.36-.98-1.17-1.99-2.23-1.92-1.59.11-2.05,2.36-3.47,3.09-1.1.55-2.5-.03-3.26-1s-1.03-2.23-1.22-3.44c-.33-2.03-.11-4.17-.79-6.6,1.66-.26,3.41-.17,5.03.21,3.76.89,7.07,3.04,10.44,4.92,3.37,1.89,7.05,3.59,10.9,3.42,2.85-.12,5.61-1.26,8.45-1.05,3.26.23,6.19,2.18,9.43,2.53,2.03.21,4.05-.26,5.85-1.2-.05.63-.19,1.31-.42,2.02-.78,2.46-2.4,4.19-4.69,4.72-2.31.52-4.73-.05-6.88-1.03-.82-.37-1.74-.81-2.59-.51-.96.35-1.43,1.48-1.44,2.5-.06,5.82-4.15,5.76-6.09,4.18-2.5-2.05-3.23-10.09-7.55-10.22-1.65.04-1.93,3.27-2.04,4.8Z"/><path class="cls-42" d="m157.82,135.3c-.33.06-.68.22-.83.52-.06.12-.09.26-.1.4-.01.35.13.7.36.96.23.26.54.45.87.57.71.25,2.47.07,2.2-1.05-.24-1.02-1.57-1.58-2.5-1.4Z"/><path class="cls-3" d="m268.76,49.03c9.92,8.49,11.85,23.06,5.52,33.98-3.32,5.73-8.73,10.56-15.37,13.13-6.64,2.57-14.5,2.74-21.06.07-7.79-3.17-13.17-10.07-15.18-17.49-2.85-10.57,1.36-24.51,10.52-32.1,9.43-7.81,27.1-4.85,35.58,2.41Z"/><path class="cls-2" d="m275.24,68.04c-.16-.78-.42-1.57-.89-2.21-.47-.65-1.19-1.15-1.98-1.23-1.16-.11-2.25.7-2.8,1.73s-.67,2.22-.72,3.39c-.05,1.24-.05,2.52.37,3.69.41,1.17,1.29,2.25,2.49,2.59,4.08,1.19,4.03-5.65,3.55-7.96Z"/><path class="cls-2" d="m257.87,45.6c2.06.36,4.09,1.16,5.59,2.6.57.55,1.07,1.2,1.29,1.96.22.76.11,1.64-.41,2.24-.6.69-1.63.87-2.54.71-.91-.16-1.74-.58-2.59-.93-.99-.4-2.03-.69-3.08-.85-2.23-.36-5.69-.86-5.02-4.02.6-2.83,4.73-2.06,6.76-1.7Z"/><path class="cls-14" d="m255.35,69.29l4.78-3.68c3.1-2.42,6.29-4.74,9.76-7.61-4.45-.79-8.91-.04-13.05,1.34-2.45.84-4.78,1.95-6.99,3.24-1.63-1.65-3.35-3.18-5.18-4.58-3.41-2.54-7.06-4.73-11.35-6.11,1.74,4.15,4.01,7.62,6.26,10.99,1.11,1.61,2.23,3.19,3.36,4.73-2.4,2.11-4.56,4.46-6.48,6.98-2.54,3.41-4.73,7.06-6.11,11.35,4.15-1.74,7.62-4.01,10.99-6.26,2.4-1.64,4.69-3.31,6.94-5l5.38,7c2.42,3.1,4.74,6.29,7.61,9.76.79-4.45.04-8.91-1.34-13.05-1.12-3.24-2.69-6.3-4.57-9.11Z"/><path class="cls-11" d="m261.26,91.45c-2.86-3.47-5.19-6.66-7.6-9.76l-5.39-7c-2.24,1.68-4.54,3.35-6.94,4.99-3.37,2.25-6.84,4.51-10.99,6.26.6-1.86,1.36-3.6,2.24-5.26,3.42-1.61,6.4-3.56,9.29-5.5,2.39-1.64,4.69-3.31,6.94-5l5.38,7c2.34,3.02,4.61,6.12,7.37,9.47.08,1.59,0,3.19-.29,4.8Z"/><path class="cls-5" d="m272.56,85.63c-3.32,4.57-8.04,8.34-13.66,10.51-6.65,2.57-14.5,2.75-21.06.07-7.8-3.17-13.17-10.08-15.17-17.49-2.86-10.56,1.35-24.51,10.51-32.09,1.87-1.55,4.08-2.68,6.47-3.44-2.21,5.23-2.98,11.2-2.78,16.93.24,6.72,1.8,13.72,6.25,18.75,4.7,5.31,12.03,7.7,19.11,7.81,3.47.06,6.91-.36,10.32-1.06Z"/><path class="cls-21" d="m169.91,150.41c15.27-3.08,27.86-17.58,28.27-34.15.41-16.57-11.53-32.92-26.87-36.42-4.48-1.02-9.09-1.02-13.6-.33l6.09,71.65c1.98-.09,4.02-.33,6.1-.75Z"/><path class="cls-7" d="m168.98,145.66c9.54-1.92,18.23-9.4,22.13-19.04,1.37-3.39,2.11-6.91,2.2-10.45.35-14.2-10.19-28.66-23.01-31.58-3.75-.85-7.83-.92-12.17-.2l5.26,61.92c1.83-.06,3.7-.27,5.58-.65Z"/><path class="cls-22" d="m179.26,133.78c-.29-.16-.6-.28-.93-.28-.33,0-.67.13-.87.39-.23.31-.23.75-.08,1.11.15.36.44.64.74.89.26.22.54.41.86.53.61.22,1.24.15,1.54-.46.24-.47-.1-1.11-.4-1.45-.25-.29-.54-.53-.87-.72Z"/><path class="cls-22" d="m168.64,131.22c-.22-.17-.48-.3-.76-.34-.28-.04-.58.04-.77.24-.23.24-.28.61-.18.93.09.32.3.59.53.83.2.21.41.41.67.54.49.25,1.03.25,1.35-.23.25-.37.03-.95-.18-1.27-.18-.27-.4-.5-.66-.7Z"/><path class="cls-22" d="m165.94,139.81c.03-.32,0-.64-.13-.93-.13-.29-.38-.53-.69-.6-.37-.08-.75.1-1.01.38-.25.28-.38.64-.48,1.01-.08.32-.14.64-.12.97.05.62.37,1.15,1.03,1.17.51.02.94-.54,1.11-.94.15-.33.25-.69.28-1.05Z"/><path class="cls-22" d="m182.93,99.29c.1-.26.15-.55.11-.82-.04-.28-.2-.54-.45-.67-.29-.15-.66-.09-.94.09-.28.18-.48.46-.64.74-.14.25-.27.51-.32.8-.1.54.05,1.06.6,1.23.43.13.92-.24,1.16-.54.2-.25.37-.53.48-.83Z"/><path class="cls-22" d="m170.7,90.43c-.04-.28-.13-.55-.3-.77-.17-.22-.43-.38-.71-.38-.33,0-.63.24-.78.53-.16.29-.2.63-.21.96,0,.29,0,.58.1.85.17.52.55.91,1.12.79.44-.09.69-.65.77-1.03.06-.31.07-.64.02-.96Z"/><path class="cls-22" d="m185.43,110.85c-.27.08-.53.2-.73.4-.2.2-.32.48-.28.76.05.33.32.59.63.7.31.12.65.11.98.08.29-.03.57-.08.83-.21.49-.24.82-.67.63-1.21-.15-.42-.74-.6-1.12-.62-.32-.02-.64.02-.95.11Z"/><path class="cls-22" d="m170.57,98.7c-.07.27-.1.56-.04.83.07.27.25.52.5.63.3.13.67.03.93-.17.26-.2.43-.5.57-.8.12-.26.23-.53.25-.82.05-.55-.14-1.05-.71-1.17-.44-.09-.89.32-1.11.63-.18.26-.32.56-.4.87Z"/><path class="cls-22" d="m177.41,108.56c-.28-.04-.55-.13-.77-.3-.22-.17-.38-.44-.38-.71,0-.33.24-.63.53-.78.29-.16.63-.2.96-.21.29,0,.58,0,.85.1.52.17.91.55.79,1.12-.09.44-.65.69-1.03.76-.31.06-.64.07-.96.02Z"/><path class="cls-21" d="m162.39,133.15c.62-.05,1.22-.11,1.8-.19,4.92-.68,7.42-6.28,4.58-10.35l-2.26-3.23,23.13,14.97,6.44-14.56-28.16-5.03,4.15-.85c4.82-.99,6.91-6.71,3.87-10.58-.22-.29-.45-.56-.68-.83-3.3-3.84-9.49-2.77-11.25,1.98l-1.23,3.3-2.84-2.06,2.34,27.43s.08,0,.11,0Z"/><path class="cls-37" d="m165.32,151.07c5.59-2.47,10.67-6.27,14.73-10.85,7.59-8.54,12.06-19.8,12.4-31.23.17-5.65-.69-11.33-2.45-16.69,5.25,6.73,8.39,15.31,8.18,23.97-.4,16.57-12.99,31.07-28.27,34.15-1.55.31-3.09.53-4.59.66Z"/><path class="cls-46" d="m175.4,106.89c.23.69.03,1.47-.38,2.08-.22.32-.49.62-.83.81s-.75.26-1.13.16c-.59-.17-.99-.78-1.03-1.4-.04-.62.23-1.22.61-1.7.69-.87,2.29-1.3,2.75.06Z"/><path class="cls-21" d="m67,263.83c-6.84-3.57-11.59-9.95-14.62-16.8-2.54-5.75-4.01-12.04-3.55-18.37,1.15-15.69,15.53-29.95,31.98-32.02,16.45-2.08,32.67,8.2,38.01,22.83,11.83,32.46-23.52,59.14-51.82,44.37Z"/><path class="cls-7" d="m76.57,262.28c-2.54-.61-5.03-1.54-7.39-2.78-6.39-3.34-10.23-9.68-12.32-14.42-2.48-5.63-3.56-11.06-3.18-16.13.97-13.12,13.68-25.71,27.77-27.49,3.52-.44,7.11-.24,10.66.61,10.12,2.42,18.81,9.88,22.14,19.03,4.04,11.08,2.01,22.32-5.57,30.82-8.04,9.03-20.65,13.09-32.12,10.35Z"/><path class="cls-22" d="m100.97,212.72c-.12.31-.19.64-.14.96.05.32.23.64.51.8.34.19.78.12,1.11-.09s.57-.53.77-.86c.17-.29.33-.6.39-.93.13-.63-.04-1.25-.69-1.46-.5-.16-1.08.27-1.38.61-.24.29-.44.62-.58.97Z"/><path class="cls-22" d="m100.03,223.6c-.13.25-.23.52-.22.8,0,.28.12.56.35.73.27.19.64.18.94.04s.53-.39.74-.65c.18-.23.34-.47.43-.74.17-.52.1-1.06-.43-1.3-.4-.19-.94.11-1.23.37-.24.22-.44.47-.59.75Z"/><path class="cls-22" d="m66.39,250.01c-.16.23-.29.48-.33.76-.03.28.05.58.25.77.24.23.61.26.93.17s.58-.31.82-.54c.21-.2.4-.42.53-.68.24-.49.24-1.03-.25-1.35-.37-.24-.95-.01-1.26.2-.26.18-.5.41-.68.67Z"/><path class="cls-22" d="m108.93,224.98c-.32.02-.64.09-.9.26-.27.17-.47.46-.49.77-.02.37.21.73.53.94.31.21.69.28,1.07.32.33.04.66.05.98-.03.61-.15,1.08-.54,1-1.19-.06-.5-.68-.84-1.09-.96-.35-.1-.72-.14-1.08-.12Z"/><path class="cls-22" d="m66.32,214.26c-.27-.06-.56-.07-.83.02-.27.08-.51.28-.6.54-.11.31.01.67.23.92.22.25.52.4.83.52.27.11.55.19.83.2.55.02,1.04-.21,1.12-.78.07-.44-.38-.87-.7-1.07-.27-.17-.58-.28-.89-.35Z"/><path class="cls-22" d="m59.4,227.68c-.27.08-.53.21-.72.41-.19.2-.31.49-.27.76.05.33.33.58.64.7.31.11.65.1.98.06.29-.03.57-.09.83-.22.49-.25.81-.68.62-1.22-.15-.42-.75-.59-1.13-.6-.32-.01-.64.03-.95.12Z"/><path class="cls-22" d="m77.37,210.05c.12.25.28.49.5.66.23.16.52.24.79.16.32-.1.53-.4.6-.73.07-.32.01-.66-.07-.98-.07-.28-.17-.55-.33-.79-.31-.45-.78-.71-1.29-.45-.39.21-.48.82-.44,1.2.03.32.11.63.25.92Z"/><path class="cls-22" d="m77.08,257.19c.01.33.08.66.24.94.17.28.46.5.78.53.39.04.76-.2.99-.51.22-.32.32-.71.37-1.09.05-.33.07-.68,0-1.01-.13-.63-.52-1.13-1.2-1.07-.52.04-.89.67-1.03,1.1-.11.36-.17.74-.15,1.12Z"/><path class="cls-22" d="m89.27,256.54c-.06-.24-.08-.5-.01-.75.07-.24.23-.47.47-.56.28-.11.6-.01.84.18.23.19.38.46.5.73.1.24.19.49.21.75.03.49-.15.95-.67,1.04-.4.07-.8-.31-.99-.6-.16-.24-.28-.51-.34-.79Z"/><path class="cls-22" d="m76.88,250.48c-.2.19-.44.36-.71.43-.27.07-.58.03-.79-.14-.26-.21-.35-.57-.29-.9.05-.33.23-.62.43-.88.17-.23.36-.45.6-.61.46-.3.99-.37,1.37.06.29.34.14.94-.03,1.28-.15.29-.34.55-.57.77Z"/><path class="cls-22" d="m107.7,241.67c-.18-.22-.32-.47-.37-.74-.05-.27.01-.58.2-.78.23-.24.6-.3.92-.22.32.08.6.28.85.49.22.19.42.4.56.65.27.48.3,1.02-.17,1.36-.36.26-.95.07-1.27-.13-.27-.17-.52-.38-.72-.63Z"/><path class="cls-22" d="m102.76,234.42c-.26-.1-.51-.25-.69-.46-.18-.22-.27-.51-.21-.78.08-.32.37-.56.69-.64.32-.09.66-.05.98.01.28.06.56.14.81.29.47.28.76.74.52,1.27-.18.41-.79.53-1.17.51-.32-.01-.64-.07-.94-.19Z"/><path class="cls-22" d="m67.59,226.57c.28.03.57.02.82-.09.26-.11.48-.32.55-.59.08-.32-.07-.67-.31-.89-.24-.23-.56-.35-.87-.45-.28-.08-.56-.14-.85-.13-.55.03-1.02.3-1.05.87-.03.45.45.84.79,1,.29.14.6.23.92.27Z"/><path class="cls-22" d="m76.32,218.33c0,.28-.04.56-.18.81-.14.24-.37.44-.65.48-.33.04-.65-.14-.85-.41-.2-.26-.29-.59-.35-.92-.05-.28-.08-.57-.03-.86.09-.54.41-.98.99-.95.45.02.78.54.91.9.11.3.17.62.17.94Z"/><path class="cls-22" d="m85.58,252.77c-.05.24-.13.48-.29.67-.16.19-.4.32-.64.3-.29-.02-.54-.23-.67-.49-.13-.26-.15-.56-.15-.85,0-.25.03-.51.12-.74.17-.45.52-.77,1.01-.65.38.09.58.6.63.93.04.28.04.56-.02.84Z"/><path class="cls-21" d="m111.96,253.23l-20.5-16.83,3.3.85c4.75,1.23,9.23-2.99,8.13-7.77-.14-.6-.29-1.19-.46-1.75-1.41-4.76-7.32-6.4-10.92-2.97l-2.86,2.72,11.34-25.11-15.36-4.19-.75,28.6-1.46-3.98c-1.7-4.62-7.67-5.83-11.04-2.24-.25.26-.49.53-.72.8-3.3,3.84-1.31,9.8,3.64,10.83l3.45.72-27.04,1.55,4.33,14.91,24.46-11.79-2.18,2.57c-3.03,3.59-1.49,9.18,3,10.56.12.04.25.07.37.11,4.99,1.43,9.6-3.2,8.17-8.19l-.66-2.3,10.83,22.14,12.93-9.24Z"/><path class="cls-37" d="m75.47,267.01c-2.86-.68-5.7-1.73-8.48-3.18-6.83-3.57-11.59-9.95-14.62-16.8-2.54-5.75-4.01-12.05-3.55-18.37,1.16-15.69,15.53-29.95,31.98-32.03,4.78-.6,9.55-.16,14.03,1.13-36.53,6.98-44.91,45.42-19.36,69.25Z"/><path class="cls-46" d="m95.83,225.57c.58-.3,1.29-.22,1.88.05.31.15.61.35.82.62.21.27.33.63.29.97-.07.54-.56.97-1.09,1.09-.54.12-1.1-.04-1.58-.31-.86-.49-1.45-1.84-.31-2.43Z"/><path class="cls-46" d="m99.31,256.1c-.01-1.3.77-2.52,1.79-3.33.55-.43,1.18-.78,1.86-.91.68-.13,1.43-.03,2.01.36.91.62,1.25,1.88.97,2.95-.28,1.07-1.07,1.94-1.99,2.55-1.66,1.1-4.62.94-4.65-1.63Z"/><path class="cls-47" d="m151.7,166.11c-.11,1.53-.66,4.02-2.63,4.37-2.05.35-3.33-1.65-3.86-3.65s-.24-4.19-.95-6.14c-.36-.98-1.17-1.99-2.23-1.92-1.59.11-2.05,2.36-3.47,3.09-1.1.55-2.5-.03-3.26-1s-1.03-2.23-1.22-3.44c-.59-3.56.53-7.43-4.44-12.67,7.08-1.42,8.41-5.23,10.93-7.79.86-.88,1.8-1.76,2.98-2.12,1.18-.35,2.66-.01,3.24,1.07.74,1.41-.18,3.52,1.05,4.53.82.66,2.07.32,2.93-.29,1.7-1.18,2.72-3.13,4.31-4.46,1.59-1.34,3.8-2.23,5.26-.76,1.41,1.42.42,3.78-.37,5.09-.78,1.32-2.43,4.11-1.09,5.11,1.31.86,2.83.59,4.4-.1l-3.56-41.97c.47.45.97.86,1.5,1.26,2.73,2.08,6.02,3.74,7.62,6.78,3.37,6.39-2.7,14.59.09,21.26.95,2.28,2.89,4.18,3.2,6.63.09.76.02,1.49-.17,2.21-.54,1.97-2.02,3.74-3.61,5.12-1.53,1.34-3.25,2.53-4.62,4-.57.6-1.07,1.24-1.49,1.96-2.37,4.11-1.15,9.52-3.35,13.7-.11.19-.21.37-.32.56-1.11-2.6-2.4-5.15-4.82-5.22-1.65.04-1.93,3.27-2.04,4.8Z"/><path class="cls-26" d="m148.55,84.83c-.58-2.39-1.67-4.7-3.4-6.45-1.05-1.06-2.32-1.9-3.67-2.54-3.74-1.79-8.18-2.09-12.13-.81,1.02,4.53,3.99,8.39,8.12,10.52,1.3.67,2.71,1.17,4.17,1.23,2.44.11,4.71-.87,6.9-1.94Z"/><path class="cls-27" d="m148.55,84.83c-.58-2.39-1.67-4.7-3.4-6.45-1.05-1.06-2.32-1.9-3.67-2.54-3.74-1.79-8.18-2.09-12.13-.81,1.02,4.53,3.99,8.39,8.12,10.52,1.3.67,2.71,1.17,4.17,1.23,2.44.11,4.71-.87,6.9-1.94Z"/><g class="cls-41"><path class="cls-23" d="m148.23,84.85s-.07,0-.11-.02c-6.06-2.7-12.06-5.72-17.84-9-.13-.07-.17-.23-.1-.36.07-.13.23-.17.36-.1,5.76,3.27,11.75,6.29,17.79,8.98.13.06.19.22.13.35-.04.1-.14.16-.24.16Z"/><path class="cls-23" d="m143.97,82.89c-.11,0-.21-.07-.25-.18-.76-2.11-1.88-4.04-3.33-5.75-.1-.11-.08-.28.03-.37.11-.1.28-.08.37.03,1.49,1.75,2.65,3.74,3.43,5.91.05.14-.02.29-.16.34-.03.01-.06.02-.09.02Z"/><path class="cls-23" d="m138.26,80.03c-.13,0-.24-.09-.26-.22-.27-1.66-1.41-3.06-2.41-4.3-.09-.11-.07-.28.04-.37.11-.09.28-.07.37.04.99,1.23,2.22,2.75,2.52,4.55.02.14-.07.28-.22.3-.01,0-.03,0-.04,0Z"/><path class="cls-23" d="m137.36,84.13c-.12,0-.24-.09-.26-.22-.03-.14.07-.28.21-.31,1.64-.31,3.19-1.03,4.49-2.07.11-.09.28-.07.37.04.09.11.07.28-.04.37-1.37,1.09-3,1.85-4.72,2.17-.02,0-.03,0-.05,0Z"/><path class="cls-23" d="m132.19,80.42c-.13,0-.24-.09-.26-.22-.02-.14.07-.28.22-.31,1.24-.21,2.41-.63,3.88-1.39.13-.07.29-.02.36.11.07.13.02.29-.11.36-1.53.79-2.74,1.22-4.04,1.44-.02,0-.03,0-.04,0Z"/></g><path class="cls-26" d="m198.45,143.48c1.36.58,2.86.89,4.33.68.89-.12,1.75-.43,2.54-.85,2.21-1.16,3.94-3.18,4.75-5.54-2.55-1.14-5.47-1.09-7.98.12-.79.38-1.54.88-2.09,1.56-.93,1.14-1.27,2.58-1.55,4.02Z"/><path class="cls-27" d="m198.45,143.48c1.36.58,2.86.89,4.33.68.89-.12,1.75-.43,2.54-.85,2.21-1.16,3.94-3.18,4.75-5.54-2.55-1.14-5.47-1.09-7.98.12-.79.38-1.54.88-2.09,1.56-.93,1.14-1.27,2.58-1.55,4.02Z"/><g class="cls-41"><path class="cls-23" d="m198.68,143.57c-.06,0-.11-.03-.14-.08-.04-.08-.02-.17.06-.22,3.48-1.95,7.09-3.75,10.75-5.35.08-.04.17,0,.21.08.04.08,0,.17-.08.21-3.64,1.6-7.25,3.39-10.72,5.33-.02.01-.05.02-.08.02Z"/><path class="cls-23" d="m204.46,142.72c-1.13,0-2.26-.17-3.35-.5-.08-.03-.13-.11-.11-.2.03-.09.12-.13.2-.11,1.29.39,2.62.55,3.96.46.09-.02.16.06.17.15,0,.09-.06.16-.15.17-.24.02-.49.02-.73.02Z"/><path class="cls-23" d="m206.8,140.93c-.76,0-1.58-.08-2.29-.44-.08-.04-.11-.14-.07-.21s.14-.11.21-.07c.9.47,1.98.42,2.94.39.08,0,.16.07.17.15s-.07.16-.15.17c-.26,0-.53.02-.81.02Z"/><path class="cls-23" d="m202.3,141.58c-.09,0-.16-.07-.16-.15-.03-1.05.19-2.11.65-3.05.04-.08.13-.11.21-.07.08.04.11.13.07.21-.44.9-.65,1.9-.62,2.9,0,.09-.07.16-.15.16h0Z"/><path class="cls-23" d="m205.84,139.86s-.02,0-.03,0c-.09-.01-.15-.1-.13-.18.17-1.02.4-1.75.76-2.46.04-.08.14-.11.21-.07.08.04.11.14.07.21-.35.67-.56,1.38-.73,2.37-.01.08-.08.13-.16.13Z"/></g><path class="cls-24" d="m44.36,200.76c3.29-.09,6.54-1.35,9.03-3.5,2.49-2.15,4.2-5.19,4.77-8.43-1.1-.41-2.48-.35-3.63-.1-2.82.62-5.42,2.21-7.26,4.44-1.84,2.23-2.84,4.7-2.9,7.59Z"/><g class="cls-10"><path class="cls-23" d="m45.81,199.53c-.06,0-.11-.02-.15-.07-.08-.08-.08-.22.01-.3,3.88-3.62,7.98-7.1,12.19-10.33.09-.07.23-.05.3.04.07.09.05.23-.04.3-4.2,3.22-8.29,6.69-12.16,10.3-.04.04-.09.06-.14.06Z"/><path class="cls-23" d="m53.49,196.69s-.06,0-.1-.02c-.1-.05-.15-.18-.09-.29.81-1.6,1.32-3.31,1.52-5.09.01-.12.12-.2.23-.19.12.01.2.12.19.23-.2,1.83-.73,3.59-1.56,5.24-.04.07-.11.12-.19.12Z"/><path class="cls-23" d="m50.04,198.72s-.06,0-.09-.02c-.11-.05-.15-.18-.1-.28.55-1.15,1.17-2.45,1.07-3.8,0-.12.08-.22.2-.23.12-.03.22.08.23.2.1,1.46-.57,2.87-1.11,4.01-.04.08-.11.12-.19.12Z"/><path class="cls-23" d="m53.64,192.59s-.06,0-.09-.02c-1.47-.69-2.69-.99-3.81-.94-.11,0-.22-.08-.22-.2,0-.12.08-.22.2-.22,1.57-.07,3.04.52,4.01.98.11.05.15.18.1.28-.04.08-.11.12-.19.12Z"/><path class="cls-23" d="m49.72,195.91s-.03,0-.05,0c-1.18-.29-2.11-.3-3.15-.23-.13,0-.22-.08-.23-.2,0-.12.08-.22.2-.23,1.07-.07,2.04-.06,3.28.24.11.03.18.14.16.26-.02.1-.11.16-.21.16Z"/></g><path class="cls-24" d="m220.56,49.18c1.41-2.8,1.81-6.09,1.13-9.14-.69-3.06-2.46-5.86-4.93-7.79-.84.74-1.41,1.92-1.71,3-.75,2.64-.59,5.54.45,8.08,1.04,2.54,2.67,4.49,5.06,5.85Z"/><g class="cls-10"><path class="cls-23" d="m220.01,47.52c-.09,0-.17-.06-.2-.15-1.29-4.89-2.36-9.89-3.18-14.86-.02-.11.06-.21.17-.23.11-.02.21.06.23.17.81,4.96,1.88,9.95,3.17,14.83.03.11-.04.22-.14.25-.02,0-.04,0-.05,0Z"/><path class="cls-23" d="m221.09,39.8c-.06,0-.13-.03-.17-.09-.97-1.4-2.18-2.59-3.59-3.56-.09-.06-.12-.19-.05-.28.06-.09.19-.11.28-.05,1.45.99,2.69,2.23,3.69,3.66.06.09.04.22-.05.28-.04.02-.08.04-.12.04Z"/><path class="cls-23" d="m221.23,43.61c-.06,0-.12-.03-.16-.08-.72-.98-1.53-2.08-2.7-2.6-.1-.05-.15-.16-.1-.27.04-.1.17-.15.27-.1,1.27.57,2.15,1.77,2.86,2.73.07.09.05.22-.04.28-.04.03-.08.04-.12.04Z"/><path class="cls-23" d="m215.16,40.68s-.06,0-.09-.02c-.1-.05-.14-.17-.09-.27.64-1.35,1.8-2.31,2.62-2.92.09-.07.22-.05.28.04s.05.22-.04.28c-1.24.92-2.04,1.81-2.5,2.77-.03.07-.11.11-.18.11Z"/><path class="cls-23" d="m217.1,45.2s-.06,0-.08-.02c-.1-.05-.15-.17-.1-.27.42-.93.87-1.74,1.68-2.64.07-.08.2-.09.28-.02.08.07.09.2.01.28-.77.86-1.2,1.63-1.61,2.53-.03.07-.11.12-.18.12Z"/></g><path class="cls-24" d="m119.31,268.9c1.87-1.2,3.3-3.07,3.98-5.19.68-2.12.61-4.47-.21-6.54-.78.15-1.55.67-2.13,1.22-1.41,1.35-2.36,3.17-2.64,5.11-.28,1.93,0,3.71.99,5.4Z"/><g class="cls-10"><path class="cls-23" d="m119.64,267.7s-.03,0-.04,0c-.08-.02-.12-.1-.1-.18.97-3.45,2.12-6.89,3.42-10.23.03-.07.11-.11.19-.08.07.03.11.11.08.19-1.29,3.33-2.44,6.77-3.41,10.21-.02.06-.08.1-.14.1Z"/><path class="cls-23" d="m123.08,263.37c-.07,0-.14-.06-.14-.13-.09-1.21-.4-2.37-.91-3.47-.03-.07,0-.16.07-.19.07-.03.16,0,.19.07.53,1.13.84,2.33.94,3.57,0,.08-.05.15-.13.15,0,0,0,0-.01,0Z"/><path class="cls-23" d="m121.8,265.76c-.07,0-.13-.06-.14-.13-.09-.86-.19-1.83-.71-2.57-.05-.06-.03-.15.03-.2.06-.05.15-.03.2.03.57.8.68,1.86.76,2.7,0,.08-.05.15-.13.16,0,0,0,0-.01,0Z"/><path class="cls-23" d="m119.14,261.77s-.09-.02-.12-.06c-.04-.07-.03-.15.04-.2.88-.59,1.94-.76,2.66-.84.08,0,.15.05.16.13,0,.08-.05.15-.13.16-.69.07-1.7.24-2.53.79-.02.02-.05.03-.08.03Z"/><path class="cls-23" d="m118.7,265.24s-.09-.02-.12-.06c-.05-.06-.03-.15.03-.2.59-.42,1.16-.75,1.98-1.01.08-.02.16.02.18.09.02.08-.02.16-.09.18-.78.25-1.33.57-1.9.97-.03.02-.05.03-.08.03Z"/></g><path class="cls-3" d="m68.63,95.75c-16.83,16.19-18.36,45.69-3.31,63.54,8.67,10.28,22.03,16.5,35.48,16.31s26.7-6.84,34.73-17.64c13.39-18.03,9.78-46.46-4.33-63.28-14.77-17.59-47.43-13.5-62.56,1.06Z"/><path class="cls-2" d="m86.31,88.93c-1.86,1.11-3.62,2.6-4.38,4.63-.76,2.03-.19,4.67,1.71,5.7,1.69.92,3.76.36,5.6-.18,3.04-.9,6.13-1.73,9.29-1.96,2.68-.19,5.66-.04,7.69-1.8,4.59-3.96.06-8.81-4.33-9.25-5.47-.55-10.78-.02-15.59,2.86Z"/><path class="cls-2" d="m61.96,142.31c-6.46-2.03-6.51-13.3,1.66-11.85,7.52,1.34,4.9,13.91-1.66,11.85Z"/><path class="cls-14" d="m126.83,150.93c-2.72-5.73-6.39-10.38-10.32-14.72-2.72-2.95-5.62-5.67-8.68-8.2,1.8-2.76,3.52-5.59,5.09-8.53,2.67-5.12,5.16-10.41,6.67-16.57-5.73,2.72-10.38,6.39-14.72,10.32-2.55,2.34-4.92,4.83-7.15,7.43-2.9-1.83-5.9-3.51-9.03-5.01-5.31-2.47-10.84-4.61-17.12-5.51,3.25,5.45,7.18,9.78,11.24,13.88,2.37,2.35,4.84,4.55,7.37,6.64-2.17,3.31-4.15,6.77-5.88,10.38-2.47,5.31-4.61,10.84-5.51,17.12,5.45-3.25,9.78-7.18,13.88-11.24,2.74-2.77,5.28-5.66,7.69-8.65,3.18,2.14,6.46,4.16,9.89,5.99,5.12,2.67,10.41,5.16,16.57,6.67Z"/><g class="cls-9"><path class="cls-22" d="m98.03,123.32c-2.9-1.84-5.9-3.51-9.03-5.01-4.86-2.26-9.92-4.25-15.56-5.25-.64-.94-1.27-1.91-1.87-2.92,6.28.91,11.8,3.03,17.12,5.51,3.12,1.49,6.13,3.17,9.03,5,2.23-2.6,4.6-5.08,7.16-7.42,4.35-3.92,8.99-7.59,14.71-10.32-.28,1.12-.58,2.22-.92,3.3-5.16,2.64-9.45,6.06-13.48,9.69-2.54,2.34-4.91,4.83-7.15,7.43Z"/><path class="cls-22" d="m110.26,144.26c-3.43-1.83-6.72-3.85-9.89-5.99-2.41,2.99-4.95,5.88-7.69,8.65-4.11,4.07-8.44,8-13.89,11.24.23-1.54.52-3.04.88-4.49,4.61-3.01,8.42-6.51,12.06-10.11,2.74-2.76,5.28-5.66,7.69-8.65,3.17,2.14,6.46,4.16,9.89,5.99,4.85,2.53,9.85,4.89,15.59,6.41.68,1.16,1.32,2.36,1.92,3.61-6.15-1.51-11.45-4-16.57-6.67Z"/></g><path class="cls-5" d="m100.81,175.61c-13.45.18-26.81-6.04-35.48-16.32-2.7-3.21-4.87-6.8-6.51-10.61,8.96,8.49,20.92,13.82,33.26,14.28,16.48.61,33.09-7.62,42.33-21.28,4.83-7.15,7.52-15.68,7.91-24.29,3.32,14.01,1.58,29.32-6.78,40.58-8.03,10.8-21.28,17.45-34.73,17.64Z"/><path class="cls-47" d="m202.04,52.05s-43.04,12.04-65.3,7.56c.18-.08,2.8-1.19,3.88-4.86,2.55.72,5.15,1.68,7.7,2.03,6.96.93,13.68-3.05,20.7-3.31,5.58-.22,11.31,1.92,16.65.25,3.97-1.24,6.99-4.36,10.44-6.68,1.22-.83,3.29-1.92,5.37-2.49.95,2.17.96,4.36.55,7.5Z"/><path class="cls-47" d="m151.36,230.16c-2.52-.78-4.68-2.93-5.76-5.41-1.48-3.37-1.36-7.21-.9-10.85.13-1.08.3-2.21-.04-3.25-.3-.94-.97-1.7-1.51-2.52-1.68-2.52-2.11-7.8-.52-11.41,3.01,5.96,5.37,12.21,6.89,18.72,1.12,4.82,1.75,9.77,1.82,14.72Z"/><path class="cls-47" d="m104.89,261.62c-1.24-1.03-2.26-2.36-3-3.8-1.52-2.99-1.96-6.41-2.09-9.77-.13-3.4,0-6.93-1.4-10.03-2.4-5.32-8.41-7.74-13.58-10.43-5.18-2.69-10.56-7.34-9.81-13.12.61-4.65,4.74-7.9,6.1-12.3.51-1.67.53-3.66.61-5.64,16.14-1.59,31.86,8.57,37.1,22.93,6.45,17.69-1.12,33.67-13.93,42.16Z"/><path class="cls-47" d="m98.35,175.56c-12.61-.54-24.89-6.62-33.03-16.27-15.05-17.85-13.52-47.35,3.31-63.54,10.73-10.32,30.25-15.37,45.98-11.19-2.54,2.16-6.09,3.44-8.06,6.29-3.2,4.64-1.3,10.42-3.97,15.13-3.54,6.22-13.04,5.23-18.72,9.58-4.21,3.22-5.66,9.57-3.25,14.29,1.89,3.7,5.56,6.06,8.77,8.7s6.26,6.22,6,10.36c-.28,4.67-4.72,8.56-4.22,13.22.49,4.45,5.21,7.21,6.74,11.41.24.66.4,1.34.45,2.02Z"/><path class="cls-47" d="m258.9,96.15c-4.7,1.82-10.01,2.43-15.04,1.69.74-2.33,2.97-4.37,4.56-6.44,1.88-2.47,3.01-5.53,3.17-8.64.11-2.36-.3-4.73-.13-7.09s1.08-4.87,3.13-6.06c2.69-1.56,6.05-.29,9.15-.3,6.07-.01,9.75-4.35,12.69-8.98,2.56,7.38,1.87,15.77-2.14,22.69-3.32,5.73-8.73,10.56-15.38,13.13Z"/><path class="cls-4" d="m324.56,318.32c-68.99,68.99-180.85,68.99-249.84,0-.51-.51-1-1.02-1.5-1.53-.91-.93-1.81-1.87-2.69-2.82-.88-.94-1.75-1.89-2.6-2.84,8.05-2.79,17.23-6.38,26.69-10.87,1.11.78,2.22,1.57,3.34,2.33,1.12.77,2.26,1.53,3.39,2.3,60.43,40.36,130.62,54.88,205.53,7.18,17.44-11.89,35.02-25.29,51.12-40.24-8.32,16.79-19.46,32.53-33.43,46.5Z"/><path class="cls-36" d="m347.07,74.05s0,0,0,0c0,0,0-.01-.01-.02-.46-.57-.93-1.13-1.4-1.69-.46-.56-.93-1.12-1.4-1.67-.48-.56-.97-1.13-1.46-1.69-.23-.27-.46-.54-.7-.81,0,0,0,0-.01,0-2.67-3.03-5.44-6.01-8.34-8.9-74.08-74.08-194.18-74.08-268.25,0C-5.06,129.83-8.4,242.16,55.48,316.69c0,0,0,0,0,0,.03.04.07.08.1.12.02.02.03.03.05.05.89,1.03,1.8,2.06,2.71,3.08.5.55,1,1.1,1.51,1.65.31.34.61.68.92,1.01,0,0,0,0,.01,0,1.55,1.66,3.11,3.3,4.73,4.92,74.08,74.08,194.18,74.08,268.25,0,69.33-69.33,73.77-178.98,13.32-253.47ZM23.17,193.39c0-47.13,18.36-91.45,51.68-124.78,33.33-33.33,77.64-51.68,124.78-51.68,47.13,0,91.45,18.36,124.78,51.68,1.8,1.8,3.55,3.64,5.26,5.5-29.99,11.14-73.7,29.93-95.08,51.32-31.87,31.87-40.49,53.91-48.83,75.21-7.95,20.36-15.49,39.58-42.9,67-21.96,21.96-52.53,35.66-74.74,43.4-29.05-32.39-44.95-73.8-44.95-117.65Zm176.46,176.46c-47.13,0-91.45-18.36-124.78-51.68-.48-.48-.95-.98-1.43-1.46,22.54-8.08,52.26-21.98,74.39-44.11,28.45-28.45,36.6-49.27,44.47-69.4,8.08-20.63,16.42-41.97,47.26-72.81,20.87-20.87,65.64-39.72,95.14-50.58,26.8,31.76,41.42,71.55,41.42,113.59,0,47.13-18.36,91.45-51.68,124.78s-77.64,51.68-124.78,51.68Z"/></g></g></g></svg>