<?xml version="1.0" encoding="utf-8"?>
<!-- Generator: Adobe Illustrator 27.5.0, SVG Export Plug-In . SVG Version: 6.00 Build 0)  -->
<svg version="1.1" id="Layer_2_00000020387379400371328250000013305385084193148325_"
	 xmlns="http://www.w3.org/2000/svg" xmlns:xlink="http://www.w3.org/1999/xlink" x="0px" y="0px" viewBox="0 0 310.3 305.6"
	 style="enable-background:new 0 0 310.3 305.6;" xml:space="preserve">
<style type="text/css">
	.st0{fill:#4F3D21;}
	.st1{fill:#FFB388;}
	.st2{fill:#F8B551;}
	.st3{fill:#FFFFFF;}
</style>
<path class="st0" d="M304.6,149.2v7.3v0.4c-1.5,9.8-7,17.1-12.6,23.5c-1.7,2.1-3.8,4.5-5.6,7c-0.2,0.2-0.4,0.8-0.4,0.9
	c0.6,4.3,1.3,8.6,2.1,12.8l0.4,2.4c3,17.5-5.5,32.3-21.8,38.9c-5.5,2.3-10.3,3.9-15,5.6c-0.6,0.2-0.8,0.4-1.1,1.1
	c-1.1,3-2.3,6-3.4,9c-0.8,2.1-1.5,4.1-2.3,6c-5.1,13.3-17.5,22.2-31.2,22.2c-1.3,0-2.8,0-4.1-0.2l-1.5-0.2
	c-5.3-0.8-10.5-1.3-15.8-2.4c-0.4,0-0.8-0.2-0.9-0.2c-0.8,0-1.3,0.2-2.6,1.1c-1.5,1.1-2.8,2.3-4.1,3.6c-7.1,6-14.7,12.4-25.2,13.9
	h-0.2H152l0,0h-0.2c-10.5-1.5-17.9-7.7-25-13.9c-1.5-1.1-2.8-2.4-4.3-3.6c-1.1-0.9-1.9-1.1-2.4-1.1c-0.4,0-0.8,0-1.1,0.2
	c-5.6,1.1-11.7,1.9-17.1,2.6c-1.3,0.2-2.8,0.2-4.1,0.2c-13.9,0-26.5-8.8-31.4-22.2c-1.9-4.9-3.8-10.3-6-15.4c0-0.2-0.4-0.4-0.6-0.6
	c-2.6-1.1-5.5-2.3-8.3-3.2c-2.4-0.9-4.9-1.9-7.3-2.8c-16.2-6.6-24.4-21.4-21.6-38.7l0.4-2.1c0.8-4.3,1.5-8.8,2.1-13.3
	c0-0.2-0.2-0.8-0.4-1.1c-1.5-1.9-3-3.8-4.5-5.6c-2.3-2.8-4.7-5.6-6.8-8.6c-9.4-13.3-9-28.9,1.1-41.7c3.6-4.5,6.8-8.5,10.1-12.4
	c0.6-0.8,0.6-0.9,0.6-1.9c-1.1-6.4-2.1-12.2-2.6-17.9C20.7,83.2,29.7,68.5,45,62.9c4.9-1.7,10-3.8,14.8-5.8c0.2-0.2,0.6-0.6,0.8-0.8
	c1.1-2.8,2.3-5.6,3.4-8.5c0.9-2.3,1.7-4.5,2.6-6.8c5.3-13.8,17.1-22,31.6-22c2.3,0,4.5,0.2,7,0.6c4.9,0.9,10.1,1.7,15.2,2.4
	c0,0,0.6-0.2,0.8-0.4c2.6-2.1,5.3-4.1,7.7-6.2c1.5-1.3,3-2.4,4.7-3.8c6.4-5.3,13.9-8.1,21.8-8.1c7.7,0,15.2,2.8,22,8.3
	c3.9,3.2,8.1,6.4,12.2,10c0.6,0.4,0.8,0.4,0.9,0.4s0.4,0,0.6,0c6.8-1.1,12.6-2.1,18-2.8c1.3-0.2,2.8-0.2,4.1-0.2
	c13.7,0,26.5,9,31.4,22.2l0.4,0.9c1.7,4.7,3.6,9.6,5.6,14.3c0.2,0.2,0.6,0.8,0.9,0.9c2.8,1.3,6,2.4,8.8,3.6c2.1,0.8,4.1,1.5,6.2,2.3
	c16.2,6.6,24.6,21.2,21.8,38.5c-0.2,1.5-0.4,2.8-0.8,4.3c-0.6,3.6-1.3,7.3-1.7,10.9c0,0.2,0.2,0.9,0.6,1.5c1.5,2.3,3.4,4.3,5.3,6.6
	c5.8,6.6,11.3,14.1,12.8,23.7L304.6,149.2z"/>
<path class="st1" d="M278.8,161.8c-3.6,4.5-7.1,9.2-11.1,13.5c-3.8,4.3-4.9,9-3.8,14.7c1.1,5.8,1.9,11.7,2.8,17.5
	c1.1,7-1.9,12.2-8.5,14.7c-5.8,2.3-11.7,4.7-17.5,6.8c-4.7,1.7-7.9,4.9-9.6,9.6c-2.1,6-4.5,12-6.8,17.9c-2.1,5.5-6.8,8.6-13,8.5
	c-5.6-0.9-12.2-1.7-18.6-3c-5.8-1.1-10.9-0.4-15.4,3.8c-4.1,3.8-8.6,7.1-13.2,10.7c-6.2,5.1-12,5.1-18.2,0c-4.5-3.6-9-7.1-13.5-10.9
	c-4.1-3.6-8.8-4.9-14.3-3.8c-5.8,1.1-11.7,1.9-17.5,2.8c-7.1,1.1-12.2-1.9-14.8-8.6c-2.3-5.8-4.5-11.5-6.6-17.3
	c-1.7-4.7-4.7-7.9-9.6-9.6c-5.6-2.1-11.3-4.1-16.7-6.4c-7.5-2.8-10.3-7.7-9.2-15.6c0.8-5.6,1.7-11.1,2.6-16.7
	c1.1-5.6,0.2-10.7-3.8-15s-7.3-9-11.1-13.5c-4.7-5.8-4.7-11.8,0-17.7c3.9-4.9,7.9-9.8,11.8-14.7c2.8-3.4,4.1-7.1,3.4-11.7
	c-1.1-6.4-2.1-13-3-19.4c-0.9-6.8,1.9-12,8.3-14.5c5.8-2.3,11.7-4.7,17.5-6.8c4.9-1.7,8.1-4.9,9.8-9.8c1.9-5.6,4.1-11.1,6.2-16.5
	c2.8-7.5,7.7-10.3,15.6-9.2c5.6,0.8,11.1,1.5,16.7,2.6c5.6,1.1,10.7,0.2,15.2-3.8c4.3-3.8,8.8-7.3,13.3-10.9c6.2-4.9,12-5.1,18,0
	c4.9,3.9,9.6,7.7,14.5,11.7c3.4,2.8,7.3,4.1,11.7,3.4c6.4-1.1,13-2.1,19.4-3c7-0.9,12,1.9,14.7,8.5c2.3,5.8,4.5,11.7,6.8,17.7
	c1.7,4.7,4.7,7.7,9.4,9.4c5.6,2.1,11.5,4.3,17.1,6.4c7.3,2.8,10.1,7.7,9,15.4c-0.8,5.6-1.7,11.3-2.6,16.9s-0.2,10.5,3.8,14.8
	c3.9,4.3,7.3,9,11.1,13.5C283.7,150,283.7,155.8,278.8,161.8z"/>
<path class="st2" d="M308.3,148.5c-1.7-10.7-7.5-18.6-13.7-25.8c-1.7-1.9-3.4-3.9-4.7-5.8c0.4-3.2,0.9-6.6,1.5-10
	c0.2-1.5,0.6-2.8,0.8-4.3c3-19.2-6.2-35.5-24.2-42.7c-2.1-0.8-4.1-1.5-6.2-2.4c-2.8-1.1-5.5-2.1-8.1-3.2c-1.9-4.3-3.4-8.6-5.1-13.3
	l-0.4-0.9c-5.5-14.7-19.5-24.6-35-24.6c-1.5,0-3,0.2-4.5,0.4c-5.3,0.8-11.1,1.5-17.5,2.6c-3.9-3.4-7.9-6.4-11.7-9.4
	c-7.3-6-15.8-9.2-24.2-9.2c-8.6,0-17.1,3.2-24.6,9.2c-1.5,1.3-3.2,2.6-4.7,3.8c-2.3,1.9-4.5,3.8-6.8,5.5c-4.5-0.6-9.2-1.5-13.9-2.3
	c-2.6-0.4-5.1-0.8-7.5-0.8c-16,0-29.3,9.2-35.5,24.6c-0.9,2.3-1.9,4.7-2.6,6.8c-0.9,2.6-1.9,5.1-3,7.5c-4.5,1.9-9.4,3.8-13.9,5.3
	C26,65.6,15.9,81.9,17.9,99.2c0.8,5.5,1.5,11.3,2.6,17.3c-3.2,3.8-6.4,7.7-9.8,12C-0.6,142.8-1,160.1,9.4,174.7
	c2.4,3.6,4.9,6.4,7.1,9.2c1.5,1.7,2.8,3.4,3.9,4.9c-0.6,3.9-1.1,7.9-1.9,12l-0.4,2.1c-3.2,19.2,5.8,35.5,23.9,42.9
	c2.4,0.9,4.9,1.9,7.3,2.8c2.4,0.9,4.9,1.9,7.1,2.8c1.9,4.9,3.8,9.8,5.5,14.3c5.5,14.7,19.5,24.6,35,24.6c1.5,0,3-0.2,4.5-0.4
	c5.6-0.8,11.5-1.5,17.3-2.6c0,0,0,0,0.2,0c0,0,0.2,0.2,0.4,0.4c1.3,1.1,2.8,2.3,4.1,3.4c7.1,6,15.4,13,27.1,14.7h0.6h7.9h0.6
	c11.7-1.7,19.7-8.6,27.1-14.7c1.5-1.1,2.8-2.3,4.1-3.4c0.2-0.2,0.4-0.2,0.4-0.4h0.2c5.5,1.1,10.9,1.7,16,2.4l1.5,0.2
	c1.5,0.2,3,0.4,4.5,0.4c15.2,0,29.1-10,34.8-24.6c0.8-2.1,1.5-4.1,2.3-6c1.1-2.6,2.1-5.5,3.2-8.5c4.5-1.7,9.2-3.4,14.3-5.5
	c18.2-7.1,27.4-23.7,24.1-43l-0.4-2.3c-0.8-3.9-1.3-7.9-1.9-11.7c1.7-2.3,3.4-4.3,4.9-6c6-7,11.8-14.8,13.5-25.4v-0.6V149
	L308.3,148.5z M301,156.4c-1.3,8.6-6.2,15.2-11.7,21.6c-2.1,2.3-4.1,4.7-5.8,7.3c-0.8,0.9-1.1,2.4-0.9,3.6
	c0.8,5.1,1.5,10.3,2.4,15.4c2.6,15.6-4.7,28.9-19.5,34.8c-4.9,1.9-9.8,3.9-14.8,5.6c-1.9,0.6-2.8,1.7-3.4,3.4
	c-1.9,5.1-3.8,10.1-5.8,15c-4.1,11.1-15,19.7-27.6,19.7c-1.1,0-2.4,0-3.6-0.2c-5.6-0.8-11.5-1.5-17.1-2.6c-0.6-0.2-1.1-0.2-1.7-0.2
	c-1.9,0-3.4,0.8-4.9,2.1c-8.5,6.8-16,14.8-27.6,16.5h-6.8c-11.5-1.7-19.2-9.8-27.4-16.5c-1.7-1.3-3-1.9-4.9-1.9
	c-0.6,0-1.1,0-1.7,0.2c-5.6,1.1-11.3,1.9-16.9,2.6c-1.3,0.2-2.4,0.2-3.6,0.2c-12.4,0-23.5-8.1-28-19.7c-1.9-5.3-3.9-10.5-6-15.6
	c-0.4-1.1-1.5-2.1-2.6-2.6c-5.1-2.1-10.3-3.9-15.6-6c-14.7-5.8-21.8-19.2-19.2-34.6c0.9-5.1,1.7-10.3,2.4-15.4
	c0.2-1.1-0.4-2.8-1.1-3.8c-3.8-4.9-7.7-9.4-11.3-14.3c-9-12.2-8.5-25.9,0.6-37.6c3.4-4.1,6.6-8.3,10-12.4c1.3-1.5,1.7-3,1.3-4.9
	c-0.9-5.8-1.9-11.8-2.6-17.7c-1.9-14.1,6.6-27.1,19.9-32c5.1-1.9,10.1-3.8,15-5.8c1.1-0.4,2.3-1.7,2.8-2.8c2.1-5.1,3.9-10.3,6-15.4
	c5.1-12.8,15.6-19.9,28.6-19.9c2.1,0,4.1,0.2,6.2,0.6c5.1,0.9,10.3,1.9,15.4,2.4c0.2,0,0.2,0,0.4,0c1.1,0,2.3-0.4,3.2-1.1
	c4.1-3.2,8.3-6.8,12.4-10c6.2-5.1,13.2-7.5,19.9-7.5l0,0c6.8,0,13.5,2.4,19.7,7.3c4.1,3.2,8.1,6.6,12.2,9.8c1.1,0.9,2.1,1.3,3.4,1.3
	c0.4,0,0.8,0,1.1-0.2c6-0.9,12-1.9,18-2.6c1.1-0.2,2.4-0.2,3.8-0.2c12.4,0,23.5,8.1,27.8,19.7c1.9,5.1,3.8,10.3,6,15.4
	c0.6,1.1,1.7,2.4,3,3c4.9,2.1,10.1,3.9,15,5.8c14.7,5.8,22,19,19.5,34.4c-0.8,5.1-1.9,10.3-2.4,15.4c-0.2,1.3,0.4,3,1.1,4.1
	c1.7,2.4,3.6,4.7,5.5,7c5.6,6.4,10.5,13.2,11.8,21.8L301,156.4L301,156.4z"/>
<g>
	<path class="st3" d="M116.5,174.1c0,1.2-0.2,2.1-0.5,2.9c-0.3,0.8-0.8,1.4-1.4,1.8c-0.6,0.5-1.2,0.8-2,1c-0.7,0.2-1.5,0.3-2.2,0.3
		c-1.6,0-3-0.3-4.3-0.8s-2.2-1.3-3-2.4l-19.6-29.6v27.2c0,2-0.6,3.4-1.9,4.3c-1.3,0.9-2.7,1.3-4.2,1.3c-0.8,0-1.6-0.1-2.4-0.3
		s-1.5-0.6-2.1-1c-0.6-0.5-1.1-1-1.4-1.7c-0.4-0.7-0.5-1.5-0.5-2.5v-44.2c0-0.6,0.1-1.2,0.4-1.7c0.3-0.6,0.7-1.1,1.2-1.6
		s1.2-0.9,2-1.2s1.7-0.5,2.9-0.5c1,0,1.9,0.1,2.7,0.2c0.8,0.1,1.5,0.4,2.1,0.8s1.2,0.9,1.8,1.5c0.6,0.6,1.2,1.4,1.8,2.4l18,27.7
		v-27.2c0-1.8,0.7-3.2,2-4.1s2.8-1.3,4.5-1.3c0.8,0,1.5,0.1,2.2,0.3c0.7,0.2,1.4,0.5,2,1c0.6,0.4,1,1,1.4,1.7
		c0.3,0.7,0.5,1.5,0.5,2.4V174.1z"/>
	<path class="st3" d="M140,171.1h19.3c1.8,0,3.2,0.5,4.2,1.4s1.5,2,1.5,3.3c0,0.5-0.1,1-0.3,1.5s-0.6,1-1,1.4
		c-0.5,0.4-1.1,0.8-1.8,1.1s-1.6,0.4-2.6,0.4h-26.4c-1.7,0-3-0.4-3.9-1.3c-0.9-0.9-1.4-2.1-1.4-3.7v-45.3c0-1.4,0.5-2.5,1.6-3.3
		c1-0.8,2.3-1.3,3.9-1.3h26.5c1.8,0,3.2,0.4,4.2,1.3c0.9,0.9,1.4,2,1.4,3.2c0,1-0.4,2-1.3,2.9c-0.9,0.9-2.3,1.4-4.3,1.4H140v14h17
		c1.8,0,3.2,0.4,4.1,1.3c0.9,0.9,1.3,1.9,1.3,3.2c0,1-0.4,2-1.2,2.9s-2.2,1.4-4.2,1.4h-17V171.1z"/>
	<path class="st3" d="M230.1,175.5c-0.5,1.4-1.3,2.6-2.5,3.6s-3.1,1.5-5.6,1.5c-2.4,0-4.2-0.5-5.4-1.4s-2.1-2.1-2.5-3.5l-8.4-27.1
		l-8.3,27.1c-0.4,1.4-1.3,2.6-2.5,3.5s-3.1,1.4-5.5,1.4c-1.3,0-2.4-0.1-3.3-0.4c-0.9-0.3-1.7-0.6-2.3-1.1s-1.1-1-1.5-1.6
		s-0.7-1.3-0.9-2l-12.6-43.2c-0.2-0.6-0.3-1.3-0.2-2c0-0.7,0.2-1.4,0.5-2c0.3-0.6,0.8-1.2,1.4-1.7c0.6-0.5,1.4-0.8,2.4-1
		c1.8-0.4,3.4-0.3,4.7,0.1c1.4,0.5,2.3,1.5,2.9,3.2l9,36l10.4-36.3c0.2-0.7,0.8-1.4,1.8-2.1s2.5-1.1,4.5-1.1c1.8,0,3.1,0.4,4.1,1.2
		c0.9,0.8,1.5,1.5,1.7,2.2l10.2,36.2l8.8-36c0.5-1.7,1.5-2.9,3-3.4s3.2-0.5,5.1,0c1,0.2,1.7,0.6,2.3,1.1s1,1.1,1.3,1.7
		c0.3,0.6,0.4,1.2,0.4,1.9s-0.1,1.3-0.3,1.9L230.1,175.5z"/>
</g>
</svg>
