<?xml version="1.0" encoding="UTF-8"?><svg id="Layer_2" xmlns="http://www.w3.org/2000/svg" viewBox="0 0 310.32 305.58"><defs><style>.cls-1{fill:#fff;opacity:.1;}.cls-2{fill:#69503d;}.cls-3{fill:#6b6863;}.cls-4{fill:#a39e96;}.cls-5{fill:gray;}.cls-6{fill:#3b3936;}.cls-7{fill:#7a7670;}.cls-8{opacity:.2;}</style></defs><g id="Objects"><path class="cls-6" d="m103.46,37.85L69.73,4.94c-6.88-6.71-17.89-6.57-24.6.3L4.94,46.44c-6.71,6.88-6.57,17.89.3,24.6l33.72,32.9c6.88,6.71,17.89,6.57,24.6-.3l40.19-41.19c6.71-6.88,6.57-17.89-.3-24.6Zm-41.89,55.11c-5.25,5.38-13.88,5.49-19.26.24l-26.4-25.76c-5.38-5.25-5.49-13.88-.24-19.26L47.13,15.93c5.25-5.38,13.88-5.49,19.26-.24l26.4,25.76c5.38,5.25,5.49,13.88.24,19.26l-31.46,32.25Z"/><rect class="cls-2" x="2.24" y="22.65" width="52.28" height="12.93" transform="translate(-12.27 29.1) rotate(-45.71)"/><path class="cls-6" d="m246.74,201.94l-40.19,41.19c-6.71,6.88-6.57,17.89.3,24.6l33.72,32.9c6.88,6.71,17.89,6.57,24.6-.3l40.19-41.19c6.71-6.88,6.57-17.89-.3-24.6l-33.73-32.9c-6.88-6.71-17.89-6.57-24.6.3Zm2,10.68c5.25-5.38,13.88-5.49,19.26-.24l26.4,25.76c5.38,5.25,5.49,13.88.24,19.26l-31.46,32.25c-5.25,5.38-13.88,5.49-19.26.24l-26.4-25.76c-5.38-5.25-5.49-13.88-.24-19.26l31.46-32.25Z"/><rect class="cls-2" x="255.79" y="270" width="52.28" height="12.93" transform="translate(-112.84 285.19) rotate(-45.71)"/><circle class="cls-4" cx="155.16" cy="152.79" r="147.65" transform="translate(-27.52 34.27) rotate(-11.58)"/><circle class="cls-7" cx="155.16" cy="152.79" r="141.17" transform="translate(-1.23 1.26) rotate(-.46)"/><path class="cls-3" d="m225.09,221.02c-37.68,38.62-99.54,39.39-138.16,1.71-38.62-37.68-39.39-99.54-1.71-138.16,37.68-38.62,99.54-39.39,138.16-1.71,38.62,37.68,39.39,99.54,1.71,138.16Z"/><path class="cls-5" d="m236.29,231.94c-43.71,44.81-115.47,45.69-160.28,1.98-44.81-43.71-45.69-115.47-1.98-160.28,43.71-44.81,115.47-45.69,160.28-1.98,44.81,43.71,45.69,115.47,1.98,160.28Z"/><path class="cls-1" d="m223.6,82.27c-17.07-16.66-38.63-25.88-60.68-27.72-2.11,1.82-4.16,3.74-6.14,5.78-38.09,39.04-37.32,101.57,1.73,139.66,17.07,16.66,38.63,25.88,60.68,27.72,2.11-1.82,4.16-3.74,6.14-5.77,38.09-39.04,37.32-101.57-1.72-139.66Z"/><path class="cls-8" d="m236.29,231.94c43.71-44.81,42.83-116.57-1.98-160.28-44.81-43.71-116.57-42.83-160.28,1.98-43.71,44.81-42.83,116.57,1.98,160.28,44.81,43.71,116.57,42.83,160.28-1.98Zm-155.62-2.8c-42.17-41.14-43-108.67-1.86-150.84,41.14-42.17,108.67-43,150.84-1.86,42.17,41.14,43,108.67,1.86,150.84-41.14,42.17-108.67,43-150.84,1.86Z"/><circle class="cls-6" cx="155.16" cy="152.79" r="20.47"/></g></svg>