<?xml version="1.0" encoding="UTF-8"?><svg id="Layer_2" xmlns="http://www.w3.org/2000/svg" viewBox="0 0 119.05 119.05"><defs><style>.cls-1{fill:#ff372f;}.cls-2{fill:#fefefe;}.cls-3{fill:#ffc61b;}.cls-4{fill:#fda139;}.cls-5{fill:#678c31;}.cls-6{fill:#9ebd48;}.cls-7{fill:#84ad31;}.cls-8{fill:#cf3135;}.cls-9{fill:#a92426;}.cls-10{fill:#b2d06d;}.cls-11{fill:#d7e7b3;}.cls-12{fill:#d6e0c1;}.cls-13{fill:#494949;}.cls-14{fill:#547231;}.cls-15{fill:#779831;}</style></defs><g id="OBJECTS"><circle class="cls-13" cx="59.52" cy="59.52" r="59.52"/><path class="cls-15" d="m38.47,88.98c2.21.03,4.29,2.63,6.22,1.54,1.21-.69,1.46-2.53,2.75-3.07,2.15-.91,3.99,2.73,6.3,2.34,1.11-.19,1.82-1.24,2.4-2.2,2.12-3.53,3.12-7.22,5.24-10.75-.85,2.36,1.08,3.98.93,7.64-.1,2.51-.16,5.34-2.1,6.93-.75.62-1.7,1-2.39,1.68-1.61,1.58-1.42,4.17-1.38,6.43s-.56,5.02-2.72,5.68c-3.14.97-5.65-3.44-8.93-3.39-2.55.04-4.27,2.7-6.71,3.44-2.42.73-4.95-.56-7.15-1.81-3.32-1.89-9.78-7.34-2.28-8.39,2.58-.36,3.77-.64,5.51-2.71,1.16-1.38,2.27-3.38,4.33-3.35Z"/><path class="cls-14" d="m7.31,60.36c.63,2.33,2.14,4.36,2.73,6.71.69,2.71.1,5.57.28,8.36.25,3.93,2.11,7.74,5.05,10.37,1.26,1.12,2.92,2.08,4.56,1.69.81-.19,1.52-.69,2.33-.87,2.26-.51,4.3,1.56,5.25,3.67s1.43,4.54,3.06,6.19c1.16,1.17,3.29,1.7,4.37.45.58-.67.73-1.72,1.5-2.16,1.93-1.11,3.94,3.06,5.91,2.01,1.47-.79.51-3.26,1.54-4.56.74-.92,2.19-.86,3.26-.36,1.07.5,1.97,1.33,3.07,1.76,6.15,2.38,5.32-6.46,8.6-8.98.89-.68,1.95-1.2,2.6-2.11.98-1.35.82-3.17.87-4.83.11-3.46,1.36-6.87,3.51-9.58-2.33,1.33-4.68,2.68-7.25,3.45-2.57.77-5.42.93-7.89-.1-4.41-1.84-6.79-6.97-11.21-8.77-2.39-.98-5.23-.9-7.32-2.43-1.96-1.44-2.8-3.99-4.63-5.59-1.69-1.49-4-1.99-6.21-2.44-2.06-.42-4.16-.85-6.25-.64-4.2.41-8.99,4.2-7.75,8.79Z"/><path class="cls-15" d="m50.88,69.21c-4.04-1.4-7.74-3.81-11.94-4.63-2.54-.5-5.3-.43-7.51-1.78-2.56-1.56-3.87-4.75-6.56-6.09-2.04-1.02-4.51-.78-6.58-1.72-1.43-.65-2.56-1.81-3.73-2.87-1.17-1.06-2.49-2.07-4.05-2.3-1.56-.23-3.38.59-3.74,2.12-.45,1.86,1.28,3.47,1.97,5.26,1.52,3.95-2.18,8.59-.45,12.46,1.09,2.43,4.02,3.66,5.05,6.12.56,1.34.47,2.86.89,4.25.42,1.39,1.77,2.74,3.15,2.32,1.95-.6,1.67-3.7,3.28-4.95,1.28-.99,3.12-.4,4.57.29,1.46.69,3.15,1.47,4.6.76,1.11-.55,1.7-1.82,2.76-2.45,2-1.18,4.45.38,6.24,1.85,1.79,1.47,4.28,2.99,6.25,1.75,1.24-.78,1.7-2.4,2.83-3.33,1.76-1.44,4.33-.75,6.6-.79,2.75-.05,5.37-1.32,7.52-3.05,2.06-1.65,4.06-3.8,5.49-6-3.06-.2-4.55,1.85-7.06,2.97-2.97,1.32-6.62.85-9.6-.18Z"/><path class="cls-6" d="m61.87,89.36c-1.39,2.47-3.51,4.58-4.24,7.32-.47,1.79-.3,3.68-.6,5.51-.3,1.83-1.28,3.76-3.05,4.28-2.77.81-5.14-2.17-7.94-2.85-2.67-.65-5.33.85-7.9,1.84-2.57.99-6.02,1.25-7.56-1.04-.23-.34-.41-.75-.35-1.16.14-1.06,1.63-1.34,2.61-.89.97.44,1.72,1.31,2.74,1.65,3.47,1.19,6.28-4.2,9.93-3.79,1.48.17,2.68,1.28,4.09,1.75,1.42.46,3.5-.34,3.24-1.81-.41-2.33-5.12-.96-5.79-3.23.84-1.02,2.48-.32,3.55.47s2.65,1.56,3.57.6c.6-.63.47-1.62.55-2.49.18-1.82,1.45-3.34,2.81-4.57,1.35-1.23,2.87-2.35,3.82-3.91.94-1.55.96-4.08.62-5.55,1.64,1.74.95,6.03-.09,7.88Z"/><path class="cls-6" d="m47.06,80.34c-1.35.99-2.77,2.11-4.44,2.14-3.47.07-5.95-4.52-9.36-3.91-2.52.45-4.48,3.7-6.88,2.82-1.7-.63-2.57-3.17-4.37-2.95-2.12.27-1.86,3.76-3.63,4.95-1.51,1.01-3.65-.33-4.26-2.04-.61-1.71-.25-3.59-.2-5.41.09-3.48-1.07-6.98-3.22-9.72,2.06.42,3.78,2.17,4.16,4.23.31,1.64-.17,3.35.14,4.99.31,1.64,2.08,3.24,3.53,2.41.99-.57,1.21-1.92,2.05-2.68,1.28-1.17,3.34-.53,4.82.38,1.47.91,3.03,2.09,4.74,1.82,2.31-.36,3.68-3.21,6.01-3.38,3.13-.22,5.43,4.56,8.37,3.46,1.32-.49,1.94-1.98,3.01-2.9,2.24-1.65,4.41-1.06,6.91-.7,2.84.41,4.84-.74,7.61-1.44-5.11,3.22-10.06,4.31-14.98,7.92Z"/><path class="cls-15" d="m32.82,86.88c1.36-.44,2.63-1.47,4.04-1.26,1.19.18,2.07,1.19,3.19,1.62,2.12.8,4.41-.67,6.01-2.27,1.6-1.61,3.16-3.54,5.39-3.97,1.08-.21,2.2-.02,3.29.12,1.09.14,2.23.24,3.27-.13,1.04-.37,1.95-1.32,1.92-2.42.14,2.03-1.27,4.07-3.22,4.64-1.62.48-3.45.03-5,.7-2.14.91-2.95,3.49-4.6,5.13-1.81,1.79-4.76,2.31-7.08,1.25-1.4-.64-2.77-1.83-4.25-1.45-1.15.29-1.9,1.45-3.03,1.84-1.22.42-2.6-.19-3.46-1.15-.49-.55-1.9-2.42-.72-2.97.38-.18,1.41.43,1.84.51.8.14,1.64.09,2.41-.16Z"/><path class="cls-14" d="m24.65,59.77c1.48,1.29,2.08,3.41,3.64,4.62,2.9,2.27,7.32.25,10.74,1.62,1.6.64,2.81,1.96,4.14,3.05,1.34,1.09,3.04,2.01,4.72,1.62-1.21,1.73-3.9,1.43-5.77.45-1.87-.98-3.61-2.46-5.72-2.57-1.71-.09-3.3.76-4.94,1.24-1.64.49-3.68.5-4.74-.84-.8-1.01-.83-2.57-1.87-3.35-1.92-1.43-5.11,1.27-6.9-.33-1-.89-.51-2.01-.92-3.05-.55-1.39-1.98-2.23-3.15-3.05-1.29-.9-2.61-2.15-2.57-3.72.01-.54.26-1.14.77-1.31.78-.25,1.43.58,1.93,1.22,2.9,3.76,7.37,1.54,10.64,4.39Z"/><path class="cls-15" d="m34.14,30.4c-.72,2.09-3.84,3.25-3.41,5.42.27,1.37,1.94,2.18,2.05,3.57.19,2.33-3.85,2.93-4.2,5.25-.17,1.11.61,2.12,1.34,2.97,2.68,3.12,5.88,5.23,8.56,8.35-1.98-1.55-4.12-.22-7.54-1.51-2.35-.89-5.02-1.83-5.92-4.17-.35-.91-.42-1.92-.85-2.8-1-2.03-3.51-2.66-5.67-3.33-2.16-.67-4.59-2.11-4.54-4.37.06-3.28,5.04-4.28,6.03-7.42.77-2.43-1.22-4.91-1.15-7.45.07-2.53,2.09-4.52,3.96-6.22,2.84-2.56,10.04-6.99,8.68.47-.46,2.56-.57,3.78.84,6.08.94,1.54,2.49,3.21,1.82,5.16Z"/><path class="cls-14" d="m71.1,9.81c-2.41-.13-4.81.66-7.23.49-2.79-.2-5.32-1.65-8.03-2.35-3.81-.99-8.01-.43-11.43,1.54-1.46.84-2.89,2.12-3.04,3.8-.07.83.18,1.66.1,2.49-.23,2.31-2.83,3.59-5.14,3.84s-4.76-.07-6.83.96c-1.47.73-2.64,2.6-1.8,4.01.46.76,1.41,1.23,1.58,2.1.44,2.18-4.14,2.78-3.76,4.98.29,1.64,2.93,1.5,3.84,2.89.65.99.13,2.35-.68,3.21s-1.88,1.45-2.63,2.36c-4.19,5.09,4.46,7.08,5.82,10.98.37,1.06.53,2.22,1.18,3.13.97,1.35,2.75,1.77,4.31,2.35,3.25,1.19,6.09,3.45,7.99,6.34-.54-2.63-1.07-5.29-1-7.97.07-2.68.82-5.43,2.58-7.46,3.13-3.61,8.75-4.26,11.85-7.89,1.68-1.97,2.5-4.69,4.6-6.18,1.98-1.41,4.66-1.41,6.76-2.64,1.94-1.14,3.15-3.18,4.27-5.13,1.05-1.82,2.11-3.68,2.57-5.73.93-4.12-1.17-9.86-5.91-10.12Z"/><path class="cls-15" d="m49.01,48.39c2.6-3.39,6.05-6.15,8.14-9.88,1.27-2.26,2.07-4.9,4.05-6.58,2.29-1.94,5.72-2.19,7.84-4.31,1.6-1.61,2.16-4.04,3.7-5.71,1.07-1.16,2.52-1.86,3.89-2.64s2.75-1.71,3.46-3.12c.71-1.41.5-3.39-.84-4.22-1.63-1.01-3.7.13-5.61.22-4.23.2-7.47-4.77-11.69-4.34-2.65.27-4.74,2.67-7.4,2.87-1.45.11-2.87-.46-4.32-.49-1.45-.03-3.16.82-3.19,2.27-.04,2.04,2.99,2.75,3.67,4.67.54,1.52-.6,3.09-1.71,4.25-1.11,1.17-2.38,2.53-2.16,4.13.17,1.22,1.19,2.18,1.46,3.39.49,2.27-1.76,4.1-3.72,5.34-1.96,1.24-4.18,3.13-3.62,5.38.35,1.42,1.75,2.37,2.27,3.74.81,2.12-.65,4.35-1.32,6.52-.81,2.63-.43,5.52.54,8.09.93,2.47,2.33,5.04,3.97,7.1,1.15-2.85-.33-4.9-.6-7.63-.32-3.24,1.27-6.55,3.19-9.05Z"/><path class="cls-6" d="m26.44,52.51c-1.91-2.09-3.25-4.77-5.62-6.32-1.55-1.01-3.4-1.44-5.04-2.3-1.64-.85-3.17-2.39-3.1-4.24.1-2.88,3.67-4.2,5.2-6.64,1.46-2.33.87-5.33.73-8.08-.14-2.75.7-6.11,3.36-6.85.4-.11.84-.15,1.21.03.96.47.75,1.97.03,2.75-.73.78-1.78,1.23-2.43,2.08-2.22,2.93,2.02,7.28.48,10.62-.63,1.35-2.06,2.14-2.94,3.34s-.77,3.43.7,3.64c2.34.35,2.52-4.56,4.89-4.48.71,1.12-.48,2.46-1.56,3.23-1.08.77-2.32,2.03-1.69,3.2.41.77,1.4.95,2.19,1.31,1.67.74,2.71,2.43,3.46,4.1.75,1.67,1.33,3.46,2.52,4.85,1.18,1.38,3.57,2.19,5.08,2.33-2.16,1.01-6.03-1-7.45-2.56Z"/><path class="cls-6" d="m39.64,41.28c-.52-1.59-1.13-3.29-.64-4.89,1.03-3.31,6.16-4.23,6.65-7.66.36-2.54-2.11-5.41-.51-7.42,1.13-1.42,3.82-1.44,4.17-3.22.41-2.09-2.98-2.94-3.56-4.99-.49-1.75,1.46-3.36,3.28-3.41,1.82-.04,3.49.89,5.2,1.51,3.28,1.17,6.96,1.17,10.24,0-1.04,1.82-3.24,2.91-5.32,2.62-1.65-.23-3.13-1.22-4.79-1.43-1.66-.22-3.73.96-3.4,2.6.23,1.11,1.44,1.75,1.9,2.79.71,1.58-.54,3.34-1.87,4.45-1.33,1.11-2.93,2.22-3.22,3.93-.38,2.3,1.9,4.5,1.32,6.77-.78,3.04-6.03,3.72-5.91,6.86.05,1.4,1.27,2.46,1.81,3.76.87,2.65-.38,4.52-1.51,6.78-1.29,2.57-.82,4.82-1.02,7.67-1.45-5.87-.93-10.91-2.82-16.71Z"/><path class="cls-15" d="m37.91,25.7c0,1.43.57,2.96-.07,4.23-.54,1.07-1.78,1.59-2.54,2.52-1.43,1.76-.75,4.4.27,6.42,1.02,2.03,2.37,4.11,2.08,6.37-.14,1.09-.67,2.09-1.14,3.09-.48.99-.93,2.05-.91,3.15.02,1.1.64,2.27,1.7,2.58-1.97-.5-3.46-2.48-3.4-4.52.05-1.69,1.05-3.28.91-4.97-.19-2.32-2.39-3.9-3.43-5.98-1.14-2.28-.7-5.25,1.04-7.11,1.05-1.12,2.6-2.05,2.72-3.58.09-1.18-.78-2.26-.79-3.45-.02-1.29,1-2.41,2.18-2.93.67-.29,2.89-1.04,3.05.25.05.41-.85,1.21-1.06,1.59-.38.72-.6,1.52-.61,2.34Z"/><path class="cls-14" d="m66.21,26.45c-1.69,1-3.89.91-5.52,2-3.06,2.05-2.54,6.87-4.91,9.69-1.11,1.32-2.74,2.05-4.2,2.98-1.45.93-2.86,2.25-3.02,3.97-1.26-1.69-.13-4.15,1.38-5.62s3.47-2.65,4.24-4.62c.62-1.59.32-3.37.37-5.08.05-1.71.69-3.65,2.29-4.24,1.21-.44,2.71.02,3.76-.72,1.97-1.38.4-5.25,2.48-6.45,1.16-.67,2.07.15,3.18.08,1.5-.08,2.74-1.18,3.89-2.03,1.26-.94,2.86-1.8,4.34-1.27.51.18,1,.6,1,1.14,0,.82-1,1.17-1.77,1.45-4.48,1.57-3.78,6.51-7.51,8.73Z"/><path class="cls-15" d="m95.33,46.73c-1.58-1.55-1.3-4.86-3.45-5.4-1.35-.34-2.8.83-4.11.34-2.19-.82-1.02-4.73-2.96-6.03-.93-.63-2.17-.35-3.26-.05-3.97,1.1-7.23,3.09-11.2,4.19,2.24-1.13,1.95-3.63,4.58-6.18,1.8-1.75,3.79-3.76,6.29-3.58.97.07,1.92.44,2.9.43,2.26-.04,3.9-2.04,5.43-3.71,1.53-1.67,3.86-3.25,5.89-2.25,2.94,1.46,1.73,6.39,4.14,8.61,1.87,1.73,4.96.99,7.23,2.13,2.26,1.14,3.2,3.81,3.94,6.23,1.11,3.66,2.05,12.06-4.12,7.66-2.12-1.51-3.18-2.13-5.86-1.83-1.79.2-3.97.89-5.44-.55Z"/><path class="cls-14" d="m98.22,88.94c1.15-2.13,1.46-4.64,2.64-6.74,1.37-2.44,3.76-4.11,5.55-6.26,2.52-3.03,3.8-7.06,3.48-10.99-.14-1.68-.69-3.52-2.14-4.37-.72-.42-1.58-.55-2.29-.97-1.99-1.19-2.04-4.09-1.28-6.28s2.09-4.28,2.04-6.59c-.04-1.65-1.22-3.5-2.86-3.34-.88.09-1.71.75-2.58.54-2.16-.53-.75-4.93-2.9-5.52-1.6-.44-2.61,2.01-4.26,2.24-1.17.16-2.18-.88-2.62-1.98-.43-1.1-.51-2.32-1.02-3.39-2.82-5.96-8.31,1.02-12.42.59-1.12-.12-2.24-.47-3.34-.27-1.64.31-2.78,1.73-3.96,2.9-2.46,2.43-5.72,4.04-9.14,4.53,2.61.64,5.24,1.28,7.64,2.49s4.57,3.06,5.65,5.51c1.94,4.37.12,9.73,2.09,14.08,1.06,2.36,3.18,4.25,3.63,6.8.43,2.39-.71,4.82-.49,7.24.2,2.24,1.53,4.2,2.82,6.05,1.2,1.72,2.43,3.48,4.09,4.77,3.33,2.59,9.42,3.14,11.67-1.04Z"/><path class="cls-15" d="m72.72,52.52c1.96,3.8,2.99,8.09,5.47,11.57,1.5,2.11,3.55,3.96,4.22,6.46.78,2.9-.46,6.11.57,8.93.78,2.14,2.73,3.67,3.59,5.78.59,1.46.61,3.08.73,4.65.12,1.57.38,3.21,1.35,4.46.97,1.24,2.85,1.9,4.17,1.04,1.61-1.04,1.46-3.4,2.19-5.17,1.62-3.91,7.5-4.73,8.9-8.72.88-2.52-.4-5.43.55-7.92.52-1.36,1.63-2.4,2.28-3.7.65-1.3.61-3.21-.69-3.85-1.83-.91-3.76,1.54-5.79,1.33-1.6-.16-2.54-1.85-3.12-3.36-.58-1.5-1.28-3.24-2.82-3.72-1.18-.37-2.48.15-3.69-.13-2.26-.52-2.96-3.34-3.25-5.64-.29-2.3-1.05-5.12-3.32-5.57-1.44-.29-2.89.57-4.35.47-2.26-.17-3.66-2.44-5.33-3.97-2.03-1.86-4.81-2.74-7.55-2.96-2.63-.22-5.55-.04-8.11.57,2.08,2.25,4.57,1.79,7.16,2.7,3.07,1.09,5.39,3.94,6.83,6.74Z"/><path class="cls-6" d="m78.62,30.35c2.71-.84,5.7-.91,8.12-2.39,1.57-.97,2.75-2.46,4.22-3.58,1.47-1.12,3.51-1.85,5.16-1,2.56,1.32,2.24,5.11,3.8,7.53,1.49,2.32,4.45,3.06,7,4.1,2.55,1.05,5.23,3.24,4.77,5.96-.07.41-.22.83-.55,1.08-.83.67-2.1-.16-2.5-1.15-.4-.99-.35-2.13-.85-3.08-1.7-3.26-7.45-1.28-9.81-4.09-.96-1.14-1.06-2.77-1.77-4.08s-2.77-2.16-3.6-.91c-1.31,1.97,3.05,4.22,1.97,6.33-1.31.17-2.02-1.48-2.26-2.79-.24-1.3-.85-2.96-2.17-2.89-.87.04-1.46.86-2.11,1.43-1.38,1.2-3.35,1.42-5.18,1.38-1.83-.04-3.7-.28-5.46.21-1.75.48-3.5,2.3-4.27,3.6,0-2.39,3.47-5.03,5.49-5.65Z"/><path class="cls-6" d="m83.15,47.08c1.66.21,3.46.38,4.69,1.5,2.56,2.34,1.2,7.38,4.1,9.28,2.14,1.41,5.8.4,6.93,2.7.8,1.63-.32,4.07,1.14,5.14,1.72,1.26,3.93-1.45,6.03-1.09,1.79.3,2.42,2.75,1.69,4.41-.74,1.66-2.3,2.78-3.58,4.06-2.46,2.46-4.03,5.8-4.36,9.26-1.2-1.72-1.25-4.17-.1-5.93.91-1.4,2.43-2.31,3.34-3.72.9-1.41.72-3.79-.9-4.18-1.1-.27-2.2.56-3.33.53-1.73-.03-2.79-1.91-3.23-3.59s-.76-3.6-2.18-4.58c-1.92-1.33-4.88-.2-6.68-1.69-2.42-2-.8-7.04-3.69-8.27-1.29-.55-2.77.1-4.17.03-2.76-.34-3.93-2.27-5.49-4.25-1.78-2.26-4.01-2.79-6.51-4.2,5.92,1.19,10.26,3.81,16.31,4.57Z"/><path class="cls-15" d="m97.99,52.14c-1.29-.61-2.92-.74-3.8-1.87-.74-.95-.68-2.29-1.2-3.37-.99-2.04-3.66-2.55-5.93-2.49-2.27.06-4.73.39-6.64-.83-.93-.59-1.61-1.49-2.3-2.35s-1.45-1.71-2.46-2.16c-1.01-.45-2.32-.38-3.06.44,1.3-1.57,3.72-2.07,5.53-1.15,1.51.77,2.52,2.35,4.11,2.94,2.18.81,4.54-.5,6.87-.55,2.55-.05,5.05,1.6,5.99,3.97.57,1.43.75,3.23,2.09,3.98,1.04.58,2.38.26,3.46.75,1.17.53,1.76,1.93,1.72,3.22-.02.73-.29,3.06-1.53,2.65-.4-.13-.73-1.29-.99-1.63-.49-.65-1.12-1.19-1.86-1.54Z"/><path class="cls-14" d="m85.25,77.43c-.19-1.96.83-3.91.54-5.85-.55-3.64-5.14-5.22-6.67-8.57-.72-1.57-.69-3.36-.9-5.07-.22-1.71-.82-3.55-2.3-4.42,2.07-.42,3.81,1.65,4.49,3.64.69,2,.92,4.27,2.38,5.8,1.18,1.24,2.91,1.72,4.44,2.5,1.52.77,3.01,2.18,2.86,3.88-.12,1.29-1.17,2.44-.95,3.71.41,2.36,4.58,2.6,4.78,4.99.11,1.33-1.01,1.81-1.43,2.84-.56,1.39-.1,2.98.18,4.38.31,1.54.41,3.36-.7,4.47-.38.38-.97.65-1.46.42-.74-.35-.64-1.4-.55-2.21.49-4.73-4.28-6.19-4.7-10.51Z"/><path class="cls-15" d="m73.61,95.55c1.64-1.48,4.94-.99,5.61-3.1.42-1.33-.65-2.85-.07-4.12.96-2.13,4.79-.71,6.21-2.56.68-.89.49-2.15.26-3.25-.84-4.03-2.62-7.42-3.45-11.45.98,2.31,3.5,2.18,5.87,4.97,1.63,1.91,3.51,4.03,3.17,6.51-.13.97-.57,1.89-.61,2.86-.11,2.26,1.79,4.03,3.35,5.66,1.56,1.63,2.99,4.06,1.86,6.02-1.64,2.84-6.48,1.31-8.86,3.58-1.85,1.76-1.3,4.88-2.59,7.08-1.28,2.18-4.01,2.95-6.47,3.52-3.72.87-12.16,1.26-7.38-4.61,1.64-2.02,2.33-3.03,2.2-5.73-.08-1.8-.63-4.02.9-5.4Z"/><path class="cls-14" d="m31.3,95.71c2.05,1.28,4.53,1.75,6.56,3.07,2.35,1.52,3.86,4.02,5.89,5.94,2.86,2.71,6.81,4.25,10.75,4.18,1.69-.03,3.55-.46,4.5-1.86.46-.69.65-1.54,1.12-2.22,1.31-1.91,4.21-1.77,6.35-.88,2.14.9,4.13,2.36,6.45,2.46,1.65.07,3.57-.99,3.51-2.64-.03-.89-.64-1.76-.37-2.61.67-2.13,4.97-.44,5.7-2.54.54-1.57-1.84-2.73-1.97-4.39-.09-1.18,1.02-2.12,2.15-2.48,1.13-.36,2.35-.36,3.45-.8,6.13-2.43-.48-8.36.21-12.43.19-1.11.61-2.2.48-3.31-.2-1.65-1.55-2.88-2.64-4.14-2.26-2.62-3.66-5.97-3.93-9.42-.8,2.56-1.62,5.15-2.98,7.46-1.36,2.31-3.34,4.36-5.86,5.29-4.49,1.65-9.71-.5-14.19,1.18-2.42.91-4.45,2.9-7.02,3.19-2.41.28-4.77-1.02-7.2-.96-2.25.06-4.29,1.26-6.22,2.42-1.8,1.09-3.63,2.2-5.02,3.77-2.8,3.16-3.74,9.19.28,11.71Z"/><path class="cls-15" d="m69.29,72.62c-3.92,1.71-8.27,2.46-11.9,4.71-2.2,1.36-4.18,3.29-6.72,3.8-2.94.59-6.07-.85-8.95-.01-2.19.64-3.84,2.49-6,3.21-1.5.5-3.11.41-4.69.43s-3.23.17-4.53,1.06c-1.3.89-2.08,2.72-1.31,4.1.94,1.67,3.3,1.68,5.02,2.52,3.8,1.87,4.24,7.79,8.13,9.45,2.45,1.04,5.44-.05,7.86,1.06,1.32.6,2.29,1.79,3.54,2.52,1.25.73,3.16.81,3.89-.44,1.03-1.77-1.29-3.85-.96-5.87.27-1.59,2.01-2.41,3.55-2.9s3.31-1.07,3.89-2.57c.44-1.15,0-2.49.36-3.67.67-2.22,3.52-2.74,5.84-2.88,2.31-.14,5.17-.72,5.77-2.96.38-1.42-.39-2.92-.18-4.37.31-2.25,2.67-3.49,4.31-5.06,1.98-1.91,3.04-4.62,3.44-7.35.39-2.61.4-5.54-.04-8.13-2.38,1.93-2.08,4.45-3.16,6.97-1.28,2.99-4.28,5.12-7.17,6.38Z"/><path class="cls-6" d="m91.04,79.93c.66,2.76.54,5.75,1.87,8.25.87,1.63,2.28,2.91,3.3,4.45,1.02,1.54,1.62,3.63.66,5.21-1.48,2.47-5.24,1.9-7.76,3.3-2.41,1.34-3.34,4.24-4.55,6.72-1.21,2.47-3.57,5.01-6.25,4.38-.4-.1-.81-.28-1.05-.62-.61-.87.29-2.09,1.31-2.42,1.02-.33,2.15-.21,3.13-.65,3.36-1.49,1.76-7.35,4.72-9.53,1.2-.88,2.83-.88,4.19-1.5,1.35-.62,2.33-2.63,1.15-3.53-1.88-1.44-4.41,2.77-6.45,1.56-.08-1.32,1.61-1.92,2.93-2.07,1.32-.15,3.01-.66,3.03-1.98.01-.87-.76-1.51-1.29-2.2-1.11-1.46-1.2-3.44-1.05-5.26.16-1.82.51-3.67.14-5.46-.37-1.78-2.07-3.64-3.32-4.5,2.38.16,4.79,3.78,5.29,5.85Z"/><path class="cls-6" d="m74.05,83.38c-.32,1.64-.6,3.43-1.8,4.59-2.5,2.4-7.44.72-9.53,3.49-1.54,2.05-.77,5.76-3.14,6.74-1.67.7-4.04-.58-5.21.81-1.37,1.63,1.19,4.02.7,6.09-.42,1.77-2.9,2.24-4.51,1.4-1.61-.84-2.62-2.47-3.82-3.83-2.3-2.61-5.53-4.39-8.96-4.95,1.79-1.09,4.24-.98,5.93.28,1.34,1,2.15,2.58,3.5,3.57,1.34.99,3.73.96,4.23-.63.34-1.09-.41-2.23-.32-3.36.15-1.73,2.09-2.66,3.79-2.99,1.7-.33,3.64-.52,4.71-1.88,1.45-1.83.52-4.86,2.12-6.56,2.15-2.29,7.08-.34,8.49-3.15.63-1.26.08-2.77.24-4.17.52-2.74,2.52-3.77,4.6-5.2,2.37-1.63,3.05-3.83,4.61-6.22-1.57,5.83-4.46,10-5.61,15.99Z"/><path class="cls-15" d="m68.04,97.85c.7-1.25.93-2.87,2.11-3.67.99-.67,2.33-.53,3.44-.98,2.1-.85,2.78-3.49,2.87-5.75.08-2.27-.09-4.75,1.26-6.58.65-.89,1.6-1.51,2.49-2.15.9-.64,1.8-1.34,2.31-2.32.51-.98.53-2.29-.24-3.08,1.48,1.39,1.83,3.85.79,5.6-.86,1.45-2.51,2.37-3.2,3.91-.95,2.12.21,4.57.11,6.89-.11,2.55-1.92,4.93-4.34,5.72-1.46.48-3.27.54-4.11,1.82-.65,1-.41,2.35-.97,3.4-.61,1.14-2.04,1.63-3.32,1.51-.73-.07-3.04-.49-2.55-1.69.16-.39,1.33-.64,1.69-.88.68-.44,1.26-1.04,1.66-1.75Z"/><path class="cls-14" d="m43.63,83.51c1.97-.06,3.84,1.08,5.8.92,3.67-.31,5.54-4.79,8.98-6.11,1.61-.62,3.39-.47,5.11-.58,1.72-.11,3.6-.59,4.56-2.01.29,2.09-1.89,3.7-3.93,4.25-2.04.56-4.32.65-5.94,2-1.31,1.1-1.91,2.8-2.78,4.27-.87,1.47-2.37,2.87-4.05,2.6-1.28-.2-2.36-1.32-3.64-1.19-2.39.25-2.89,4.4-5.29,4.45-1.34.02-1.74-1.13-2.75-1.61-1.35-.65-2.97-.29-4.39-.1-1.56.21-3.38.2-4.42-.98-.36-.4-.58-1.01-.32-1.48.4-.71,1.44-.55,2.25-.41,4.69.79,6.45-3.87,10.79-4.01Z"/><path class="cls-15" d="m64.02,64.35c1.64-1.48,4.94-.99,5.61-3.1.42-1.33-.65-2.85-.07-4.12.96-2.13,4.79-.71,6.21-2.56.68-.89.49-2.15.26-3.25-.84-4.03-2.62-7.42-3.45-11.45.98,2.31,3.5,2.18,5.87,4.97,1.63,1.91,3.51,4.03,3.17,6.51-.13.97-.57,1.89-.61,2.86-.11,2.26,1.79,4.03,3.35,5.66,1.56,1.63,2.99,4.06,1.86,6.02-1.64,2.84-6.48,1.31-8.86,3.58-1.85,1.76-1.3,4.88-2.59,7.08-1.28,2.18-4.01,2.95-6.47,3.52-3.72.87-12.16,1.26-7.38-4.61,1.64-2.02,2.33-3.03,2.2-5.73-.08-1.8-.63-4.02.9-5.4Z"/><path class="cls-14" d="m21.72,64.51c2.05,1.28,4.53,1.75,6.56,3.07,2.35,1.52,3.86,4.02,5.89,5.94,2.86,2.71,6.81,4.25,10.75,4.18,1.69-.03,3.55-.46,4.5-1.86.46-.69.65-1.54,1.12-2.22,1.31-1.91,4.21-1.77,6.35-.88,2.14.9,4.13,2.36,6.45,2.46,1.65.07,3.57-.99,3.51-2.64-.03-.89-.64-1.76-.37-2.61.67-2.13,4.97-.44,5.7-2.54.54-1.57-1.84-2.73-1.97-4.39-.09-1.18,1.02-2.12,2.15-2.48s2.35-.36,3.45-.8c6.13-2.43-.48-8.36.21-12.43.19-1.11.61-2.2.48-3.31-.2-1.65-1.55-2.88-2.64-4.14-2.26-2.62-3.66-5.97-3.93-9.42-.8,2.56-1.62,5.15-2.98,7.46-1.36,2.31-3.34,4.36-5.86,5.29-4.49,1.65-9.71-.5-14.19,1.18-2.42.91-4.45,2.9-7.02,3.19-2.41.28-4.77-1.02-7.2-.96-2.25.06-4.29,1.26-6.22,2.42-1.8,1.09-3.63,2.2-5.02,3.77-2.8,3.16-3.74,9.19.28,11.71Z"/><path class="cls-15" d="m59.7,41.41c-3.92,1.71-8.27,2.46-11.9,4.71-2.2,1.36-4.18,3.29-6.72,3.8-2.94.59-6.07-.85-8.95-.01-2.19.64-3.84,2.49-6,3.21-1.5.5-3.11.41-4.69.43-1.58.02-3.23.17-4.53,1.06-1.3.89-2.08,2.72-1.31,4.1.94,1.67,3.3,1.68,5.02,2.52,3.8,1.87,4.24,7.79,8.13,9.45,2.45,1.04,5.44-.05,7.86,1.06,1.32.6,2.29,1.79,3.54,2.52,1.25.73,3.16.81,3.89-.44,1.03-1.77-1.29-3.85-.96-5.87.27-1.59,2.01-2.41,3.55-2.9,1.54-.48,3.31-1.07,3.89-2.57.44-1.15,0-2.49.36-3.67.67-2.22,3.52-2.74,5.84-2.88,2.31-.14,5.17-.72,5.77-2.96.38-1.42-.39-2.92-.18-4.37.31-2.25,2.67-3.49,4.31-5.06,1.98-1.91,3.04-4.62,3.44-7.35.39-2.61.4-5.54-.04-8.13-2.38,1.93-2.08,4.45-3.16,6.97-1.28,2.99-4.28,5.12-7.17,6.38Z"/><path class="cls-6" d="m81.45,48.72c.66,2.76.54,5.75,1.87,8.25.87,1.63,2.28,2.91,3.3,4.45,1.02,1.54,1.62,3.63.66,5.21-1.48,2.47-5.24,1.9-7.76,3.3-2.41,1.34-3.34,4.25-4.55,6.72-1.21,2.47-3.57,5.01-6.25,4.38-.4-.1-.81-.28-1.05-.62-.61-.87.29-2.09,1.31-2.42s2.15-.21,3.13-.65c3.36-1.49,1.76-7.35,4.72-9.53,1.2-.88,2.83-.88,4.19-1.5,1.35-.62,2.33-2.63,1.15-3.53-1.88-1.44-4.41,2.77-6.45,1.56-.08-1.32,1.61-1.92,2.93-2.07,1.32-.15,3.01-.66,3.03-1.98.01-.87-.76-1.51-1.29-2.2-1.11-1.46-1.2-3.44-1.05-5.26.16-1.82.51-3.67.14-5.46-.37-1.78-2.07-3.64-3.32-4.5,2.38.16,4.79,3.78,5.29,5.85Z"/><path class="cls-6" d="m64.47,52.17c-.32,1.64-.6,3.43-1.8,4.59-2.5,2.4-7.44.72-9.53,3.49-1.54,2.05-.77,5.76-3.14,6.74-1.67.7-4.04-.58-5.21.81-1.37,1.63,1.19,4.02.7,6.09-.42,1.77-2.9,2.24-4.51,1.4-1.61-.84-2.62-2.47-3.82-3.83-2.3-2.61-5.53-4.39-8.96-4.95,1.79-1.09,4.24-.98,5.93.28,1.34,1,2.15,2.58,3.5,3.57,1.34.99,3.73.96,4.23-.63.34-1.09-.41-2.23-.32-3.36.15-1.73,2.09-2.66,3.79-2.99,1.7-.33,3.64-.52,4.71-1.88,1.45-1.83.52-4.86,2.12-6.56,2.15-2.29,7.08-.34,8.49-3.15.63-1.26.08-2.77.24-4.17.52-2.74,2.52-3.77,4.6-5.2,2.37-1.63,3.05-3.83,4.61-6.22-1.57,5.83-4.46,10-5.61,15.99Z"/><path class="cls-15" d="m58.45,66.64c.7-1.25.93-2.87,2.11-3.67.99-.67,2.33-.53,3.44-.98,2.1-.85,2.78-3.49,2.87-5.75.08-2.27-.09-4.75,1.26-6.58.65-.89,1.6-1.51,2.49-2.15.9-.64,1.8-1.34,2.31-2.32.51-.98.53-2.29-.24-3.08,1.48,1.39,1.83,3.85.79,5.6-.86,1.45-2.51,2.37-3.2,3.91-.95,2.12.21,4.57.11,6.89-.11,2.55-1.92,4.93-4.34,5.72-1.46.48-3.27.54-4.11,1.82-.65,1-.41,2.35-.97,3.4-.61,1.14-2.04,1.63-3.32,1.51-.73-.07-3.04-.48-2.55-1.69.16-.39,1.33-.64,1.69-.88.68-.44,1.26-1.04,1.66-1.75Z"/><path class="cls-14" d="m34.04,52.3c1.97-.06,3.84,1.08,5.8.92,3.67-.31,5.54-4.79,8.98-6.11,1.61-.62,3.39-.47,5.11-.58,1.72-.11,3.6-.59,4.56-2.01.29,2.09-1.89,3.7-3.93,4.25-2.04.55-4.32.65-5.94,2-1.31,1.09-1.91,2.8-2.78,4.27-.87,1.47-2.37,2.87-4.05,2.6-1.28-.2-2.36-1.32-3.64-1.19-2.39.25-2.89,4.4-5.29,4.45-1.34.02-1.74-1.13-2.75-1.61-1.35-.65-2.97-.29-4.39-.1-1.56.21-3.38.2-4.42-.98-.36-.4-.58-1.01-.32-1.48.4-.71,1.44-.55,2.25-.41,4.69.79,6.45-3.87,10.79-4.01Z"/><path class="cls-5" d="m36.86,43.91c.02.5,0,1-.02,1.5-.74,11.41-11.21,17.85-22.4,11.71-4.83-2.65-7.55-8.48-7.24-13.98s3.81-10.7,8.78-13.07c2.58-1.23,5.52-1.72,8.34-1.26,2.85.47,5.51,1.91,7.6,3.91,3.01,2.9,4.81,7.01,4.94,11.19Z"/><path class="cls-12" d="m35.45,43.92c.01.45,0,.9-.02,1.35-.67,10.32-10.14,16.15-20.26,10.59-4.37-2.4-6.83-7.67-6.55-12.65.28-4.97,3.45-9.68,7.94-11.82,2.33-1.11,5-1.56,7.55-1.14,2.58.42,4.99,1.73,6.87,3.54,2.73,2.62,4.35,6.34,4.47,10.12Z"/><path class="cls-2" d="m29.7,45.19c0,1.7-5.03.37-4.8-.68.25-1.12,4.8-1.03,4.8.68Zm-2.64,1.77c-.78.73,2.62,4.67,3.58,3.26.96-1.41-2.74-4.04-3.58-3.26Zm-4.74,1.71c-1.07.06-1,5.26.64,4.8,1.64-.46.5-4.86-.64-4.8Zm-4.34-2.33c-.14-1.06-5.32-.58-4.74,1.02.59,1.6,4.89.12,4.74-1.02Zm-.41-4.85c.69-.82-3.15-4.33-3.94-2.82-.79,1.51,3.2,3.69,3.94,2.82Zm4.93-1.51c1.05-.22.16-5.35-1.39-4.64s.26,4.88,1.39,4.64Zm.26,5.26c-.93.54,1.51,5.14,2.76,3.98,1.25-1.16-1.77-4.56-2.76-3.98Zm.22-1.51c.91.57,3.84-3.73,2.24-4.3-1.61-.57-3.21,3.69-2.24,4.3Zm3.21-1.07c.4.99,5.3-.79,4.32-2.19-.98-1.4-4.76,1.13-4.32,2.19Zm.39-3.31c.68.83,4.82-2.33,3.48-3.37-1.35-1.05-4.21,2.49-3.48,3.37Zm-6.22,5.14c.26-1.04-4.75-2.48-4.78-.78-.04,1.7,4.51,1.89,4.78.78Zm1.2-1.73c.87-.62-2-4.97-3.13-3.7-1.13,1.27,2.2,4.37,3.13,3.7Zm-.02,3.38c-.8-.71-4.4,3.05-2.91,3.87,1.49.82,3.77-3.11,2.91-3.87Z"/><path class="cls-5" d="m64.21,20.21c.02.5,0,1-.02,1.5-.74,11.41-11.21,17.85-22.4,11.71-4.83-2.65-7.55-8.48-7.24-13.98s3.81-10.7,8.78-13.07c2.58-1.23,5.52-1.72,8.34-1.26,2.85.47,5.51,1.91,7.6,3.91,3.01,2.9,4.81,7.01,4.94,11.19Z"/><path class="cls-12" d="m62.79,20.23c.01.45,0,.9-.02,1.35-.67,10.32-10.14,16.15-20.26,10.59-4.37-2.4-6.83-7.67-6.55-12.65.28-4.97,3.45-9.68,7.94-11.82,2.33-1.11,5-1.56,7.55-1.14,2.58.42,4.99,1.73,6.87,3.54,2.73,2.62,4.35,6.34,4.47,10.12Z"/><path class="cls-2" d="m57.04,21.5c0,1.7-5.03.37-4.8-.68.25-1.12,4.8-1.03,4.8.68Zm-2.64,1.77c-.78.73,2.62,4.67,3.58,3.26.96-1.41-2.74-4.04-3.58-3.26Zm-4.74,1.71c-1.07.06-1,5.26.64,4.8,1.64-.46.5-4.86-.64-4.8Zm-4.34-2.33c-.14-1.06-5.32-.58-4.74,1.02.59,1.6,4.89.12,4.74-1.02Zm-.41-4.85c.69-.82-3.15-4.33-3.94-2.82-.79,1.51,3.2,3.69,3.94,2.82Zm4.93-1.51c1.05-.22.16-5.35-1.39-4.64-1.55.71.26,4.88,1.39,4.64Zm.26,5.26c-.93.54,1.51,5.14,2.76,3.98s-1.77-4.56-2.76-3.98Zm.22-1.51c.91.57,3.84-3.73,2.24-4.3-1.61-.57-3.21,3.69-2.24,4.3Zm3.21-1.07c.41.99,5.3-.79,4.32-2.19-.98-1.4-4.76,1.13-4.32,2.19Zm.39-3.31c.68.83,4.82-2.33,3.48-3.37-1.35-1.05-4.21,2.49-3.48,3.37Zm-6.22,5.14c.26-1.04-4.75-2.48-4.78-.78-.04,1.7,4.51,1.89,4.78.78Zm1.2-1.73c.87-.62-2-4.97-3.13-3.7-1.13,1.27,2.2,4.37,3.13,3.7Zm-.03,3.38c-.8-.71-4.4,3.05-2.91,3.87,1.49.82,3.77-3.11,2.91-3.87Z"/><path class="cls-5" d="m97.76,27.25c.02.5,0,1-.02,1.5-.74,11.41-11.21,17.85-22.4,11.71-4.83-2.65-7.55-8.48-7.24-13.98.31-5.5,3.81-10.7,8.78-13.07,2.58-1.23,5.52-1.72,8.34-1.26,2.85.47,5.51,1.91,7.6,3.91,3.01,2.9,4.81,7.01,4.94,11.19Z"/><path class="cls-12" d="m96.34,27.26c.01.45,0,.9-.02,1.35-.67,10.32-10.14,16.15-20.26,10.59-4.37-2.4-6.83-7.67-6.55-12.65.28-4.97,3.45-9.68,7.94-11.82,2.33-1.11,5-1.56,7.55-1.14,2.58.42,4.99,1.73,6.87,3.54,2.73,2.62,4.35,6.34,4.47,10.12Z"/><path class="cls-2" d="m90.59,28.53c0,1.7-5.03.37-4.8-.68.25-1.12,4.8-1.03,4.8.68Zm-2.64,1.77c-.78.73,2.62,4.67,3.58,3.26.96-1.41-2.74-4.04-3.58-3.26Zm-4.74,1.71c-1.07.06-1,5.26.64,4.8,1.64-.46.5-4.86-.64-4.8Zm-4.34-2.33c-.14-1.06-5.32-.58-4.74,1.02.59,1.6,4.89.12,4.74-1.02Zm-.41-4.85c.69-.82-3.15-4.33-3.94-2.82-.79,1.51,3.2,3.69,3.94,2.82Zm4.93-1.51c1.05-.22.16-5.35-1.39-4.64s.26,4.88,1.39,4.64Zm.26,5.26c-.93.54,1.51,5.14,2.76,3.98,1.25-1.16-1.77-4.56-2.76-3.98Zm.22-1.51c.91.57,3.84-3.73,2.24-4.3s-3.21,3.69-2.24,4.3Zm3.21-1.07c.4.99,5.3-.79,4.32-2.19-.98-1.4-4.76,1.13-4.32,2.19Zm.39-3.31c.68.83,4.82-2.33,3.48-3.37-1.35-1.05-4.21,2.49-3.48,3.37Zm-6.22,5.14c.26-1.04-4.75-2.48-4.78-.78-.04,1.7,4.51,1.89,4.78.78Zm1.2-1.73c.87-.62-2-4.97-3.13-3.7-1.13,1.27,2.2,4.37,3.13,3.7Zm-.03,3.38c-.8-.71-4.4,3.05-2.91,3.87,1.49.82,3.77-3.11,2.91-3.87Z"/><path class="cls-5" d="m39.79,78.86c.02.5,0,1-.02,1.5-.74,11.41-11.21,17.85-22.4,11.71-4.83-2.65-7.55-8.48-7.24-13.98.31-5.5,3.81-10.7,8.78-13.07,2.58-1.23,5.52-1.72,8.34-1.26,2.85.47,5.51,1.91,7.6,3.91,3.01,2.9,4.81,7.01,4.94,11.19Z"/><path class="cls-12" d="m38.37,78.88c.01.45,0,.9-.02,1.35-.67,10.32-10.14,16.15-20.26,10.59-4.37-2.4-6.83-7.67-6.55-12.65.28-4.97,3.45-9.68,7.94-11.82,2.33-1.11,5-1.56,7.55-1.14,2.58.42,4.99,1.73,6.87,3.54,2.73,2.62,4.35,6.34,4.47,10.12Z"/><path class="cls-2" d="m32.62,80.15c0,1.7-5.03.37-4.8-.68.25-1.12,4.8-1.03,4.8.68Zm-2.64,1.77c-.78.73,2.62,4.67,3.58,3.26s-2.74-4.04-3.58-3.26Zm-4.74,1.71c-1.07.06-1,5.26.64,4.8,1.64-.46.5-4.86-.64-4.8Zm-4.34-2.33c-.14-1.06-5.33-.58-4.74,1.02.59,1.6,4.89.12,4.74-1.02Zm-.41-4.85c.69-.82-3.15-4.33-3.94-2.82-.79,1.51,3.2,3.69,3.94,2.82Zm4.93-1.51c1.05-.22.16-5.35-1.39-4.64-1.55.71.26,4.88,1.39,4.64Zm.26,5.26c-.93.54,1.51,5.14,2.76,3.98s-1.77-4.56-2.76-3.98Zm.22-1.51c.91.57,3.84-3.73,2.24-4.3-1.61-.57-3.21,3.69-2.24,4.3Zm3.21-1.07c.4.99,5.3-.79,4.32-2.19-.98-1.4-4.76,1.13-4.32,2.19Zm.39-3.31c.68.83,4.82-2.33,3.48-3.37-1.35-1.05-4.21,2.49-3.48,3.37Zm-6.22,5.14c.26-1.04-4.75-2.48-4.78-.78-.04,1.7,4.51,1.89,4.78.78Zm1.2-1.73c.87-.62-2-4.97-3.13-3.7-1.13,1.27,2.2,4.37,3.13,3.7Zm-.02,3.38c-.8-.71-4.4,3.05-2.91,3.87,1.49.82,3.77-3.11,2.91-3.87Z"/><path class="cls-5" d="m73.04,98.66c.02.5,0,1-.02,1.5-.74,11.41-11.21,17.85-22.4,11.71-4.83-2.65-7.55-8.48-7.24-13.98s3.81-10.7,8.78-13.07c2.58-1.23,5.52-1.72,8.34-1.26,2.85.47,5.51,1.91,7.6,3.91,3.01,2.9,4.81,7.01,4.94,11.19Z"/><path class="cls-12" d="m71.62,98.68c.01.45,0,.9-.02,1.35-.67,10.32-10.14,16.15-20.26,10.59-4.37-2.4-6.83-7.67-6.55-12.65.28-4.97,3.45-9.68,7.94-11.82,2.33-1.11,5-1.56,7.55-1.14,2.58.42,4.99,1.73,6.87,3.54,2.73,2.62,4.35,6.34,4.47,10.12Z"/><path class="cls-2" d="m65.87,99.95c0,1.7-5.03.37-4.8-.68.25-1.12,4.8-1.03,4.8.68Zm-2.64,1.77c-.78.73,2.62,4.67,3.58,3.26.96-1.41-2.74-4.04-3.58-3.26Zm-4.74,1.71c-1.07.05-1,5.26.64,4.8,1.64-.46.5-4.86-.64-4.8Zm-4.34-2.33c-.14-1.06-5.32-.58-4.74,1.02.59,1.6,4.89.12,4.74-1.02Zm-.41-4.85c.69-.82-3.15-4.33-3.94-2.82-.79,1.51,3.2,3.69,3.94,2.82Zm4.93-1.51c1.05-.22.16-5.35-1.39-4.64-1.55.71.26,4.88,1.39,4.64Zm.26,5.26c-.93.54,1.51,5.14,2.76,3.98s-1.77-4.56-2.76-3.98Zm.22-1.51c.91.57,3.84-3.73,2.24-4.3s-3.21,3.69-2.24,4.3Zm3.21-1.07c.4.99,5.3-.79,4.32-2.19-.98-1.4-4.76,1.13-4.32,2.19Zm.39-3.31c.68.83,4.82-2.33,3.48-3.37-1.35-1.05-4.21,2.49-3.48,3.37Zm-6.22,5.14c.26-1.04-4.75-2.48-4.78-.78-.04,1.7,4.51,1.89,4.78.78Zm1.2-1.73c.87-.62-2-4.97-3.13-3.7s2.2,4.37,3.13,3.7Zm-.02,3.38c-.8-.71-4.4,3.05-2.91,3.87,1.49.82,3.77-3.11,2.91-3.87Z"/><path class="cls-5" d="m104.56,88.12c.02.5,0,1-.02,1.5-.74,11.41-11.21,17.85-22.4,11.71-4.83-2.65-7.55-8.48-7.24-13.98.31-5.5,3.81-10.7,8.78-13.07,2.58-1.23,5.52-1.72,8.34-1.26,2.85.47,5.51,1.91,7.6,3.91,3.01,2.9,4.81,7.01,4.94,11.19Z"/><path class="cls-12" d="m103.14,88.13c.01.45,0,.9-.02,1.35-.67,10.32-10.14,16.15-20.26,10.59-4.37-2.4-6.83-7.67-6.55-12.65s3.45-9.68,7.94-11.82c2.33-1.11,5-1.56,7.55-1.14,2.58.42,4.99,1.73,6.87,3.54,2.73,2.62,4.35,6.34,4.47,10.12Z"/><path class="cls-2" d="m97.39,89.4c0,1.7-5.03.37-4.8-.68.25-1.12,4.8-1.03,4.8.68Zm-2.64,1.77c-.78.73,2.62,4.67,3.58,3.26.96-1.41-2.74-4.04-3.58-3.26Zm-4.74,1.71c-1.07.05-1,5.26.64,4.8s.5-4.86-.64-4.8Zm-4.34-2.33c-.14-1.06-5.32-.58-4.74,1.02.59,1.6,4.89.12,4.74-1.02Zm-.41-4.85c.69-.82-3.15-4.33-3.94-2.82s3.2,3.69,3.94,2.82Zm4.93-1.51c1.05-.22.16-5.35-1.39-4.64-1.55.71.26,4.88,1.39,4.64Zm.26,5.26c-.93.54,1.51,5.14,2.76,3.98,1.25-1.16-1.77-4.56-2.76-3.98Zm.22-1.51c.91.57,3.84-3.73,2.24-4.3s-3.21,3.69-2.24,4.3Zm3.21-1.07c.4.99,5.3-.79,4.32-2.19-.98-1.4-4.76,1.13-4.32,2.19Zm.39-3.31c.68.83,4.82-2.33,3.48-3.37-1.35-1.05-4.21,2.49-3.48,3.37Zm-6.22,5.14c.26-1.04-4.75-2.48-4.78-.78-.04,1.7,4.51,1.89,4.78.78Zm1.2-1.73c.87-.62-2-4.97-3.13-3.7-1.13,1.27,2.2,4.37,3.13,3.7Zm-.02,3.38c-.8-.71-4.4,3.05-2.91,3.87,1.49.82,3.77-3.11,2.91-3.87Z"/><path class="cls-5" d="m116.66,56.49c.02.5,0,1-.02,1.5-.74,11.41-11.21,17.85-22.4,11.71-4.83-2.65-7.55-8.48-7.24-13.98s3.81-10.7,8.78-13.07c2.58-1.23,5.52-1.72,8.34-1.26,2.85.47,5.51,1.91,7.6,3.91,3.01,2.9,4.81,7.01,4.94,11.19Z"/><path class="cls-12" d="m115.24,56.5c.01.45,0,.9-.02,1.35-.67,10.32-10.14,16.15-20.26,10.59-4.37-2.4-6.83-7.67-6.55-12.65.28-4.97,3.45-9.68,7.94-11.82,2.33-1.11,5-1.56,7.55-1.14,2.58.42,4.99,1.73,6.87,3.54,2.73,2.62,4.35,6.34,4.47,10.12Z"/><path class="cls-2" d="m109.49,57.77c0,1.7-5.03.37-4.8-.68.25-1.12,4.8-1.03,4.8.68Zm-2.64,1.77c-.78.73,2.62,4.67,3.58,3.26.96-1.41-2.74-4.04-3.58-3.26Zm-4.74,1.71c-1.07.06-1,5.26.64,4.8,1.64-.46.5-4.86-.64-4.8Zm-4.34-2.33c-.14-1.06-5.32-.58-4.74,1.02.59,1.6,4.89.12,4.74-1.02Zm-.41-4.85c.69-.82-3.15-4.33-3.94-2.82-.79,1.51,3.2,3.69,3.94,2.82Zm4.93-1.51c1.05-.22.16-5.35-1.39-4.64-1.55.71.26,4.88,1.39,4.64Zm.26,5.26c-.93.54,1.51,5.14,2.76,3.98,1.25-1.16-1.77-4.56-2.76-3.98Zm.22-1.51c.91.57,3.84-3.73,2.24-4.3-1.61-.57-3.21,3.69-2.24,4.3Zm3.21-1.07c.4.99,5.3-.79,4.32-2.19-.98-1.4-4.76,1.13-4.32,2.19Zm.39-3.31c.68.83,4.82-2.33,3.48-3.37-1.35-1.05-4.21,2.49-3.48,3.37Zm-6.22,5.14c.26-1.04-4.75-2.48-4.78-.78-.04,1.7,4.51,1.89,4.78.78Zm1.2-1.73c.87-.62-2-4.97-3.13-3.7s2.2,4.37,3.13,3.7Zm-.02,3.38c-.8-.71-4.4,3.05-2.91,3.87,1.49.82,3.77-3.11,2.91-3.87Z"/><path class="cls-6" d="m59.16,97.12c-4.85-1.52-5.83-7.1-8.75-10.67-2.15-2.63-5.07-4.78-8.42-5.32,2.2.12,4.44.24,6.58-.28,2.27-.56,4.28-1.82,6.13-3.22,1.66-1.26,3.34-2.23,5.13-3.31,1.66-1,3.54-1.78,5.47-1.62.38.03.84.2.85.57,0,.27-.23.47-.44.63-1.04.78-2.1,1.54-3.13,2.34-.77.6-1.89,1.07-2.54,1.76-.43.45-.6,1.2-.23,1.7.43.57,1.28.52,1.97.35,3.52-.9,6.67-3.73,10.26-3.24.37.05.79.18.92.53.32.86-1.38,1.66-1.92,1.99-.58.36-4.79,2.18-3.06,2.34,1.29.12,5.14-.77,6.32-1.25,2.05-.83,4.26-1.27,6.47-1.3.52,0,1.24.04,1.33.69.29,2.06-5.45,1.49-5.64,3.52-.05.58.47,1.08,1.04,1.22.57.13,1.16-.01,1.72-.15,1.81-.46,3.62-.91,5.43-1.37.9-.23,2.29-.21,1.85,1.01-.3.81-2.36,1.32-1.69,2.3.64.93,2.74,1.1,3.73,1.3.82.17,4.58,1.09,4,2.41-.35.78-3.06.53-3.75.51-1.05-.03-2.08-.14-3.12-.24-.24-.02-.72-.18-.95-.11-1.56.46.84,1.35,1.17,1.79.71.94.41,1.69-.82,1.76-1.89.11-4.24-1.94-5.93-2.68-.63-.27-1.51-1.16-2.26-.94-1.12.33-.68,1.53-.07,2.2.54.61,1.28,1.05,1.69,1.76.41.71.25,1.85-.54,2.03-.52.12-1.03-.23-1.46-.56-1.05-.81-2.09-1.63-3.14-2.44-.74-.58-3.21-3.05-4.21-3.19-1.43-.19,1.77,3.33,1.97,3.73.35.71,1.01,1.98.18,2.61-1.44,1.09-5.51-3.27-6.6-4.12-1.02-.8-2.36-1.9-3.67-2.13-1.94-.35-2.76,1.33-2.02,2.97.35.77.92,1.43,1.32,2.18.66,1.22.33,2.42-1.18,1.95Z"/><path class="cls-10" d="m39.3,80.75c3.27-1.37,42.92,6.16,43.21,7.07.29.91-45.3-6.19-43.21-7.07Z"/><path class="cls-2" d="m79.41,89.5c-.14.02-.28.01-.43-.01-.4-.07-.74-.32-1.06-.56-1.64-1.27-3.12-2.76-4.38-4.41-.85-1.11-1.62-2.56-1.09-3.85.24-.58.7-1.02,1.16-1.45,1.75-1.65,4.86-4.92,6.85-4.93,1.94,0,4.71,3.3,6.02,5.19.68.97,1.34,2.12,1.07,3.27-.18.79-.77,1.42-1.36,1.98-1.66,1.59-3.5,3.01-5.46,4.22-.41.25-.87.51-1.34.56Z"/><path class="cls-7" d="m81.82,80.06c-3.78,3.4-9.08,1.4-13.64,2.1-3.36.51-6.7,1.93-8.87,4.54,1.23-1.83,2.47-3.7,3.11-5.81.67-2.24.61-4.61.35-6.91-.24-2.07-.22-4.01-.23-6.1-.02-1.93.27-3.96,1.39-5.53.22-.31.6-.62.93-.44.24.13.29.44.32.7.14,1.3.26,2.6.42,3.89.12.97-.04,2.17.22,3.09.17.6.73,1.13,1.34,1.06.7-.08,1.1-.84,1.3-1.52,1.02-3.49.18-7.64,2.44-10.48.23-.29.56-.58.93-.52.91.16.73,2.03.73,2.66,0,.68-.57,5.23.45,3.83.76-1.05,1.95-4.82,2.14-6.07.33-2.19,1.07-4.31,2.18-6.23.26-.45.66-1.05,1.27-.79,1.92.8-1.49,5.45.16,6.64.47.34,1.17.14,1.58-.28s.58-1,.74-1.56c.53-1.79,1.06-3.58,1.58-5.37.26-.89.98-2.08,1.81-1.08.55.67-.07,2.7,1.12,2.63,1.13-.07,2.34-1.8,3.02-2.55.56-.62,3.28-3.39,4.11-2.21.5.7-1.1,2.9-1.47,3.48-.56.89-1.18,1.72-1.8,2.56-.14.19-.52.52-.58.76-.39,1.58,1.59-.03,2.14-.1,1.17-.14,1.66.51,1.1,1.6-.87,1.68-3.83,2.66-5.32,3.74-.55.4-1.77.71-1.96,1.47-.29,1.13.97,1.36,1.86,1.19.8-.16,1.56-.57,2.37-.56.82,0,1.72.72,1.47,1.5-.16.51-.72.77-1.22.97-1.23.49-2.47.97-3.7,1.46-.87.34-4.26,1.2-4.89,2-.89,1.13,3.77.17,4.22.2.79.06,2.22.14,2.34,1.18.21,1.79-5.61,3.08-6.91,3.58-1.21.47-2.83,1.06-3.7,2.07-1.29,1.49-.26,3.05,1.53,3.24.85.09,1.7-.06,2.55-.03,1.39.05,2.25.95,1.08,2Z"/><path class="cls-10" d="m57.61,88.82c.49-3.51,27.15-33.8,28.08-33.59.93.21-28.4,35.84-28.08,33.59Z"/><path class="cls-2" d="m79.57,30.22c-.08.12-.17.22-.29.32-.31.26-.72.36-1.11.44-2.03.43-4.12.59-6.19.48-1.4-.08-3-.42-3.64-1.66-.29-.55-.32-1.2-.35-1.82-.12-2.4-.6-6.89.68-8.41,1.25-1.48,5.56-1.45,7.85-1.23,1.18.11,2.48.35,3.19,1.31.48.65.58,1.51.63,2.32.14,2.3.03,4.61-.32,6.89-.07.48-.18.99-.44,1.38Z"/><path class="cls-7" d="m77.25,22.64c4.54,2.3,4.58,7.96,6.87,11.97,1.69,2.95,4.22,5.55,7.44,6.63-2.15-.48-4.34-.97-6.54-.8-2.33.18-4.52,1.09-6.57,2.17-1.85.97-3.66,1.65-5.61,2.42-1.8.71-3.79,1.18-5.66.7-.37-.09-.8-.33-.75-.71.03-.27.3-.43.54-.55,1.16-.6,2.33-1.18,3.47-1.8.86-.47,2.04-.75,2.8-1.32.49-.38.79-1.09.51-1.64-.33-.63-1.18-.72-1.89-.66-3.62.31-7.19,2.58-10.66,1.5-.35-.11-.75-.31-.82-.68-.18-.91,1.63-1.41,2.22-1.64.63-.25,5.08-1.36,3.41-1.8-1.25-.33-5.2-.08-6.44.19-2.16.48-4.41.56-6.6.22-.51-.08-1.22-.24-1.2-.9.05-2.08,5.62-.57,6.14-2.54.15-.56-.29-1.15-.83-1.37s-1.14-.18-1.72-.13c-1.86.15-3.72.31-5.58.46-.92.08-2.3-.17-1.66-1.3.43-.75,2.54-.91,2.05-1.99-.47-1.03-2.52-1.53-3.47-1.9-.78-.3-4.34-1.83-3.55-3.04.47-.72,3.1-.02,3.78.11,1.03.2,2.03.48,3.04.75.23.06.68.3.92.27,1.61-.2-.61-1.47-.86-1.96-.55-1.04-.12-1.73,1.1-1.6,1.88.2,3.86,2.61,5.41,3.61.57.37,1.3,1.39,2.07,1.3,1.16-.14.92-1.39.44-2.16-.44-.69-1.09-1.25-1.38-2.01-.29-.76.05-1.86.87-1.92.54-.04.98.39,1.35.79.9.97,1.8,1.95,2.7,2.92.64.69,2.66,3.54,3.62,3.84,1.38.42-1.2-3.57-1.33-4.01-.23-.76-.67-2.12.26-2.6,1.6-.84,4.89,4.13,5.83,5.15.88.96,2.01,2.26,3.27,2.71,1.85.66,2.94-.86,2.48-2.59-.22-.82-.67-1.56-.95-2.37-.45-1.32.08-2.44,1.48-1.73Z"/><path class="cls-10" d="m94.15,42.06c-3.45.81-41.32-13.13-41.46-14.08-.14-.94,43.67,13.56,41.46,14.08Z"/><path class="cls-7" d="m25.11,49.3c.63-5.05,5.94-7.01,8.93-10.52,2.2-2.59,3.79-5.85,3.72-9.24.27,2.19.56,4.41,1.46,6.42.96,2.14,2.56,3.88,4.27,5.45,1.54,1.41,2.79,2.89,4.17,4.45,1.28,1.45,2.39,3.16,2.58,5.09.04.37-.04.86-.41.94-.26.06-.5-.14-.7-.32-.96-.89-1.9-1.79-2.87-2.66-.73-.65-1.39-1.67-2.19-2.19-.52-.34-1.29-.38-1.71.08-.48.52-.28,1.36.01,2,1.51,3.3,4.87,5.89,5.02,9.52.02.37-.04.81-.36,1-.79.47-1.88-1.06-2.3-1.53-.45-.51-3-4.32-2.85-2.59.11,1.29,1.68,4.92,2.36,5.99,1.18,1.87,2.02,3.96,2.44,6.13.1.51.18,1.23-.44,1.43-1.97.65-2.44-5.1-4.47-4.91-.58.05-.98.66-1.01,1.24s.22,1.14.46,1.67c.77,1.7,1.55,3.4,2.32,5.09.38.84.62,2.22-.66,2-.85-.15-1.72-2.09-2.57-1.25-.81.79-.59,2.89-.61,3.91-.02.84-.25,4.71-1.66,4.37-.83-.2-1.07-2.91-1.17-3.59-.16-1.03-.24-2.08-.32-3.12-.02-.24.05-.74-.06-.95-.74-1.45-1.18,1.07-1.55,1.48-.79.87-1.59.7-1.88-.49-.45-1.84,1.15-4.52,1.57-6.31.15-.66.87-1.7.52-2.39-.52-1.05-1.62-.39-2.18.32-.5.64-.81,1.45-1.43,1.98-.62.53-1.77.58-2.1-.17-.22-.49.04-1.06.29-1.53.61-1.18,1.22-2.35,1.84-3.53.43-.83,2.43-3.7,2.38-4.71-.07-1.44-2.96,2.34-3.32,2.61-.63.47-1.77,1.35-2.54.64-1.33-1.22,2.23-6,2.87-7.23.6-1.15,1.45-2.66,1.44-3.99,0-1.97-1.81-2.48-3.28-1.45-.7.49-1.24,1.16-1.91,1.69-1.08.87-2.32.75-2.13-.81Z"/><path class="cls-10" d="m37.66,26.83c1.93,2.97,1.64,43.33.79,43.77-.84.45-2.03-45.68-.79-43.77Z"/><path class="cls-7" d="m32.84,94.15c-3.48-3.71-1.58-9.05-2.37-13.6-.58-3.35-2.07-6.66-4.72-8.77,1.86,1.19,3.75,2.4,5.87,2.99,2.25.63,4.62.52,6.92.21,2.07-.28,4.01-.3,6.09-.36,1.93-.06,3.96.19,5.56,1.28.31.21.64.59.46.92-.12.24-.43.3-.7.33-1.29.17-2.59.31-3.88.5-.97.14-2.17,0-3.08.28-.59.18-1.12.75-1.04,1.37.09.7.86,1.08,1.55,1.27,3.51.95,7.64.03,10.53,2.23.3.23.59.55.54.91-.14.91-2.01.77-2.64.79-.68.02-5.24-.46-3.82.53,1.06.74,4.86,1.86,6.12,2.02,2.19.28,4.33.98,6.27,2.05.45.25,1.06.64.82,1.25-.76,1.93-5.48-1.38-6.64.29-.33.48-.12,1.18.31,1.57.43.39,1.01.56,1.57.71,1.8.49,3.6.98,5.4,1.48.89.24,2.1.94,1.11,1.78-.66.56-2.7-.01-2.61,1.17.09,1.13,1.84,2.3,2.61,2.97.63.55,3.45,3.21,2.3,4.07-.69.51-2.92-1.04-3.51-1.4-.9-.54-1.75-1.15-2.6-1.75-.2-.14-.53-.51-.77-.57-1.58-.36.07,1.59.14,2.14.16,1.16-.48,1.67-1.58,1.13-1.7-.84-2.73-3.77-3.85-5.25-.41-.54-.75-1.75-1.5-1.93-1.14-.27-1.34.99-1.15,1.88.17.8.6,1.55.61,2.36,0,.82-.69,1.73-1.47,1.5-.52-.15-.79-.71-1-1.2-.51-1.22-1.02-2.45-1.53-3.67-.36-.87-1.29-4.23-2.09-4.84-1.15-.87-.09,3.77-.12,4.22-.04.79-.1,2.22-1.13,2.36-1.79.24-3.19-5.55-3.72-6.83-.5-1.2-1.12-2.81-2.14-3.66-1.52-1.26-3.06-.2-3.21,1.59-.07.85.09,1.7.08,2.55-.02,1.39-.91,2.27-1.98,1.12Z"/><path class="cls-10" d="m23.6,70.12c3.52.42,34.34,26.47,34.14,27.4-.19.93-36.4-27.67-34.14-27.4Z"/><path class="cls-2" d="m51.41,55.87c-.14.02-.28.01-.43-.01-.4-.07-.74-.32-1.06-.56-1.64-1.27-3.12-2.76-4.38-4.41-.85-1.11-1.62-2.56-1.09-3.85.24-.58.7-1.02,1.16-1.45,1.75-1.65,4.86-4.92,6.85-4.93,1.94,0,4.71,3.3,6.02,5.19.68.97,1.34,2.12,1.07,3.27-.18.79-.77,1.42-1.36,1.98-1.66,1.59-3.5,3.01-5.46,4.22-.41.25-.87.51-1.34.56Z"/><path class="cls-2" d="m38.21,46.9c-.08.12-.17.22-.29.32-.31.26-.72.36-1.11.44-2.03.43-4.12.59-6.19.48-1.4-.08-3-.42-3.64-1.66-.28-.55-.32-1.2-.35-1.82-.12-2.4-.6-6.89.68-8.41,1.25-1.48,5.56-1.45,7.85-1.23,1.18.11,2.48.35,3.19,1.31.48.65.58,1.51.63,2.32.14,2.3.03,4.61-.32,6.89-.07.48-.18.99-.44,1.38Z"/><path class="cls-1" d="m36.58,46.01c8.97,6.95,21.87,5.31,28.82-3.66l-32.48-25.17c-6.95,8.97-5.31,21.87,3.66,28.82Z"/><path class="cls-8" d="m64.24,41.45c-2.43,2.69-4.74,4.2-7.51,5.68-6.59,3.5-15.35,1.79-20.56-3.54-5.21-5.33-6.79-13.73-4.42-20.8.56-1.67,1.34-3.26,2.28-4.76l-1.09-.85c-6.95,8.97-5.31,21.87,3.66,28.82,8.97,6.95,21.87,5.31,28.82-3.66l-1.17-.9Z"/><path class="cls-8" d="m58.83,42.56c.3-.53.45-1.14.34-1.87-.16-1.03-.85-1.96-1.8-2.41-1.09-.51-2.57-.48-3.2-1.51-.44-.71-.29-1.71-.85-2.33-.61-.69-1.72-.55-2.58-.25-.87.3-1.81.71-2.67.39-1.03-.38-1.43-1.61-1.6-2.7-.2-1.24-.38-2.67-1.64-3.26-.51-.24-1.07-.37-1.57-.64-1.37-.74-1.81-2.25-2.64-3.46-1.05-1.53-3.04-2.43-4.88-2.26-2.06.18-3.2,2.05-3.52,3.93-1.08,6.46,1.44,13.18,6.81,16.97,3.67,2.6,8.28,3.73,12.74,3.22,1.74-.2,3.57-.71,4.98-1.78.79-.6,1.61-1.24,2.08-2.06Z"/><path class="cls-9" d="m49.06,44.46c1.06.16,2.14.31,3.21.22,1.07-.09,2.15-.46,2.92-1.21s1.14-1.95.76-2.95c-.45-1.16-1.75-1.78-2.99-1.92-1.24-.13-2.49.1-3.73.05-1.25-.04-2.59-.44-3.28-1.48-.58-.88-.64-2.12-1.47-2.75-.77-.58-1.95-.43-2.67-1.07-.47-.42-.64-1.09-.63-1.72s.16-1.25.22-1.87c.1-1.03-.06-2.1-.59-2.99-.53-.89-1.45-1.56-2.48-1.67-1.57-.16-3.05,1.03-3.63,2.49-.59,1.46-.45,3.12-.1,4.66.63,2.76,1.93,5.36,3.73,7.53,1.6,1.91,3.79,3.07,6.18,3.77,1.49.44,3.03.67,4.56.9Z"/><path class="cls-4" d="m39.02,32.04c.11.38-2.09,1.77-2.44.6-.37-1.26,2.32-.98,2.44-.6Zm-3.16-2.56c.11,1.22,2.55.29,2.51-.11s-2.62-1.2-2.51.11Zm5.46,9.64c.98.73,1.92-1.7,1.6-1.94-.32-.24-2.65,1.15-1.6,1.94Zm-3.14-3.1c.77.95,2.28-1.17,2.03-1.48-.25-.31-2.85.46-2.03,1.48Zm6.49,4.98c1.17.37,1.25-2.24.87-2.36-.38-.12-2.12,1.96-.87,2.36Zm8.73,2.17c1.19-.28-.08-2.56-.46-2.47-.39.09-.81,2.77.46,2.47Zm-4.97-.85c1.21.18.89-2.4.49-2.46-.39-.06-1.79,2.26-.49,2.46Z"/><path class="cls-6" d="m74.09,34.66c2.59,4.38-.42,9.18-.64,13.79-.16,3.39.57,6.95,2.7,9.59-1.55-1.56-3.14-3.15-5.08-4.19-2.06-1.1-4.4-1.51-6.71-1.71-2.08-.18-3.98-.58-6.03-.97-1.9-.37-3.83-1.04-5.15-2.45-.26-.27-.49-.71-.25-1,.17-.21.48-.2.75-.17,1.3.12,2.6.26,3.9.35.98.07,2.12.47,3.07.39.62-.05,1.25-.49,1.31-1.11.06-.71-.61-1.25-1.23-1.57-3.22-1.69-7.45-1.69-9.79-4.46-.24-.28-.46-.66-.33-1.01.34-.86,2.13-.31,2.75-.19.67.13,5.02,1.59,3.84.31-.88-.95-4.34-2.87-5.53-3.3-2.08-.75-4.02-1.9-5.68-3.36-.39-.34-.89-.86-.53-1.4,1.16-1.72,5.05,2.54,6.54,1.16.43-.4.37-1.12.04-1.6-.33-.48-.87-.77-1.38-1.04-1.65-.87-3.3-1.74-4.95-2.61-.82-.43-1.85-1.38-.7-1.98.77-.4,2.64.6,2.8-.58.15-1.12-1.3-2.65-1.9-3.47-.5-.68-2.68-3.88-1.36-4.47.78-.35,2.63,1.65,3.13,2.13.76.72,1.46,1.5,2.16,2.27.16.18.41.62.63.72,1.47.7.28-1.57.33-2.12.1-1.17.83-1.53,1.79-.76,1.48,1.18,1.85,4.28,2.62,5.96.28.62.35,1.87,1.05,2.21,1.05.51,1.53-.68,1.53-1.59,0-.82-.25-1.64-.08-2.44.17-.8,1.05-1.54,1.76-1.15.47.26.62.86.71,1.39.23,1.3.47,2.61.7,3.91.17.92.34,4.41.99,5.18.93,1.1.91-3.66,1.03-4.09.21-.76.57-2.15,1.62-2.06,1.8.15,1.91,6.11,2.15,7.48.23,1.28.48,2.99,1.3,4.04,1.21,1.56,2.94.85,3.48-.86.26-.81.28-1.68.47-2.51.32-1.35,1.38-2.02,2.18-.66Z"/><path class="cls-10" d="m77.89,60.12c-3.35-1.17-27.77-33.29-27.38-34.16.39-.87,29.53,34.91,27.38,34.16Z"/><path class="cls-6" d="m21.48,72.32c-2.57-4.39.45-9.18.69-13.78.17-3.39-.54-6.95-2.67-9.6,1.55,1.57,3.13,3.16,5.07,4.21,2.06,1.11,4.39,1.53,6.7,1.73,2.08.18,3.97.59,6.02,1,1.9.37,3.82,1.06,5.14,2.47.26.28.49.71.25,1-.17.2-.48.2-.75.17-1.3-.12-2.59-.27-3.89-.37-.98-.07-2.12-.48-3.07-.4-.62.05-1.26.48-1.31,1.1-.06.71.6,1.25,1.23,1.58,3.21,1.7,7.44,1.71,9.78,4.5.24.28.46.66.32,1.01-.34.86-2.13.3-2.75.18-.67-.13-5.01-1.61-3.84-.33.87.96,4.33,2.88,5.52,3.32,2.08.76,4.01,1.92,5.66,3.39.39.34.89.86.52,1.4-1.17,1.72-5.04-2.56-6.54-1.18-.43.39-.38,1.12-.05,1.6.33.48.86.77,1.38,1.04,1.65.88,3.29,1.75,4.94,2.63.82.44,1.84,1.38.69,1.99-.77.4-2.63-.61-2.8.57-.16,1.12,1.29,2.65,1.89,3.47.5.68,2.66,3.89,1.34,4.47-.78.35-2.62-1.66-3.12-2.14-.76-.72-1.45-1.5-2.15-2.28-.16-.18-.41-.62-.63-.72-1.46-.7-.29,1.57-.33,2.12-.1,1.17-.83,1.52-1.79.75-1.47-1.19-1.83-4.28-2.6-5.97-.28-.62-.34-1.87-1.04-2.21-1.05-.51-1.53.67-1.54,1.58,0,.82.24,1.64.07,2.44s-1.05,1.54-1.77,1.14c-.47-.26-.61-.86-.71-1.39-.23-1.31-.46-2.61-.69-3.92-.16-.93-.32-4.41-.97-5.19-.93-1.1-.92,3.66-1.05,4.09-.22.76-.58,2.14-1.62,2.05-1.8-.16-1.88-6.12-2.12-7.48-.22-1.28-.47-2.99-1.28-4.04-1.2-1.56-2.94-.87-3.49.84-.26.81-.28,1.68-.48,2.5-.33,1.35-1.38,2.01-2.18.65Z"/><path class="cls-10" d="m17.77,46.84c3.34,1.18,27.65,33.4,27.25,34.26-.4.87-29.4-35.02-27.25-34.26Z"/><path class="cls-1" d="m95.17,55.68c4.87-10.25.51-22.5-9.74-27.37l-17.64,37.11c10.25,4.87,22.5.51,27.37-9.74Z"/><path class="cls-8" d="m84.8,29.64c3.15,1.8,5.12,3.73,7.16,6.13,4.82,5.68,5.04,14.61.94,20.84-4.09,6.23-11.96,9.57-19.37,8.77-1.75-.19-3.48-.61-5.14-1.2l-.59,1.25c10.25,4.87,22.5.51,27.37-9.74,4.87-10.25.51-22.5-9.74-27.37l-.63,1.33Z"/><path class="cls-8" d="m87.05,34.68c-.58-.18-1.21-.19-1.9.07-.97.37-1.74,1.25-1.97,2.27-.27,1.18.08,2.61-.79,3.45-.6.58-1.6.65-2.1,1.33-.54.74-.17,1.79.31,2.58.48.78,1.08,1.61.95,2.53-.15,1.09-1.27,1.74-2.29,2.14-1.17.46-2.52.94-2.83,2.3-.13.55-.13,1.13-.28,1.67-.43,1.5-1.81,2.25-2.81,3.32-1.27,1.35-1.72,3.48-1.17,5.25.62,1.97,2.69,2.69,4.6,2.6,6.54-.33,12.56-4.23,15.12-10.29,1.75-4.14,1.87-8.88.42-13.13-.57-1.66-1.46-3.33-2.81-4.49-.76-.65-1.55-1.31-2.45-1.59Z"/><path class="cls-9" d="m90.99,43.83c-.08-1.07-.15-2.16-.47-3.18-.32-1.03-.91-2.01-1.81-2.59-.9-.59-2.15-.7-3.05-.11-1.04.68-1.36,2.09-1.23,3.33.13,1.24.63,2.41.85,3.64s.13,2.62-.74,3.52c-.73.76-1.93,1.07-2.37,2.03-.41.88,0,1.99-.47,2.84-.31.55-.93.86-1.54.98-.62.13-1.25.11-1.88.18-1.03.12-2.04.51-2.79,1.22-.75.71-1.21,1.75-1.1,2.78.17,1.57,1.66,2.76,3.21,3.02,1.56.26,3.14-.23,4.57-.9,2.56-1.2,4.82-3.03,6.55-5.26,1.53-1.97,2.19-4.36,2.36-6.84.11-1.55,0-3.1-.1-4.65Z"/><path class="cls-4" d="m81,56.29c.35-.19,2.18,1.66,1.11,2.25-1.15.63-1.46-2.06-1.11-2.25Zm-1.82,3.63c1.17-.37-.26-2.55-.64-2.43-.38.12-.61,2.82.64,2.43Zm8.25-7.39c.51-1.11-2.07-1.51-2.24-1.14-.16.36,1.69,2.34,2.24,1.14Zm-2.35,3.73c.77-.95-1.63-1.98-1.88-1.66-.25.31,1.06,2.69,1.88,1.66Zm3.47-7.41c.11-1.22-2.45-.74-2.49-.34-.03.4,2.37,1.65,2.49.34Zm.25-8.99c-.53-1.1-2.49.62-2.31.98.17.36,2.88.2,2.31-.98Zm.24,5.04c-.08-1.22-2.54-.35-2.51.05.03.4,2.59,1.26,2.51-.05Z"/><path class="cls-6" d="m102.88,69.04c-1.83,4.75-7.46,5.37-11.21,8.05-2.76,1.98-5.09,4.76-5.85,8.07.26-2.19.53-4.42.14-6.59-.41-2.3-1.54-4.39-2.82-6.32-1.15-1.74-2.01-3.48-2.97-5.33-.89-1.72-1.55-3.65-1.27-5.56.06-.37.25-.83.63-.82.27,0,.46.26.6.48.71,1.09,1.41,2.2,2.14,3.27.55.81.95,1.96,1.6,2.65.42.45,1.16.68,1.68.34.59-.39.6-1.25.47-1.94-.67-3.57-3.3-6.89-2.57-10.45.07-.36.23-.77.59-.88.88-.27,1.57,1.48,1.86,2.04.32.61,1.87,4.92,2.14,3.21.2-1.28-.44-5.18-.84-6.38-.7-2.1-1-4.33-.88-6.54.03-.52.12-1.23.77-1.28,2.07-.16,1.14,5.54,3.15,5.85.57.09,1.11-.4,1.28-.96.17-.56.06-1.16-.04-1.73l-1.02-5.5c-.17-.91-.07-2.3,1.12-1.78.79.35,1.17,2.44,2.19,1.84.97-.58,1.27-2.66,1.54-3.64.22-.81,1.38-4.51,2.66-3.84.76.4.33,3.08.27,3.77-.1,1.04-.27,2.07-.44,3.1-.04.24-.23.7-.18.94.36,1.58,1.4-.75,1.86-1.06.98-.65,1.71-.3,1.7.93-.01,1.89-2.21,4.1-3.05,5.75-.31.61-1.25,1.44-1.08,2.19.25,1.14,1.48.78,2.19.22.64-.5,1.13-1.21,1.86-1.58.73-.36,1.86-.14,1.99.67.09.53-.29,1.02-.65,1.42-.88.99-1.76,1.98-2.63,2.98-.62.7-3.25,3-3.45,3.99-.28,1.41,3.43-1.56,3.85-1.73.73-.3,2.04-.88,2.62,0,1,1.5-3.61,5.29-4.53,6.32-.86.97-2.05,2.23-2.36,3.52-.47,1.91,1.16,2.84,2.83,2.2.79-.3,1.49-.82,2.26-1.18,1.26-.59,2.43-.17,1.87,1.3Z"/><path class="cls-10" d="m85.27,87.82c-1.16-3.35,8.88-42.44,9.81-42.67s-9.07,44.82-9.81,42.67Z"/><path class="cls-2" d="m38.01,81.95c-.08.12-.17.22-.29.32-.31.26-.72.36-1.11.44-2.03.43-4.12.59-6.19.48-1.4-.08-3-.42-3.64-1.66-.28-.55-.32-1.2-.35-1.82-.12-2.4-.6-6.89.68-8.41,1.25-1.48,5.56-1.45,7.85-1.23,1.18.11,2.48.35,3.19,1.31.48.65.58,1.51.63,2.32.14,2.3.03,4.61-.32,6.89-.07.48-.18.99-.44,1.38Z"/><path class="cls-1" d="m41.79,91.71c10.25,4.87,22.5.51,27.38-9.73l-37.11-17.64c-4.87,10.25-.51,22.5,9.73,27.38Z"/><path class="cls-8" d="m67.83,81.34c-1.8,3.15-3.73,5.12-6.13,7.16-5.69,4.82-14.61,5.03-20.84.94-6.23-4.09-9.57-11.96-8.77-19.37.19-1.75.61-3.48,1.21-5.14l-1.25-.59c-4.87,10.25-.51,22.5,9.73,27.38,10.25,4.87,22.5.51,27.38-9.73l-1.33-.63Z"/><path class="cls-8" d="m62.79,83.59c.18-.58.19-1.21-.07-1.9-.37-.97-1.25-1.74-2.27-1.97-1.18-.27-2.61.08-3.45-.79-.58-.6-.65-1.6-1.33-2.1-.74-.54-1.79-.17-2.58.31-.78.48-1.61,1.08-2.53.95-1.09-.15-1.74-1.27-2.14-2.29-.46-1.17-.94-2.52-2.3-2.83-.55-.13-1.13-.13-1.67-.28-1.5-.43-2.25-1.81-3.32-2.81-1.35-1.27-3.48-1.72-5.25-1.17-1.97.62-2.69,2.69-2.6,4.6.33,6.54,4.23,12.56,10.28,15.13,4.14,1.75,8.88,1.87,13.13.42,1.66-.57,3.33-1.45,4.49-2.81.65-.76,1.31-1.55,1.59-2.45Z"/><path class="cls-9" d="m53.65,87.53c1.07-.08,2.16-.15,3.18-.47,1.03-.32,2.01-.91,2.59-1.81.59-.9.7-2.15.11-3.05-.68-1.04-2.09-1.37-3.33-1.23-1.24.13-2.41.63-3.64.85-1.23.22-2.62.13-3.52-.74-.76-.73-1.07-1.93-2.03-2.37-.88-.41-1.99,0-2.84-.47-.55-.31-.85-.93-.98-1.54s-.11-1.25-.18-1.88c-.12-1.03-.51-2.04-1.22-2.79-.71-.75-1.75-1.21-2.78-1.1-1.57.17-2.76,1.66-3.02,3.21-.26,1.56.23,3.14.9,4.57,1.2,2.56,3.03,4.82,5.26,6.55,1.97,1.53,4.36,2.19,6.84,2.37,1.55.11,3.1,0,4.65-.1Z"/><path class="cls-4" d="m41.19,77.54c.19.35-1.66,2.18-2.25,1.11-.63-1.15,2.06-1.46,2.25-1.11Zm-3.63-1.83c.37,1.17,2.55-.26,2.43-.64-.12-.38-2.82-.61-2.43.64Zm7.39,8.25c1.11.51,1.51-2.07,1.14-2.24-.36-.16-2.34,1.69-1.14,2.24Zm-3.73-2.35c.95.77,1.98-1.63,1.66-1.88-.31-.25-2.69,1.06-1.66,1.88Zm7.41,3.48c1.22.11.74-2.45.34-2.49-.4-.03-1.65,2.37-.34,2.49Zm8.99.26c1.1-.53-.62-2.49-.98-2.31s-.2,2.88.98,2.31Zm-5.04.24c1.22-.08.35-2.54-.05-2.51s-1.26,2.59.05,2.51Z"/><path class="cls-2" d="m71.89,68.92c-.08.12-.17.22-.29.32-.31.26-.72.36-1.11.44-2.03.43-4.12.59-6.19.48-1.4-.08-3-.42-3.64-1.66-.29-.55-.32-1.2-.35-1.82-.12-2.4-.6-6.89.68-8.41,1.25-1.48,5.56-1.45,7.85-1.23,1.18.11,2.48.35,3.19,1.31.48.65.58,1.51.63,2.32.14,2.3.03,4.61-.32,6.89-.07.48-.18.99-.44,1.38Z"/><path class="cls-2" d="m57.29,101.28c-.14.02-.28.01-.43-.01-.4-.07-.74-.32-1.06-.56-1.64-1.27-3.12-2.76-4.38-4.41-.85-1.11-1.62-2.56-1.09-3.85.24-.58.7-1.02,1.16-1.45,1.75-1.65,4.86-4.92,6.85-4.93,1.94,0,4.71,3.3,6.02,5.19.68.97,1.34,2.12,1.07,3.27-.18.79-.77,1.42-1.36,1.98-1.66,1.59-3.5,3.01-5.46,4.22-.41.25-.87.51-1.34.56Z"/><path class="cls-2" d="m51.1,32.7c-.14.02-.28.01-.43-.01-.4-.07-.74-.32-1.06-.56-1.64-1.27-3.12-2.76-4.38-4.41-.85-1.11-1.62-2.56-1.09-3.85.24-.58.7-1.02,1.16-1.45,1.75-1.65,4.86-4.92,6.85-4.93,1.94,0,4.71,3.3,6.02,5.19.68.97,1.34,2.12,1.07,3.27-.18.79-.77,1.42-1.36,1.98-1.66,1.59-3.5,3.01-5.46,4.22-.41.25-.87.51-1.34.56Z"/><path class="cls-3" d="m85.97,49.54c0,.59-.48,1.07-1.07,1.07s-1.07-.48-1.07-1.07.48-1.07,1.07-1.07,1.07.48,1.07,1.07Z"/><circle class="cls-3" cx="61.9" cy="79.03" r="1.33"/><circle class="cls-3" cx="63.76" cy="92.04" r=".63"/><path class="cls-3" d="m38.33,67.59c0,.66-.53,1.19-1.19,1.19s-1.19-.53-1.19-1.19.53-1.19,1.19-1.19,1.19.53,1.19,1.19Z"/><circle class="cls-3" cx="51.93" cy="42.38" r="1.26"/><path class="cls-3" d="m56.23,43.21c0,.39-.31.7-.7.7s-.7-.31-.7-.7.31-.7.7-.7.7.31.7.7Z"/><path class="cls-3" d="m64.99,34.44c0,.46-.38.84-.84.84s-.84-.38-.84-.84.38-.84.84-.84.84.38.84.84Z"/><path class="cls-3" d="m59.43,22.43c0,.46-.38.84-.84.84s-.84-.38-.84-.84.38-.84.84-.84.84.38.84.84Z"/><path class="cls-3" d="m55.61,22.63c0,.58-.47,1.04-1.04,1.04s-1.04-.47-1.04-1.04.47-1.04,1.04-1.04,1.04.47,1.04,1.04Z"/><path class="cls-3" d="m24.36,50.42c0,.49-.4.89-.89.89s-.89-.4-.89-.89.4-.89.89-.89.89.4.89.89Z"/><path class="cls-3" d="m45.22,83.61c0,.97-.79,1.76-1.76,1.76s-1.76-.79-1.76-1.76.79-1.76,1.76-1.76,1.76.79,1.76,1.76Z"/><path class="cls-3" d="m68.05,21.59c0,.62-.5,1.12-1.12,1.12s-1.12-.5-1.12-1.12.5-1.12,1.12-1.12,1.12.5,1.12,1.12Z"/><circle class="cls-3" cx="47.02" cy="95.25" r=".4"/><circle class="cls-3" cx="87.28" cy="31.52" r="1.32"/><path class="cls-3" d="m74.83,44.34c0,.62-.51,1.13-1.13,1.13s-1.13-.51-1.13-1.13.51-1.13,1.13-1.13,1.13.51,1.13,1.13Z"/><path class="cls-3" d="m76.97,42.82c0,.22-.18.4-.4.4s-.4-.18-.4-.4.18-.4.4-.4.4.18.4.4Z"/><circle class="cls-3" cx="34.54" cy="47.73" r=".94"/><path class="cls-3" d="m93.59,84.47c0,.34-.27.61-.61.61s-.61-.27-.61-.61.27-.61.61-.61.61.27.61.61Z"/><path class="cls-11" d="m35.34,60.87c-.41.47-.76.47-1.18.94-.23-.47-.45-.94-.68-1.41.47.09,1.38.37,1.86.47Z"/><path class="cls-11" d="m34.61,45.83c-.44,0-.61-.19-1.05-.19.16-.79.31-1.58.47-2.37.38.06.87.06,1.24.12-.22.88-.44,1.55-.66,2.43Z"/><path class="cls-11" d="m42.78,36.25c-.41-.13-.91-.37-1.32-.5-.35.41-.69.82-1.04,1.23.22.63.9.98,1.12,1.61.38-.79.86-1.55,1.24-2.34Z"/><path class="cls-11" d="m30.41,52.71c-.83.28-1.53.4-2.36.68.35.25.69.5,1.04.76.36-.43.95-1.01,1.32-1.43Z"/><path class="cls-11" d="m67.25,77.56c-.52-.35-.56-.7-1.09-1.05.44-.28.88-.57,1.31-.85-.03.48-.19,1.42-.23,1.9Z"/><path class="cls-11" d="m87.59,85.93c-.06-.44.11-.63.06-1.07.8.05,1.6.11,2.41.16-.02.38.05.87.03,1.25-.9-.11-1.59-.24-2.5-.35Z"/><path class="cls-11" d="m61.43,71.69c-.06-.44.11-.63.06-1.07.8.05,1.6.11,2.41.16-.02.38.05.87.03,1.25-.9-.11-1.59-.24-2.5-.35Z"/><path class="cls-11" d="m90.3,56.28c-.06-.44.11-.63.06-1.07.8.05,1.6.11,2.41.16-.02.38.05.87.03,1.25-.9-.11-1.59-.24-2.5-.35Z"/><path class="cls-11" d="m71.83,97.84c.08-.42.26-.95.33-1.37-.45-.29-.9-.58-1.35-.88-.6.3-.86,1.01-1.46,1.31.83.28,1.65.66,2.48.93Z"/><path class="cls-11" d="m45.81,80.72c.08-.42.26-.95.33-1.37-.45-.29-.9-.58-1.35-.88-.6.3-.86,1.01-1.46,1.31.83.28,1.65.66,2.48.93Z"/><path class="cls-11" d="m75.2,75.97c-.38-.79-.59-1.46-.97-2.26-.21.38-.41.75-.62,1.13.47.31,1.12.82,1.59,1.13Z"/><path class="cls-11" d="m71.89,43.77c.18-.39.49-.85.67-1.24-.36-.4-.72-.8-1.08-1.19-.65.14-1.09.76-1.75.9.73.48,1.43,1.05,2.16,1.53Z"/><path class="cls-11" d="m49.02,56.15c.41-.47.77-.47,1.18-.94.22.47.45.94.67,1.41-.47-.1-1.38-.38-1.85-.47Z"/><path class="cls-11" d="m48.58,69.41c.44,0,.61.19,1.05.2-.16.79-.32,1.58-.48,2.37-.38-.07-.87-.06-1.24-.13.22-.88.44-1.55.67-2.43Z"/><path class="cls-11" d="m41.86,55.38c.41.13.9.38,1.31.51.35-.41.7-.82,1.05-1.23-.22-.63-.89-.99-1.11-1.62-.38.79-.87,1.55-1.25,2.34Z"/><path class="cls-11" d="m48.77,45.86c.41.13.9.38,1.31.51.35-.41.7-.82,1.05-1.23-.22-.63-.89-.99-1.11-1.62-.38.79-.87,1.55-1.25,2.34Z"/><path class="cls-11" d="m52.44,69.45c.83-.27,1.53-.4,2.36-.67-.35-.25-.69-.51-1.04-.76-.37.42-.96,1-1.33,1.43Z"/><path class="cls-11" d="m96.16,75.52c-.52-.35-.56-.7-1.09-1.05.44-.28.88-.57,1.31-.85-.03.48-.19,1.42-.23,1.9Z"/><path class="cls-11" d="m78.61,65.28c-.06-.44.11-.63.06-1.07.8.05,1.6.11,2.41.16-.02.38.05.87.03,1.25-.9-.11-1.59-.24-2.5-.35Z"/><path class="cls-11" d="m67.71,63.19c.08-.42.26-.95.33-1.37-.45-.29-.9-.59-1.35-.88-.6.3-.86,1.01-1.46,1.31.83.28,1.65.66,2.48.93Z"/><path class="cls-11" d="m80.8,58.71c-.38-.79-.59-1.46-.97-2.26-.21.38-.41.75-.62,1.13.47.31,1.12.82,1.59,1.13Z"/><path class="cls-11" d="m87.71,45.77c.18-.39.49-.85.67-1.24-.36-.4-.72-.79-1.08-1.19-.65.14-1.09.76-1.75.9.73.48,1.43,1.06,2.16,1.53Z"/><path class="cls-11" d="m60.19,45.39c.41-.47.77-.47,1.18-.94.22.47.45.94.67,1.41-.47-.1-1.38-.38-1.85-.47Z"/><path class="cls-11" d="m60.64,51.78c.44,0,.61.19,1.05.2-.16.79-.32,1.58-.48,2.36-.38-.07-.87-.06-1.24-.13.22-.88.44-1.55.67-2.43Z"/><path class="cls-11" d="m54.83,27.15c.41.13.91.38,1.31.51.35-.41.7-.82,1.05-1.23-.22-.63-.89-.99-1.11-1.62-.38.79-.87,1.55-1.25,2.34Z"/><path class="cls-11" d="m62.3,57.23c.83-.27,1.53-.4,2.36-.67-.35-.25-.69-.51-1.04-.76-.37.42-.96,1-1.33,1.43Z"/><path class="cls-11" d="m41.15,93.54c.83-.27,1.53-.4,2.36-.67l-1.04-.76c-.37.42-.96,1-1.33,1.43Z"/></g></svg>