<?xml version="1.0" encoding="UTF-8"?><svg xmlns="http://www.w3.org/2000/svg" viewBox="0 0 136.88 136.87"><defs><style>.cls-1{fill:#f59423;}.cls-2{fill:#f8b765;}.cls-3{fill:#f99d38;}.cls-4{fill:#eae6ce;}.cls-5{fill:#f05c4a;}.cls-6{fill:#ffdc62;}.cls-7{fill:#f1f3e2;}.cls-8{fill:#ffc644;}.cls-9{fill:#ffb337;}.cls-10{fill:#ffbba6;}.cls-11{fill:#fe7b23;}.cls-12{fill:#fbce95;}.cls-13{fill:#ff7555;}.cls-14{fill:#728801;}.cls-15{fill:#aa5504;}.cls-16{fill:#d96903;}.cls-17{fill:#c5ce3d;}.cls-18{fill:#e37603;}.cls-19{fill:#3e2e21;}.cls-20{fill:#a2ad22;}.cls-21{fill:#76675b;}.cls-22{fill:#534031;}.cls-23{fill:#c93432;mix-blend-mode:multiply;opacity:.4;}.cls-24{isolation:isolate;}</style></defs><g class="cls-24"><g id="Layer_2"><g id="OBJECTS"><circle class="cls-22" cx="68.06" cy="68.82" r="68.06"/><path class="cls-21" d="m19.93,20.69s.59-.59,1.7-1.69c.54-.57,1.26-1.22,2.11-1.97.43-.38.87-.8,1.37-1.22.51-.41,1.05-.84,1.62-1.3,2.3-1.81,5.2-3.9,8.78-5.89,3.57-2.01,7.79-3.96,12.61-5.47,4.81-1.53,10.23-2.58,16.02-2.99,2.89-.17,5.88-.23,8.93-.01,3.05.16,6.14.61,9.25,1.25,6.21,1.27,12.45,3.49,18.34,6.62,2.95,1.55,5.78,3.39,8.51,5.37,2.73,2.01,5.25,4.23,7.72,6.62,2.3,2.37,4.59,4.98,6.59,7.68,1.97,2.74,3.82,5.56,5.37,8.51,3.13,5.89,5.35,12.13,6.62,18.34.64,3.11,1.1,6.2,1.26,9.25.22,3.04.16,6.03-.01,8.93-.41,5.79-1.46,11.2-3,16.02-1.51,4.83-3.46,9.05-5.47,12.61-1.99,3.58-4.08,6.49-5.89,8.78-.46.57-.89,1.11-1.3,1.62-.42.5-.84.94-1.22,1.37-.75.85-1.41,1.57-1.97,2.11-1.1,1.11-1.69,1.7-1.69,1.7,0,0,.56-.62,1.61-1.78.54-.57,1.16-1.31,1.87-2.19.36-.44.74-.91,1.15-1.41.39-.52.8-1.07,1.24-1.66,1.73-2.35,3.7-5.29,5.55-8.9,1.86-3.6,3.63-7.82,5.04-12.59,1.41-4.77,2.33-10.1,2.62-15.78.11-2.84.11-5.76-.17-8.73-.09-1.49-.32-2.98-.49-4.49-.1-.75-.25-1.5-.38-2.26-.12-.76-.26-1.51-.44-2.27-1.28-6.05-3.49-12.11-6.57-17.82-1.53-2.86-3.34-5.59-5.27-8.24-1.98-2.64-4.12-5.05-6.48-7.46-2.31-2.27-4.8-4.49-7.42-6.45-2.65-1.94-5.38-3.75-8.24-5.27-5.71-3.08-11.77-5.29-17.82-6.57-.75-.18-1.51-.32-2.27-.44-.76-.12-1.51-.27-2.26-.38-1.51-.18-3-.41-4.48-.5-2.97-.28-5.89-.28-8.73-.17-5.67.29-11.01,1.21-15.78,2.62-4.77,1.41-8.99,3.18-12.59,5.04-3.61,1.85-6.56,3.82-8.9,5.55-.58.44-1.14.85-1.66,1.24-.5.41-.97.79-1.41,1.15-.88.71-1.62,1.33-2.19,1.87-1.16,1.05-1.78,1.62-1.78,1.62Z"/><path class="cls-19" d="m126.48,79.54s-3.94-3.01-10.65-5.04l8.07-.43-1.78-6.55s-7.42-2.11-15.18-1.32l.82-.42,3.84-1.96h0l3.67-1.87c.11-.03.22-.05.33-.08.25-.06.49-.12.73-.18.14-.04.28-.07.41-.1.22-.05.43-.11.64-.16.15-.04.29-.07.43-.11.2-.05.4-.1.6-.15.12-.03.23-.06.34-.09.19-.05.38-.1.56-.14.13-.03.25-.06.38-.1.14-.04.28-.07.41-.11.14-.04.27-.07.41-.11.1-.03.21-.05.3-.08.12-.03.22-.06.32-.09.09-.02.18-.05.26-.07.09-.02.16-.04.24-.07.07-.02.15-.04.21-.06.08-.02.14-.04.2-.06.03,0,.08-.02.1-.03.08-.02.13-.04.16-.05.77-.31-.51-1.46-2.94-2.47-.18-.4-.37-.83-.57-1.27-.07-.16-.14-.33-.22-.49-.02-.05-.04-.09-.06-.14-.07-.16-.14-.32-.21-.48-.02-.05-.04-.09-.06-.14-.06-.15-.13-.29-.19-.43-.02-.05-.05-.11-.07-.16-.05-.12-.1-.23-.14-.34-.03-.07-.06-.15-.09-.21-.04-.09-.07-.18-.11-.27-.03-.07-.06-.14-.09-.21-.03-.08-.06-.14-.08-.21-.02-.06-.05-.13-.07-.18-.03-.07-.04-.12-.06-.18-.01-.04-.03-.08-.04-.11-.02-.07-.03-.12-.04-.16,0,0,0-.01,0-.02h0s-1.75-.09-4.16.32c.01-.12.04-.24.05-.36.03-.45.05-.89.04-1.33-.02-.89-.11-1.77-.27-2.65s-.37-1.77-.63-2.67c-.13-.45-.26-.9-.41-1.36-1.88.86-3.77,1.72-5.65,2.58,4.73-6.42,6.09-12.05,6.09-12.05.08-2.69-2.05-4.43-4.4-5.73-3.31,3.6-6.47,7.06-9.57,10.5,2.53-5.36,4.93-10.77,7.19-16.04-.42-.75-.99-1.4-1.67-1.92-.45-.35-.95-.64-1.47-.86-.79-.33-1.64-.51-2.49-.51-6.51,11.04-12.95,22.42-19.46,33.47.78,1.11,1.73,2.19,2.79,3.13-.23.27-.47.55-.7.83-1.99.91-3.97,1.81-5.96,2.72-.17,1.05-.07,2.14.54,3.01,6.34.25,12.71-.4,18.88-1.91-2.79,2.32-3.8,4.38-3.96,5.02,0,.04.03.06.09.08h0s0,0,0,0c.26.07,1.08-.02,2.29-.23.03,0,.05,0,.08-.01.22-.04.45-.08.7-.13.04,0,.08-.01.11-.02.25-.05.51-.1.77-.15.04,0,.08-.02.12-.02.27-.05.55-.11.84-.17.04,0,.09-.02.13-.03.14-.03.28-.06.42-.09l.43.43h0l.29.3,1.01,1.02c-4.69,1.52-6.86,3.31-6.86,3.31l.71,2.65c-4.12,1.08-5.87,2.55-5.87,2.55-.15.33-.27.82-.32,1.35-.06.35-.09.67-.1.97-1.02-.59-2.06-1.14-3.01-1.81-3.95-2.77-6.26-7.5-10.39-9.99-3.02-1.82-6.85-2.23-10.18-1.08-3.51,1.21-6.3,3.85-9.73,5.24-1.66.68-3.37,1.15-5.07,1.66.53-1.24,1.14-2.42,1.97-3.43,4.19-5.12,12.92-4.96,16.47-10.54,1.33-2.08,1.76-4.77,3.63-6.38,2.17-1.87,5.45-1.59,8.08-2.73,3.46-1.5,5.46-5.74,4.41-9.36l-.41-.49h0l-8.26-9.79c1.89-2,2.76-4.99,1.99-7.64l-.41-.49h0s-8.83-10.46-8.83-10.46l-.48-.57h0l-.84-1h0l-1.3-1.53c.5,1.74.3,3.61-.42,5.27h0c-.17.4-.38.78-.61,1.15,0,0,0,0,0,.01-.23.37-.49.71-.78,1.04,0,0-.01.01-.02.02-.17.19-.35.37-.54.55-.01.01-.03.02-.04.04-.17.16-.35.3-.54.44-.03.02-.06.05-.09.07-.17.12-.35.24-.53.35-.05.03-.09.06-.13.08-.22.13-.45.24-.69.35-.03.01-.07.02-.11.04h0c-2.62,1.09-5.83.84-7.98,2.69-1.87,1.61-2.31,4.3-3.63,6.38-3.31,5.19-11.1,5.42-15.54,9.55-.02.02-.04.03-.05.05-.31.29-.6.6-.88.94-.62.76-1.12,1.61-1.56,2.52-1.88,3.91-2.51,8.73-6.23,10.8-1.43.8-3.11,1.03-4.75,1.32-.82.15-1.63.31-2.39.56-.38.13-.75.28-1.1.46-.35.18-.69.4-1.01.66-.27.22-.51.46-.73.72-.44.52-.78,1.11-1.08,1.73-.15.31-.29.63-.42.96-.39.98-.72,2.01-1.13,2.99-.14.33-.28.65-.44.96-.18.35-.38.68-.6,1-.06.09-.13.18-.19.27-.19.27-.4.53-.62.78-.1.11-.21.22-.31.33-.17.18-.35.35-.53.52-.15.13-.3.27-.45.39-.11.09-.22.17-.34.26-.34.26-.7.5-1.07.72-.06.04-.12.07-.18.11-.24.13-.48.26-.73.38h0c-1.1.52-2.27.86-3.48.97l11.86,14.05c.85-.08,1.69-.27,2.5-.55-.19.26-.38.51-.6.75-.1.11-.21.22-.31.33-.17.18-.35.35-.53.52-.15.13-.3.27-.45.39-.11.09-.22.17-.34.26-.34.26-.7.5-1.07.72-.06.04-.12.07-.18.11-.24.13-.48.26-.72.38h0c-1.1.52-2.27.86-3.48.97l2.56,3.03h0l.18.21,3.49,4.13.49.59h0l5.14,6.09c3.55-.32,6.87-2.56,8.49-5.73,1.27-2.49,1.64-5.59,3.8-7.36.64-.53,1.37-.88,2.14-1.13,0,0,0,0,0,0-.34,3.28,1.03,6.55.72,9.83-.39,4.27-3.57,8.21-2.77,12.42.47,2.49,2.29,4.53,4.34,6.03,2.05,1.5,4.37,2.57,6.47,3.99,2.12,1.43,4.01,3.21,6.18,4.57,2.17,1.36,4.78,2.29,7.29,1.79,2.35-.47,4.27-2.12,6.45-3.11,6.92-3.15,16.87,2.09,22.15-5,3.09-4.15,1.38-10.01,2.18-15.13.49-3.14,1.96-6.04,2.82-9.1.86-3.06,1.01-6.62-.89-9.16-.23-.3-.48-.58-.74-.83.54.1,1.07.2,1.61.3.43.08.86.16,1.28.24,1.24.23,2.47.45,3.69.67.67.12,1.34.24,2.02.36.75.13,1.49.26,2.24.39.82.14,1.64.28,2.46.42.14.02.29.05.43.07,7.57,1.27,15.07,2.41,23.13,3.59,1-2.5,1.55-5.19-.2-7.22Zm-56.27-46.92c-.23.37-.49.71-.78,1.04,0,0-.01.01-.02.02-.17.19-.35.37-.54.55-.01.01-.03.03-.04.04-.17.16-.35.3-.53.44-.03.02-.06.05-.1.07-.17.12-.35.24-.53.35-.05.03-.09.06-.14.09-.22.13-.45.24-.69.35-1.44.62-3.06.83-4.6,1.18.44-.87.95-1.68,1.69-2.32,1.75-1.51,4.22-1.63,6.49-2.21-.07.13-.13.27-.22.4,0,0,0,0,0,.01Zm-15.45,12.55c-2.54,3.41-7.14,4.54-11.12,6.43.07-.09.13-.18.2-.27,2.64-3.24,7.1-4.36,10.92-6.16Zm-27.96,22.48c1.91-1.58,4.59-1.57,7.02-2.17-.41.7-.87,1.35-1.44,1.9-.44.44-.94.82-1.51,1.14-.36.2-.73.36-1.11.5-.38.14-.78.25-1.18.35-.8.19-1.63.32-2.45.47-.37.07-.74.14-1.11.22.44-.92.99-1.75,1.79-2.4Z"/><path class="cls-19" d="m110.59,95.96c-.9-.66-2.16-.48-2.82.42-.66.9-.48,2.16.42,2.82.9.66,2.16.48,2.82-.42s.48-2.16-.42-2.82Z"/><path class="cls-19" d="m107.2,100.23c-.57-.42-1.25-.58-1.91-.52.75-1.06.65-2.47-.16-3.43.36-.12.68-.35.92-.67.53-.71.48-1.67-.04-2.33.27-.16.52-.37.72-.64.79-1.06.57-2.57-.5-3.36-.57-.42-1.26-.55-1.9-.42.15-1.18-.31-2.4-1.33-3.16-1.51-1.12-3.63-.8-4.75.7-.15.2-.27.42-.37.65-1.12-.36-2.39,0-3.12.99-.56.75-.68,1.68-.42,2.51-.6.17-1.15.52-1.54,1.06-.97,1.3-.69,3.14.61,4.11.04.03.07.04.11.07-.12.09-.23.19-.32.31-.54.73-.39,1.77.34,2.31.07.05.15.1.23.14-.31.2-.59.45-.82.76-.26.35-.44.74-.53,1.14-.27.16-.51.37-.71.64-.78,1.06-.56,2.55.49,3.34.46.34,1,.48,1.53.46.06.87.48,1.72,1.24,2.28.33.24.68.4,1.05.5-.29.15-.55.36-.75.63-.72.98-.52,2.36.46,3.08.98.72,2.36.52,3.08-.46.44-.6.54-1.35.32-2,.14-.11.27-.22.38-.37.52-.69.48-1.62-.02-2.28.2-.32.33-.67.4-1.02.53.27,1.1.38,1.67.36.05.38.21.75.49,1.04-.39.15-.75.41-1.02.77-.77,1.03-.55,2.49.48,3.26,1.03.77,2.49.55,3.26-.48.76-1.02.55-2.46-.45-3.23.2-.12.38-.28.53-.48.29-.4.4-.87.34-1.33.96.13,1.96-.24,2.58-1.08.91-1.22.65-2.94-.57-3.85Z"/><path class="cls-4" d="m87.81,112.8c3.09-4.15,1.38-10.01,2.18-15.13.49-3.14,1.96-6.04,2.82-9.1.86-3.06,1.01-6.62-.89-9.16-1.64-2.19-4.42-3.14-6.66-4.71-3.95-2.77-6.26-7.5-10.39-9.99-3.02-1.82-6.85-2.23-10.18-1.08-3.51,1.21-6.3,3.85-9.73,5.24-3.82,1.55-7.9,2.05-11.5,4.25-3.32,2.02-6.09,5.31-6.49,9.17-.34,3.28,1.03,6.55.72,9.83-.39,4.27-3.57,8.21-2.77,12.42.47,2.49,2.29,4.53,4.34,6.03,2.05,1.5,4.37,2.57,6.47,3.99,2.12,1.43,4.01,3.21,6.18,4.57,2.17,1.36,4.78,2.29,7.29,1.79,2.35-.47,4.27-2.11,6.45-3.11,6.92-3.15,16.86,2.09,22.15-5Z"/><path class="cls-7" d="m76.36,66.72c1.15,1.07,2.06,2.38,3.08,3.57,1.95,2.28,4.33,4.19,6.98,5.59,2.02,1.06,3.59,1.87,4.95,3.71,1.28,1.73,1.61,3.84,1.22,5.94-.45,2.43-1.64,4.66-2.33,7.04-1.06,3.65-.91,7.53-1.21,11.33-.3,3.79-1.17,7.77-3.79,10.53-.56.59-1.2,1.11-1.94,1.43-2.99,1.29-6.26-1.02-9.51-1.29-3.07-.26-5.96,1.32-8.7,2.75-2.74,1.42-5.82,2.77-8.81,2.02-3.97-1-6.13-5.2-9.33-7.76-3.05-2.43-7.38-3.66-8.96-7.22-1.13-2.56-.42-5.51.02-8.28.41-2.56.56-5.15.46-7.74-.03-.66-.07-1.33.09-1.97.37-1.47,1.69-2.47,2.95-3.32,2.7-1.82,5.66-3.64,7.04-6.6.46-.99.72-2.08,1.27-3.03,1.13-1.99,3.32-3.12,5.48-3.91s4.43-1.37,6.29-2.71c2.26-1.63,4.21-3.05,7.12-3.04,2.79.01,5.59,1.05,7.63,2.96Z"/><circle class="cls-4" cx="62.58" cy="92.28" r="14.31" transform="translate(-30.77 31.31) rotate(-22.71)"/><circle class="cls-11" cx="62.87" cy="92" r="13.72"/><path class="cls-3" d="m49.89,88.79c-.4,2-.2,4.09.32,6.07,1.81,6.92,8.81,9.65,15.5,8.16,5.69-1.27,10.85-5.6,10.14-11.89-1.71-14.98-23.13-16.34-25.95-2.34Z"/><path class="cls-2" d="m61.77,97.57c-3.31.03-6.6-1.21-8.61-3.93-4.13-5.58-.35-12.01,6.7-13.42,2.28-.46,4.71-.75,6.94-.13,5.34,1.48,7.22,7.35,5.2,11.62-1.76,3.73-6.02,5.82-10.23,5.86Z"/><path class="cls-12" d="m63.17,85.32c0,1.54-1.49,2.79-3.32,2.79s-3.32-1.25-3.32-2.79,1.49-2.79,3.32-2.79,3.32,1.25,3.32,2.79Z"/><circle class="cls-4" cx="78.4" cy="95.57" r=".37"/><path class="cls-4" d="m78.4,100.17c0,.29-.24.53-.53.53s-.53-.24-.53-.53.24-.53.53-.53.53.24.53.53Z"/><path class="cls-4" d="m83.83,101.36c0,.36-.29.65-.65.65s-.65-.29-.65-.65.29-.65.65-.65.65.29.65.65Z"/><path class="cls-4" d="m89.83,79.53c0,.53-.43.97-.97.97s-.97-.43-.97-.97.43-.97.97-.97.97.43.97.97Z"/><path class="cls-4" d="m91.64,81.36c0,.22-.18.41-.41.41s-.41-.18-.41-.41.18-.41.41-.41.41.18.41.41Z"/><circle class="cls-4" cx="67.38" cy="75.13" r=".68"/><path class="cls-4" d="m73.2,66.44c0,.31-.25.56-.56.56s-.56-.25-.56-.56.25-.56.56-.56.56.25.56.56Z"/><path class="cls-4" d="m41.42,86.84c0,.32-.26.58-.58.58s-.58-.26-.58-.58.26-.58.58-.58.58.26.58.58Z"/><path class="cls-4" d="m41.02,94.27c0,.21-.17.38-.38.38s-.38-.17-.38-.38.17-.38.38-.38.38.17.38.38Z"/><path class="cls-5" d="m77.77,20.17c1.05,3.62-.95,7.86-4.41,9.36-2.63,1.14-5.91.86-8.08,2.73-1.87,1.61-2.31,4.3-3.63,6.38-3.56,5.58-12.29,5.42-16.47,10.54-3.31,4.05-3.21,10.77-7.78,13.32-2.86,1.59-6.72.92-9.25,3-2.15,1.77-2.53,4.87-3.8,7.36-1.62,3.17-4.94,5.42-8.49,5.73l-11.86-14.05c3.55-.32,6.87-2.56,8.49-5.73,1.27-2.49,1.64-5.59,3.8-7.36,2.53-2.08,6.39-1.41,9.25-3,4.57-2.55,4.47-9.26,7.78-13.32,4.19-5.12,12.92-4.96,16.47-10.54,1.33-2.08,1.76-4.77,3.63-6.38,2.17-1.87,5.45-1.59,8.08-2.73,3.46-1.5,5.46-5.74,4.41-9.36l11.86,14.05Z"/><path class="cls-13" d="m77.36,19.68l-10.15-12.02c-.27.39-.51.83-.71,1.34-.34.88-.66,1.68-1.01,2.39-.35.8-.82,1.54-1.4,2.19,0,0-.01.01-.02.02-.71.8-1.57,1.45-2.56,1.88-.03.01-.07.02-.11.04-.25.12-.51.23-.8.34-2.63,1.01-5.51,1.72-7.51,3.7-1.61,1.59-2.43,3.79-3.66,5.68-1.34,2.06-3.2,3.78-5.37,4.96-2.54,1.38-5.41,1.98-8.15,2.91-.24.08-.49.17-.73.26-.68.52-1.32,1.09-1.86,1.76-3.31,4.05-3.21,10.77-7.78,13.32-2.86,1.59-6.72.92-9.25,3-2.15,1.77-2.53,4.87-3.8,7.36-1.07,2.09-2.88,3.77-5.01,4.76,0,0,0,0,0,0,.11.27.33.47.55.65,2.69,2.29,5.53,4.4,8.5,6.3.44.28.98.57,1.46.37.33-.14.53-.47.7-.79,1.39-2.61,2.32-5.81,4.94-7.19,1.54-.82,3.36-.81,5.07-1.16,3.08-.62,5.9-2.46,7.71-5.03,1.7-2.42,2.48-5.34,3.57-8.08,1.09-2.74,2.67-5.51,5.31-6.85,2.39-1.21,5.21-1.04,7.83-1.57,3.67-.75,7.01-2.97,9.12-6.07.99-1.46,1.74-3.13,3.09-4.27,1.85-1.58,4.46-1.84,6.67-2.86,3.35-1.55,4.96-4.28,5.37-7.34Z"/><path class="cls-10" d="m6.55,67.57l1.38,1.64c2.75-1.06,5.13-3.12,6.46-5.74.46-.91.81-1.88,1.15-2.81.64-1.78,1.25-3.45,2.54-4.51,1.24-1.02,2.93-1.31,4.72-1.62,1.6-.28,3.25-.56,4.73-1.39,3.1-1.73,4.32-5.02,5.49-8.2.77-2.09,1.56-4.25,2.88-5.86,1.91-2.34,4.84-3.54,7.94-4.81,3.51-1.44,7.13-2.93,9.24-6.23.56-.88.98-1.84,1.37-2.77.61-1.41,1.18-2.75,2.21-3.64,1.17-1.01,2.78-1.33,4.5-1.67,1.21-.24,2.47-.49,3.64-1,3.06-1.32,5.12-4.42,5.43-7.69l-2.2-2.6c.9,3.25-.93,7.11-4.03,8.45-.98.43-2.08.65-3.24.88-1.89.38-3.84.77-5.41,2.12-1.38,1.19-2.07,2.8-2.74,4.36-.38.89-.74,1.74-1.22,2.48-1.76,2.77-4.95,4.07-8.31,5.45-3.19,1.31-6.5,2.67-8.73,5.39-1.53,1.87-2.39,4.19-3.21,6.44-1.09,2.97-2.13,5.78-4.58,7.15-1.19.66-2.6.91-4.1,1.17-1.97.34-4.01.69-5.65,2.05-1.71,1.41-2.44,3.42-3.14,5.38-.33.92-.65,1.79-1.05,2.58-1.22,2.4-3.49,4.22-6.07,5.01Z"/><path class="cls-10" d="m76.58,18.76l-1.7-2.01c-.17,2.68-1.84,5.31-4.31,6.38-1,.43-2.11.66-3.29.89-1.92.38-3.9.78-5.48,2.15-1.4,1.21-2.1,2.84-2.78,4.42-.39.9-.75,1.76-1.24,2.52-1.79,2.81-5.02,4.13-8.44,5.54-3.24,1.33-6.59,2.7-8.85,5.47-1.55,1.9-2.42,4.25-3.25,6.53-1.11,3.02-2.16,5.87-4.66,7.26-1.21.67-2.64.92-4.16,1.18-2,.35-4.06.7-5.73,2.08-1.73,1.42-2.47,3.47-3.18,5.45-.34.93-.66,1.81-1.07,2.62-1.25,2.44-3.57,4.3-6.2,5.1l1.39,1.64c2.8-1.07,5.23-3.16,6.59-5.83.47-.92.83-1.9,1.17-2.85.65-1.8,1.27-3.51,2.58-4.58,1.26-1.04,2.98-1.33,4.8-1.65,1.62-.28,3.29-.57,4.8-1.41,3.14-1.75,4.37-5.09,5.56-8.31.78-2.12,1.59-4.31,2.93-5.95,1.94-2.37,4.91-3.59,8.06-4.88,3.56-1.46,7.23-2.97,9.37-6.31.57-.9.99-1.87,1.39-2.81.62-1.44,1.2-2.79,2.25-3.7,1.19-1.02,2.83-1.35,4.57-1.7,1.23-.25,2.5-.5,3.69-1.02,2.6-1.12,4.48-3.51,5.21-6.21Z"/><path class="cls-23" d="m16.99,66.96c.45-.88.79-1.83,1.13-2.75.67-1.84,1.3-3.58,2.69-4.73,1.34-1.1,3.1-1.41,4.96-1.73,1.56-.27,3.17-.55,4.58-1.33,2.94-1.64,4.12-4.84,5.26-7.94.78-2.13,1.59-4.33,2.96-6.01,1.99-2.43,5.11-3.72,8.13-4.96,3.44-1.41,6.99-2.87,9.01-6.03.54-.85.94-1.79,1.33-2.7.63-1.47,1.22-2.85,2.34-3.82,1.27-1.09,2.95-1.43,4.73-1.78,1.19-.24,2.41-.48,3.54-.97,3.09-1.34,5.1-4.59,5.16-7.9l-1.09-1.29c.51,3.3-1.4,6.94-4.47,8.28-1.03.45-2.21.68-3.34.91-1.83.37-3.72.74-5.18,2.01-1.29,1.12-1.96,2.68-2.61,4.18-.37.87-.76,1.77-1.26,2.55-1.85,2.9-5.1,4.23-8.54,5.65-3.14,1.29-6.38,2.62-8.53,5.25-1.48,1.81-2.32,4.09-3.13,6.3-1.13,3.06-2.19,5.95-4.81,7.41-1.26.7-2.79.97-4.26,1.22-1.91.33-3.87.67-5.42,1.94-1.6,1.32-2.31,3.27-2.99,5.16-.32.89-.66,1.82-1.08,2.64-1.24,2.43-3.5,4.3-6.08,5.17l.69.82c2.67-1.01,4.98-3,6.28-5.54Z"/><path class="cls-5" d="m84.46,38.09c1.05,3.62-.95,7.86-4.41,9.36-2.63,1.14-5.91.86-8.08,2.73-1.87,1.61-2.31,4.3-3.63,6.38-3.56,5.58-12.29,5.42-16.47,10.54-3.31,4.05-3.21,10.77-7.78,13.32-2.86,1.59-6.72.92-9.25,3-2.15,1.77-2.53,4.87-3.8,7.36-1.62,3.17-4.94,5.42-8.49,5.73l-11.86-14.05c3.55-.32,6.87-2.56,8.49-5.73,1.27-2.49,1.64-5.59,3.8-7.36,2.53-2.08,6.39-1.41,9.25-3,4.57-2.55,4.47-9.26,7.78-13.32,4.19-5.12,12.92-4.96,16.47-10.54,1.33-2.08,1.76-4.77,3.63-6.38,2.17-1.87,5.45-1.59,8.08-2.73,3.46-1.5,5.46-5.74,4.41-9.36l11.86,14.05Z"/><path class="cls-13" d="m84.04,37.6l-10.15-12.02c-.27.39-.51.83-.71,1.34-.34.89-.66,1.68-1.01,2.39-.35.8-.82,1.54-1.4,2.19,0,0-.01.01-.02.02-.71.8-1.57,1.45-2.56,1.88-.03.01-.07.02-.11.04-.25.12-.51.23-.8.34-2.63,1.01-5.51,1.72-7.51,3.7-1.61,1.59-2.43,3.79-3.66,5.68-1.34,2.06-3.2,3.78-5.37,4.96-2.54,1.38-5.41,1.98-8.15,2.91-.24.08-.49.17-.73.26-.68.51-1.31,1.09-1.86,1.76-3.31,4.05-3.21,10.77-7.78,13.32-2.86,1.59-6.72.92-9.25,3-2.15,1.77-2.53,4.87-3.8,7.36-1.07,2.09-2.88,3.77-5.01,4.76,0,0,0,0,0,0,.11.27.33.47.55.65,2.69,2.29,5.53,4.4,8.5,6.3.44.28.98.57,1.46.37.33-.14.53-.47.7-.79,1.39-2.61,2.32-5.81,4.94-7.19,1.54-.82,3.36-.81,5.07-1.16,3.08-.62,5.9-2.46,7.71-5.03,1.7-2.42,2.48-5.34,3.57-8.08,1.09-2.74,2.67-5.51,5.31-6.85,2.39-1.21,5.21-1.04,7.83-1.57,3.67-.75,7.01-2.97,9.12-6.07.99-1.46,1.74-3.13,3.08-4.27,1.85-1.58,4.46-1.84,6.67-2.86,3.35-1.55,4.96-4.28,5.37-7.34Z"/><path class="cls-10" d="m13.24,85.49l1.38,1.64c2.75-1.06,5.13-3.12,6.46-5.74.46-.91.81-1.88,1.15-2.81.64-1.78,1.25-3.45,2.54-4.51,1.24-1.02,2.93-1.31,4.72-1.62,1.6-.28,3.25-.56,4.73-1.39,3.1-1.73,4.32-5.02,5.49-8.2.77-2.09,1.56-4.25,2.88-5.86,1.91-2.34,4.84-3.54,7.94-4.81,3.51-1.44,7.13-2.93,9.24-6.23.56-.88.98-1.84,1.37-2.77.61-1.41,1.18-2.75,2.21-3.64,1.17-1.01,2.78-1.33,4.5-1.67,1.21-.24,2.47-.49,3.64-1,3.06-1.32,5.12-4.42,5.43-7.69l-2.2-2.6c.9,3.25-.93,7.11-4.03,8.45-.98.43-2.08.65-3.24.88-1.89.38-3.84.77-5.41,2.12-1.38,1.19-2.07,2.8-2.74,4.36-.38.89-.74,1.74-1.22,2.48-1.76,2.77-4.95,4.07-8.31,5.45-3.19,1.31-6.5,2.67-8.73,5.39-1.53,1.87-2.39,4.19-3.21,6.44-1.09,2.97-2.13,5.78-4.58,7.15-1.19.66-2.6.91-4.1,1.17-1.97.34-4.01.69-5.65,2.05-1.71,1.41-2.44,3.42-3.14,5.38-.33.92-.65,1.79-1.05,2.58-1.22,2.4-3.49,4.22-6.07,5.01Z"/><path class="cls-10" d="m83.27,36.68l-1.69-2.01c-.17,2.68-1.84,5.31-4.31,6.38-1,.43-2.11.66-3.29.89-1.92.38-3.9.78-5.48,2.15-1.4,1.21-2.1,2.84-2.78,4.42-.39.9-.75,1.76-1.24,2.52-1.79,2.81-5.02,4.13-8.44,5.54-3.24,1.33-6.59,2.7-8.85,5.47-1.55,1.9-2.42,4.25-3.25,6.53-1.11,3.02-2.16,5.87-4.66,7.26-1.21.67-2.64.92-4.17,1.18-2,.35-4.06.7-5.73,2.08-1.73,1.42-2.47,3.47-3.18,5.45-.34.93-.66,1.81-1.07,2.62-1.25,2.44-3.57,4.3-6.2,5.1l1.39,1.64c2.8-1.07,5.23-3.16,6.59-5.83.47-.92.83-1.9,1.17-2.85.65-1.8,1.27-3.51,2.58-4.58,1.26-1.04,2.98-1.34,4.8-1.65,1.62-.28,3.29-.57,4.8-1.41,3.14-1.75,4.37-5.09,5.56-8.31.78-2.12,1.59-4.31,2.93-5.95,1.94-2.37,4.91-3.59,8.06-4.88,3.56-1.46,7.23-2.97,9.37-6.31.57-.9.99-1.87,1.39-2.81.62-1.44,1.2-2.79,2.25-3.7,1.19-1.02,2.83-1.35,4.57-1.7,1.23-.25,2.5-.5,3.69-1.02,2.6-1.12,4.48-3.51,5.21-6.21Z"/><path class="cls-23" d="m23.67,84.88c.45-.88.79-1.83,1.13-2.75.67-1.84,1.3-3.58,2.69-4.73,1.34-1.1,3.1-1.41,4.96-1.73,1.56-.27,3.17-.55,4.58-1.33,2.94-1.64,4.12-4.84,5.26-7.94.78-2.13,1.59-4.33,2.96-6.01,1.99-2.43,5.11-3.72,8.13-4.96,3.44-1.41,6.99-2.87,9.01-6.03.54-.85.94-1.79,1.33-2.7.63-1.47,1.22-2.85,2.34-3.82,1.27-1.09,2.95-1.43,4.73-1.78,1.19-.24,2.41-.48,3.54-.97,3.09-1.34,5.1-4.59,5.16-7.9l-1.09-1.29c.51,3.3-1.4,6.94-4.47,8.28-1.03.45-2.21.68-3.34.91-1.83.37-3.72.74-5.18,2.01-1.29,1.12-1.96,2.68-2.61,4.18-.37.87-.76,1.77-1.26,2.55-1.85,2.9-5.1,4.23-8.54,5.65-3.14,1.29-6.38,2.62-8.53,5.25-1.48,1.81-2.32,4.09-3.13,6.3-1.13,3.06-2.19,5.95-4.81,7.41-1.26.7-2.79.97-4.26,1.22-1.91.33-3.87.67-5.42,1.94-1.6,1.32-2.31,3.27-2.99,5.16-.32.89-.66,1.81-1.08,2.64-1.24,2.43-3.5,4.3-6.08,5.17l.69.82c2.67-1.01,4.98-3,6.28-5.54Z"/><path class="cls-15" d="m113.67,32.97s-2.45,10.13-12.19,18.71-16.17,8.44-16.17,8.44l20.96-25.23,7.4-1.92Z"/><path class="cls-18" d="m82.62,57.35c8.96-10.71,17.21-19.84,26.66-30.12,2.35,1.31,4.47,3.05,4.4,5.73-8.25,10.06-17.86,19.46-28.36,27.15-.86-.42-2.23-1.88-2.27-2.84"/><path class="cls-16" d="m99.76,47.94c-4.58,4.37-9.4,8.49-14.44,12.18-1.86-1.19-2.69-2.76-2.69-2.76,5.84-6.98,11.38-13.29,17.15-19.69-.19,3.43-.23,6.85,0,10.27Z"/><path class="cls-1" d="m106.9,21.69c-1.11-1.99-3.35-3.3-5.63-3.29-6.51,11.04-12.95,22.42-19.46,33.47,1.82,2.6,4.53,5.07,7.61,5.86,6.48-11.34,12.34-24.04,17.49-36.04Z"/><path class="cls-9" d="m90.46,51.51l16.44-29.82c-1.11-1.99-3.35-3.3-5.63-3.29l-9.73,16.73c-3.24,5.61-6.48,11.21-9.73,16.73l2.89,1.55c1.9-.56,3.98-1.03,5.76-1.91Z"/><path class="cls-8" d="m98.96,36.09l7.94-14.4c-1.11-1.99-3.35-3.3-5.63-3.29l-9.73,16.73c-.17.29-.33.58-.5.86,2.64,0,5.28.05,7.92.08Z"/><path class="cls-6" d="m90.46,51.51s.23-.48.62-1.33c.41-.83.97-2.05,1.7-3.47.73-1.42,1.56-3.09,2.49-4.85.93-1.77,1.95-3.63,2.97-5.5,1.04-1.86,2.07-3.72,3.07-5.45.99-1.73,1.96-3.32,2.77-4.7.81-1.38,1.54-2.49,2.02-3.29.5-.79.79-1.23.79-1.23,0,0-.23.48-.62,1.33-.41.83-.97,2.05-1.7,3.47-.73,1.42-1.56,3.09-2.49,4.85-.93,1.77-1.95,3.63-2.97,5.5-1.04,1.86-2.07,3.72-3.07,5.44-.99,1.73-1.96,3.32-2.77,4.7-.81,1.38-1.54,2.49-2.02,3.29-.5.79-.79,1.23-.79,1.23Z"/><path class="cls-15" d="m123.46,65.36s-8.86-2.53-17.33-1.03c-8.47,1.5-12.28,4.65-12.28,4.65l17.76.37,11.86-3.99Z"/><polygon class="cls-18" points="123.46 65.36 125.24 71.91 95.06 73.52 93.85 68.98 123.46 65.36"/><path class="cls-16" d="m116.67,72.37c-3.19-1.97-6.56-3.64-10.18-4.93l-12.64,1.55,1.21,4.53,21.61-1.15Z"/><path class="cls-1" d="m127.82,77.39s-8.28-6.32-21.26-6.84c-12.98-.52-17.87,3.64-17.87,3.64l32.17,6.37,6.95-3.17Z"/><path class="cls-8" d="m88.34,78.03c13.71,2.67,25.86,4.56,39.68,6.58,1-2.5,1.55-5.19-.2-7.22-12.75-2.61-26.13-3.85-39.13-3.2-.41.87-.55,2.86.03,3.64"/><path class="cls-9" d="m107.58,74.54c-6.31-.51-12.64-.67-18.89-.35-.69,2.1-.35,3.84-.35,3.84,8.93,1.74,17.21,3.14,25.72,4.47-2.31-2.54-4.5-5.17-6.48-7.97Z"/><path class="cls-6" d="m127.82,77.39l-6.09-.85c-1.82-.27-3.96-.5-6.24-.77-2.29-.25-4.73-.51-7.17-.71-2.44-.21-4.89-.37-7.19-.5-1.15-.06-2.26-.11-3.31-.16-1.05-.04-2.05-.08-2.97-.1-1.84-.04-3.38-.09-4.46-.09-1.08-.02-1.69-.03-1.69-.03,0,0,.61-.06,1.69-.17,1.07-.08,2.61-.23,4.46-.28,1.85-.06,4.01-.11,6.32-.06,1.16.04,2.35.06,3.56.14,1.21.06,2.44.16,3.67.25,2.46.23,4.91.5,7.2.83,2.29.34,4.41.73,6.22,1.09,1.82.35,3.31.73,4.36.98,1.04.27,1.64.42,1.64.42Z"/><path class="cls-15" d="m118.61,50.5s-8.09-.43-13.55,4.59c-5.96,5.47-6.53,8.39-6.53,8.39l11.01-4.75,9.06-8.22Z"/><path class="cls-16" d="m118.61,50.5c.05.57,2.91,6.78,2.91,6.78l-19.34,9.88-3.65-3.69,20.08-12.97Z"/><path class="cls-18" d="m120.15,54.25c-.74-1.67-1.51-3.46-1.54-3.75l-3.37,2.17c1.69.25,3.42.75,4.91,1.58Z"/><path class="cls-18" d="m99.4,64.35l2.78,2.81,10.76-5.5c-4.51.88-9.03,1.78-13.54,2.68Z"/><path class="cls-1" d="m123.65,57.97c-.82.33-30.5,7.8-30.25,6.72.25-1.08,2.87-6.08,12.24-9.71,9.37-3.62,19.9,2.23,18.01,2.99Z"/><path class="cls-8" d="m123.65,57.97s-10.64-1.17-17.61.96c-6.97,2.13-12.64,5.76-12.64,5.76l.09.08c1.74.47,29.36-6.48,30.16-6.8Z"/><path class="cls-9" d="m108.06,61.87c-1.24-.82-2.49-1.61-3.74-2.37-6.16,2.15-10.92,5.19-10.92,5.19l.09.08c.83.23,7.63-1.26,14.56-2.9Z"/><path class="cls-6" d="m123.65,57.97s-.5,0-1.36-.02c-.87-.02-2.1,0-3.58,0-1.48,0-3.2.09-5.04.23-1.83.15-3.78.36-5.68.77-.96.19-1.86.45-2.8.76-.92.3-1.81.6-2.67.92-1.72.65-3.32,1.29-4.66,1.91-2.7,1.21-4.45,2.14-4.45,2.14,0,0,.39-.3,1.12-.78.73-.47,1.77-1.16,3.08-1.86,1.31-.7,2.86-1.51,4.59-2.23.86-.35,1.77-.72,2.7-1.02.91-.31,1.91-.61,2.89-.82.99-.21,1.98-.36,2.96-.47.98-.12,1.95-.17,2.88-.21,1.87-.07,3.61,0,5.1.09,2.98.2,4.93.58,4.93.58Z"/><path class="cls-1" d="m114.01,53.16c-10.76,5.99-23.22,8.9-35.53,8.41-.62-.87-.72-1.96-.54-3.01,11.76-5.37,23.53-10.75,35.29-16.12,1.15,3.64,1.85,7.06.78,10.72Z"/><path class="cls-9" d="m77.94,58.56l1.01,2.07s22.76-2.58,35.06-7.47c1.08-3.66.38-7.08-.78-10.72-11.76,5.37-23.53,10.75-35.29,16.12Z"/><path class="cls-8" d="m106.7,55.53c2.64-.72,5.13-1.5,7.3-2.37,1.08-3.66.38-7.08-.78-10.72-5.74,2.62-11.48,5.24-17.22,7.87,3.32,2.27,6.91,4.01,10.69,5.22Z"/><path class="cls-6" d="m78.94,60.63s.55-.1,1.52-.28c.97-.18,2.35-.43,4.01-.73,1.65-.3,3.58-.66,5.65-1.04,2.07-.38,4.27-.79,6.47-1.23,2.2-.42,4.39-.89,6.44-1.33,1.02-.23,2.01-.45,2.95-.66.93-.23,1.82-.45,2.63-.65.81-.22,1.55-.42,2.21-.6.66-.16,1.23-.35,1.7-.5.94-.28,1.48-.44,1.48-.44,0,0-.51.23-1.42.62-.45.19-1,.44-1.65.67-.64.24-1.37.52-2.17.78-1.61.52-3.49,1.11-5.54,1.63-1.03.24-2.08.53-3.17.76-1.08.23-2.18.48-3.29.69-2.21.42-4.43.82-6.51,1.12-2.08.32-4.04.53-5.72.73-3.36.36-5.61.46-5.61.46Z"/><path class="cls-14" d="m100.62,89.23c-.93,1.25-2.69,1.51-3.94.58-1.25-.93-1.51-2.69-.58-3.94.93-1.25,2.69-1.51,3.94-.58s1.51,2.69.58,3.94Z"/><path class="cls-14" d="m108.08,90.48c-.79,1.06-2.29,1.29-3.36.5-1.06-.79-1.29-2.29-.5-3.36.79-1.06,2.29-1.29,3.36-.5,1.06.79,1.29,2.29.5,3.36Z"/><path class="cls-14" d="m112.35,96.64c-.66.9-1.93,1.08-2.82.42-.9-.66-1.08-1.93-.42-2.82.66-.9,1.93-1.08,2.82-.42.9.66,1.08,1.93.42,2.82Z"/><path class="cls-14" d="m106.59,97.62c-.93,1.25-2.69,1.51-3.94.58-1.25-.93-1.51-2.69-.58-3.94.93-1.25,2.69-1.51,3.94-.58,1.25.93,1.51,2.69.58,3.94Z"/><path class="cls-14" d="m104.84,94.53c-1.34,1.8-3.89,2.18-5.69.84s-2.18-3.89-.84-5.69c1.34-1.8,3.89-2.18,5.69-.84,1.8,1.34,2.18,3.89.84,5.69Z"/><path class="cls-14" d="m101.57,97.4c-1.01,1.36-2.92,1.64-4.28.63-1.36-1.01-1.64-2.92-.63-4.28,1.01-1.36,2.92-1.64,4.28-.63,1.36,1.01,1.64,2.92.63,4.28Z"/><path class="cls-14" d="m97.2,95.91c-.54.73-1.58.89-2.31.34s-.89-1.58-.34-2.31c.54-.73,1.58-.89,2.31-.34.73.54.89,1.58.34,2.31Z"/><path class="cls-14" d="m99.36,100.9c-1.04,1.4-3.01,1.69-4.41.65-1.4-1.04-1.69-3.01-.65-4.41,1.04-1.4,3.01-1.69,4.41-.65,1.4,1.04,1.69,3.01.65,4.41Z"/><path class="cls-14" d="m106.19,104.33c-.6.81-1.75.98-2.57.38-.81-.6-.98-1.75-.38-2.57.6-.81,1.75-.98,2.57-.38.81.6.98,1.75.38,2.57Z"/><path class="cls-14" d="m100.85,106.39c-.62.84-1.81,1.02-2.65.39-.84-.62-1.02-1.81-.39-2.65s1.81-1.02,2.65-.39c.84.62,1.02,1.81.39,2.65Z"/><path class="cls-14" d="m105.59,102.05c-1.15,1.55-3.33,1.87-4.88.72-1.55-1.15-1.87-3.33-.72-4.88,1.15-1.55,3.33-1.87,4.88-.72s1.87,3.33.72,4.88Z"/><path class="cls-14" d="m100.68,104.36c-1.03,1.38-2.98,1.67-4.36.65-1.38-1.03-1.67-2.98-.65-4.36s2.98-1.67,4.36-.65c1.38,1.03,1.67,2.98.65,4.36Z"/><path class="cls-14" d="m106.1,108.04c-.77,1.03-2.22,1.25-3.26.48-1.03-.77-1.25-2.22-.48-3.26.77-1.03,2.22-1.25,3.26-.48,1.03.77,1.25,2.22.48,3.26Z"/><path class="cls-20" d="m98.86,92.95c-.97,1.3-2.8,1.58-4.11.61-1.3-.97-1.58-2.8-.61-4.11.97-1.3,2.8-1.58,4.11-.61s1.57,2.8.61,4.11Z"/><path class="cls-20" d="m102.75,100.64c-.85,1.14-2.45,1.38-3.59.53-1.14-.85-1.38-2.45-.53-3.59.85-1.14,2.45-1.38,3.59-.53,1.14.85,1.38,2.45.53,3.59Z"/><path class="cls-20" d="m96.89,101.77c-.78,1.06-2.28,1.28-3.34.49-1.06-.78-1.28-2.28-.49-3.34.78-1.06,2.28-1.28,3.34-.49s1.28,2.28.49,3.34Z"/><path class="cls-20" d="m107.39,93.46c-.63.85-1.84,1.03-2.7.4-.85-.63-1.03-1.84-.4-2.7.63-.85,1.84-1.03,2.7-.4.85.63,1.03,1.84.4,2.7Z"/><path class="cls-20" d="m105.05,88.29c-1.12,1.51-3.24,1.82-4.75.7-1.51-1.12-1.82-3.24-.7-4.75,1.12-1.51,3.24-1.82,4.75-.7,1.51,1.12,1.82,3.24.7,4.75Z"/><path class="cls-20" d="m109.11,101.93c-.91,1.22-2.63,1.48-3.85.57-1.22-.91-1.48-2.63-.57-3.85.91-1.22,2.63-1.48,3.85-.57,1.22.91,1.48,2.63.57,3.85Z"/><path class="cls-20" d="m100.15,108.76c-.72.98-2.1,1.18-3.08.46-.98-.72-1.18-2.1-.46-3.08.72-.98,2.1-1.18,3.08-.46.98.72,1.18,2.1.46,3.08Z"/><path class="cls-20" d="m103.14,94.87c-.69.94-2.02,1.13-2.95.44-.94-.69-1.13-2.02-.44-2.95.69-.94,2.02-1.13,2.95-.44.94.69,1.13,2.02.44,2.95Z"/><path class="cls-17" d="m104.61,87.05c-.57.77-1.67.94-2.44.36-.77-.57-.94-1.67-.36-2.44.57-.77,1.67-.94,2.44-.36.77.57.94,1.67.36,2.44Z"/><path class="cls-17" d="m98.43,92.1c-.48.65-1.4.79-2.05.3-.65-.48-.79-1.4-.3-2.05s1.4-.79,2.05-.3.79,1.4.3,2.05Z"/><path class="cls-17" d="m102.92,94.36c-.38.52-1.11.62-1.63.24-.52-.38-.62-1.11-.24-1.63.38-.52,1.11-.62,1.63-.24.52.38.62,1.11.24,1.63Z"/><path class="cls-17" d="m107.24,92.85c-.28.38-.82.46-1.2.18-.38-.28-.46-.82-.18-1.2.28-.38.82-.46,1.2-.18.38.28.46.82.18,1.2Z"/><path class="cls-17" d="m108.81,101.51c-.47.64-1.37.77-2.01.3-.64-.47-.77-1.37-.3-2.01.47-.64,1.37-.77,2.01-.3.64.47.77,1.37.3,2.01Z"/><path class="cls-17" d="m102.12,99.75c-.39.53-1.14.64-1.67.25-.53-.39-.64-1.14-.25-1.67.39-.53,1.14-.64,1.67-.25.53.39.64,1.14.25,1.67Z"/><path class="cls-17" d="m96.61,101.11c-.42.57-1.23.69-1.8.27-.57-.42-.69-1.23-.27-1.8.42-.57,1.23-.69,1.8-.27.57.42.69,1.23.27,1.8Z"/><path class="cls-17" d="m99.75,107.97c-.33.45-.96.54-1.41.21-.45-.33-.54-.96-.21-1.41s.96-.54,1.41-.21c.45.33.54.96.21,1.41Z"/></g></g></g></svg>