<svg width="27" height="32" viewBox="0 0 27 32" fill="none" xmlns="http://www.w3.org/2000/svg">
<path d="M23.1726 18.9814V5.64811C23.1726 4.94087 22.9401 4.26259 22.5262 3.76249C22.1124 3.2624 21.551 2.98145 20.9657 2.98145H5.51744C4.93214 2.98145 4.37081 3.2624 3.95693 3.76249C3.54306 4.26259 3.31055 4.94087 3.31055 5.64811V24.3148C3.31055 25.022 3.54306 25.7003 3.95693 26.2004C4.37081 26.7005 4.93214 26.9814 5.51744 26.9814H16.5519M23.1726 18.9814V19.2108C23.1725 19.918 22.9399 20.5961 22.526 21.0961L18.302 26.2001C17.8882 26.7002 17.327 26.9813 16.7417 26.9814H16.5519M23.1726 18.9814H18.7588C18.1735 18.9814 17.6122 19.2624 17.1983 19.7625C16.7844 20.2626 16.5519 20.9409 16.5519 21.6481V26.9814M7.72434 8.31478H18.7588M7.72434 13.6481H18.7588M7.72434 18.9814H12.1381" stroke="#4F3D21" stroke-width="2" stroke-linecap="round" stroke-linejoin="round"/>
</svg>
