<svg width="20" height="23" viewBox="0 0 20 23" fill="none" xmlns="http://www.w3.org/2000/svg">
<path d="M19.5303 14.4697L17.5 12.4395V9.75C17.4977 7.89138 16.8063 6.09964 15.5595 4.72124C14.3127 3.34284 12.5991 2.4757 10.75 2.2875V0.75H9.25V2.2875C7.40093 2.4757 5.68732 3.34284 4.44053 4.72124C3.19373 6.09964 2.50233 7.89138 2.5 9.75V12.4395L0.46975 14.4697C0.329088 14.6104 0.250042 14.8011 0.25 15V17.25C0.25 17.4489 0.329018 17.6397 0.46967 17.7803C0.610322 17.921 0.801088 18 1 18H6.25V18.5828C6.23369 19.5342 6.56905 20.4583 7.19184 21.1778C7.81462 21.8973 8.68102 22.3617 9.625 22.482C10.1464 22.5337 10.6728 22.4757 11.1704 22.3117C11.6681 22.1478 12.1259 21.8815 12.5144 21.53C12.9029 21.1785 13.2136 20.7495 13.4264 20.2707C13.6392 19.792 13.7494 19.2739 13.75 18.75V18H19C19.1989 18 19.3897 17.921 19.5303 17.7803C19.671 17.6397 19.75 17.4489 19.75 17.25V15C19.75 14.8011 19.6709 14.6104 19.5303 14.4697ZM12.25 18.75C12.25 19.3467 12.0129 19.919 11.591 20.341C11.169 20.7629 10.5967 21 10 21C9.40326 21 8.83097 20.7629 8.40901 20.341C7.98705 19.919 7.75 19.3467 7.75 18.75V18H12.25V18.75ZM18.25 16.5H1.75V15.3105L3.78025 13.2803C3.92091 13.1396 3.99996 12.9489 4 12.75V9.75C4 8.1587 4.63214 6.63258 5.75736 5.50736C6.88258 4.38214 8.4087 3.75 10 3.75C11.5913 3.75 13.1174 4.38214 14.2426 5.50736C15.3679 6.63258 16 8.1587 16 9.75V12.75C16 12.9489 16.0791 13.1396 16.2197 13.2803L18.25 15.3105V16.5Z" fill="#4F3D21"/>
</svg>
