<svg width="15" height="15" viewBox="0 0 15 15" fill="none" xmlns="http://www.w3.org/2000/svg">
<path d="M13.75 0H1.25C0.918479 0 0.600537 0.131696 0.366116 0.366116C0.131696 0.600537 0 0.918479 0 1.25V13.75C0 14.0815 0.131696 14.3995 0.366116 14.6339C0.600537 14.8683 0.918479 15 1.25 15H13.75C14.0815 15 14.3995 14.8683 14.6339 14.6339C14.8683 14.3995 15 14.0815 15 13.75V1.25C15 0.918479 14.8683 0.600537 14.6339 0.366116C14.3995 0.131696 14.0815 0 13.75 0ZM11.6922 10.8078C11.7503 10.8659 11.7963 10.9348 11.8277 11.0107C11.8592 11.0866 11.8753 11.1679 11.8753 11.25C11.8753 11.3321 11.8592 11.4134 11.8277 11.4893C11.7963 11.5652 11.7503 11.6341 11.6922 11.6922C11.6341 11.7503 11.5652 11.7963 11.4893 11.8277C11.4134 11.8592 11.3321 11.8753 11.25 11.8753C11.1679 11.8753 11.0866 11.8592 11.0107 11.8277C10.9348 11.7963 10.8659 11.7503 10.8078 11.6922L7.5 8.38359L4.19219 11.6922C4.07491 11.8095 3.91585 11.8753 3.75 11.8753C3.58415 11.8753 3.42509 11.8095 3.30781 11.6922C3.19054 11.5749 3.12465 11.4159 3.12465 11.25C3.12465 11.0841 3.19054 10.9251 3.30781 10.8078L6.61641 7.5L3.30781 4.19219C3.19054 4.07491 3.12465 3.91585 3.12465 3.75C3.12465 3.58415 3.19054 3.42509 3.30781 3.30781C3.42509 3.19054 3.58415 3.12465 3.75 3.12465C3.91585 3.12465 4.07491 3.19054 4.19219 3.30781L7.5 6.61641L10.8078 3.30781C10.9251 3.19054 11.0841 3.12465 11.25 3.12465C11.4159 3.12465 11.5749 3.19054 11.6922 3.30781C11.8095 3.42509 11.8753 3.58415 11.8753 3.75C11.8753 3.91585 11.8095 4.07491 11.6922 4.19219L8.38359 7.5L11.6922 10.8078Z" fill="#4F3D21"/>
</svg>
