<svg width="61" height="60" viewBox="0 0 61 60" fill="none" xmlns="http://www.w3.org/2000/svg">
<g clip-path="url(#clip0_1323_1053)">
<path d="M4.07008 58.7034C7.63011 57.6251 14.3367 55.8617 16.8902 54.8284C18.9507 53.9934 21.0213 53.2134 21.9973 52.2551C22.9716 51.2967 22.8954 49.6667 21.899 48.6834C21.899 48.6834 19.0608 44.5684 17.1834 43.0934C15.6889 41.2467 11.4951 38.4517 11.4951 38.4517C10.4954 37.4684 8.83994 37.3934 7.86394 38.3517C6.88963 39.3117 6.09663 41.3484 5.24772 43.3767C4.19716 45.8867 2.40783 52.4851 1.30813 55.9867C1.12174 56.5851 3.46177 58.8867 4.07008 58.7034Z" fill="#D99E82"/>
<path d="M53.9142 20.9091C53.4506 21.3653 50.823 23.3896 50.2173 23.6364C49.6115 23.8833 49.1312 24.1771 48.4755 24.1771C47.8198 24.1771 47.1705 24.05 46.5648 23.8032C45.959 23.5563 45.4087 23.1945 44.9451 22.7384L37.8827 15.7934C36.947 14.8721 36.4214 13.6231 36.4214 12.3209C36.4214 11.0186 38.6014 8.19406 39.5371 7.27277L44.9451 1.90169C45.8817 0.981329 47.1515 0.464355 48.4755 0.464355C49.7994 0.464355 51.0692 0.981329 52.0059 1.90169L59.0666 8.84669C59.5303 9.30265 59.8982 9.844 60.1491 10.4398C60.4001 11.0356 60.5293 11.6743 60.5293 12.3192C60.5293 12.9641 60.4001 13.6027 60.1491 14.1986C59.8982 14.7944 59.5303 15.3357 59.0666 15.7917L53.9142 20.9091Z" fill="#FFF1C0"/>
<path d="M2.09606 53.4634C2.09606 53.4634 -0.426963 57.9784 0.81337 59.1984C2.0537 60.4184 6.63379 57.9234 6.63379 57.9234C6.63379 57.9234 6.55245 53.6467 2.09606 53.4634Z" fill="#FFF1C0"/>
<path d="M21.9973 52.255L14.9315 45.305L7.87412 38.3667L39.4342 7.27295L46.7254 14.5457L53.9139 20.9093L21.9973 52.255Z" fill="#FBD26A"/>
</g>
<defs>
<clipPath id="clip0_1323_1053">
<rect width="60" height="61" fill="white" transform="matrix(0 1 -1 0 61 0)"/>
</clipPath>
</defs>
</svg>
