<svg width="32" height="32" viewBox="0 0 32 32" fill="none" xmlns="http://www.w3.org/2000/svg">
<path d="M30.15 2.00005L30 1.85005C28.85 0.700049 26.95 0.700049 25.8 1.85005L20.8 6.90005C15.8 3.80005 9.15001 4.40005 4.80001 8.75005C-0.249988 13.8501 -0.249988 22.1001 4.80001 27.1501C9.85001 32.2501 18.1 32.2501 23.15 27.1501C27.45 22.8501 28.1 16.2001 25.1 11.2L30.15 6.15005C31.3 5.00005 31.3 3.15005 30.15 2.00005ZM27.8 6.05005C26.75 6.05005 25.95 5.20005 25.95 4.20005C25.95 3.15005 26.8 2.35005 27.8 2.35005C28.8 2.35005 29.65 3.20005 29.65 4.20005C29.65 5.25005 28.85 6.05005 27.8 6.05005Z" fill="#FBE2A1"/>
<path d="M6.10002 15.05C4.05002 19.6 5.50002 24.7 9.40002 26.45C13.25 28.2 18.05 25.9 20.1 21.35C22.15 16.8 20.7 11.7 16.8 9.94995C12.95 8.19995 8.15002 10.45 6.10002 15.05Z" fill="white"/>
<path d="M11.5 22C13.7091 22 15.5 20.2091 15.5 18C15.5 15.7909 13.7091 14 11.5 14C9.29086 14 7.5 15.7909 7.5 18C7.5 20.2091 9.29086 22 11.5 22Z" fill="#F8B551"/>
</svg>
