<svg width="62" height="30" viewBox="0 0 62 30" fill="none" xmlns="http://www.w3.org/2000/svg">
<rect width="61.92" height="30" rx="5" fill="#FFF1C0"/>
<path d="M13.6402 12H22.359L21.8378 20.3438C21.8139 20.7246 21.6458 21.082 21.3677 21.3433C21.0896 21.6045 20.7223 21.75 20.3408 21.75H15.6592C15.2777 21.75 14.9104 21.6045 14.6323 21.3433C14.3542 21.082 14.1861 20.7246 14.1622 20.3438L13.6402 12ZM23.25 9.75V11.25H12.75V9.75H15V9C15 8.60218 15.158 8.22064 15.4393 7.93934C15.7206 7.65804 16.1022 7.5 16.5 7.5H19.5C19.8978 7.5 20.2794 7.65804 20.5607 7.93934C20.842 8.22064 21 8.60218 21 9V9.75H23.25ZM16.5 9.75H19.5V9H16.5V9.75Z" fill="#4F3D21"/>
<path d="M29.395 9.782H30.578V10.926C30.578 13.214 29.434 15.164 27.263 15.905L26.522 14.748C28.433 14.111 29.395 12.577 29.395 10.926V9.782ZM29.681 9.782H30.851V11.056C30.851 12.564 31.813 13.994 33.62 14.579L32.905 15.723C30.812 15.021 29.681 13.175 29.681 11.056V9.782ZM34.478 9.184H35.934V16.386H34.478V9.184ZM35.544 12.174H37.598V13.383H35.544V12.174ZM28.069 16.932H35.934V21.105H34.478V18.102H28.069V16.932ZM47.373 9.171H48.751V21.092H47.373V9.171ZM43.265 13.331H45.371V14.514H43.265V13.331ZM44.968 9.405H46.333V20.52H44.968V9.405ZM40.821 11.082H41.926V12.434C41.926 15.073 41.068 17.66 39.248 18.804L38.364 17.738C40.08 16.672 40.821 14.527 40.821 12.434V11.082ZM41.133 11.082H42.225V12.434C42.225 14.449 42.94 16.477 44.63 17.465L43.772 18.518C41.939 17.426 41.133 14.995 41.133 12.434V11.082ZM38.767 10.458H44.136V11.628H38.767V10.458Z" fill="#4F3D21"/>
</svg>
