<svg width="27" height="32" viewBox="0 0 27 32" fill="none" xmlns="http://www.w3.org/2000/svg">
<path d="M23.1724 18.9817V5.64836C23.1724 4.94111 22.9399 4.26283 22.526 3.76274C22.1122 3.26264 21.5508 2.98169 20.9655 2.98169H5.51726C4.93195 2.98169 4.37062 3.26264 3.95675 3.76274C3.54288 4.26283 3.31036 4.94111 3.31036 5.64836V24.315C3.31036 25.0223 3.54288 25.7005 3.95675 26.2006C4.37062 26.7007 4.93195 26.9817 5.51726 26.9817H16.5517M23.1724 18.9817V19.211C23.1723 19.9182 22.9397 20.5964 22.5258 21.0964L18.3018 26.2004C17.888 26.7005 17.3268 26.9815 16.7415 26.9817H16.5517M23.1724 18.9817H18.7586C18.1733 18.9817 17.612 19.2626 17.1981 19.7627C16.7843 20.2628 16.5517 20.9411 16.5517 21.6484V26.9817M7.72416 8.31502H18.7586M7.72416 13.6484H18.7586M7.72416 18.9817H12.1379" stroke="#FFF1C0" stroke-width="2" stroke-linecap="round" stroke-linejoin="round"/>
</svg>
