<svg width="22" height="22" viewBox="0 0 22 22" fill="none" xmlns="http://www.w3.org/2000/svg">
<circle cx="11" cy="11" r="11" fill="white"/>
<path fill-rule="evenodd" clip-rule="evenodd" d="M11 19C15.4183 19 19 15.4183 19 11C19 6.58172 15.4183 3 11 3C6.58172 3 3 6.58172 3 11C3 15.4183 6.58172 19 11 19ZM7.00095 7.57218C7.00095 7.72393 7.06124 7.86946 7.16855 7.97677L10.1908 10.9998L7.1676 14.0232C7.06029 14.1305 7 14.2761 7 14.4278C7 14.5796 7.06029 14.7251 7.1676 14.8324C7.27491 14.9397 7.42045 15 7.57221 15C7.72397 15 7.86951 14.9397 7.97682 14.8324L11 11.8089L14.0222 14.8319C14.1295 14.9392 14.2751 14.9995 14.4268 14.9995C14.5786 14.9995 14.7241 14.9392 14.8315 14.8319C14.9388 14.7246 14.999 14.5791 14.999 14.4273C14.999 14.2756 14.9388 14.1301 14.8315 14.0228L11.8092 10.9998L14.8324 7.97772C14.9397 7.87041 15 7.72488 15 7.57313C15 7.42138 14.9397 7.27584 14.8324 7.16854C14.7251 7.06123 14.5795 7.00095 14.4278 7.00095C14.276 7.00095 14.1305 7.06123 14.0232 7.16854L11 10.1906L7.97777 7.16759C7.87046 7.06028 7.72492 7 7.57316 7C7.4214 7 7.27586 7.06028 7.16855 7.16759C7.06124 7.27489 7.00095 7.42043 7.00095 7.57218Z" fill="#FBD26A"/>
<path d="M7.16855 7.97677C7.06124 7.86946 7.00095 7.72393 7.00095 7.57218C7.00095 7.42043 7.06124 7.27489 7.16855 7.16759C7.27586 7.06028 7.4214 7 7.57316 7C7.72492 7 7.87046 7.06028 7.97777 7.16759L11 10.1906L14.0232 7.16854C14.1305 7.06123 14.276 7.00095 14.4278 7.00095C14.5795 7.00095 14.7251 7.06123 14.8324 7.16854C14.9397 7.27584 15 7.42138 15 7.57313C15 7.72488 14.9397 7.87041 14.8324 7.97772L11.8092 10.9998L14.8315 14.0228C14.9388 14.1301 14.999 14.2756 14.999 14.4273C14.999 14.5791 14.9388 14.7246 14.8315 14.8319C14.7241 14.9392 14.5786 14.9995 14.4268 14.9995C14.2751 14.9995 14.1295 14.9392 14.0222 14.8319L11 11.8089L7.97682 14.8324C7.86951 14.9397 7.72397 15 7.57221 15C7.42045 15 7.27491 14.9397 7.1676 14.8324C7.06029 14.7251 7 14.5796 7 14.4278C7 14.2761 7.06029 14.1305 7.1676 14.0232L10.1908 10.9998L7.16855 7.97677Z" fill="white"/>
</svg>
