<svg width="16" height="16" viewBox="0 0 16 16" fill="none" xmlns="http://www.w3.org/2000/svg">
<g clip-path="url(#clip0_1187_740)">
<rect x="-1.33301" y="-1.33325" width="20" height="20" rx="2" fill="#FBD26A"/>
<path d="M2.96 2.96C3.05275 2.86711 3.16291 2.79342 3.28416 2.74315C3.40542 2.69287 3.5354 2.66699 3.66666 2.66699C3.79793 2.66699 3.92791 2.69287 4.04917 2.74315C4.17042 2.79342 4.28058 2.86711 4.37333 2.96L8 6.58533L11.6267 2.96C11.7195 2.8672 11.8296 2.79358 11.9509 2.74336C12.0721 2.69314 12.2021 2.66729 12.3333 2.66729C12.4646 2.66729 12.5945 2.69314 12.7158 2.74336C12.837 2.79358 12.9472 2.8672 13.04 2.96C13.1328 3.0528 13.2064 3.16297 13.2566 3.28422C13.3069 3.40547 13.3327 3.53542 13.3327 3.66666C13.3327 3.7979 13.3069 3.92786 13.2566 4.04911C13.2064 4.17036 13.1328 4.28053 13.04 4.37333L9.41466 8L13.04 11.6267C13.2274 11.8141 13.3327 12.0683 13.3327 12.3333C13.3327 12.5984 13.2274 12.8526 13.04 13.04C12.8526 13.2274 12.5984 13.3327 12.3333 13.3327C12.0683 13.3327 11.8141 13.2274 11.6267 13.04L8 9.41466L4.37333 13.04C4.18591 13.2274 3.93172 13.3327 3.66666 13.3327C3.40161 13.3327 3.14742 13.2274 2.96 13.04C2.77258 12.8526 2.66729 12.5984 2.66729 12.3333C2.66729 12.0683 2.77258 11.8141 2.96 11.6267L6.58533 8L2.96 4.37333C2.86711 4.28058 2.79342 4.17042 2.74315 4.04917C2.69287 3.92791 2.66699 3.79793 2.66699 3.66666C2.66699 3.5354 2.69287 3.40542 2.74315 3.28416C2.79342 3.16291 2.86711 3.05275 2.96 2.96Z" fill="#7E7463"/>
</g>
<defs>
<clipPath id="clip0_1187_740">
<rect width="16" height="16" rx="2" fill="white"/>
</clipPath>
</defs>
</svg>
