<svg width="30" height="30" viewBox="0 0 30 30" fill="none" xmlns="http://www.w3.org/2000/svg">
<path d="M15 27.3662C8.09625 27.3662 2.5 21.77 2.5 14.8662C2.5 7.96371 8.09625 2.36621 15 2.36621C21.9037 2.36621 27.5 7.96371 27.5 14.8662C27.5 21.77 21.9037 27.3662 15 27.3662ZM15 8.61621C14.6685 8.61621 14.3505 8.74791 14.1161 8.98233C13.8817 9.21675 13.75 9.53469 13.75 9.86621V16.1162C13.75 16.4477 13.8817 16.7657 14.1161 17.0001C14.3505 17.2345 14.6685 17.3662 15 17.3662C15.3315 17.3662 15.6495 17.2345 15.8839 17.0001C16.1183 16.7657 16.25 16.4477 16.25 16.1162V9.86621C16.25 9.53469 16.1183 9.21675 15.8839 8.98233C15.6495 8.74791 15.3315 8.61621 15 8.61621ZM15 21.1162C15.3315 21.1162 15.6495 20.9845 15.8839 20.7501C16.1183 20.5157 16.25 20.1977 16.25 19.8662C16.25 19.5347 16.1183 19.2167 15.8839 18.9823C15.6495 18.7479 15.3315 18.6162 15 18.6162C14.6685 18.6162 14.3505 18.7479 14.1161 18.9823C13.8817 19.2167 13.75 19.5347 13.75 19.8662C13.75 20.1977 13.8817 20.5157 14.1161 20.7501C14.3505 20.9845 14.6685 21.1162 15 21.1162Z" fill="#FF9A62"/>
</svg>
