<svg width="32" height="32" viewBox="0 0 32 32" fill="none" xmlns="http://www.w3.org/2000/svg">
<g clip-path="url(#clip0_980_2106)" filter="url(#filter0_d_980_2106)">
<g filter="url(#filter1_d_980_2106)">
<path d="M25 21L19 15M7 10C7 10.9193 7.18106 11.8295 7.53284 12.6788C7.88463 13.5281 8.40024 14.2997 9.05025 14.9497C9.70026 15.5998 10.4719 16.1154 11.3212 16.4672C12.1705 16.8189 13.0807 17 14 17C14.9193 17 15.8295 16.8189 16.6788 16.4672C17.5281 16.1154 18.2997 15.5998 18.9497 14.9497C19.5998 14.2997 20.1154 13.5281 20.4672 12.6788C20.8189 11.8295 21 10.9193 21 10C21 9.08075 20.8189 8.1705 20.4672 7.32122C20.1154 6.47194 19.5998 5.70026 18.9497 5.05025C18.2997 4.40024 17.5281 3.88463 16.6788 3.53284C15.8295 3.18106 14.9193 3 14 3C13.0807 3 12.1705 3.18106 11.3212 3.53284C10.4719 3.88463 9.70026 4.40024 9.05025 5.05025C8.40024 5.70026 7.88463 6.47194 7.53284 7.32122C7.18106 8.1705 7 9.08075 7 10Z" stroke="#777777" stroke-width="2" stroke-linecap="round" stroke-linejoin="round"/>
</g>
</g>
<defs>
<filter id="filter0_d_980_2106" x="0" y="0" width="32" height="32" filterUnits="userSpaceOnUse" color-interpolation-filters="sRGB">
<feFlood flood-opacity="0" result="BackgroundImageFix"/>
<feColorMatrix in="SourceAlpha" type="matrix" values="0 0 0 0 0 0 0 0 0 0 0 0 0 0 0 0 0 0 127 0" result="hardAlpha"/>
<feOffset dy="4"/>
<feGaussianBlur stdDeviation="2"/>
<feComposite in2="hardAlpha" operator="out"/>
<feColorMatrix type="matrix" values="0 0 0 0 0 0 0 0 0 0 0 0 0 0 0 0 0 0 0.25 0"/>
<feBlend mode="normal" in2="BackgroundImageFix" result="effect1_dropShadow_980_2106"/>
<feBlend mode="normal" in="SourceGraphic" in2="effect1_dropShadow_980_2106" result="shape"/>
</filter>
<filter id="filter1_d_980_2106" x="0" y="0" width="32" height="32" filterUnits="userSpaceOnUse" color-interpolation-filters="sRGB">
<feFlood flood-opacity="0" result="BackgroundImageFix"/>
<feColorMatrix in="SourceAlpha" type="matrix" values="0 0 0 0 0 0 0 0 0 0 0 0 0 0 0 0 0 0 127 0" result="hardAlpha"/>
<feOffset dy="4"/>
<feGaussianBlur stdDeviation="2"/>
<feComposite in2="hardAlpha" operator="out"/>
<feColorMatrix type="matrix" values="0 0 0 0 0 0 0 0 0 0 0 0 0 0 0 0 0 0 0.25 0"/>
<feBlend mode="normal" in2="BackgroundImageFix" result="effect1_dropShadow_980_2106"/>
<feBlend mode="normal" in="SourceGraphic" in2="effect1_dropShadow_980_2106" result="shape"/>
</filter>
<clipPath id="clip0_980_2106">
<rect width="24" height="24" fill="white" transform="translate(4)"/>
</clipPath>
</defs>
</svg>
