<svg width="18" height="18" viewBox="0 0 18 18" fill="none" xmlns="http://www.w3.org/2000/svg">
<path d="M16.4236 16.1998L11.5892 11.3998M1.92041 7.39981C1.92041 8.13521 2.0663 8.86341 2.34974 9.54283C2.63318 10.2223 3.04863 10.8396 3.57237 11.3596C4.09611 11.8796 4.71787 12.2921 5.40216 12.5735C6.08646 12.855 6.81988 12.9998 7.56055 12.9998C8.30123 12.9998 9.03465 12.855 9.71894 12.5735C10.4032 12.2921 11.025 11.8796 11.5487 11.3596C12.0725 10.8396 12.4879 10.2223 12.7714 9.54283C13.0548 8.86341 13.2007 8.13521 13.2007 7.39981C13.2007 6.6644 13.0548 5.9362 12.7714 5.25678C12.4879 4.57735 12.0725 3.96001 11.5487 3.44001C11.025 2.92 10.4032 2.50751 9.71894 2.22608C9.03465 1.94465 8.30123 1.7998 7.56055 1.7998C6.81988 1.7998 6.08646 1.94465 5.40216 2.22608C4.71787 2.50751 4.09611 2.92 3.57237 3.44001C3.04863 3.96001 2.63318 4.57735 2.34974 5.25678C2.0663 5.9362 1.92041 6.6644 1.92041 7.39981Z" stroke="#989898" stroke-width="2" stroke-linecap="round" stroke-linejoin="round"/>
</svg>
